M48
;Layer_Color=9474304
;FILE_FORMAT=4:4
METRIC,TZ
;TYPE=PLATED
T01F00S00C0.3000
T02F00S00C0.4000
T03F00S00C3.2000
%
T01
X-177546Y-116586
X-185166Y-97282
X-186690Y-88900
X-194818Y-89154
X-196850Y-63754
X-196596Y-55118
X-191008Y10668
X-176530Y-2794
X-169164Y-14478
X-167894Y18796
X-144684Y24559
X-138176Y19558
X-144780Y7874
X-132243Y1672
X-126583Y11176
X-112776Y15748
X-81280Y12700
X-81534Y4318
X-90424Y-21118
X-80772Y-31242
X-91694Y-61468
X-100076Y-65786
X-104050Y-74930
X-85852Y-81026
X-130810Y-80264
X-141478Y-68834
X-137160Y-49784
Y-41656
X-123734Y-44890
X-119380Y-37565
X-164806Y-44744
X-141478Y-110236
X-133096Y-109474
X-133350Y-116332
X-110998Y-105410
X-103378Y-111506
X-98806Y-133604
X-84836Y-143510
X-29210Y-133858
Y-126746
X-32218Y-116843
X-27940Y-111252
X-8890Y-99822
X-9144Y-90932
X762Y-91948
X610Y-85192
X762Y-99822
X19558Y-104902
X26162
X51490Y-111227
X56388Y-106934
X44704Y-137629
X25600Y-159149
X15186Y-158895
X13970Y-61214
X21590
Y-53340
X13970
X-12954Y-56134
Y-49784
X-30378Y-67243
X-30480Y-74422
X-28956Y-19050
X-46482Y-10668
X-26924Y6350
X-27940Y13970
X-34290
Y23928
X-27940
X-24420Y78840
X-36830Y78740
X24130Y78958
X36830
X27432Y19050
X65532
X59690Y25654
X61214Y-22860
Y-31496
X53340
X45466
X37846
X38100Y-39370
X47244Y-39624
X51562Y-44704
X51308Y-55880
X59182
X61214Y-39624
X44196Y-70866
X37592
X30480Y-70612
X184404Y-5334
X185420Y8890
X-118872Y57658
X-127762Y57912
X-137160Y57404
X-105194Y-193764
X-105448Y193585
T02
X-83621Y-190821
Y-183200
Y-175581
X-76001
Y-167960
Y-160340
X-68381
Y-167960
Y-175581
Y-183200
Y-190821
X-76001
Y-183200
X-83621Y-167960
Y-160340
X-90424Y-48260
X-90319Y-40894
X-90424Y-34036
X-98044
X-98056Y-40894
X-105474Y-41063
Y-34036
X-105664Y-48006
X-98298Y-48514
X-87122Y71882
Y79502
Y87122
Y94742
Y102362
Y109982
X-47498Y111760
X-47546Y104140
Y96520
X-38100Y101600
X-30480
X-22860
Y109220
X-22863Y116835
X-30480Y116840
X-38100
X-37582Y109220
X-30480
X-10668Y106934
Y114554
Y99314
X10922
Y106934
Y114554
X22860Y116840
Y109220
X30480
X38100
Y101600
X30480
X22860
X30480Y116840
X38100
X49334Y116944
X49022Y108712
X49276Y100584
X67564Y96266
X64516Y87376
X73914
Y77978
X64262Y78232
X65786Y53086
X57150Y52578
X48006
X38608Y52324
X35560Y40640
X43180
X50800
X58420
X66040
X27940
X20320
X12700
X5080
X-2540
X-10160
X-17780
X-25400
X-33020
X-40640
X-47546
X762Y74168
Y83058
X3810Y132334
X11430
X10683Y139134
X3810Y139954
X-49530
X-48768Y133350
X-57150
Y139954
X-66857Y162239
X-74477
X-82097
X71374Y160782
X78994
Y168402
X71374
X86614
Y160782
X177800Y45720
Y38100
Y30480
X185420
Y38100
Y45720
X193040
Y38100
Y30480
Y-30480
Y-38100
X185420
X177800
Y-45720
X185420
X193040
X185420Y-30480
X177800
X81048Y-161836
X73428
X65808
X65786Y-169672
X73406
Y-177292
X65786
Y-184912
X73406
X81026
Y-177292
Y-169672
Y-192532
X73406
X65786
X71374Y176022
Y183642
Y191262
X78994
X86614
Y183642
X86669Y176089
X78994Y176022
Y183642
X-66857Y185100
Y177479
X-74477
Y169860
X-66857
X-82097
Y177479
Y185100
X-74477
Y192719
X-82097
X-66857
T03
X-155000Y-155000
X155000
Y155000
X-155000
M30
