G04*
G04 #@! TF.GenerationSoftware,Altium Limited,Altium Designer,23.8.1 (32)*
G04*
G04 Layer_Color=8388736*
%FSLAX44Y44*%
%MOMM*%
G71*
G04*
G04 #@! TF.SameCoordinates,63047707-2AD3-47D3-9D9A-8CE44674FD2A*
G04*
G04*
G04 #@! TF.FilePolarity,Negative*
G04*
G01*
G75*
G04:AMPARAMS|DCode=16|XSize=2.16mm|YSize=2.26mm|CornerRadius=0.54mm|HoleSize=0mm|Usage=FLASHONLY|Rotation=0.000|XOffset=0mm|YOffset=0mm|HoleType=Round|Shape=RoundedRectangle|*
%AMROUNDEDRECTD16*
21,1,2.1600,1.1800,0,0,0.0*
21,1,1.0800,2.2600,0,0,0.0*
1,1,1.0800,0.5400,-0.5900*
1,1,1.0800,-0.5400,-0.5900*
1,1,1.0800,-0.5400,0.5900*
1,1,1.0800,0.5400,0.5900*
%
%ADD16ROUNDEDRECTD16*%
%ADD19R,0.4682X0.4725*%
%ADD29R,1.0414X1.5494*%
%ADD30R,3.0734X5.0622*%
%ADD31R,3.0734X5.1562*%
%ADD32R,2.5400X2.5400*%
%ADD33R,0.9524X0.8524*%
G04:AMPARAMS|DCode=34|XSize=0.5524mm|YSize=1.6524mm|CornerRadius=0.1762mm|HoleSize=0mm|Usage=FLASHONLY|Rotation=270.000|XOffset=0mm|YOffset=0mm|HoleType=Round|Shape=RoundedRectangle|*
%AMROUNDEDRECTD34*
21,1,0.5524,1.3000,0,0,270.0*
21,1,0.2000,1.6524,0,0,270.0*
1,1,0.3524,-0.6500,-0.1000*
1,1,0.3524,-0.6500,0.1000*
1,1,0.3524,0.6500,0.1000*
1,1,0.3524,0.6500,-0.1000*
%
%ADD34ROUNDEDRECTD34*%
G04:AMPARAMS|DCode=35|XSize=1.1524mm|YSize=1.6524mm|CornerRadius=0.3262mm|HoleSize=0mm|Usage=FLASHONLY|Rotation=90.000|XOffset=0mm|YOffset=0mm|HoleType=Round|Shape=RoundedRectangle|*
%AMROUNDEDRECTD35*
21,1,1.1524,1.0000,0,0,90.0*
21,1,0.5000,1.6524,0,0,90.0*
1,1,0.6524,0.5000,0.2500*
1,1,0.6524,0.5000,-0.2500*
1,1,0.6524,-0.5000,-0.2500*
1,1,0.6524,-0.5000,0.2500*
%
%ADD35ROUNDEDRECTD35*%
%ADD36R,1.2000X1.7000*%
%ADD37R,3.2000X5.2000*%
G04:AMPARAMS|DCode=38|XSize=0.5524mm|YSize=1.6524mm|CornerRadius=0.1762mm|HoleSize=0mm|Usage=FLASHONLY|Rotation=0.000|XOffset=0mm|YOffset=0mm|HoleType=Round|Shape=RoundedRectangle|*
%AMROUNDEDRECTD38*
21,1,0.5524,1.3000,0,0,0.0*
21,1,0.2000,1.6524,0,0,0.0*
1,1,0.3524,0.1000,-0.6500*
1,1,0.3524,-0.1000,-0.6500*
1,1,0.3524,-0.1000,0.6500*
1,1,0.3524,0.1000,0.6500*
%
%ADD38ROUNDEDRECTD38*%
G04:AMPARAMS|DCode=39|XSize=1.1524mm|YSize=1.6524mm|CornerRadius=0.3262mm|HoleSize=0mm|Usage=FLASHONLY|Rotation=0.000|XOffset=0mm|YOffset=0mm|HoleType=Round|Shape=RoundedRectangle|*
%AMROUNDEDRECTD39*
21,1,1.1524,1.0000,0,0,0.0*
21,1,0.5000,1.6524,0,0,0.0*
1,1,0.6524,0.2500,-0.5000*
1,1,0.6524,-0.2500,-0.5000*
1,1,0.6524,-0.2500,0.5000*
1,1,0.6524,0.2500,0.5000*
%
%ADD39ROUNDEDRECTD39*%
%ADD40R,1.6524X4.1524*%
G04:AMPARAMS|DCode=41|XSize=0.6524mm|YSize=0.7524mm|CornerRadius=0.2012mm|HoleSize=0mm|Usage=FLASHONLY|Rotation=90.000|XOffset=0mm|YOffset=0mm|HoleType=Round|Shape=RoundedRectangle|*
%AMROUNDEDRECTD41*
21,1,0.6524,0.3500,0,0,90.0*
21,1,0.2500,0.7524,0,0,90.0*
1,1,0.4024,0.1750,0.1250*
1,1,0.4024,0.1750,-0.1250*
1,1,0.4024,-0.1750,-0.1250*
1,1,0.4024,-0.1750,0.1250*
%
%ADD41ROUNDEDRECTD41*%
G04:AMPARAMS|DCode=42|XSize=1.1684mm|YSize=2.032mm|CornerRadius=0.3302mm|HoleSize=0mm|Usage=FLASHONLY|Rotation=270.000|XOffset=0mm|YOffset=0mm|HoleType=Round|Shape=RoundedRectangle|*
%AMROUNDEDRECTD42*
21,1,1.1684,1.3716,0,0,270.0*
21,1,0.5080,2.0320,0,0,270.0*
1,1,0.6604,-0.6858,-0.2540*
1,1,0.6604,-0.6858,0.2540*
1,1,0.6604,0.6858,0.2540*
1,1,0.6604,0.6858,-0.2540*
%
%ADD42ROUNDEDRECTD42*%
G04:AMPARAMS|DCode=43|XSize=1.6524mm|YSize=1.1524mm|CornerRadius=0.3262mm|HoleSize=0mm|Usage=FLASHONLY|Rotation=180.000|XOffset=0mm|YOffset=0mm|HoleType=Round|Shape=RoundedRectangle|*
%AMROUNDEDRECTD43*
21,1,1.6524,0.5000,0,0,180.0*
21,1,1.0000,1.1524,0,0,180.0*
1,1,0.6524,-0.5000,0.2500*
1,1,0.6524,0.5000,0.2500*
1,1,0.6524,0.5000,-0.2500*
1,1,0.6524,-0.5000,-0.2500*
%
%ADD43ROUNDEDRECTD43*%
G04:AMPARAMS|DCode=44|XSize=1.5494mm|YSize=1.8034mm|CornerRadius=0.4255mm|HoleSize=0mm|Usage=FLASHONLY|Rotation=90.000|XOffset=0mm|YOffset=0mm|HoleType=Round|Shape=RoundedRectangle|*
%AMROUNDEDRECTD44*
21,1,1.5494,0.9525,0,0,90.0*
21,1,0.6985,1.8034,0,0,90.0*
1,1,0.8509,0.4763,0.3493*
1,1,0.8509,0.4763,-0.3493*
1,1,0.8509,-0.4763,-0.3493*
1,1,0.8509,-0.4763,0.3493*
%
%ADD44ROUNDEDRECTD44*%
%ADD45C,5.2324*%
D16*
X-98806Y-40894D02*
D03*
X-49806D02*
D03*
D19*
X-95801Y-14478D02*
D03*
X-103843D02*
D03*
D29*
X-105283Y194945D02*
D03*
Y-192659D02*
D03*
D30*
X78613Y176111D02*
D03*
X73715Y-176695D02*
D03*
X-75383Y178143D02*
D03*
D31*
X-75819Y-175387D02*
D03*
D32*
X30480Y109220D02*
D03*
X-30480D02*
D03*
D33*
X-105000Y0D02*
D03*
X-95000D02*
D03*
D34*
X-158750Y9840D02*
D03*
Y-160D02*
D03*
Y-20160D02*
D03*
Y-10160D02*
D03*
Y-30160D02*
D03*
Y-76360D02*
D03*
Y-86360D02*
D03*
Y-96360D02*
D03*
D35*
X-195580Y-41910D02*
D03*
Y21590D02*
D03*
Y-64770D02*
D03*
Y-107950D02*
D03*
D36*
X-105143Y194792D02*
D03*
Y-192812D02*
D03*
D37*
X73152Y-177038D02*
D03*
X-75692Y-176022D02*
D03*
X-74676Y177546D02*
D03*
X78740Y176022D02*
D03*
D38*
X-25000Y158750D02*
D03*
X25000D02*
D03*
X15000D02*
D03*
X-5000D02*
D03*
X5000D02*
D03*
X-15000D02*
D03*
X15000Y-158750D02*
D03*
X-5000D02*
D03*
X5000D02*
D03*
X-15000D02*
D03*
X-25000D02*
D03*
X25000D02*
D03*
D39*
X-36910Y195580D02*
D03*
X36910D02*
D03*
X-36910Y-195580D02*
D03*
X36910D02*
D03*
D40*
X3082Y-98552D02*
D03*
X39082D02*
D03*
D41*
X15916Y-53340D02*
D03*
X42504D02*
D03*
X5674D02*
D03*
X-20914D02*
D03*
D42*
X185420Y57912D02*
D03*
Y18288D02*
D03*
Y-18288D02*
D03*
Y-57912D02*
D03*
D43*
X-68326Y-132588D02*
D03*
X-68325Y-107187D02*
D03*
X-84836Y-132588D02*
D03*
X-84835Y-107187D02*
D03*
X-84836Y-70358D02*
D03*
X-84837Y-95759D02*
D03*
X-68326Y-70358D02*
D03*
X-68327Y-95759D02*
D03*
D44*
X-45720Y-96520D02*
D03*
Y-137160D02*
D03*
D45*
X-155000Y-155000D02*
D03*
X155000D02*
D03*
Y155000D02*
D03*
X-155000D02*
D03*
M02*
