G04*
G04 #@! TF.GenerationSoftware,Altium Limited,Altium Designer,23.8.1 (32)*
G04*
G04 Layer_Physical_Order=4*
G04 Layer_Color=16711680*
%FSLAX44Y44*%
%MOMM*%
G71*
G04*
G04 #@! TF.SameCoordinates,63047707-2AD3-47D3-9D9A-8CE44674FD2A*
G04*
G04*
G04 #@! TF.FilePolarity,Positive*
G04*
G01*
G75*
%ADD10C,0.2540*%
%ADD11C,0.2000*%
%ADD14C,0.1524*%
%ADD19R,0.4682X0.4725*%
%ADD46C,0.1500*%
%ADD51C,0.5080*%
%ADD53C,0.5000*%
%ADD54C,0.1016*%
%ADD55C,5.0800*%
%ADD56C,0.4500*%
%ADD57C,0.6000*%
%ADD58C,0.1778*%
%ADD59R,1.1000X0.6000*%
%ADD60O,1.3000X0.5000*%
G04:AMPARAMS|DCode=61|XSize=0.508mm|YSize=0.508mm|CornerRadius=0.127mm|HoleSize=0mm|Usage=FLASHONLY|Rotation=0.000|XOffset=0mm|YOffset=0mm|HoleType=Round|Shape=RoundedRectangle|*
%AMROUNDEDRECTD61*
21,1,0.5080,0.2540,0,0,0.0*
21,1,0.2540,0.5080,0,0,0.0*
1,1,0.2540,0.1270,-0.1270*
1,1,0.2540,-0.1270,-0.1270*
1,1,0.2540,-0.1270,0.1270*
1,1,0.2540,0.1270,0.1270*
%
%ADD61ROUNDEDRECTD61*%
G04:AMPARAMS|DCode=62|XSize=0.7mm|YSize=1.3mm|CornerRadius=0.175mm|HoleSize=0mm|Usage=FLASHONLY|Rotation=0.000|XOffset=0mm|YOffset=0mm|HoleType=Round|Shape=RoundedRectangle|*
%AMROUNDEDRECTD62*
21,1,0.7000,0.9500,0,0,0.0*
21,1,0.3500,1.3000,0,0,0.0*
1,1,0.3500,0.1750,-0.4750*
1,1,0.3500,-0.1750,-0.4750*
1,1,0.3500,-0.1750,0.4750*
1,1,0.3500,0.1750,0.4750*
%
%ADD62ROUNDEDRECTD62*%
G04:AMPARAMS|DCode=63|XSize=5.08mm|YSize=2.032mm|CornerRadius=0.508mm|HoleSize=0mm|Usage=FLASHONLY|Rotation=270.000|XOffset=0mm|YOffset=0mm|HoleType=Round|Shape=RoundedRectangle|*
%AMROUNDEDRECTD63*
21,1,5.0800,1.0160,0,0,270.0*
21,1,4.0640,2.0320,0,0,270.0*
1,1,1.0160,-0.5080,-2.0320*
1,1,1.0160,-0.5080,2.0320*
1,1,1.0160,0.5080,2.0320*
1,1,1.0160,0.5080,-2.0320*
%
%ADD63ROUNDEDRECTD63*%
G04:AMPARAMS|DCode=64|XSize=0.508mm|YSize=0.508mm|CornerRadius=0.127mm|HoleSize=0mm|Usage=FLASHONLY|Rotation=90.000|XOffset=0mm|YOffset=0mm|HoleType=Round|Shape=RoundedRectangle|*
%AMROUNDEDRECTD64*
21,1,0.5080,0.2540,0,0,90.0*
21,1,0.2540,0.5080,0,0,90.0*
1,1,0.2540,0.1270,0.1270*
1,1,0.2540,0.1270,-0.1270*
1,1,0.2540,-0.1270,-0.1270*
1,1,0.2540,-0.1270,0.1270*
%
%ADD64ROUNDEDRECTD64*%
%ADD65R,1.9000X0.4000*%
%ADD66O,0.5000X1.3000*%
G04:AMPARAMS|DCode=67|XSize=0.9561mm|YSize=1.6098mm|CornerRadius=0.239mm|HoleSize=0mm|Usage=FLASHONLY|Rotation=270.000|XOffset=0mm|YOffset=0mm|HoleType=Round|Shape=RoundedRectangle|*
%AMROUNDEDRECTD67*
21,1,0.9561,1.1318,0,0,270.0*
21,1,0.4780,1.6098,0,0,270.0*
1,1,0.4780,-0.5659,-0.2390*
1,1,0.4780,-0.5659,0.2390*
1,1,0.4780,0.5659,0.2390*
1,1,0.4780,0.5659,-0.2390*
%
%ADD67ROUNDEDRECTD67*%
G04:AMPARAMS|DCode=68|XSize=2.3mm|YSize=2.3mm|CornerRadius=0.575mm|HoleSize=0mm|Usage=FLASHONLY|Rotation=0.000|XOffset=0mm|YOffset=0mm|HoleType=Round|Shape=RoundedRectangle|*
%AMROUNDEDRECTD68*
21,1,2.3000,1.1500,0,0,0.0*
21,1,1.1500,2.3000,0,0,0.0*
1,1,1.1500,0.5750,-0.5750*
1,1,1.1500,-0.5750,-0.5750*
1,1,1.1500,-0.5750,0.5750*
1,1,1.1500,0.5750,0.5750*
%
%ADD68ROUNDEDRECTD68*%
G04:AMPARAMS|DCode=69|XSize=0.6mm|YSize=0.889mm|CornerRadius=0.15mm|HoleSize=0mm|Usage=FLASHONLY|Rotation=0.000|XOffset=0mm|YOffset=0mm|HoleType=Round|Shape=RoundedRectangle|*
%AMROUNDEDRECTD69*
21,1,0.6000,0.5890,0,0,0.0*
21,1,0.3000,0.8890,0,0,0.0*
1,1,0.3000,0.1500,-0.2945*
1,1,0.3000,-0.1500,-0.2945*
1,1,0.3000,-0.1500,0.2945*
1,1,0.3000,0.1500,0.2945*
%
%ADD69ROUNDEDRECTD69*%
%ADD70O,0.3048X1.3716*%
%ADD71O,1.3716X0.3048*%
%ADD72C,4.0000*%
%ADD73C,0.6350*%
%ADD74C,0.4000*%
%ADD75C,0.6000*%
%ADD76C,0.7000*%
%ADD77C,0.8000*%
%ADD78C,1.1430*%
G36*
X25547Y156196D02*
X25734Y156096D01*
X25963Y155941D01*
X26235Y155730D01*
X26904Y155141D01*
X27742Y154330D01*
X15946Y149962D01*
X15530Y150333D01*
X15049Y150679D01*
X14502Y151000D01*
X13890Y151297D01*
X13212Y151569D01*
X12469Y151817D01*
X11660Y152040D01*
X9847Y152411D01*
X8842Y152561D01*
X25240Y156162D01*
X25300Y156229D01*
X25403Y156240D01*
X25547Y156196D01*
D02*
G37*
G36*
X-35729Y156057D02*
X-35687Y155912D01*
X-35592Y155728D01*
X-35445Y155503D01*
X-35246Y155238D01*
X-34692Y154588D01*
X-33471Y153314D01*
X-46284Y149962D01*
X-46722Y150368D01*
X-47192Y150741D01*
X-47695Y151081D01*
X-48229Y151390D01*
X-48797Y151666D01*
X-49396Y151909D01*
X-50028Y152121D01*
X-50693Y152300D01*
X-51389Y152446D01*
X-52118Y152561D01*
X-35721Y156162D01*
X-35729Y156057D01*
D02*
G37*
G36*
X-7977Y152895D02*
X-8302Y152688D01*
X-8588Y152448D01*
X-8837Y152176D01*
X-9047Y151871D01*
X-9219Y151534D01*
X-9353Y151164D01*
X-9449Y150762D01*
X-9506Y150327D01*
X-9525Y149860D01*
X-20955D01*
X-20974Y150327D01*
X-21031Y150762D01*
X-21127Y151164D01*
X-21261Y151534D01*
X-21433Y151871D01*
X-21643Y152176D01*
X-21892Y152448D01*
X-22178Y152688D01*
X-22503Y152895D01*
X-22867Y153069D01*
X-7613D01*
X-7977Y152895D01*
D02*
G37*
G36*
X54705Y153889D02*
X54832Y153708D01*
X54941Y153402D01*
X55034Y152972D01*
X55110Y152418D01*
X55211Y150936D01*
X55245Y148958D01*
X43815D01*
X43770Y149536D01*
X43635Y150065D01*
X43411Y150547D01*
X43096Y150980D01*
X42692Y151364D01*
X42197Y151700D01*
X41613Y151988D01*
X40939Y152227D01*
X40175Y152418D01*
X39322Y152561D01*
X54401Y153879D01*
X54562Y153946D01*
X54705Y153889D01*
D02*
G37*
G36*
X-155058Y203665D02*
X-55585D01*
X-55275Y202395D01*
X-56542Y200499D01*
X-57015Y198120D01*
Y157480D01*
X-56542Y155101D01*
X-55195Y153085D01*
X-53179Y151738D01*
X-52719Y151646D01*
X-52711Y151634D01*
X-52485Y151594D01*
X-52288Y151474D01*
X-51588Y151364D01*
X-50949Y151230D01*
X-50346Y151067D01*
X-49778Y150877D01*
X-49245Y150661D01*
X-48746Y150418D01*
X-48279Y150149D01*
X-47844Y149854D01*
X-47439Y149532D01*
X-47032Y149155D01*
X-46985Y149138D01*
X-43623Y145776D01*
Y136063D01*
X-44463Y135607D01*
X-44882Y135551D01*
X-45253Y135949D01*
Y139954D01*
X-45578Y141591D01*
X-46506Y142978D01*
X-47893Y143906D01*
X-49530Y144231D01*
X-50774Y143984D01*
X-52019Y144231D01*
X-56134D01*
X-56642Y144130D01*
X-57150Y144231D01*
X-58787Y143906D01*
X-60174Y142978D01*
X-61102Y141591D01*
X-61427Y139954D01*
Y133350D01*
X-61102Y131713D01*
X-60174Y130326D01*
X-58787Y129398D01*
X-57150Y129073D01*
X-52916D01*
X-52098Y129235D01*
X-52065Y129185D01*
X-50902Y128408D01*
X-49530Y128135D01*
X-48158Y128408D01*
X-46995Y129185D01*
X-46628Y129735D01*
X-45744Y130326D01*
X-44816Y131713D01*
X-44491Y133350D01*
X-43249Y133618D01*
X-42713Y132323D01*
X-41633Y130917D01*
X-40227Y129837D01*
X-39637Y129593D01*
X-39365Y129185D01*
X-39191Y129069D01*
X-39577Y127799D01*
X-40268D01*
X-40269Y127799D01*
X-40299Y127793D01*
X-43434D01*
X-44612Y127559D01*
X-45611Y126891D01*
X-49723Y122779D01*
X-50391Y121780D01*
X-50625Y120602D01*
Y115859D01*
X-61722D01*
X-63291Y115547D01*
X-64620Y114658D01*
X-65317Y113616D01*
X-73477D01*
X-74806Y113351D01*
X-75933Y112599D01*
X-76685Y111472D01*
X-76950Y110143D01*
Y105363D01*
X-76685Y104034D01*
X-75933Y102907D01*
X-74806Y102154D01*
X-73477Y101890D01*
X-66667D01*
X-66538Y101864D01*
X-51788D01*
X-51645Y101721D01*
Y96520D01*
X-51562Y96104D01*
Y95721D01*
X-51416Y95367D01*
X-51333Y94951D01*
X-51097Y94599D01*
X-50951Y94245D01*
X-50680Y93974D01*
X-50444Y93622D01*
X-50092Y93386D01*
X-49821Y93115D01*
X-49467Y92969D01*
X-49114Y92733D01*
X-48699Y92650D01*
X-48345Y92504D01*
X-47962D01*
X-47546Y92421D01*
X-47130Y92504D01*
X-46747D01*
X-46393Y92650D01*
X-45978Y92733D01*
X-45625Y92969D01*
X-45271Y93115D01*
X-45000Y93386D01*
X-44648Y93622D01*
X-44412Y93974D01*
X-44141Y94245D01*
X-43995Y94599D01*
X-43759Y94951D01*
X-43677Y95367D01*
X-43530Y95721D01*
Y96104D01*
X-43447Y96520D01*
Y102139D01*
X-43288Y102376D01*
X-42937Y104140D01*
X-43288Y105904D01*
X-43447Y106142D01*
Y111519D01*
X-43399Y111760D01*
X-43482Y112176D01*
Y112559D01*
X-43629Y112913D01*
X-43711Y113329D01*
X-43947Y113681D01*
X-44093Y114035D01*
X-44364Y114305D01*
X-44467Y114459D01*
Y119327D01*
X-42159Y121635D01*
X-40275D01*
X-40244Y121641D01*
X-29750D01*
X-29131Y121764D01*
X-28664Y121671D01*
X-27291Y121944D01*
X-26126Y122722D01*
X-23475Y125374D01*
X-14767Y116666D01*
Y106934D01*
Y99314D01*
X-14684Y98898D01*
Y98515D01*
X-14538Y98161D01*
X-14455Y97746D01*
X-14219Y97393D01*
X-14073Y97039D01*
X-13802Y96768D01*
X-13566Y96416D01*
X-13214Y96180D01*
X-12943Y95909D01*
X-12589Y95763D01*
X-12236Y95527D01*
X-11820Y95444D01*
X-11467Y95298D01*
X-11084D01*
X-10668Y95215D01*
X-10252Y95298D01*
X-9869D01*
X-9516Y95444D01*
X-9100Y95527D01*
X-8747Y95763D01*
X-8393Y95909D01*
X-8122Y96180D01*
X-7770Y96416D01*
X-7534Y96768D01*
X-7263Y97039D01*
X-7117Y97393D01*
X-6881Y97746D01*
X-6798Y98161D01*
X-6652Y98515D01*
Y98898D01*
X-6569Y99314D01*
Y106934D01*
Y118364D01*
X-6881Y119933D01*
X-7770Y121262D01*
X-14568Y128061D01*
X-13759Y129047D01*
X-12802Y128408D01*
X-11430Y128135D01*
X-10058Y128408D01*
X-8895Y129185D01*
X-8623Y129593D01*
X-8033Y129837D01*
X-6627Y130917D01*
X-5547Y132323D01*
X-4868Y133962D01*
X-4637Y135720D01*
Y146050D01*
X-4868Y147808D01*
X-5547Y149446D01*
X-6627Y150853D01*
X-6668Y150895D01*
X-6822Y151284D01*
X-6826Y151585D01*
X-6543Y152565D01*
X-5765Y153085D01*
X-4418Y155101D01*
X-3945Y157480D01*
Y198120D01*
X-4418Y200499D01*
X-5685Y202395D01*
X-5375Y203665D01*
X5375D01*
X5685Y202395D01*
X4418Y200499D01*
X3945Y198120D01*
Y157480D01*
X4418Y155101D01*
X5765Y153085D01*
X7782Y151738D01*
X8241Y151646D01*
X8249Y151634D01*
X8480Y151593D01*
X8681Y151473D01*
X9655Y151328D01*
X11403Y150970D01*
X12149Y150764D01*
X12833Y150536D01*
X13444Y150291D01*
X13982Y150030D01*
X14447Y149757D01*
X14841Y149474D01*
X15214Y149141D01*
X15257Y149126D01*
X17337Y147046D01*
Y135720D01*
X17568Y133962D01*
X18247Y132323D01*
X19327Y130917D01*
X20733Y129837D01*
X20756Y129571D01*
X19595Y128301D01*
X18034D01*
X18034Y128301D01*
X16856Y128067D01*
X15857Y127399D01*
X8745Y120287D01*
X8077Y119288D01*
X7843Y118110D01*
Y117182D01*
X7788Y117100D01*
X7517Y116829D01*
X7371Y116475D01*
X7135Y116123D01*
X7053Y115707D01*
X6906Y115353D01*
Y114970D01*
X6823Y114554D01*
Y106934D01*
Y99314D01*
X6906Y98898D01*
Y98515D01*
X7053Y98161D01*
X7135Y97746D01*
X7371Y97393D01*
X7517Y97039D01*
X7788Y96768D01*
X8024Y96416D01*
X8376Y96180D01*
X8647Y95909D01*
X9001Y95763D01*
X9354Y95527D01*
X9769Y95444D01*
X10123Y95298D01*
X10506D01*
X10922Y95215D01*
X11338Y95298D01*
X11721D01*
X12075Y95444D01*
X12491Y95527D01*
X12843Y95763D01*
X13197Y95909D01*
X13468Y96180D01*
X13820Y96416D01*
X14056Y96768D01*
X14327Y97039D01*
X14473Y97393D01*
X14709Y97746D01*
X14792Y98161D01*
X14938Y98515D01*
Y98898D01*
X15021Y99314D01*
Y106934D01*
Y114554D01*
X14938Y114970D01*
Y115353D01*
X14792Y115707D01*
X14709Y116123D01*
X14473Y116475D01*
X14327Y116829D01*
X14161Y116994D01*
X19309Y122143D01*
X21427D01*
X21438Y122141D01*
X21438Y122141D01*
X30020D01*
X30375Y121904D01*
X31748Y121631D01*
X33121Y121904D01*
X34286Y122682D01*
X37104Y125501D01*
X44456Y118150D01*
X44216Y116944D01*
X44605Y114985D01*
X44923Y114509D01*
Y111614D01*
X44293Y110671D01*
X43904Y108712D01*
X44293Y106753D01*
X44923Y105810D01*
Y100838D01*
X45235Y99270D01*
X45862Y98331D01*
X45871Y98309D01*
X45888Y98292D01*
X46124Y97940D01*
X46378Y97686D01*
X46730Y97450D01*
X47001Y97179D01*
X47355Y97033D01*
X46904Y95807D01*
X18182D01*
X17289Y95629D01*
X16531Y95123D01*
X11666Y90258D01*
X11430Y90305D01*
X10058Y90032D01*
X8895Y89255D01*
X8118Y88092D01*
X7845Y86720D01*
Y78720D01*
X8118Y77348D01*
X8895Y76185D01*
X10058Y75408D01*
X11430Y75135D01*
X12802Y75408D01*
X13965Y76185D01*
X14742Y77348D01*
X15015Y78720D01*
Y86720D01*
X14968Y86956D01*
X19149Y91137D01*
X22300D01*
X22511Y89867D01*
X21595Y89255D01*
X20818Y88092D01*
X20545Y86720D01*
Y78720D01*
X20818Y77348D01*
X21595Y76185D01*
X22758Y75408D01*
X24130Y75135D01*
X25502Y75408D01*
X26665Y76185D01*
X27442Y77348D01*
X27715Y78720D01*
Y86720D01*
X27442Y88092D01*
X26665Y89255D01*
X25749Y89867D01*
X25960Y91137D01*
X35000D01*
X35211Y89867D01*
X34295Y89255D01*
X33518Y88092D01*
X33245Y86720D01*
Y78720D01*
X33518Y77348D01*
X34295Y76185D01*
X35458Y75408D01*
X36830Y75135D01*
X38202Y75408D01*
X39365Y76185D01*
X40142Y77348D01*
X40415Y78720D01*
Y86720D01*
X40142Y88092D01*
X39365Y89255D01*
X38449Y89867D01*
X38660Y91137D01*
X50261D01*
X53545Y87853D01*
Y73406D01*
X53723Y72512D01*
X54229Y71755D01*
X54815Y71169D01*
Y69856D01*
X54250Y69524D01*
X53545Y69328D01*
X52962Y69717D01*
X52070Y69895D01*
X49530D01*
X48638Y69717D01*
X47882Y69212D01*
X47377Y68456D01*
X47199Y67564D01*
Y65024D01*
X47377Y64132D01*
X47882Y63376D01*
X48638Y62871D01*
X49530Y62693D01*
X52070D01*
X52962Y62871D01*
X53718Y63376D01*
X53960Y63738D01*
X55260D01*
X55502Y63376D01*
X56258Y62871D01*
X57150Y62693D01*
X59690D01*
X60582Y62871D01*
X61338Y63376D01*
X61843Y64132D01*
X62021Y65024D01*
Y67564D01*
X61843Y68456D01*
X61338Y69212D01*
X60582Y69717D01*
X59690Y69895D01*
X59485D01*
Y72136D01*
X59307Y73029D01*
X58801Y73787D01*
X58215Y74373D01*
Y88820D01*
X58037Y89713D01*
X57531Y90471D01*
X52879Y95123D01*
X52122Y95629D01*
X51552Y95742D01*
X51205Y96741D01*
X51197Y97033D01*
X51551Y97179D01*
X51822Y97450D01*
X52174Y97686D01*
X52410Y98038D01*
X52681Y98309D01*
X52827Y98663D01*
X53063Y99016D01*
X53145Y99431D01*
X53292Y99785D01*
Y100168D01*
X53375Y100584D01*
X53292Y101000D01*
Y101383D01*
X53145Y101736D01*
X53121Y101861D01*
Y103594D01*
X59838D01*
X59957Y103415D01*
X61084Y102662D01*
X62413Y102398D01*
X73731D01*
X75060Y102662D01*
X76187Y103415D01*
X76939Y104542D01*
X77204Y105871D01*
Y110651D01*
X76939Y111980D01*
X76187Y113107D01*
X75060Y113860D01*
X73731Y114124D01*
X67259D01*
X62956Y118427D01*
X61295Y119537D01*
X59337Y119926D01*
X53590D01*
X52953Y120563D01*
X52875Y120615D01*
X52809Y120948D01*
X51920Y122278D01*
X46302Y127896D01*
X46814Y129180D01*
X46995Y129185D01*
X48158Y128408D01*
X49530Y128135D01*
X50902Y128408D01*
X52065Y129185D01*
X52337Y129593D01*
X52927Y129837D01*
X54333Y130917D01*
X55413Y132323D01*
X56092Y133962D01*
X56323Y135720D01*
Y148906D01*
X56345Y148958D01*
X56341Y148967D01*
X56345Y148977D01*
X56323Y150235D01*
Y153670D01*
X56202Y154592D01*
X56542Y155101D01*
X57015Y157480D01*
Y198120D01*
X56542Y200499D01*
X55275Y202395D01*
X55585Y203665D01*
X153796D01*
X153805Y203665D01*
X155058Y203665D01*
X156289Y203571D01*
X159386Y203328D01*
X163608Y202314D01*
X167619Y200653D01*
X170697Y198766D01*
X171715Y198019D01*
X171715Y198019D01*
X171715Y198019D01*
X178015Y193053D01*
X185829Y185829D01*
X193053Y178015D01*
X198019Y171715D01*
X198019Y171715D01*
X198019Y171715D01*
X198766Y170697D01*
X200653Y167619D01*
X202314Y163608D01*
X203328Y159386D01*
X203571Y156290D01*
X203665Y155058D01*
X203843Y154164D01*
X204002Y153927D01*
X204203Y153626D01*
Y-153626D01*
X203843Y-154164D01*
X203665Y-155058D01*
X203571Y-156290D01*
X203328Y-159386D01*
X202314Y-163608D01*
X200653Y-167619D01*
X198766Y-170697D01*
X198019Y-171715D01*
X198019Y-171715D01*
X198019Y-171715D01*
X193053Y-178015D01*
X185829Y-185829D01*
X178015Y-193053D01*
X171715Y-198019D01*
X171715Y-198019D01*
X171715Y-198019D01*
X170697Y-198766D01*
X167619Y-200653D01*
X163608Y-202314D01*
X159386Y-203328D01*
X156347Y-203567D01*
X155595Y-203417D01*
X85923D01*
X85735Y-202147D01*
X89109Y-201124D01*
X92761Y-199172D01*
X95961Y-196545D01*
X98588Y-193345D01*
X100540Y-189693D01*
X101742Y-185731D01*
X102148Y-181610D01*
Y-169672D01*
Y-160387D01*
X116027Y-146507D01*
X118654Y-143307D01*
X120606Y-139655D01*
X121808Y-135693D01*
X122214Y-131572D01*
Y141478D01*
X121808Y145599D01*
X120606Y149561D01*
X118654Y153213D01*
X116027Y156413D01*
X106974Y165467D01*
Y179832D01*
X106568Y183953D01*
X105366Y187915D01*
X103414Y191567D01*
X100787Y194767D01*
X97587Y197394D01*
X93935Y199346D01*
X89973Y200548D01*
X85852Y200954D01*
X81731Y200548D01*
X77769Y199346D01*
X74117Y197394D01*
X71539Y195278D01*
X70575D01*
X69099Y194667D01*
X67969Y193537D01*
X67358Y192061D01*
Y190463D01*
X67507Y190103D01*
X66338Y187915D01*
X65136Y183953D01*
X64730Y179832D01*
Y156718D01*
X65136Y152597D01*
X66338Y148635D01*
X68290Y144983D01*
X70917Y141783D01*
X79970Y132729D01*
Y-122823D01*
X66091Y-136703D01*
X63464Y-139903D01*
X61512Y-143555D01*
X60310Y-147517D01*
X59904Y-151638D01*
Y-169672D01*
Y-181610D01*
X60310Y-185731D01*
X61512Y-189693D01*
X62133Y-190856D01*
X61770Y-191733D01*
Y-193331D01*
X62381Y-194807D01*
X63511Y-195937D01*
X64987Y-196548D01*
X66094D01*
X69291Y-199172D01*
X72943Y-201124D01*
X76317Y-202147D01*
X76129Y-203417D01*
X-154520D01*
X-155414Y-203595D01*
X-155474Y-203636D01*
X-159386Y-203328D01*
X-163608Y-202314D01*
X-167619Y-200653D01*
X-170697Y-198766D01*
X-171715Y-198019D01*
X-171715Y-198019D01*
X-171715Y-198019D01*
X-178015Y-193053D01*
X-185829Y-185829D01*
X-193053Y-178015D01*
X-198019Y-171715D01*
X-198019Y-171715D01*
X-198019Y-171715D01*
X-198766Y-170697D01*
X-200653Y-167619D01*
X-202314Y-163608D01*
X-203328Y-159386D01*
X-203585Y-156121D01*
X-203305Y-155703D01*
X-203128Y-154810D01*
Y155306D01*
X-203305Y156199D01*
X-203550Y156565D01*
X-203328Y159386D01*
X-202314Y163608D01*
X-200653Y167619D01*
X-198766Y170697D01*
X-198019Y171715D01*
X-198019Y171715D01*
X-198019Y171715D01*
X-193053Y178015D01*
X-185829Y185829D01*
X-178015Y193053D01*
X-171715Y198019D01*
X-171715Y198019D01*
X-171715Y198019D01*
X-170697Y198766D01*
X-167619Y200653D01*
X-163608Y202314D01*
X-159386Y203328D01*
X-155069Y203667D01*
X-155058Y203665D01*
D02*
G37*
%LPC*%
G36*
X-104798Y196852D02*
X-106097D01*
X-107298Y196354D01*
X-108216Y195436D01*
X-108714Y194235D01*
Y192936D01*
X-108216Y191735D01*
X-107298Y190817D01*
X-106097Y190320D01*
X-104798D01*
X-103597Y190817D01*
X-102679Y191735D01*
X-102182Y192936D01*
Y194235D01*
X-102679Y195436D01*
X-103597Y196354D01*
X-104798Y196852D01*
D02*
G37*
G36*
X11430Y144231D02*
X3810D01*
X2173Y143906D01*
X786Y142978D01*
X-142Y141591D01*
X-467Y139954D01*
Y132334D01*
X-142Y130697D01*
X786Y129310D01*
X2173Y128382D01*
X3810Y128057D01*
X11430D01*
X13067Y128382D01*
X14454Y129310D01*
X15382Y130697D01*
X15707Y132334D01*
X15382Y133971D01*
X15015Y134520D01*
Y137768D01*
X15382Y138317D01*
X15707Y139954D01*
X15382Y141591D01*
X14454Y142978D01*
X13067Y143906D01*
X11430Y144231D01*
D02*
G37*
G36*
X-19084Y94825D02*
X-30700D01*
X-30871Y94791D01*
X-34269D01*
X-34440Y94825D01*
X-40352D01*
X-41245Y94647D01*
X-42003Y94141D01*
X-46618Y89526D01*
X-47400D01*
X-48158Y90032D01*
X-49530Y90305D01*
X-50902Y90032D01*
X-52065Y89255D01*
X-52842Y88092D01*
X-53115Y86720D01*
Y78720D01*
X-52842Y77348D01*
X-52065Y76185D01*
X-50902Y75408D01*
X-49530Y75135D01*
X-48158Y75408D01*
X-46995Y76185D01*
X-46218Y77348D01*
X-45945Y78720D01*
Y84856D01*
X-45651D01*
X-44758Y85034D01*
X-44000Y85540D01*
X-41434Y88106D01*
X-40264Y87480D01*
X-40415Y86720D01*
Y78720D01*
X-40142Y77348D01*
X-39365Y76185D01*
X-38202Y75408D01*
X-36830Y75135D01*
X-35458Y75408D01*
X-34295Y76185D01*
X-33518Y77348D01*
X-33245Y78720D01*
Y86720D01*
X-33518Y88092D01*
X-34025Y88851D01*
X-33493Y90089D01*
X-33463Y90121D01*
X-30734D01*
X-30563Y90155D01*
X-27475D01*
X-27392Y90064D01*
X-26912Y88885D01*
X-27442Y88092D01*
X-27715Y86720D01*
Y78720D01*
X-27686Y78575D01*
Y78190D01*
X-27539Y77835D01*
X-27442Y77348D01*
X-26665Y76185D01*
X-25502Y75408D01*
X-24566Y75222D01*
X-24072Y74049D01*
X-24066Y73926D01*
X-24765Y73227D01*
X-25271Y72470D01*
X-25449Y71576D01*
Y69602D01*
X-26032Y69212D01*
X-26537Y68456D01*
X-26715Y67564D01*
Y65024D01*
X-26537Y64132D01*
X-26032Y63376D01*
X-25276Y62871D01*
X-24384Y62693D01*
X-21844D01*
X-20952Y62871D01*
X-20196Y63376D01*
X-19954Y63738D01*
X-18654D01*
X-18412Y63376D01*
X-17656Y62871D01*
X-16764Y62693D01*
X-14224D01*
X-13332Y62871D01*
X-12576Y63376D01*
X-12071Y64132D01*
X-11893Y65024D01*
Y67564D01*
X-12071Y68456D01*
X-12576Y69212D01*
X-13332Y69717D01*
X-14224Y69895D01*
X-16764D01*
X-17656Y69717D01*
X-18412Y69212D01*
X-18654Y68850D01*
X-19954D01*
X-20196Y69212D01*
X-20536Y69440D01*
X-20621Y70767D01*
X-15549Y75839D01*
X-15043Y76596D01*
X-14865Y77490D01*
Y90606D01*
X-15043Y91500D01*
X-15549Y92257D01*
X-17433Y94141D01*
X-18190Y94647D01*
X-18339Y94677D01*
X-19084Y94825D01*
D02*
G37*
G36*
X41910Y69895D02*
X39370D01*
X38478Y69717D01*
X37722Y69212D01*
X37480Y68850D01*
X36180D01*
X35938Y69212D01*
X35182Y69717D01*
X34290Y69895D01*
X31750D01*
X30858Y69717D01*
X30102Y69212D01*
X29597Y68456D01*
X29419Y67564D01*
Y65024D01*
X29597Y64132D01*
X30102Y63376D01*
X30147Y62913D01*
X28243Y61009D01*
X19763D01*
X18090Y62682D01*
X18158Y63376D01*
X18663Y64132D01*
X18841Y65024D01*
Y67564D01*
X18663Y68456D01*
X18158Y69212D01*
X17402Y69717D01*
X16510Y69895D01*
X13970D01*
X13078Y69717D01*
X12322Y69212D01*
X11817Y68456D01*
X11639Y67564D01*
Y65024D01*
X11817Y64132D01*
X12322Y63376D01*
X12905Y62986D01*
Y62230D01*
X13083Y61336D01*
X13589Y60579D01*
X17145Y57023D01*
X17902Y56517D01*
X18796Y56339D01*
X29210D01*
X30103Y56517D01*
X30861Y57023D01*
X34671Y60833D01*
X35177Y61590D01*
X35355Y62484D01*
Y62986D01*
X35938Y63376D01*
X36180Y63738D01*
X37480D01*
X37722Y63376D01*
X38478Y62871D01*
X39370Y62693D01*
X41910D01*
X42802Y62871D01*
X43558Y63376D01*
X44063Y64132D01*
X44241Y65024D01*
Y67564D01*
X44063Y68456D01*
X43558Y69212D01*
X42802Y69717D01*
X41910Y69895D01*
D02*
G37*
G36*
X6350D02*
X3810D01*
X2918Y69717D01*
X2162Y69212D01*
X1657Y68456D01*
X1479Y67564D01*
Y65024D01*
X1657Y64132D01*
X2162Y63376D01*
X2008Y61952D01*
X-3761Y56183D01*
X-33715D01*
X-34241Y57453D01*
X-31623Y60071D01*
X-31117Y60828D01*
X-30939Y61722D01*
Y62986D01*
X-30356Y63376D01*
X-29851Y64132D01*
X-29673Y65024D01*
Y67564D01*
X-29851Y68456D01*
X-30356Y69212D01*
X-31112Y69717D01*
X-32004Y69895D01*
X-34544D01*
X-35436Y69717D01*
X-36192Y69212D01*
X-36697Y68456D01*
X-36875Y67564D01*
Y65024D01*
X-36697Y64132D01*
X-36192Y63376D01*
X-36346Y61952D01*
X-37289Y61009D01*
X-46785D01*
X-47829Y62053D01*
X-48136Y63376D01*
X-47631Y64132D01*
X-47453Y65024D01*
Y67564D01*
X-47631Y68456D01*
X-48136Y69212D01*
X-48892Y69717D01*
X-49784Y69895D01*
X-52324D01*
X-53216Y69717D01*
X-53972Y69212D01*
X-54214Y68850D01*
X-55514D01*
X-55756Y69212D01*
X-56512Y69717D01*
X-57404Y69895D01*
X-59944D01*
X-60836Y69717D01*
X-61592Y69212D01*
X-62097Y68456D01*
X-62275Y67564D01*
Y65024D01*
X-62097Y64132D01*
X-61592Y63376D01*
X-60836Y62871D01*
X-59944Y62693D01*
X-57404D01*
X-56512Y62871D01*
X-55756Y63376D01*
X-55582Y63636D01*
X-54323Y63714D01*
X-53389Y62810D01*
Y61976D01*
X-53211Y61083D01*
X-52705Y60325D01*
X-49833Y57453D01*
X-50359Y56183D01*
X-62484D01*
X-63377Y56005D01*
X-64135Y55499D01*
X-64975Y54659D01*
X-66245Y55185D01*
Y63156D01*
X-65916Y63376D01*
X-65411Y64132D01*
X-65233Y65024D01*
Y67564D01*
X-65411Y68456D01*
X-65916Y69212D01*
X-66672Y69717D01*
X-67564Y69895D01*
X-70104D01*
X-70996Y69717D01*
X-71752Y69212D01*
X-72257Y68456D01*
X-72435Y67564D01*
Y65024D01*
X-72257Y64132D01*
X-71752Y63376D01*
X-70996Y62871D01*
X-70915Y62854D01*
Y54815D01*
X-99641Y26089D01*
X-100147Y25331D01*
X-100325Y24438D01*
Y-861D01*
X-101595Y-1433D01*
X-101999Y-1163D01*
X-102990Y-966D01*
X-103981Y-1163D01*
X-104821Y-1725D01*
X-106159D01*
X-106999Y-1163D01*
X-107990Y-966D01*
X-108981Y-1163D01*
X-109821Y-1725D01*
X-111159D01*
X-111999Y-1163D01*
X-112990Y-966D01*
X-113981Y-1163D01*
X-114821Y-1725D01*
X-116159D01*
X-116999Y-1163D01*
X-117990Y-966D01*
X-118981Y-1163D01*
X-119821Y-1725D01*
X-121159D01*
X-121999Y-1163D01*
X-122990Y-966D01*
X-123336Y-1035D01*
X-123601Y-941D01*
X-124498Y-170D01*
X-124546Y-79D01*
Y8595D01*
X-123814Y9326D01*
X-123317Y10526D01*
Y11826D01*
X-123814Y13026D01*
X-124733Y13945D01*
X-125933Y14442D01*
X-127233D01*
X-128433Y13945D01*
X-129352Y13026D01*
X-129849Y11826D01*
Y10526D01*
X-129352Y9326D01*
X-128438Y8413D01*
Y4145D01*
X-128609Y4043D01*
X-129708Y3756D01*
X-130393Y4441D01*
X-131593Y4938D01*
X-132893D01*
X-134093Y4441D01*
X-134774Y3760D01*
X-135891Y4056D01*
X-136044Y4150D01*
Y17072D01*
X-135407Y17708D01*
X-134910Y18908D01*
Y20208D01*
X-135407Y21408D01*
X-136326Y22327D01*
X-137526Y22824D01*
X-138826D01*
X-140026Y22327D01*
X-140945Y21408D01*
X-141442Y20208D01*
Y18908D01*
X-140945Y17708D01*
X-140026Y16789D01*
X-139936Y16752D01*
Y-1897D01*
X-140382Y-2565D01*
X-140580Y-3556D01*
Y-14224D01*
X-140382Y-15215D01*
X-139821Y-16055D01*
X-138981Y-16617D01*
X-137990Y-16814D01*
X-136999Y-16617D01*
X-136159Y-16055D01*
X-134821D01*
X-133981Y-16617D01*
X-132990Y-16814D01*
X-131999Y-16617D01*
X-131159Y-16055D01*
X-129821D01*
X-128981Y-16617D01*
X-127990Y-16814D01*
X-126999Y-16617D01*
X-126159Y-16055D01*
X-124821D01*
X-123981Y-16617D01*
X-122990Y-16814D01*
X-121999Y-16617D01*
X-121159Y-16055D01*
X-119821D01*
X-118981Y-16617D01*
X-117990Y-16814D01*
X-116999Y-16617D01*
X-116159Y-16055D01*
X-114821D01*
X-113981Y-16617D01*
X-112990Y-16814D01*
X-111999Y-16617D01*
X-111159Y-16055D01*
X-109821D01*
X-108981Y-16617D01*
X-107990Y-16814D01*
X-106999Y-16617D01*
X-106159Y-16055D01*
X-105963D01*
X-104795Y-17153D01*
Y-19692D01*
X-104657Y-20383D01*
X-104266Y-20968D01*
X-102840Y-22394D01*
X-102255Y-22785D01*
X-101564Y-22923D01*
X-93580D01*
X-93068Y-23573D01*
X-93622Y-24843D01*
X-124206D01*
X-125099Y-25021D01*
X-125857Y-25527D01*
X-130761Y-30431D01*
X-138938D01*
X-139831Y-30609D01*
X-140589Y-31115D01*
X-143282Y-33809D01*
X-144177Y-33428D01*
X-144492Y-33222D01*
X-144673Y-32309D01*
X-145235Y-31469D01*
Y-30131D01*
X-144673Y-29291D01*
X-144476Y-28300D01*
X-144673Y-27309D01*
X-145235Y-26469D01*
Y-25131D01*
X-144673Y-24291D01*
X-144476Y-23300D01*
X-144673Y-22309D01*
X-145235Y-21469D01*
X-146009Y-20952D01*
Y3289D01*
X-144690Y4608D01*
X-144130D01*
X-142930Y5105D01*
X-142011Y6024D01*
X-141514Y7224D01*
Y8524D01*
X-142011Y9724D01*
X-142930Y10643D01*
X-144130Y11140D01*
X-145430D01*
X-146630Y10643D01*
X-147549Y9724D01*
X-148046Y8524D01*
Y7224D01*
X-147909Y6894D01*
X-149331Y5472D01*
X-149753Y4840D01*
X-149901Y4095D01*
Y-20710D01*
X-157734D01*
X-158725Y-20907D01*
X-159565Y-21469D01*
X-160127Y-22309D01*
X-160324Y-23300D01*
X-160127Y-24291D01*
X-159565Y-25131D01*
Y-26469D01*
X-160127Y-27309D01*
X-160324Y-28300D01*
X-160127Y-29291D01*
X-159565Y-30131D01*
Y-31469D01*
X-160127Y-32309D01*
X-160324Y-33300D01*
X-160127Y-34291D01*
X-159857Y-34695D01*
X-160429Y-35965D01*
X-166981D01*
X-169876Y-33070D01*
Y-25998D01*
X-169548Y-25778D01*
X-169043Y-25022D01*
X-168865Y-24130D01*
Y-21590D01*
X-169043Y-20698D01*
X-169548Y-19942D01*
X-170304Y-19437D01*
X-171196Y-19259D01*
X-173736D01*
X-174628Y-19437D01*
X-175384Y-19942D01*
X-175889Y-20698D01*
X-176067Y-21590D01*
Y-24130D01*
X-175889Y-25022D01*
X-175384Y-25778D01*
X-174628Y-26283D01*
X-174546Y-26300D01*
Y-34037D01*
X-174368Y-34931D01*
X-173862Y-35688D01*
X-169727Y-39823D01*
X-169703Y-39855D01*
X-169752Y-40282D01*
X-170126Y-41092D01*
X-170230Y-41110D01*
X-170485Y-41117D01*
X-170544Y-41118D01*
X-170548Y-41118D01*
X-170683D01*
X-190602Y-41118D01*
Y-47150D01*
X-179627D01*
Y-49312D01*
X-179449Y-50206D01*
X-178943Y-50963D01*
X-177455Y-52451D01*
X-176698Y-52957D01*
X-175804Y-53135D01*
X-166067D01*
X-164251Y-54951D01*
X-163493Y-55457D01*
X-163129Y-55530D01*
X-162838Y-56292D01*
X-162786Y-56868D01*
X-164973Y-59055D01*
X-165479Y-59812D01*
X-165657Y-60706D01*
Y-64565D01*
X-166353Y-65261D01*
X-169570D01*
Y-65118D01*
X-190602D01*
Y-71150D01*
X-169570D01*
Y-69931D01*
X-165386D01*
X-164492Y-69753D01*
X-163735Y-69247D01*
X-161671Y-67183D01*
X-161234Y-66529D01*
X-161092Y-66404D01*
X-159789Y-66019D01*
X-159565Y-66185D01*
Y-66469D01*
X-160127Y-67309D01*
X-160324Y-68300D01*
X-160127Y-69291D01*
X-159565Y-70131D01*
Y-71469D01*
X-160127Y-72309D01*
X-160324Y-73300D01*
X-160127Y-74291D01*
X-159857Y-74695D01*
X-160429Y-75965D01*
X-174820D01*
X-175714Y-76143D01*
X-176471Y-76649D01*
X-178355Y-78533D01*
X-178861Y-79290D01*
X-179039Y-80184D01*
Y-82491D01*
X-179702Y-82934D01*
X-180207Y-83690D01*
X-180385Y-84582D01*
Y-87122D01*
X-180207Y-88014D01*
X-179702Y-88770D01*
X-178946Y-89275D01*
X-178054Y-89453D01*
X-175514D01*
X-174622Y-89275D01*
X-173866Y-88770D01*
X-173361Y-88014D01*
X-173183Y-87122D01*
Y-84582D01*
X-173361Y-83690D01*
X-173866Y-82934D01*
X-174369Y-82598D01*
Y-81151D01*
X-173853Y-80635D01*
X-158812D01*
X-158725Y-80693D01*
X-158346Y-80768D01*
Y-91467D01*
X-158880Y-91573D01*
X-159636Y-92078D01*
X-160141Y-92834D01*
X-160319Y-93726D01*
Y-96266D01*
X-160141Y-97158D01*
X-159636Y-97914D01*
X-158880Y-98419D01*
X-157988Y-98597D01*
X-155448D01*
X-154556Y-98419D01*
X-153800Y-97914D01*
X-153580Y-97585D01*
X-145034D01*
X-144141Y-97407D01*
X-143383Y-96901D01*
X-141850Y-95368D01*
X-140580Y-95824D01*
Y-98044D01*
X-140383Y-99035D01*
X-139821Y-99875D01*
X-138981Y-100437D01*
X-137990Y-100634D01*
X-136999Y-100437D01*
X-136159Y-99875D01*
X-135597Y-99035D01*
X-135400Y-98044D01*
Y-87376D01*
X-135597Y-86385D01*
X-135655Y-86299D01*
Y-78251D01*
X-128143Y-70739D01*
X-127637Y-69981D01*
X-127459Y-69088D01*
Y-48088D01*
X-126189Y-47533D01*
X-125539Y-48045D01*
Y-72100D01*
X-125401Y-72791D01*
X-125010Y-73376D01*
X-121040Y-77346D01*
X-121760Y-78423D01*
X-121920Y-78356D01*
X-127509D01*
X-127611Y-78319D01*
X-127747Y-78259D01*
X-127900Y-78179D01*
X-128061Y-78083D01*
X-128467Y-77800D01*
X-128685Y-77628D01*
X-128883Y-77573D01*
X-128960Y-77495D01*
X-130160Y-76998D01*
X-131460D01*
X-132660Y-77495D01*
X-133579Y-78414D01*
X-134076Y-79614D01*
Y-80914D01*
X-133579Y-82114D01*
X-132660Y-83033D01*
X-131460Y-83530D01*
X-130160D01*
X-128960Y-83033D01*
X-128457Y-82530D01*
X-128162Y-82373D01*
X-128000Y-82178D01*
X-127864Y-82030D01*
X-127736Y-81909D01*
X-127619Y-81813D01*
X-127514Y-81740D01*
X-127422Y-81689D01*
X-127365Y-81664D01*
X-122605D01*
X-120274Y-83995D01*
X-120524Y-84821D01*
X-121758Y-85145D01*
X-121999Y-84983D01*
X-122990Y-84786D01*
X-123981Y-84983D01*
X-124821Y-85545D01*
X-126159D01*
X-126999Y-84983D01*
X-127990Y-84786D01*
X-128981Y-84983D01*
X-129821Y-85545D01*
X-130383Y-86385D01*
X-130580Y-87376D01*
Y-98044D01*
X-130383Y-99035D01*
X-130325Y-99122D01*
Y-105182D01*
X-130147Y-106075D01*
X-129641Y-106833D01*
X-111633Y-124841D01*
X-110876Y-125347D01*
X-109982Y-125525D01*
X-63451D01*
X-59993Y-128983D01*
Y-137414D01*
X-59815Y-138308D01*
X-59309Y-139065D01*
X-53289Y-145085D01*
X-53283Y-145115D01*
X-53215Y-145158D01*
X-53192Y-145182D01*
X-53158Y-145265D01*
X-53066Y-145358D01*
X-53009Y-145418D01*
X-53135Y-146050D01*
X-52862Y-147422D01*
X-52085Y-148585D01*
X-50922Y-149362D01*
X-49550Y-149635D01*
X-41550D01*
X-40178Y-149362D01*
X-39015Y-148585D01*
X-38238Y-147422D01*
X-37965Y-146050D01*
X-38238Y-144678D01*
X-39015Y-143515D01*
X-40178Y-142738D01*
X-41550Y-142465D01*
X-49210D01*
X-49215Y-142462D01*
X-49339Y-142369D01*
X-49508Y-142214D01*
X-49583Y-142187D01*
X-55323Y-136447D01*
Y-128016D01*
X-55501Y-127122D01*
X-56007Y-126365D01*
X-60221Y-122151D01*
X-60025Y-121136D01*
X-59812Y-120775D01*
X-59055Y-120269D01*
X-50486Y-111700D01*
X-50453Y-111693D01*
X-50417Y-111637D01*
X-50354Y-111615D01*
X-50293Y-111560D01*
X-50281Y-111552D01*
X-50266Y-111544D01*
X-50244Y-111535D01*
X-50209Y-111526D01*
X-50158Y-111518D01*
X-50089Y-111513D01*
X-50000Y-111515D01*
X-49892Y-111526D01*
X-49731Y-111553D01*
X-49638Y-111531D01*
X-49550Y-111568D01*
X-49471Y-111535D01*
X-41550D01*
X-40178Y-111262D01*
X-39015Y-110485D01*
X-38238Y-109322D01*
X-37965Y-107950D01*
X-38238Y-106578D01*
X-39015Y-105415D01*
X-40178Y-104638D01*
X-41550Y-104365D01*
X-49550D01*
X-50922Y-104638D01*
X-52085Y-105415D01*
X-52862Y-106578D01*
X-53060Y-107576D01*
X-53068Y-107588D01*
X-53073Y-107592D01*
X-53084Y-107613D01*
X-53084Y-107613D01*
X-53091Y-107622D01*
X-53274Y-107833D01*
X-53354Y-107915D01*
X-53387Y-107997D01*
X-61673Y-116283D01*
X-83389D01*
X-83787Y-115248D01*
X-83801Y-115013D01*
X-74416Y-105628D01*
X-74025Y-105042D01*
X-73887Y-104352D01*
Y-85090D01*
X-74025Y-84399D01*
X-74416Y-83814D01*
X-76773Y-81457D01*
X-76674Y-80922D01*
X-76579Y-80841D01*
X-75292Y-80434D01*
X-74905Y-80693D01*
X-73914Y-80890D01*
X-63246D01*
X-62255Y-80693D01*
X-62118Y-80601D01*
X-56625D01*
X-56258Y-81150D01*
X-55675Y-81540D01*
Y-84774D01*
X-55497Y-85667D01*
X-54991Y-86425D01*
X-52135Y-89281D01*
X-51378Y-89787D01*
X-50484Y-89965D01*
X-30275D01*
Y-108968D01*
X-30709Y-109402D01*
X-31206Y-110602D01*
Y-111902D01*
X-31183Y-111957D01*
X-32804Y-113577D01*
X-32867D01*
X-34068Y-114074D01*
X-34987Y-114993D01*
X-35484Y-116193D01*
Y-116877D01*
X-36922Y-118315D01*
X-38881D01*
X-39015Y-118115D01*
X-40178Y-117338D01*
X-41550Y-117065D01*
X-49550D01*
X-50922Y-117338D01*
X-52085Y-118115D01*
X-52862Y-119278D01*
X-53135Y-120650D01*
X-52862Y-122022D01*
X-52085Y-123185D01*
X-50922Y-123962D01*
X-49550Y-124235D01*
X-41550D01*
X-40178Y-123962D01*
X-39015Y-123185D01*
X-38881Y-122985D01*
X-35955D01*
X-35061Y-122807D01*
X-34304Y-122301D01*
X-32111Y-120109D01*
X-31568D01*
X-30368Y-119612D01*
X-29449Y-118693D01*
X-28952Y-117493D01*
Y-116329D01*
X-27035Y-114412D01*
X-26090Y-114021D01*
X-25171Y-113102D01*
X-24674Y-111902D01*
Y-110602D01*
X-25171Y-109402D01*
X-25605Y-108968D01*
Y-89105D01*
X-23087Y-86587D01*
X-21916Y-87212D01*
X-22020Y-87732D01*
Y-88172D01*
X-22030Y-88196D01*
X-22031Y-88967D01*
X-22039Y-89483D01*
X-22260Y-89813D01*
X-22455Y-90795D01*
Y-96685D01*
X-22260Y-97667D01*
X-21704Y-98499D01*
X-20872Y-99055D01*
X-19890Y-99250D01*
X-16890D01*
X-15908Y-99055D01*
X-15076Y-98499D01*
X-14520Y-97667D01*
X-14325Y-96685D01*
Y-90795D01*
X-14520Y-89813D01*
X-14734Y-89493D01*
X-14737Y-89213D01*
X-10942Y-85418D01*
X-4297D01*
X-2868Y-86847D01*
Y-89226D01*
X-3260Y-89813D01*
X-3455Y-90795D01*
Y-96685D01*
X-3260Y-97667D01*
X-2868Y-98254D01*
Y-99822D01*
X-2591Y-101211D01*
X-1805Y-102389D01*
X-627Y-103175D01*
X762Y-103452D01*
X2151Y-103175D01*
X3329Y-102389D01*
X4115Y-101211D01*
X4392Y-99822D01*
Y-97799D01*
X4480Y-97667D01*
X4675Y-96685D01*
Y-90795D01*
X5336Y-89990D01*
X22860D01*
X23006Y-89961D01*
X24130D01*
X25022Y-89783D01*
X25778Y-89278D01*
X26283Y-88522D01*
X26461Y-87630D01*
Y-86506D01*
X26490Y-86360D01*
Y-76200D01*
X26461Y-76054D01*
Y-74930D01*
X26283Y-74038D01*
X25778Y-73282D01*
X25022Y-72777D01*
X24130Y-72599D01*
X23006D01*
X22860Y-72570D01*
X9602D01*
X8213Y-72847D01*
X7035Y-73633D01*
X2510Y-78158D01*
X-6045D01*
X-6354Y-77677D01*
X-6530Y-76888D01*
X-246Y-70604D01*
X-171Y-70576D01*
X5Y-70415D01*
X137Y-70315D01*
X172Y-70294D01*
X2110D01*
X3092Y-70099D01*
X3924Y-69543D01*
X4480Y-68711D01*
X4675Y-67729D01*
Y-61839D01*
X4480Y-60857D01*
X3924Y-60025D01*
X3092Y-59469D01*
X2110Y-59274D01*
X233D01*
X-289Y-58752D01*
X-297Y-58742D01*
X-300Y-58741D01*
X-344Y-58697D01*
X-349Y-58685D01*
X-527Y-58499D01*
X-552Y-58489D01*
X-1450Y-57590D01*
Y-44450D01*
X-1479Y-44304D01*
Y-43180D01*
X-1657Y-42288D01*
X-2162Y-41532D01*
X-2207Y-40053D01*
X-49Y-37895D01*
X9193D01*
X11586Y-40288D01*
X11543Y-41366D01*
X11444Y-42364D01*
X11411Y-42562D01*
X11052Y-42802D01*
X10547Y-43558D01*
X10369Y-44450D01*
Y-45574D01*
X10340Y-45720D01*
X10369Y-45866D01*
Y-46990D01*
X10547Y-47882D01*
X11052Y-48638D01*
X11808Y-49143D01*
X12700Y-49321D01*
X13824D01*
X13970Y-49350D01*
X22860D01*
X23006Y-49321D01*
X24130D01*
X25022Y-49143D01*
X25778Y-48638D01*
X26283Y-47882D01*
X26461Y-46990D01*
Y-45866D01*
X26490Y-45720D01*
X26461Y-45574D01*
Y-44450D01*
X26283Y-43558D01*
X25778Y-42802D01*
X25449Y-42582D01*
X25235Y-39348D01*
X25230Y-38434D01*
X25195Y-38351D01*
Y-30937D01*
X28151Y-27981D01*
X28657Y-27223D01*
X28835Y-26330D01*
Y-22648D01*
X28877Y-22643D01*
X29076Y-22637D01*
X29080Y-22635D01*
X30500D01*
X31872Y-22362D01*
X32906Y-21671D01*
X33058Y-21608D01*
X33090Y-21531D01*
X33162Y-21488D01*
X33194Y-21445D01*
X33200Y-21442D01*
X33223Y-21436D01*
X33261Y-21429D01*
X33314Y-21423D01*
X33421Y-21419D01*
X33496Y-21385D01*
X36322D01*
X37215Y-21207D01*
X37973Y-20701D01*
X41783Y-16891D01*
X42289Y-16134D01*
X42467Y-15240D01*
Y762D01*
X42289Y1655D01*
X41783Y2413D01*
X36195Y8001D01*
X35438Y8507D01*
X34544Y8685D01*
X33496D01*
X33421Y8719D01*
X33314Y8723D01*
X33261Y8729D01*
X33223Y8736D01*
X33200Y8742D01*
X33194Y8745D01*
X33162Y8788D01*
X33090Y8831D01*
X33058Y8908D01*
X32906Y8971D01*
X31872Y9662D01*
X30500Y9935D01*
X22860D01*
Y15465D01*
X30500D01*
X31872Y15738D01*
X33035Y16515D01*
X33812Y17678D01*
X34085Y19050D01*
X33812Y20422D01*
X33035Y21585D01*
X31872Y22362D01*
X30500Y22635D01*
X22860D01*
Y25400D01*
X-22860D01*
Y9935D01*
X-30500D01*
X-31872Y9662D01*
X-33035Y8885D01*
X-33812Y7722D01*
X-34085Y6350D01*
X-33812Y4978D01*
X-33035Y3815D01*
X-31872Y3038D01*
X-30500Y2765D01*
X-22860D01*
Y-2765D01*
X-30500D01*
X-31872Y-3038D01*
X-32906Y-3729D01*
X-33058Y-3792D01*
X-33090Y-3869D01*
X-33162Y-3912D01*
X-33194Y-3955D01*
X-33200Y-3957D01*
X-33223Y-3964D01*
X-33261Y-3971D01*
X-33314Y-3977D01*
X-33421Y-3981D01*
X-33496Y-4015D01*
X-42164D01*
X-43057Y-4193D01*
X-43815Y-4699D01*
X-45752Y-6636D01*
X-45834Y-6668D01*
X-46003Y-6834D01*
X-46141Y-6961D01*
X-46404Y-7176D01*
X-46487Y-7236D01*
X-46556Y-7278D01*
X-46595Y-7298D01*
X-46634Y-7308D01*
X-46649Y-7320D01*
X-46660Y-7324D01*
X-46677Y-7340D01*
X-46720Y-7373D01*
X-46776Y-7402D01*
X-47132D01*
X-48332Y-7899D01*
X-49251Y-8818D01*
X-49748Y-10018D01*
Y-11318D01*
X-49251Y-12518D01*
X-48332Y-13437D01*
X-47132Y-13934D01*
X-45832D01*
X-44632Y-13437D01*
X-43713Y-12518D01*
X-43216Y-11318D01*
Y-10963D01*
X-43187Y-10906D01*
X-43155Y-10863D01*
X-43138Y-10846D01*
X-43134Y-10835D01*
X-43122Y-10820D01*
X-43112Y-10781D01*
X-43092Y-10742D01*
X-43050Y-10673D01*
X-42997Y-10599D01*
X-42635Y-10176D01*
X-42482Y-10020D01*
X-42450Y-9938D01*
X-41197Y-8685D01*
X-33496D01*
X-33421Y-8719D01*
X-33314Y-8723D01*
X-33261Y-8729D01*
X-33223Y-8736D01*
X-33200Y-8742D01*
X-33194Y-8745D01*
X-33162Y-8788D01*
X-33090Y-8831D01*
X-33058Y-8908D01*
X-32906Y-8971D01*
X-31872Y-9662D01*
X-30500Y-9935D01*
X-22860D01*
Y-15465D01*
X-30500D01*
X-31872Y-15738D01*
X-33035Y-16515D01*
X-33812Y-17678D01*
X-34085Y-19050D01*
X-33812Y-20422D01*
X-33035Y-21585D01*
X-31872Y-22362D01*
X-30500Y-22635D01*
X-22860D01*
Y-25400D01*
X21729D01*
X22332Y-25400D01*
X22858Y-26670D01*
X21209Y-28319D01*
X20703Y-29076D01*
X20525Y-29970D01*
Y-38351D01*
X20490Y-38434D01*
X20485Y-39365D01*
X20408Y-41626D01*
X20363Y-42090D01*
X16479D01*
X16346Y-40082D01*
X16340Y-39360D01*
X16271Y-39197D01*
X16127Y-38477D01*
X15621Y-37719D01*
X11811Y-33909D01*
X11054Y-33403D01*
X10160Y-33225D01*
X-1016D01*
X-1910Y-33403D01*
X-2667Y-33909D01*
X-6731Y-37973D01*
X-7237Y-38730D01*
X-7415Y-39624D01*
Y-41099D01*
X-39419D01*
X-49989Y-30529D01*
Y-18542D01*
X-50167Y-17649D01*
X-50673Y-16891D01*
X-60325Y-7239D01*
X-61083Y-6733D01*
X-61976Y-6555D01*
X-80387D01*
X-80392Y-6513D01*
X-80399Y-6314D01*
X-80400Y-6310D01*
Y-3556D01*
X-80597Y-2565D01*
X-81159Y-1725D01*
X-81999Y-1163D01*
X-82990Y-966D01*
X-83981Y-1163D01*
X-84821Y-1725D01*
X-85383Y-2565D01*
X-85580Y-3556D01*
Y-14224D01*
X-85383Y-15215D01*
X-85325Y-15302D01*
Y-23349D01*
X-86631Y-24655D01*
X-87528Y-24540D01*
X-87964Y-23277D01*
X-87655Y-22968D01*
X-87158Y-21768D01*
Y-20468D01*
X-87655Y-19268D01*
X-88574Y-18349D01*
X-89774Y-17852D01*
X-91074D01*
X-92274Y-18349D01*
X-93193Y-19268D01*
X-93211Y-19313D01*
X-100816D01*
X-101185Y-18944D01*
Y-16300D01*
X-100769Y-16055D01*
X-99821D01*
X-98981Y-16617D01*
X-97990Y-16814D01*
X-96999Y-16617D01*
X-96159Y-16055D01*
X-94821D01*
X-93981Y-16617D01*
X-92990Y-16814D01*
X-91999Y-16617D01*
X-91159Y-16055D01*
X-90597Y-15215D01*
X-90400Y-14224D01*
Y-3556D01*
X-90597Y-2565D01*
X-90655Y-2479D01*
Y22375D01*
X-61517Y51513D01*
X-2794D01*
X-1901Y51691D01*
X-1143Y52197D01*
X6811Y60151D01*
X7317Y60908D01*
X7495Y61802D01*
Y63040D01*
X7998Y63376D01*
X8503Y64132D01*
X8681Y65024D01*
Y67564D01*
X8503Y68456D01*
X7998Y69212D01*
X7242Y69717D01*
X6350Y69895D01*
D02*
G37*
G36*
X60340Y28920D02*
X59040D01*
X57840Y28423D01*
X56921Y27504D01*
X56424Y26304D01*
Y25004D01*
X56921Y23804D01*
X57840Y22885D01*
X59040Y22388D01*
X60340D01*
X61540Y22885D01*
X62459Y23804D01*
X62956Y25004D01*
Y26304D01*
X62459Y27504D01*
X61540Y28423D01*
X60340Y28920D01*
D02*
G37*
G36*
X66182Y22316D02*
X64882D01*
X63682Y21819D01*
X62763Y20900D01*
X62266Y19700D01*
Y18400D01*
X62763Y17200D01*
X63682Y16281D01*
X64882Y15784D01*
X66182D01*
X67382Y16281D01*
X68301Y17200D01*
X68798Y18400D01*
Y19700D01*
X68301Y20900D01*
X67382Y21819D01*
X66182Y22316D01*
D02*
G37*
G36*
X-112126Y19014D02*
X-113426D01*
X-114626Y18517D01*
X-115545Y17598D01*
X-116042Y16398D01*
Y15098D01*
X-115545Y13898D01*
X-114626Y12979D01*
X-113426Y12482D01*
X-112126D01*
X-110926Y12979D01*
X-110007Y13898D01*
X-109510Y15098D01*
Y16398D01*
X-110007Y17598D01*
X-110926Y18517D01*
X-112126Y19014D01*
D02*
G37*
G36*
X-184062Y25098D02*
X-197094D01*
Y17066D01*
X-193068D01*
Y13227D01*
X-193777Y12518D01*
X-194274Y11318D01*
Y10018D01*
X-193777Y8818D01*
X-192858Y7899D01*
X-191658Y7402D01*
X-190358D01*
X-189158Y7899D01*
X-188239Y8818D01*
X-187742Y10018D01*
Y11318D01*
X-188239Y12518D01*
X-188948Y13227D01*
Y17066D01*
X-184062D01*
Y25098D01*
D02*
G37*
G36*
X186070Y12156D02*
X184770D01*
X183570Y11659D01*
X182651Y10740D01*
X182154Y9540D01*
Y8240D01*
X182651Y7040D01*
X183570Y6121D01*
X184770Y5624D01*
X186070D01*
X187270Y6121D01*
X188189Y7040D01*
X188686Y8240D01*
Y9540D01*
X188189Y10740D01*
X187270Y11659D01*
X186070Y12156D01*
D02*
G37*
G36*
X-162062Y34598D02*
X-175094D01*
Y28801D01*
X-175111Y28716D01*
X-180780Y23046D01*
X-181227Y22378D01*
X-181384Y21590D01*
Y14061D01*
X-185818Y9627D01*
X-186264Y8959D01*
X-186421Y8170D01*
Y2870D01*
X-187718D01*
Y-3886D01*
X-181005D01*
Y-3886D01*
X-179735Y-3871D01*
X-179675Y-3886D01*
X-179299Y-4644D01*
X-179047Y-4896D01*
X-178380Y-5563D01*
X-177180Y-6060D01*
X-175880D01*
X-174680Y-5563D01*
X-173761Y-4644D01*
X-173447Y-3886D01*
X-172962D01*
Y2870D01*
X-179675D01*
Y-880D01*
X-179735Y-935D01*
X-181005Y-386D01*
Y2870D01*
X-182302D01*
Y7317D01*
X-177868Y11752D01*
X-177421Y12420D01*
X-177264Y13208D01*
Y20737D01*
X-171622Y26380D01*
X-171497Y26566D01*
X-162062D01*
Y34598D01*
D02*
G37*
G36*
X185054Y-2068D02*
X183754D01*
X182554Y-2565D01*
X181635Y-3484D01*
X181138Y-4684D01*
Y-5984D01*
X181635Y-7184D01*
X182554Y-8103D01*
X183754Y-8600D01*
X185054D01*
X186254Y-8103D01*
X187173Y-7184D01*
X187670Y-5984D01*
Y-4684D01*
X187173Y-3484D01*
X186254Y-2565D01*
X185054Y-2068D01*
D02*
G37*
G36*
X38100Y-35740D02*
X36711Y-36017D01*
X35533Y-36803D01*
X34747Y-37981D01*
X34470Y-39370D01*
X34747Y-40759D01*
X35533Y-41937D01*
X36259Y-42662D01*
X36259Y-42663D01*
X38280Y-44684D01*
Y-52299D01*
X38166Y-52376D01*
X37868Y-52821D01*
X36452D01*
X36154Y-52376D01*
X35239Y-51764D01*
X34325Y-51583D01*
X34318Y-51579D01*
X34171Y-50832D01*
X34148Y-50704D01*
X34130Y-50575D01*
X34121Y-50280D01*
X34121Y-50274D01*
X34129Y-50268D01*
X34281Y-50205D01*
X34303Y-50152D01*
X34668Y-49908D01*
X35173Y-49152D01*
X35351Y-48260D01*
Y-45720D01*
X35173Y-44828D01*
X34668Y-44072D01*
X33912Y-43567D01*
X33020Y-43389D01*
X30480D01*
X29588Y-43567D01*
X28832Y-44072D01*
X28327Y-44828D01*
X28149Y-45720D01*
Y-48260D01*
X28327Y-49152D01*
X28832Y-49908D01*
X29197Y-50152D01*
X29219Y-50205D01*
X29371Y-50268D01*
X29379Y-50274D01*
X29381Y-50322D01*
X29415Y-50398D01*
Y-51778D01*
X29381Y-51854D01*
X29379Y-51899D01*
X29343Y-51924D01*
X29198Y-51987D01*
X29180Y-52033D01*
X28666Y-52376D01*
X28054Y-53291D01*
X27840Y-54370D01*
Y-63870D01*
X28054Y-64949D01*
X28666Y-65864D01*
X29581Y-66476D01*
X30660Y-66690D01*
X34160D01*
X35239Y-66476D01*
X36154Y-65864D01*
X36452Y-65419D01*
X37868D01*
X38166Y-65864D01*
X39081Y-66476D01*
X40160Y-66690D01*
X43660D01*
X44739Y-66476D01*
X45654Y-65864D01*
X45952Y-65419D01*
X47368D01*
X47666Y-65864D01*
X48581Y-66476D01*
X48740Y-66507D01*
Y-68207D01*
X49017Y-69596D01*
X49803Y-70773D01*
X53347Y-74316D01*
X53305Y-74590D01*
X52784Y-75550D01*
X49660D01*
X48581Y-75764D01*
X47666Y-76376D01*
X47055Y-77291D01*
X46840Y-78370D01*
Y-87870D01*
X47055Y-88949D01*
X47666Y-89864D01*
X48581Y-90476D01*
X49660Y-90690D01*
X53160D01*
X54239Y-90476D01*
X55154Y-89864D01*
X55205Y-89787D01*
X56460D01*
X56869Y-90197D01*
X56869Y-90197D01*
X58047Y-90983D01*
X59436Y-91260D01*
X59436Y-91260D01*
X66040D01*
X67429Y-90983D01*
X68607Y-90197D01*
X71146Y-87657D01*
X71147Y-87657D01*
X71933Y-86479D01*
X72210Y-85090D01*
Y-73660D01*
X71933Y-72271D01*
X71147Y-71093D01*
X65363Y-65310D01*
X65353Y-65286D01*
X65159Y-65089D01*
X64705Y-64606D01*
X64532Y-64400D01*
X64502Y-64358D01*
X64499Y-64351D01*
X64495Y-64348D01*
X64468Y-64304D01*
X64383Y-63878D01*
X63878Y-63122D01*
X63122Y-62617D01*
X62230Y-62439D01*
X61106D01*
X60960Y-62410D01*
X60814Y-62439D01*
X59690D01*
X58798Y-62617D01*
X58042Y-63122D01*
X57537Y-63878D01*
X57359Y-64770D01*
Y-64836D01*
X56089Y-65515D01*
X56000Y-65455D01*
Y-59510D01*
X60960D01*
X61106Y-59481D01*
X62230D01*
X63122Y-59303D01*
X63878Y-58798D01*
X64383Y-58042D01*
X64561Y-57150D01*
Y-56026D01*
X64590Y-55880D01*
X64561Y-55734D01*
Y-54610D01*
X64383Y-53718D01*
X63878Y-52962D01*
X63122Y-52457D01*
X62230Y-52279D01*
X61106D01*
X60960Y-52250D01*
X54966D01*
X54239Y-51764D01*
X53324Y-51582D01*
X53160Y-51054D01*
X53161Y-50280D01*
X53718Y-49908D01*
X54223Y-49152D01*
X54365Y-48441D01*
X54915Y-47617D01*
X55192Y-46228D01*
Y-43942D01*
X54915Y-42553D01*
X54129Y-41375D01*
X54128Y-41375D01*
X49811Y-37057D01*
X48633Y-36271D01*
X47244Y-35994D01*
X39377D01*
X38100Y-35740D01*
D02*
G37*
G36*
X34160Y-75550D02*
X30660D01*
X29581Y-75764D01*
X28666Y-76376D01*
X28054Y-77291D01*
X27840Y-78370D01*
Y-87870D01*
X28054Y-88949D01*
X28666Y-89864D01*
X29189Y-90214D01*
X29211Y-90267D01*
X29364Y-90330D01*
X29581Y-90476D01*
X29638Y-90487D01*
X29743Y-90562D01*
X29926Y-90604D01*
X30044Y-90639D01*
X30075Y-90651D01*
Y-92925D01*
X30055Y-92933D01*
X29935Y-92968D01*
X29752Y-93010D01*
X29646Y-93085D01*
X29588Y-93097D01*
X29435Y-93199D01*
X29275Y-93252D01*
X29235Y-93333D01*
X28832Y-93602D01*
X28588Y-93967D01*
X28535Y-93989D01*
X28472Y-94141D01*
X28466Y-94149D01*
X28418Y-94151D01*
X28342Y-94185D01*
X26268D01*
X26192Y-94151D01*
X26144Y-94149D01*
X26138Y-94141D01*
X26075Y-93989D01*
X26022Y-93967D01*
X25778Y-93602D01*
X25022Y-93097D01*
X24130Y-92919D01*
X21590D01*
X20698Y-93097D01*
X19942Y-93602D01*
X19698Y-93967D01*
X19645Y-93989D01*
X19582Y-94141D01*
X19576Y-94149D01*
X19528Y-94151D01*
X19452Y-94185D01*
X17378D01*
X17302Y-94151D01*
X17254Y-94149D01*
X17248Y-94141D01*
X17185Y-93989D01*
X17132Y-93967D01*
X16888Y-93602D01*
X16132Y-93097D01*
X15240Y-92919D01*
X12700D01*
X11808Y-93097D01*
X11052Y-93602D01*
X10547Y-94358D01*
X10369Y-95250D01*
Y-97790D01*
X10547Y-98682D01*
X11052Y-99438D01*
X11808Y-99943D01*
X12700Y-100121D01*
X15240D01*
X16132Y-99943D01*
X16888Y-99438D01*
X17132Y-99073D01*
X17185Y-99051D01*
X17248Y-98899D01*
X17254Y-98891D01*
X17302Y-98889D01*
X17378Y-98855D01*
X19452D01*
X19528Y-98889D01*
X19576Y-98891D01*
X19582Y-98899D01*
X19645Y-99051D01*
X19698Y-99073D01*
X19942Y-99438D01*
X20698Y-99943D01*
X21590Y-100121D01*
X24130D01*
X25022Y-99943D01*
X25778Y-99438D01*
X26022Y-99073D01*
X26075Y-99051D01*
X26138Y-98899D01*
X26144Y-98891D01*
X26192Y-98889D01*
X26268Y-98855D01*
X28342D01*
X28418Y-98889D01*
X28466Y-98891D01*
X28472Y-98899D01*
X28535Y-99051D01*
X28588Y-99073D01*
X28832Y-99438D01*
X29588Y-99943D01*
X30480Y-100121D01*
X33020D01*
X33912Y-99943D01*
X34668Y-99438D01*
X35173Y-98682D01*
X35351Y-97790D01*
Y-95250D01*
X35173Y-94358D01*
X34817Y-93825D01*
X34818Y-93819D01*
X34811Y-93797D01*
Y-93789D01*
X34803Y-93770D01*
X34800Y-93754D01*
X34795Y-93720D01*
X34781Y-93536D01*
X34780Y-93421D01*
X34745Y-93341D01*
Y-90651D01*
X34776Y-90639D01*
X34894Y-90604D01*
X35077Y-90562D01*
X35182Y-90487D01*
X35239Y-90476D01*
X35457Y-90330D01*
X35608Y-90267D01*
X35631Y-90214D01*
X36154Y-89864D01*
X36765Y-88949D01*
X36980Y-87870D01*
Y-78370D01*
X36765Y-77291D01*
X36154Y-76376D01*
X35239Y-75764D01*
X34160Y-75550D01*
D02*
G37*
G36*
X-165354Y-82251D02*
X-167894D01*
X-168786Y-82429D01*
X-169542Y-82934D01*
X-170047Y-83690D01*
X-170225Y-84582D01*
Y-87122D01*
X-170047Y-88014D01*
X-169542Y-88770D01*
X-168786Y-89275D01*
X-168684Y-89296D01*
Y-92060D01*
X-168786Y-92081D01*
X-169542Y-92586D01*
X-170047Y-93342D01*
X-170225Y-94234D01*
Y-96774D01*
X-170047Y-97666D01*
X-170015Y-97714D01*
X-170694Y-98984D01*
X-180551D01*
X-181900Y-97635D01*
Y-96632D01*
X-182397Y-95432D01*
X-183316Y-94513D01*
X-184516Y-94016D01*
X-185816D01*
X-187016Y-94513D01*
X-187935Y-95432D01*
X-188432Y-96632D01*
Y-97932D01*
X-187935Y-99132D01*
X-187016Y-100051D01*
X-185816Y-100548D01*
X-184813D01*
X-182860Y-102500D01*
X-182192Y-102947D01*
X-181404Y-103104D01*
X-170630D01*
X-169951Y-104374D01*
X-170047Y-104518D01*
X-170225Y-105410D01*
Y-107950D01*
X-170047Y-108842D01*
X-169542Y-109598D01*
X-168786Y-110103D01*
X-167894Y-110281D01*
X-165354D01*
X-164992Y-110209D01*
X-162492Y-112708D01*
X-161824Y-113155D01*
X-161036Y-113312D01*
X-143170D01*
X-142776Y-113233D01*
X-142128Y-113502D01*
X-140828D01*
X-139628Y-113005D01*
X-138709Y-112086D01*
X-138212Y-110886D01*
Y-109586D01*
X-138709Y-108386D01*
X-139628Y-107467D01*
X-140828Y-106970D01*
X-142128D01*
X-143328Y-107467D01*
X-144247Y-108386D01*
X-144581Y-109192D01*
X-160183D01*
X-163023Y-106352D01*
Y-105410D01*
X-163201Y-104518D01*
X-163706Y-103762D01*
X-164462Y-103257D01*
X-165354Y-103079D01*
X-166252D01*
X-166778Y-101809D01*
X-165838Y-100869D01*
X-165391Y-100201D01*
X-165235Y-99412D01*
Y-99081D01*
X-164462Y-98927D01*
X-163706Y-98422D01*
X-163201Y-97666D01*
X-163023Y-96774D01*
Y-94234D01*
X-163201Y-93342D01*
X-163706Y-92586D01*
X-164462Y-92081D01*
X-164564Y-92060D01*
Y-89296D01*
X-164462Y-89275D01*
X-163706Y-88770D01*
X-163201Y-88014D01*
X-163023Y-87122D01*
Y-84582D01*
X-163201Y-83690D01*
X-163706Y-82934D01*
X-164462Y-82429D01*
X-165354Y-82251D01*
D02*
G37*
G36*
X11450Y-104365D02*
X3450D01*
X2078Y-104638D01*
X915Y-105415D01*
X138Y-106578D01*
X-135Y-107950D01*
X138Y-109322D01*
X915Y-110485D01*
X2078Y-111262D01*
X3450Y-111535D01*
X11450D01*
X12822Y-111262D01*
X13985Y-110485D01*
X14762Y-109322D01*
X15035Y-107950D01*
X14762Y-106578D01*
X13985Y-105415D01*
X12822Y-104638D01*
X11450Y-104365D01*
D02*
G37*
G36*
X62230Y-92919D02*
X59690D01*
X58798Y-93097D01*
X58042Y-93602D01*
X57537Y-94358D01*
X57359Y-95250D01*
Y-97790D01*
X57537Y-98682D01*
X58042Y-99438D01*
X58625Y-99828D01*
Y-101395D01*
X56352Y-103668D01*
X55738D01*
X54538Y-104165D01*
X53619Y-105084D01*
X53122Y-106284D01*
Y-106595D01*
X51757Y-107961D01*
X50840D01*
X49640Y-108458D01*
X48721Y-109377D01*
X48224Y-110577D01*
Y-111876D01*
X48721Y-113077D01*
X49640Y-113996D01*
X50840Y-114493D01*
X52140D01*
X53340Y-113996D01*
X54259Y-113077D01*
X54756Y-111876D01*
Y-111565D01*
X56121Y-110200D01*
X57038D01*
X58238Y-109703D01*
X59157Y-108784D01*
X59654Y-107584D01*
Y-106970D01*
X62611Y-104013D01*
X63117Y-103256D01*
X63295Y-102362D01*
Y-99828D01*
X63878Y-99438D01*
X64383Y-98682D01*
X64561Y-97790D01*
Y-95250D01*
X64383Y-94358D01*
X63878Y-93602D01*
X63122Y-93097D01*
X62230Y-92919D01*
D02*
G37*
G36*
X11450Y-117065D02*
X3450D01*
X2078Y-117338D01*
X915Y-118115D01*
X138Y-119278D01*
X-135Y-120650D01*
X138Y-122022D01*
X915Y-123185D01*
X2078Y-123962D01*
X3450Y-124235D01*
X11450D01*
X12822Y-123962D01*
X13985Y-123185D01*
X14465Y-122467D01*
X22307D01*
Y-124206D01*
X22485Y-125098D01*
X22990Y-125854D01*
X23746Y-126359D01*
X24638Y-126537D01*
X27178D01*
X28070Y-126359D01*
X28826Y-125854D01*
X29038Y-125812D01*
X30187Y-126508D01*
Y-129929D01*
X28917Y-130314D01*
X28826Y-130178D01*
X28070Y-129673D01*
X27178Y-129495D01*
X24638D01*
X23746Y-129673D01*
X22990Y-130178D01*
X22485Y-130934D01*
X22391Y-131406D01*
X14380D01*
X13985Y-130815D01*
X12822Y-130038D01*
X11450Y-129765D01*
X3450D01*
X2078Y-130038D01*
X915Y-130815D01*
X138Y-131978D01*
X-135Y-133350D01*
X138Y-134722D01*
X915Y-135885D01*
X2078Y-136662D01*
X3450Y-136935D01*
X11450D01*
X12822Y-136662D01*
X13985Y-135885D01*
X14549Y-135040D01*
X22441D01*
X22485Y-135258D01*
X22990Y-136014D01*
X23746Y-136519D01*
X23964Y-136563D01*
Y-139328D01*
X17511Y-145781D01*
X17117Y-146371D01*
X16979Y-147066D01*
Y-154201D01*
X15552Y-155628D01*
X14537D01*
X13336Y-156126D01*
X12418Y-157044D01*
X11920Y-158245D01*
Y-159544D01*
X12418Y-160744D01*
X13336Y-161663D01*
X14537Y-162160D01*
X15836D01*
X17036Y-161663D01*
X17955Y-160744D01*
X18452Y-159544D01*
Y-158245D01*
X18342Y-157978D01*
X20081Y-156239D01*
X20475Y-155649D01*
X20613Y-154954D01*
Y-147819D01*
X21991Y-146440D01*
X22986Y-146872D01*
X23183Y-147044D01*
Y-156947D01*
X22831Y-157298D01*
X22334Y-158499D01*
Y-159798D01*
X22831Y-160998D01*
X23750Y-161917D01*
X24951Y-162414D01*
X26250D01*
X27450Y-161917D01*
X28369Y-160998D01*
X28866Y-159798D01*
Y-158499D01*
X28369Y-157298D01*
X27450Y-156380D01*
X26817Y-156117D01*
Y-147711D01*
X33289Y-141239D01*
X33683Y-140649D01*
X33821Y-139954D01*
Y-124830D01*
X33683Y-124135D01*
X33289Y-123545D01*
X31475Y-121731D01*
X30885Y-121337D01*
X30190Y-121199D01*
X29416D01*
X29331Y-120774D01*
X28826Y-120018D01*
X28070Y-119513D01*
X27178Y-119335D01*
X24638D01*
X24578Y-119347D01*
X24015Y-118971D01*
X23320Y-118833D01*
X14465D01*
X13985Y-118115D01*
X12822Y-117338D01*
X11450Y-117065D01*
D02*
G37*
G36*
Y-142465D02*
X3450D01*
X2078Y-142738D01*
X915Y-143515D01*
X138Y-144678D01*
X-135Y-146050D01*
X138Y-147422D01*
X915Y-148585D01*
X2078Y-149362D01*
X3450Y-149635D01*
X11450D01*
X12822Y-149362D01*
X13985Y-148585D01*
X14762Y-147422D01*
X15035Y-146050D01*
X14762Y-144678D01*
X13985Y-143515D01*
X12822Y-142738D01*
X11450Y-142465D01*
D02*
G37*
G36*
X-104544Y-190499D02*
X-105843D01*
X-107044Y-190996D01*
X-107962Y-191914D01*
X-108460Y-193115D01*
Y-194414D01*
X-107962Y-195614D01*
X-107044Y-196533D01*
X-105843Y-197030D01*
X-104544D01*
X-103343Y-196533D01*
X-102425Y-195614D01*
X-101928Y-194414D01*
Y-193115D01*
X-102425Y-191914D01*
X-103343Y-190996D01*
X-104544Y-190499D01*
D02*
G37*
%LPD*%
G36*
X7994Y143118D02*
X10016Y142956D01*
X10424Y142858D01*
X10698Y142739D01*
X10840Y142598D01*
X10848Y142436D01*
X10724Y142252D01*
X10467Y142046D01*
X9226Y135176D01*
X9650Y129940D01*
X9717Y129791D01*
X9711Y129659D01*
X9631Y129542D01*
X9477Y129440D01*
X9250Y129354D01*
X8949Y129284D01*
X8574Y129229D01*
X8125Y129190D01*
X7007Y129159D01*
Y132313D01*
X6729Y132569D01*
X5320Y133954D01*
X7024Y139066D01*
X7054Y143129D01*
X7994Y143118D01*
D02*
G37*
G36*
X32353Y8033D02*
X32434Y7947D01*
X32523Y7870D01*
X32621Y7804D01*
X32727Y7748D01*
X32841Y7702D01*
X32964Y7666D01*
X33096Y7640D01*
X33235Y7625D01*
X33383Y7620D01*
Y5080D01*
X33235Y5075D01*
X33096Y5060D01*
X32964Y5034D01*
X32841Y4998D01*
X32727Y4952D01*
X32621Y4896D01*
X32523Y4830D01*
X32434Y4753D01*
X32353Y4667D01*
X32280Y4570D01*
Y8130D01*
X32353Y8033D01*
D02*
G37*
G36*
X-32280Y-8130D02*
X-32353Y-8033D01*
X-32434Y-7947D01*
X-32523Y-7870D01*
X-32621Y-7804D01*
X-32727Y-7748D01*
X-32841Y-7702D01*
X-32964Y-7666D01*
X-33096Y-7640D01*
X-33235Y-7625D01*
X-33383Y-7620D01*
Y-5080D01*
X-33235Y-5075D01*
X-33096Y-5060D01*
X-32964Y-5034D01*
X-32841Y-4998D01*
X-32727Y-4952D01*
X-32621Y-4896D01*
X-32523Y-4830D01*
X-32434Y-4753D01*
X-32353Y-4667D01*
X-32280Y-4570D01*
Y-8130D01*
D02*
G37*
G36*
X-43270Y-9252D02*
X-43447Y-9434D01*
X-43865Y-9922D01*
X-43967Y-10066D01*
X-44050Y-10200D01*
X-44115Y-10326D01*
X-44160Y-10441D01*
X-44188Y-10548D01*
X-44196Y-10645D01*
X-46459Y-8382D01*
X-46362Y-8374D01*
X-46255Y-8346D01*
X-46140Y-8301D01*
X-46014Y-8236D01*
X-45880Y-8153D01*
X-45736Y-8051D01*
X-45420Y-7791D01*
X-45248Y-7633D01*
X-45066Y-7456D01*
X-43270Y-9252D01*
D02*
G37*
G36*
X-81490Y-6591D02*
X-81466Y-6807D01*
X-81426Y-6998D01*
X-81371Y-7163D01*
X-81300Y-7303D01*
X-81212Y-7417D01*
X-81109Y-7506D01*
X-80990Y-7569D01*
X-80856Y-7607D01*
X-80705Y-7620D01*
Y-10160D01*
X-80856Y-10173D01*
X-80990Y-10211D01*
X-81109Y-10274D01*
X-81212Y-10363D01*
X-81300Y-10477D01*
X-81371Y-10617D01*
X-81426Y-10782D01*
X-81466Y-10973D01*
X-81490Y-11189D01*
X-81498Y-11430D01*
Y-6350D01*
X-81490Y-6591D01*
D02*
G37*
G36*
X32353Y-17367D02*
X32434Y-17453D01*
X32523Y-17530D01*
X32621Y-17596D01*
X32727Y-17652D01*
X32841Y-17698D01*
X32964Y-17734D01*
X33096Y-17760D01*
X33235Y-17775D01*
X33383Y-17780D01*
Y-20320D01*
X33235Y-20325D01*
X33096Y-20340D01*
X32964Y-20366D01*
X32841Y-20402D01*
X32727Y-20448D01*
X32621Y-20504D01*
X32523Y-20570D01*
X32434Y-20647D01*
X32353Y-20733D01*
X32280Y-20830D01*
Y-17270D01*
X32353Y-17367D01*
D02*
G37*
G36*
X28799Y-21545D02*
X28583Y-21569D01*
X28392Y-21609D01*
X28227Y-21664D01*
X28087Y-21735D01*
X27973Y-21823D01*
X27884Y-21926D01*
X27821Y-22045D01*
X27783Y-22179D01*
X27770Y-22330D01*
X25230D01*
X25217Y-22179D01*
X25179Y-22045D01*
X25116Y-21926D01*
X25027Y-21823D01*
X24913Y-21735D01*
X24773Y-21664D01*
X24608Y-21609D01*
X24417Y-21569D01*
X24201Y-21545D01*
X23960Y-21537D01*
X29040D01*
X28799Y-21545D01*
D02*
G37*
G36*
X-76307Y-27309D02*
X-76504Y-28300D01*
X-76307Y-29291D01*
X-75745Y-30131D01*
Y-31469D01*
X-76307Y-32309D01*
X-76504Y-33300D01*
X-76307Y-34291D01*
X-75745Y-35131D01*
Y-36469D01*
X-76307Y-37309D01*
X-76504Y-38300D01*
X-76307Y-39291D01*
X-75745Y-40131D01*
Y-41469D01*
X-76307Y-42309D01*
X-76504Y-43300D01*
X-76307Y-44291D01*
X-75745Y-45131D01*
Y-46469D01*
X-76307Y-47309D01*
X-76504Y-48300D01*
X-76307Y-49291D01*
X-75745Y-50131D01*
Y-51469D01*
X-76307Y-52309D01*
X-76504Y-53300D01*
X-76307Y-54291D01*
X-75745Y-55131D01*
Y-56469D01*
X-76307Y-57309D01*
X-76504Y-58300D01*
X-76307Y-59291D01*
X-75745Y-60131D01*
Y-61469D01*
X-76307Y-62309D01*
X-76504Y-63300D01*
X-76307Y-64291D01*
X-75745Y-65131D01*
Y-66130D01*
X-75974Y-66506D01*
X-76611Y-66633D01*
X-77196Y-67024D01*
X-80270Y-70098D01*
X-80661Y-70683D01*
X-80799Y-71374D01*
Y-81788D01*
X-80661Y-82479D01*
X-80270Y-83064D01*
X-77497Y-85837D01*
Y-103604D01*
X-80012Y-106120D01*
X-81186Y-105634D01*
Y-99893D01*
X-81159Y-99875D01*
X-80597Y-99035D01*
X-80400Y-98044D01*
Y-87376D01*
X-80597Y-86385D01*
X-81159Y-85545D01*
X-81999Y-84983D01*
X-82990Y-84786D01*
X-83858Y-83754D01*
X-83875Y-83667D01*
X-83083Y-82876D01*
X-82586Y-81676D01*
Y-80376D01*
X-83083Y-79176D01*
X-84002Y-78257D01*
X-85202Y-77760D01*
X-86502D01*
X-87702Y-78257D01*
X-88621Y-79176D01*
X-89118Y-80376D01*
Y-80567D01*
X-89385Y-80891D01*
X-90023Y-80754D01*
X-90655Y-80207D01*
Y-69765D01*
X-90069Y-69179D01*
X-89563Y-68422D01*
X-89385Y-67528D01*
Y-63778D01*
X-88925Y-63318D01*
X-88428Y-62118D01*
Y-60818D01*
X-88925Y-59618D01*
X-89844Y-58699D01*
X-91044Y-58202D01*
X-92344D01*
X-93544Y-58699D01*
X-94463Y-59618D01*
X-94960Y-60818D01*
Y-62118D01*
X-94463Y-63318D01*
X-94055Y-63726D01*
Y-66561D01*
X-94641Y-67147D01*
X-94652Y-67164D01*
X-94877Y-67229D01*
X-95348Y-67241D01*
X-96122Y-67077D01*
X-96339Y-66751D01*
X-96810Y-66280D01*
Y-65136D01*
X-97307Y-63936D01*
X-98226Y-63017D01*
X-99426Y-62520D01*
X-100726D01*
X-101926Y-63017D01*
X-102845Y-63936D01*
X-103342Y-65136D01*
Y-66436D01*
X-102845Y-67636D01*
X-101926Y-68555D01*
X-100726Y-69052D01*
X-100642D01*
X-100325Y-69369D01*
Y-72323D01*
X-101595Y-72766D01*
X-102200Y-72161D01*
X-103400Y-71664D01*
X-104700D01*
X-105900Y-72161D01*
X-106819Y-73080D01*
X-107316Y-74280D01*
Y-75580D01*
X-106819Y-76780D01*
X-105900Y-77699D01*
X-105325Y-77937D01*
Y-80265D01*
X-106595Y-80650D01*
X-106714Y-80472D01*
X-113511Y-73675D01*
Y-41629D01*
X-113649Y-40939D01*
X-114040Y-40353D01*
X-116133Y-38260D01*
X-116114Y-38215D01*
Y-36916D01*
X-116611Y-35715D01*
X-117530Y-34797D01*
X-118730Y-34299D01*
X-120030D01*
X-121230Y-34797D01*
X-122149Y-35715D01*
X-122646Y-36916D01*
Y-38215D01*
X-122149Y-39415D01*
X-121230Y-40334D01*
X-120030Y-40831D01*
X-118730D01*
X-118685Y-40813D01*
X-117121Y-42377D01*
Y-74365D01*
X-117248Y-74482D01*
X-118305Y-74977D01*
X-121929Y-71353D01*
Y-47677D01*
X-121884Y-47658D01*
X-120965Y-46740D01*
X-120468Y-45539D01*
Y-44240D01*
X-120965Y-43040D01*
X-121884Y-42121D01*
X-123084Y-41624D01*
X-124384D01*
X-125584Y-42121D01*
X-126189Y-42726D01*
X-127459Y-42283D01*
Y-33733D01*
X-123239Y-29513D01*
X-85852D01*
X-84958Y-29335D01*
X-84866Y-29274D01*
X-83840Y-30115D01*
X-84038Y-30592D01*
Y-31892D01*
X-83541Y-33092D01*
X-82622Y-34011D01*
X-81422Y-34508D01*
X-80122D01*
X-78922Y-34011D01*
X-78003Y-33092D01*
X-77506Y-31892D01*
Y-30592D01*
X-78003Y-29392D01*
X-78922Y-28473D01*
X-78262Y-27474D01*
X-77305Y-26517D01*
X-76307Y-27309D01*
D02*
G37*
G36*
X-132129Y-68121D02*
X-139641Y-75633D01*
X-140147Y-76391D01*
X-140325Y-77284D01*
Y-86299D01*
X-140383Y-86385D01*
X-140580Y-87376D01*
Y-90375D01*
X-142494D01*
X-143387Y-90553D01*
X-144145Y-91059D01*
X-146001Y-92915D01*
X-153279D01*
X-153295Y-92834D01*
X-153677Y-92262D01*
Y-80890D01*
X-147066D01*
X-146075Y-80693D01*
X-145235Y-80131D01*
X-144673Y-79291D01*
X-144476Y-78300D01*
X-144673Y-77309D01*
X-145127Y-76630D01*
X-144944Y-75953D01*
X-144609Y-75360D01*
X-143362D01*
X-142574Y-75203D01*
X-141906Y-74756D01*
X-140500Y-73351D01*
X-140054Y-72682D01*
X-139897Y-71894D01*
Y-71714D01*
X-139628Y-71603D01*
X-138709Y-70684D01*
X-138212Y-69484D01*
Y-68184D01*
X-138709Y-66984D01*
X-139628Y-66065D01*
X-140828Y-65568D01*
X-142128D01*
X-143328Y-66065D01*
X-143717Y-66454D01*
X-143965Y-66457D01*
X-145235Y-65203D01*
Y-65131D01*
X-144673Y-64291D01*
X-144476Y-63300D01*
X-144673Y-62309D01*
X-145235Y-61469D01*
Y-60131D01*
X-144673Y-59291D01*
X-144476Y-58300D01*
X-144673Y-57309D01*
X-145235Y-56469D01*
Y-55131D01*
X-144673Y-54291D01*
X-144476Y-53300D01*
X-144673Y-52309D01*
X-145235Y-51469D01*
Y-50131D01*
X-144673Y-49291D01*
X-144476Y-48300D01*
X-144673Y-47309D01*
X-145235Y-46469D01*
X-146075Y-45907D01*
X-147066Y-45710D01*
X-157734D01*
X-158725Y-45907D01*
X-159565Y-46469D01*
X-160726Y-46266D01*
X-161540Y-45394D01*
Y-44094D01*
X-162037Y-42894D01*
X-162956Y-41975D01*
X-163126Y-41905D01*
X-162873Y-40635D01*
X-158812D01*
X-158725Y-40693D01*
X-157734Y-40890D01*
X-147066D01*
X-146075Y-40693D01*
X-145843Y-40538D01*
X-144375D01*
X-143481Y-40360D01*
X-142724Y-39854D01*
X-137971Y-35101D01*
X-132129D01*
Y-68121D01*
D02*
G37*
G36*
X24135Y-39387D02*
X24386Y-43179D01*
X24439Y-43217D01*
X24522Y-43257D01*
X24614Y-43282D01*
X24406D01*
X24467Y-43537D01*
X24557Y-43775D01*
X24657Y-43925D01*
X21063D01*
X21163Y-43775D01*
X21253Y-43537D01*
X21314Y-43282D01*
X21106D01*
X21198Y-43257D01*
X21281Y-43217D01*
X21337Y-43176D01*
X21400Y-42794D01*
X21506Y-41697D01*
X21585Y-39387D01*
X21590Y-38440D01*
X24130D01*
X24135Y-39387D01*
D02*
G37*
G36*
X15247Y-40124D02*
X15405Y-42508D01*
X15478Y-42947D01*
X15538Y-43209D01*
X15549Y-43217D01*
X15632Y-43257D01*
X15724Y-43282D01*
X15554D01*
X15563Y-43322D01*
X15663Y-43634D01*
X15775Y-43883D01*
X15900Y-44069D01*
X12040D01*
X12165Y-43883D01*
X12277Y-43634D01*
X12377Y-43322D01*
X12385Y-43282D01*
X12216D01*
X12308Y-43257D01*
X12391Y-43217D01*
X12402Y-43209D01*
X12462Y-42947D01*
X12535Y-42508D01*
X12641Y-41442D01*
X12693Y-40124D01*
X12700Y-39370D01*
X15240D01*
X15247Y-40124D01*
D02*
G37*
G36*
X-1140Y-59448D02*
X-873Y-59767D01*
X-785Y-59901D01*
X-727Y-60017D01*
X-699Y-60117D01*
X-701Y-60198D01*
X-734Y-60263D01*
X-797Y-60311D01*
X-890Y-60341D01*
X-2388Y-67729D01*
X-2399Y-67271D01*
X-2485Y-66433D01*
X-2561Y-66052D01*
X-2658Y-65696D01*
X-2776Y-65366D01*
X-2916Y-65061D01*
X-3078Y-64782D01*
X-3261Y-64528D01*
X-3466Y-64300D01*
X-1319Y-59263D01*
X-1140Y-59448D01*
D02*
G37*
G36*
X-2388Y-67729D02*
X1421Y-69197D01*
X1168Y-69114D01*
X920Y-69062D01*
X675Y-69042D01*
X435Y-69052D01*
X200Y-69094D01*
X-32Y-69166D01*
X-258Y-69269D01*
X-481Y-69404D01*
X-700Y-69570D01*
X-914Y-69766D01*
X-2927Y-68187D01*
X-2827Y-68088D01*
X-2414Y-67726D01*
X-2396Y-67722D01*
X-2388Y-67729D01*
D02*
G37*
G36*
X-54659Y-19509D02*
Y-31496D01*
X-54481Y-32390D01*
X-53975Y-33147D01*
X-42037Y-45085D01*
X-41280Y-45591D01*
X-40386Y-45769D01*
X-8710D01*
Y-53340D01*
Y-59094D01*
X-8433Y-60483D01*
X-7647Y-61661D01*
X-4291Y-65016D01*
X-4285Y-65034D01*
X-4119Y-65219D01*
X-4002Y-65381D01*
X-3894Y-65568D01*
X-3795Y-65782D01*
X-3707Y-66027D01*
X-3632Y-66304D01*
X-3574Y-66596D01*
X-3510Y-67224D01*
X-3552Y-67261D01*
X-3568Y-67294D01*
X-3602Y-67307D01*
X-3702Y-67406D01*
X-3729Y-67473D01*
X-3792Y-67508D01*
X-3807Y-67561D01*
X-9349Y-73103D01*
X-15240D01*
X-16134Y-73281D01*
X-16891Y-73787D01*
X-28399Y-85295D01*
X-49517D01*
X-51005Y-83807D01*
Y-81540D01*
X-50422Y-81150D01*
X-49917Y-80394D01*
X-49739Y-79502D01*
Y-76962D01*
X-49917Y-76070D01*
X-50422Y-75314D01*
X-51178Y-74809D01*
X-52070Y-74631D01*
X-54610D01*
X-55502Y-74809D01*
X-56258Y-75314D01*
X-56670Y-75931D01*
X-62219D01*
X-62255Y-75907D01*
X-63246Y-75710D01*
X-73914D01*
X-74905Y-75907D01*
X-75745Y-76469D01*
X-75919Y-76729D01*
X-77189Y-76344D01*
Y-72122D01*
X-75418Y-70350D01*
X-74905Y-70693D01*
X-73914Y-70890D01*
X-63246D01*
X-62255Y-70693D01*
X-61415Y-70131D01*
X-60853Y-69291D01*
X-60656Y-68300D01*
X-60853Y-67309D01*
X-61415Y-66469D01*
Y-65131D01*
X-60853Y-64291D01*
X-60656Y-63300D01*
X-60853Y-62309D01*
X-61415Y-61469D01*
Y-60131D01*
X-60853Y-59291D01*
X-60656Y-58300D01*
X-60853Y-57309D01*
X-61415Y-56469D01*
Y-55131D01*
X-60853Y-54291D01*
X-60656Y-53300D01*
X-60853Y-52309D01*
X-61415Y-51469D01*
Y-50131D01*
X-60853Y-49291D01*
X-60656Y-48300D01*
X-60853Y-47309D01*
X-61415Y-46469D01*
Y-45131D01*
X-60853Y-44291D01*
X-60656Y-43300D01*
X-60853Y-42309D01*
X-61415Y-41469D01*
Y-40131D01*
X-60853Y-39291D01*
X-60656Y-38300D01*
X-60853Y-37309D01*
X-61415Y-36469D01*
Y-35131D01*
X-60853Y-34291D01*
X-60656Y-33300D01*
X-60853Y-32309D01*
X-61415Y-31469D01*
Y-30131D01*
X-60853Y-29291D01*
X-60656Y-28300D01*
X-60853Y-27309D01*
X-61415Y-26469D01*
Y-25131D01*
X-60853Y-24291D01*
X-60656Y-23300D01*
X-60853Y-22309D01*
X-61415Y-21469D01*
X-62255Y-20907D01*
X-63246Y-20710D01*
X-73914D01*
X-74905Y-20907D01*
X-75745Y-21469D01*
X-75763Y-21495D01*
X-76640D01*
X-77331Y-21633D01*
X-77916Y-22024D01*
X-79385Y-23493D01*
X-80655Y-22967D01*
Y-15302D01*
X-80597Y-15215D01*
X-80400Y-14224D01*
Y-11470D01*
X-80399Y-11466D01*
X-80392Y-11267D01*
X-80387Y-11225D01*
X-62943D01*
X-54659Y-19509D01*
D02*
G37*
G36*
X-129122Y-78684D02*
X-128658Y-79007D01*
X-128438Y-79138D01*
X-128226Y-79250D01*
X-128021Y-79341D01*
X-127825Y-79411D01*
X-127636Y-79462D01*
X-127456Y-79492D01*
X-127283Y-79502D01*
X-127167Y-80518D01*
X-127354Y-80530D01*
X-127541Y-80564D01*
X-127727Y-80622D01*
X-127912Y-80703D01*
X-128097Y-80807D01*
X-128281Y-80934D01*
X-128464Y-81084D01*
X-128647Y-81257D01*
X-128829Y-81454D01*
X-129010Y-81673D01*
X-129365Y-78492D01*
X-129122Y-78684D01*
D02*
G37*
G36*
X-117477Y-85770D02*
X-117462Y-85878D01*
X-117438Y-85973D01*
X-117403Y-86056D01*
X-117359Y-86125D01*
X-117305Y-86182D01*
X-117241Y-86227D01*
X-117168Y-86259D01*
X-117084Y-86278D01*
X-116991Y-86284D01*
X-118989D01*
X-118896Y-86278D01*
X-118812Y-86259D01*
X-118739Y-86227D01*
X-118675Y-86182D01*
X-118621Y-86125D01*
X-118577Y-86056D01*
X-118542Y-85973D01*
X-118518Y-85878D01*
X-118503Y-85770D01*
X-118498Y-85649D01*
X-117482D01*
X-117477Y-85770D01*
D02*
G37*
G36*
X-15831Y-89735D02*
X-20949D01*
X-20946Y-89718D01*
X-20942Y-89670D01*
X-20932Y-88977D01*
X-20930Y-88198D01*
X-15850D01*
X-15831Y-89735D01*
D02*
G37*
G36*
X-49550Y-110468D02*
X-49747Y-110435D01*
X-49934Y-110417D01*
X-50112Y-110413D01*
X-50280Y-110424D01*
X-50438Y-110449D01*
X-50587Y-110489D01*
X-50726Y-110543D01*
X-50855Y-110612D01*
X-50975Y-110695D01*
X-51085Y-110793D01*
X-52568Y-108684D01*
X-52466Y-108580D01*
X-52229Y-108308D01*
X-52174Y-108231D01*
X-52129Y-108161D01*
X-52097Y-108098D01*
X-52076Y-108042D01*
X-52066Y-107992D01*
X-52068Y-107950D01*
X-49550Y-110468D01*
D02*
G37*
G36*
X-50042Y-143216D02*
X-49829Y-143377D01*
X-49610Y-143507D01*
X-49387Y-143606D01*
X-49159Y-143675D01*
X-48927Y-143714D01*
X-48689Y-143722D01*
X-48447Y-143699D01*
X-48200Y-143646D01*
X-47948Y-143563D01*
X-51876Y-145086D01*
X-51874Y-145070D01*
X-51884Y-145044D01*
X-51905Y-145009D01*
X-51938Y-144964D01*
X-52038Y-144845D01*
X-52275Y-144594D01*
X-52377Y-144491D01*
X-50251Y-143025D01*
X-50042Y-143216D01*
D02*
G37*
%LPC*%
G36*
X-22860Y-49739D02*
X-25400D01*
X-26292Y-49917D01*
X-27048Y-50422D01*
X-27553Y-51178D01*
X-27731Y-52070D01*
Y-54610D01*
X-27553Y-55502D01*
X-27048Y-56258D01*
X-26683Y-56502D01*
X-26661Y-56555D01*
X-26509Y-56618D01*
X-26501Y-56624D01*
X-26499Y-56672D01*
X-26465Y-56748D01*
Y-59044D01*
X-26287Y-59938D01*
X-25781Y-60695D01*
X-22857Y-63619D01*
X-22854Y-63635D01*
X-22812Y-63664D01*
X-22771Y-63705D01*
X-22745Y-63778D01*
X-22628Y-63908D01*
X-22565Y-63997D01*
X-22512Y-64090D01*
X-22469Y-64193D01*
X-22455Y-64238D01*
Y-67729D01*
X-22260Y-68711D01*
X-21704Y-69543D01*
X-20872Y-70099D01*
X-19890Y-70294D01*
X-16890D01*
X-15908Y-70099D01*
X-15076Y-69543D01*
X-14520Y-68711D01*
X-14325Y-67729D01*
Y-61839D01*
X-14520Y-60857D01*
X-15076Y-60025D01*
X-15908Y-59469D01*
X-16890Y-59274D01*
X-19890D01*
X-20436Y-59382D01*
X-20445Y-59375D01*
X-20518Y-59305D01*
X-20598Y-59274D01*
X-21795Y-58077D01*
Y-56748D01*
X-21761Y-56672D01*
X-21759Y-56624D01*
X-21751Y-56618D01*
X-21599Y-56555D01*
X-21577Y-56502D01*
X-21212Y-56258D01*
X-20707Y-55502D01*
X-20529Y-54610D01*
Y-52070D01*
X-20707Y-51178D01*
X-21212Y-50422D01*
X-21968Y-49917D01*
X-22860Y-49739D01*
D02*
G37*
%LPD*%
G36*
X-22468Y-55803D02*
X-22550Y-55843D01*
X-22623Y-55895D01*
X-22686Y-55961D01*
X-22739Y-56040D01*
X-22783Y-56133D01*
X-22817Y-56238D01*
X-22841Y-56358D01*
X-22855Y-56490D01*
X-22860Y-56636D01*
X-25400D01*
X-25405Y-56490D01*
X-25419Y-56358D01*
X-25443Y-56238D01*
X-25477Y-56133D01*
X-25521Y-56040D01*
X-25574Y-55961D01*
X-25637Y-55895D01*
X-25710Y-55843D01*
X-25792Y-55803D01*
X-25884Y-55778D01*
X-22376D01*
X-22468Y-55803D01*
D02*
G37*
G36*
X-21173Y-60201D02*
X-20978Y-60358D01*
X-20889Y-60416D01*
X-20805Y-60458D01*
X-20726Y-60486D01*
X-20652Y-60500D01*
X-20584Y-60500D01*
X-20521Y-60484D01*
X-20463Y-60455D01*
X-21358Y-65378D01*
X-21315Y-65086D01*
X-21294Y-64806D01*
X-21295Y-64540D01*
X-21319Y-64287D01*
X-21364Y-64047D01*
X-21432Y-63820D01*
X-21523Y-63606D01*
X-21635Y-63405D01*
X-21770Y-63218D01*
X-21927Y-63043D01*
X-21278Y-60100D01*
X-21173Y-60201D01*
D02*
G37*
G36*
X33412Y-49454D02*
X33330Y-49493D01*
X33257Y-49545D01*
X33194Y-49611D01*
X33141Y-49690D01*
X33097Y-49783D01*
X33063Y-49889D01*
X33039Y-50008D01*
X33025Y-50140D01*
X33020Y-50286D01*
X30480D01*
X30475Y-50140D01*
X30461Y-50008D01*
X30436Y-49889D01*
X30403Y-49783D01*
X30359Y-49690D01*
X30306Y-49611D01*
X30243Y-49545D01*
X30171Y-49493D01*
X30088Y-49454D01*
X29996Y-49428D01*
X33504D01*
X33412Y-49454D01*
D02*
G37*
G36*
X33033Y-52014D02*
X33071Y-52157D01*
X33134Y-52281D01*
X33222Y-52389D01*
X33336Y-52480D01*
X33475Y-52553D01*
X33639Y-52609D01*
X33829Y-52647D01*
X34044Y-52668D01*
X34284Y-52673D01*
X29989Y-52750D01*
X30082Y-52724D01*
X30166Y-52685D01*
X30240Y-52632D01*
X30303Y-52566D01*
X30357Y-52487D01*
X30401Y-52394D01*
X30436Y-52288D01*
X30460Y-52169D01*
X30475Y-52036D01*
X30480Y-51891D01*
X33020Y-51855D01*
X33033Y-52014D01*
D02*
G37*
G36*
X63505Y-64821D02*
X63537Y-64889D01*
X63591Y-64975D01*
X63666Y-65078D01*
X63882Y-65336D01*
X64367Y-65852D01*
X64571Y-66059D01*
X60979Y-69651D01*
X60773Y-69447D01*
X59895Y-68671D01*
X59809Y-68617D01*
X59741Y-68585D01*
X59690Y-68574D01*
X63494Y-64770D01*
X63505Y-64821D01*
D02*
G37*
G36*
X34612Y-89540D02*
X34417Y-89599D01*
X34244Y-89667D01*
X34094Y-89743D01*
X33968Y-89828D01*
X33864Y-89922D01*
X33784Y-90025D01*
X33726Y-90136D01*
X33691Y-90256D01*
X33680Y-90385D01*
X31140D01*
X31128Y-90256D01*
X31094Y-90136D01*
X31036Y-90025D01*
X30956Y-89922D01*
X30852Y-89828D01*
X30726Y-89743D01*
X30576Y-89667D01*
X30403Y-89599D01*
X30208Y-89540D01*
X29989Y-89490D01*
X34831D01*
X34612Y-89540D01*
D02*
G37*
G36*
X33680Y-93438D02*
X33682Y-93585D01*
X33701Y-93841D01*
X33717Y-93951D01*
X33738Y-94049D01*
X33764Y-94135D01*
X33795Y-94208D01*
X33830Y-94270D01*
X33869Y-94319D01*
X33914Y-94356D01*
X29996Y-94082D01*
X30214Y-94033D01*
X30408Y-93975D01*
X30580Y-93910D01*
X30728Y-93836D01*
X30854Y-93754D01*
X30957Y-93664D01*
X31037Y-93566D01*
X31094Y-93460D01*
X31129Y-93346D01*
X31140Y-93224D01*
X33680Y-93438D01*
D02*
G37*
G36*
X29312Y-98274D02*
X29286Y-98182D01*
X29247Y-98099D01*
X29195Y-98027D01*
X29129Y-97964D01*
X29050Y-97911D01*
X28957Y-97867D01*
X28851Y-97833D01*
X28732Y-97809D01*
X28600Y-97795D01*
X28454Y-97790D01*
Y-95250D01*
X28600Y-95245D01*
X28732Y-95231D01*
X28851Y-95206D01*
X28957Y-95173D01*
X29050Y-95129D01*
X29129Y-95076D01*
X29195Y-95013D01*
X29247Y-94941D01*
X29286Y-94858D01*
X29312Y-94766D01*
Y-98274D01*
D02*
G37*
G36*
X25324Y-94858D02*
X25363Y-94941D01*
X25415Y-95013D01*
X25481Y-95076D01*
X25560Y-95129D01*
X25653Y-95173D01*
X25759Y-95206D01*
X25878Y-95231D01*
X26010Y-95245D01*
X26156Y-95250D01*
Y-97790D01*
X26010Y-97795D01*
X25878Y-97809D01*
X25759Y-97833D01*
X25653Y-97867D01*
X25560Y-97911D01*
X25481Y-97964D01*
X25415Y-98027D01*
X25363Y-98099D01*
X25324Y-98182D01*
X25298Y-98274D01*
Y-94766D01*
X25324Y-94858D01*
D02*
G37*
G36*
X20422Y-98274D02*
X20396Y-98182D01*
X20357Y-98099D01*
X20305Y-98027D01*
X20239Y-97964D01*
X20160Y-97911D01*
X20067Y-97867D01*
X19962Y-97833D01*
X19842Y-97809D01*
X19710Y-97795D01*
X19564Y-97790D01*
Y-95250D01*
X19710Y-95245D01*
X19842Y-95231D01*
X19962Y-95206D01*
X20067Y-95173D01*
X20160Y-95129D01*
X20239Y-95076D01*
X20305Y-95013D01*
X20357Y-94941D01*
X20396Y-94858D01*
X20422Y-94766D01*
Y-98274D01*
D02*
G37*
G36*
X16434Y-94858D02*
X16473Y-94941D01*
X16525Y-95013D01*
X16591Y-95076D01*
X16670Y-95129D01*
X16763Y-95173D01*
X16868Y-95206D01*
X16988Y-95231D01*
X17120Y-95245D01*
X17266Y-95250D01*
Y-97790D01*
X17120Y-97795D01*
X16988Y-97809D01*
X16868Y-97833D01*
X16763Y-97867D01*
X16670Y-97911D01*
X16591Y-97964D01*
X16525Y-98027D01*
X16473Y-98099D01*
X16434Y-98182D01*
X16408Y-98274D01*
Y-94766D01*
X16434Y-94858D01*
D02*
G37*
D10*
X-172466Y-22860D02*
X-172211Y-23115D01*
Y-34037D02*
Y-23115D01*
X-28244Y-112106D02*
X-27940D01*
X-156011Y-94289D02*
Y-78300D01*
X-176704Y-85852D02*
Y-80184D01*
X-92990Y-92710D02*
Y-68798D01*
X-91720Y-61494D02*
X-91694Y-61468D01*
X-92990Y-68798D02*
X-91720Y-67528D01*
Y-61494D01*
X51187Y-45079D02*
X51562Y-44704D01*
X41910Y-46990D02*
X50800D01*
X51187Y-46603D02*
Y-45079D01*
X50800Y-46990D02*
X51187Y-46603D01*
X-40352Y92490D02*
X-34440D01*
X-45651Y87191D02*
X-40352Y92490D01*
X-48394Y87191D02*
X-45651D01*
X-49530Y82720D02*
Y86054D01*
X-48394Y87191D01*
X-34440Y92490D02*
X-34406Y92456D01*
X-30734D01*
X-30700Y92490D02*
X-19084D01*
X-17200Y90606D01*
X-30734Y92456D02*
X-30700Y92490D01*
X-17200Y77490D02*
Y90606D01*
X-23114Y71576D02*
X-17200Y77490D01*
X-23114Y66294D02*
Y71576D01*
X11430Y86720D02*
X18182Y93472D01*
X51228D01*
X55880Y88820D01*
X11430Y82720D02*
Y86720D01*
X55880Y73406D02*
Y88820D01*
X57150Y67564D02*
Y72136D01*
Y67564D02*
X58420Y66294D01*
X55880Y73406D02*
X57150Y72136D01*
X-127990Y-105182D02*
X-109982Y-123190D01*
X-127990Y-105182D02*
Y-92710D01*
X-109982Y-123190D02*
X-62484D01*
X-40386Y-43434D02*
X-6096D01*
X-52324Y-31496D02*
X-40386Y-43434D01*
X-6096D02*
X-5080Y-44450D01*
Y-39624D01*
X-87990Y-92710D02*
X-87893Y-92613D01*
X-85852Y-81556D02*
Y-81026D01*
X-87893Y-83597D02*
X-85852Y-81556D01*
X-87893Y-92613D02*
Y-83597D01*
X-100076Y-66316D02*
Y-65786D01*
Y-66316D02*
X-97990Y-68402D01*
Y-92710D02*
Y-68402D01*
X-104050Y-75460D02*
X-102990Y-76520D01*
X-104050Y-75460D02*
Y-74930D01*
X-102990Y-92710D02*
Y-76520D01*
X-165100Y-50800D02*
X-162600Y-53300D01*
X-175804Y-50800D02*
X-165100D01*
X-177546Y-44802D02*
Y-44326D01*
X-177292Y-49312D02*
Y-45056D01*
X-177546Y-44802D02*
X-177292Y-45056D01*
Y-49312D02*
X-175804Y-50800D01*
X-23622Y66802D02*
X-23114Y66294D01*
X-68834D02*
X-68580Y66040D01*
Y53848D02*
Y66040D01*
X-97990Y24438D02*
X-68580Y53848D01*
X-97990Y-8890D02*
Y24438D01*
X5160Y61802D02*
Y66294D01*
X-2794Y53848D02*
X5160Y61802D01*
X50800Y66294D02*
X58420D01*
X-172211Y-34037D02*
X-167948Y-38300D01*
X-27940Y-111252D02*
Y-87630D01*
Y-112106D02*
Y-111252D01*
Y-87630D02*
X-27432D01*
X-50484D02*
X-27940D01*
X-32218Y-116843D02*
Y-116293D01*
Y-116913D02*
Y-116843D01*
X-167948Y-38300D02*
X-152400D01*
X56085Y-106934D02*
X56388D01*
X60960Y-102362D01*
X51793Y-111227D02*
X56085Y-106934D01*
X51490Y-111227D02*
X51793D01*
X60960Y-102362D02*
Y-96520D01*
X-32218Y-116293D02*
X-28329Y-112404D01*
Y-112191D01*
X-35955Y-120650D02*
X-32218Y-116913D01*
X-28329Y-112191D02*
X-28244Y-112106D01*
X-45550Y-120650D02*
X-35955D01*
X-53340Y-84774D02*
Y-78232D01*
Y-84774D02*
X-50484Y-87630D01*
X-68546Y-78266D02*
X-53374D01*
X-53340Y-78232D01*
X-68580Y-78300D02*
X-68546Y-78266D01*
X-165386Y-67596D02*
X-163322Y-65532D01*
X-177546Y-68326D02*
X-176816Y-67596D01*
X-165386D01*
X-163322Y-65532D02*
Y-60706D01*
X-161013Y-58397D01*
X-152497D01*
X-152400Y-58300D01*
X-162600Y-53300D02*
X-152400D01*
X-156718Y-94996D02*
X-156464Y-95250D01*
X-145034D01*
X-142494Y-92710D02*
X-137990D01*
X-145034Y-95250D02*
X-142494Y-92710D01*
X-156718Y-94996D02*
X-156011Y-94289D01*
Y-78300D02*
X-152400D01*
X-174820D02*
X-156246D01*
X-176704Y-80184D02*
X-174820Y-78300D01*
X-138938Y-32766D02*
X-129794D01*
X-144375Y-38203D02*
X-138938Y-32766D01*
X-152400Y-38300D02*
X-152303Y-38203D01*
X-144375D01*
X-129794Y-69088D02*
Y-32766D01*
X-124206Y-27178D02*
X-85852D01*
X-129794Y-32766D02*
X-124206Y-27178D01*
X-137990Y-77284D02*
X-129794Y-69088D01*
X-85852Y-27178D02*
X-82990Y-24316D01*
X-15240Y-75438D02*
X-8382D01*
X610Y-66446D01*
X-27432Y-87630D02*
X-15240Y-75438D01*
X26500Y19050D02*
X27432D01*
X-28956Y-19050D02*
X-26500D01*
X-46482Y-10668D02*
X-42164Y-6350D01*
X-26500D01*
X-26924Y6350D02*
X-26500D01*
X26500Y-19050D02*
X36322D01*
X40132Y-15240D01*
Y762D01*
X34544Y6350D02*
X40132Y762D01*
X26500Y6350D02*
X34544D01*
X-107860Y-118618D02*
X-60706D01*
X-50038Y-107950D02*
X-45550D01*
X-60706Y-118618D02*
X-50038Y-107950D01*
X-57658Y-137414D02*
Y-128016D01*
Y-137414D02*
X-49022Y-146050D01*
X-62484Y-123190D02*
X-57658Y-128016D01*
X-49022Y-146050D02*
X-45550D01*
X-122990Y-103488D02*
X-107860Y-118618D01*
X-122990Y-103488D02*
Y-92710D01*
X-137990D02*
Y-77284D01*
X-82990Y-24316D02*
Y-8890D01*
X610Y-66446D02*
Y-64784D01*
X-82990Y-8890D02*
X-61976D01*
X-52324Y-18542D01*
Y-31496D02*
Y-18542D01*
X-62484Y53848D02*
X-2794D01*
X-92990Y23342D02*
X-62484Y53848D01*
X-92990Y-8890D02*
Y23342D01*
X33020Y66294D02*
X40640D01*
X33020Y62484D02*
Y66294D01*
X29210Y58674D02*
X33020Y62484D01*
X18796Y58674D02*
X29210D01*
X15240Y62230D02*
X18796Y58674D01*
X15240Y62230D02*
Y66294D01*
X-23114D02*
X-15494D01*
X-33274Y61722D02*
Y66294D01*
X-36322Y58674D02*
X-33274Y61722D01*
X-47752Y58674D02*
X-36322D01*
X-51054Y61976D02*
X-47752Y58674D01*
X-51054Y61976D02*
Y66294D01*
X-58674D02*
X-51054D01*
X31750Y-58460D02*
X32410Y-59120D01*
X31750Y-58460D02*
Y-46990D01*
X-24130Y-59044D02*
X-18390Y-64784D01*
X-24130Y-59044D02*
Y-53340D01*
X-5080Y-39624D02*
X-1016Y-35560D01*
X10160D01*
X13970Y-39370D01*
Y-45720D02*
Y-39370D01*
X22860Y-29970D02*
X26500Y-26330D01*
X22860Y-45720D02*
Y-29970D01*
X26500Y-26330D02*
Y-19050D01*
X22860Y-96520D02*
X31750D01*
X13970D02*
X22860D01*
X32410Y-95860D02*
Y-83120D01*
X31750Y-96520D02*
X32410Y-95860D01*
D11*
X-179324Y21590D02*
X-173078Y27836D01*
X-179324Y13208D02*
Y21590D01*
X-184361Y8170D02*
X-179324Y13208D01*
X-171078Y30582D02*
X-168578D01*
X-173078Y27836D02*
Y28582D01*
X-171078Y30582D01*
X-184361Y-508D02*
Y8170D01*
X-191008Y20652D02*
X-190578Y21082D01*
X-191008Y10668D02*
Y20652D01*
X-167294Y-99412D02*
Y-96174D01*
X-168926Y-101044D02*
X-167294Y-99412D01*
Y-96174D02*
X-166624Y-95504D01*
X-181404Y-101044D02*
X-168926D01*
X-185166Y-97282D02*
X-181404Y-101044D01*
X-166624Y-105664D02*
X-161036Y-111252D01*
X-142155Y-110236D02*
X-141478D01*
X-143170Y-111252D02*
X-142155Y-110236D01*
X-161036Y-111252D02*
X-143170D01*
X-141956Y-71894D02*
Y-69312D01*
X-143362Y-73300D02*
X-141956Y-71894D01*
Y-69312D02*
X-141478Y-68834D01*
X-152400Y-73300D02*
X-143362D01*
X-166624Y-95504D02*
Y-85852D01*
D14*
X25908Y-123016D02*
X30190D01*
X32004Y-124830D01*
Y-139954D02*
Y-124830D01*
X25000Y-146958D02*
X32004Y-139954D01*
X7450Y-120650D02*
X23320D01*
X25000Y-158750D02*
Y-146958D01*
X18796Y-147066D02*
X25781Y-140081D01*
Y-133223D01*
X15000Y-158750D02*
X18796Y-154954D01*
Y-147066D01*
X7577Y-133223D02*
X25781D01*
X7450Y-133350D02*
X7577Y-133223D01*
D19*
X-176318Y-508D02*
D03*
X-184361D02*
D03*
D46*
X-123734Y-72100D02*
Y-44890D01*
X-119380Y-37565D02*
X-115316Y-41629D01*
Y-74422D02*
Y-41629D01*
X-123734Y-72100D02*
X-112990Y-82844D01*
Y-92710D02*
Y-82844D01*
X-115316Y-74422D02*
X-107990Y-81748D01*
Y-92710D02*
Y-81748D01*
X-103378Y-111506D02*
X-102613D01*
X-100327Y-113792D01*
X-85132D01*
X-110998Y-105410D02*
X-94488D01*
X-85132Y-113792D02*
X-75692Y-104352D01*
X-94488Y-105410D02*
X-90170Y-109728D01*
X-102990Y-19692D02*
X-101564Y-21118D01*
X-90424D01*
X-164806Y-44744D02*
X-161250Y-48300D01*
X-152400D01*
X-82990Y-107374D02*
Y-92710D01*
X-85344Y-109728D02*
X-82990Y-107374D01*
X-90170Y-109728D02*
X-85344D01*
X-78994Y-81788D02*
X-75692Y-85090D01*
X-78994Y-71374D02*
X-75920Y-68300D01*
X-78994Y-81788D02*
Y-71374D01*
X-75692Y-104352D02*
Y-85090D01*
X-80772Y-31242D02*
Y-27432D01*
X-76640Y-23300D01*
X-68580D01*
X-102990Y-19692D02*
Y-8890D01*
X-75920Y-68300D02*
X-68580D01*
D51*
X762Y-99822D02*
Y-85344D01*
X52370Y-55880D02*
X60960D01*
X47244Y-39624D02*
X51562Y-43942D01*
Y-46228D02*
Y-43942D01*
X50800Y-46990D02*
X51562Y-46228D01*
X57984Y-73120D02*
X60960Y-76096D01*
X57283Y-73120D02*
X57984D01*
X52370Y-68207D02*
X57283Y-73120D01*
X60960Y-77470D02*
Y-76096D01*
X52370Y-68207D02*
Y-55880D01*
X51410Y-85198D02*
X52370Y-86158D01*
X57964D01*
X59436Y-87630D01*
X66040D01*
X51410Y-85198D02*
Y-83120D01*
X41910Y-59120D02*
Y-46990D01*
X51308Y-55880D02*
X52370D01*
X38826Y-40096D02*
Y-40096D01*
X41910Y-46990D02*
Y-43180D01*
X38826Y-40096D02*
X41910Y-43180D01*
X38354Y-39624D02*
X47244D01*
X38100Y-39370D02*
X38826Y-40096D01*
X4014Y-81788D02*
X9602Y-76200D01*
X610Y-85192D02*
X4014Y-81788D01*
X-2794D02*
X4014D01*
X-18390Y-93740D02*
Y-87732D01*
X-12446Y-81788D01*
X-2794D01*
X610Y-85192D01*
X9602Y-76200D02*
X13970D01*
X762Y-85344D02*
X1778Y-86360D01*
X13970D01*
Y-76200D02*
X22860D01*
Y-86360D02*
Y-76200D01*
X13970Y-86360D02*
X22860D01*
X13970D02*
Y-76200D01*
X-5080Y-53340D02*
Y-44450D01*
Y-59094D02*
Y-53340D01*
Y-59094D02*
X610Y-64784D01*
X13970Y-45720D02*
X22860D01*
X66040Y-87630D02*
X68580Y-85090D01*
Y-73660D01*
X60960Y-66040D02*
X68580Y-73660D01*
D53*
X31748Y125220D02*
X36639Y130111D01*
X-28664Y125260D02*
X-24130Y129794D01*
D54*
X-130810Y-80264D02*
X-130556Y-80010D01*
X-121920D01*
X-117990Y-83940D01*
Y-92710D02*
Y-83940D01*
D55*
X-155000Y-155000D02*
D03*
X155000D02*
D03*
Y155000D02*
D03*
X-155000D02*
D03*
D56*
X-112776Y15748D02*
D03*
X-123734Y-44890D02*
D03*
X-119380Y-37565D02*
D03*
X-127762Y57912D02*
D03*
X-132243Y1672D02*
D03*
X-126583Y11176D02*
D03*
X-138176Y19558D02*
D03*
X-144684Y24559D02*
D03*
X-169164Y-14478D02*
D03*
X-167894Y18796D02*
D03*
X-176530Y-2794D02*
D03*
X-191008Y10668D02*
D03*
X-91694Y-61468D02*
D03*
X44704Y-137629D02*
D03*
X762Y-99822D02*
D03*
X59182Y-55880D02*
D03*
X51562Y-44704D02*
D03*
X-30378Y-67243D02*
D03*
X-24420Y78840D02*
D03*
X-196850Y-63754D02*
D03*
X25600Y-159149D02*
D03*
X15186Y-158895D02*
D03*
X-144780Y7874D02*
D03*
X-9144Y-90932D02*
D03*
X-8890Y-99822D02*
D03*
X-103378Y-111506D02*
D03*
X-110998Y-105410D02*
D03*
X-34290Y23928D02*
D03*
X-27940D02*
D03*
X13970Y-53340D02*
D03*
X-85852Y-81026D02*
D03*
X-100076Y-65786D02*
D03*
X-104050Y-74930D02*
D03*
X-90424Y-21118D02*
D03*
X36830Y78958D02*
D03*
X24130D02*
D03*
X-185166Y-97282D02*
D03*
X-164806Y-44744D02*
D03*
X-141478Y-68834D02*
D03*
X44196Y-70866D02*
D03*
X65532Y19050D02*
D03*
X59690Y25654D02*
D03*
X-105194Y-193764D02*
D03*
X-105448Y193585D02*
D03*
X-141478Y-110236D02*
D03*
X56388Y-106934D02*
D03*
X51490Y-111227D02*
D03*
X-29210Y-126746D02*
D03*
X61214Y-39624D02*
D03*
Y-22860D02*
D03*
X19558Y-104902D02*
D03*
X26162D02*
D03*
X30480Y-70612D02*
D03*
X37592Y-70866D02*
D03*
X51308Y-55880D02*
D03*
X-32218Y-116843D02*
D03*
X-27940Y-111252D02*
D03*
X47244Y-39624D02*
D03*
X38100Y-39370D02*
D03*
X-12954Y-56134D02*
D03*
Y-49784D02*
D03*
X61214Y-31496D02*
D03*
X184404Y-5334D02*
D03*
X-84836Y-143510D02*
D03*
X-30480Y-74422D02*
D03*
X-137160Y-41656D02*
D03*
X21590Y-61214D02*
D03*
X13970D02*
D03*
X185420Y8890D02*
D03*
X-196596Y-55118D02*
D03*
X-177546Y-116586D02*
D03*
X-186690Y-88900D02*
D03*
X-194818Y-89154D02*
D03*
X-118872Y57658D02*
D03*
X-137160Y57404D02*
D03*
X-81280Y12700D02*
D03*
X-81534Y4318D02*
D03*
X-98806Y-133604D02*
D03*
X37846Y-31496D02*
D03*
X45466D02*
D03*
X53340D02*
D03*
X-34290Y13970D02*
D03*
X-27940D02*
D03*
X21590Y-53340D02*
D03*
X-29210Y-133858D02*
D03*
X-137160Y-49784D02*
D03*
X-133350Y-116332D02*
D03*
X-133096Y-109474D02*
D03*
X27432Y19050D02*
D03*
X-28956Y-19050D02*
D03*
X-46482Y-10668D02*
D03*
X-80772Y-31242D02*
D03*
X-26924Y6350D02*
D03*
X-130810Y-80264D02*
D03*
X762Y-91948D02*
D03*
X610Y-85192D02*
D03*
X-36830Y78740D02*
D03*
D57*
X-105474Y-41063D02*
D03*
Y-34036D02*
D03*
X-98298Y-48514D02*
D03*
X-90424Y-48260D02*
D03*
X-48768Y133350D02*
D03*
X-49530Y139954D02*
D03*
X-38100Y116840D02*
D03*
X67564Y96266D02*
D03*
X-47498Y111760D02*
D03*
X-37582Y109220D02*
D03*
X49334Y116944D02*
D03*
X762Y74168D02*
D03*
X73914Y77978D02*
D03*
Y87376D02*
D03*
X64516D02*
D03*
X64262Y78232D02*
D03*
X762Y83058D02*
D03*
X49276Y100584D02*
D03*
X49022Y108712D02*
D03*
X-10668Y114554D02*
D03*
X-22863Y116835D02*
D03*
X-47546Y40640D02*
D03*
Y96520D02*
D03*
Y104140D02*
D03*
X-38100Y101600D02*
D03*
X10683Y139134D02*
D03*
X-105664Y-48006D02*
D03*
X-90424Y-34036D02*
D03*
X-98044D02*
D03*
X-98056Y-40894D02*
D03*
X-90319D02*
D03*
X-57150Y133350D02*
D03*
X71374Y183642D02*
D03*
X78994Y160782D02*
D03*
X86614Y191262D02*
D03*
X71374D02*
D03*
X78994Y168402D02*
D03*
X71374D02*
D03*
X86669Y176089D02*
D03*
X78994Y176022D02*
D03*
X71374Y160782D02*
D03*
X78994Y191262D02*
D03*
X71374Y176022D02*
D03*
X86614Y160782D02*
D03*
Y168402D02*
D03*
X78994Y183642D02*
D03*
X86614D02*
D03*
X10922Y99314D02*
D03*
Y106934D02*
D03*
Y114554D02*
D03*
X-82097Y162239D02*
D03*
X73428Y-161836D02*
D03*
X81048D02*
D03*
X65808D02*
D03*
X73406Y-169672D02*
D03*
X65786D02*
D03*
Y-177292D02*
D03*
X73406D02*
D03*
Y-184912D02*
D03*
X81026Y-177292D02*
D03*
Y-169672D02*
D03*
X65786Y-192532D02*
D03*
X177800Y30480D02*
D03*
Y-45720D02*
D03*
Y-38100D02*
D03*
Y45720D02*
D03*
Y-30480D02*
D03*
Y38100D02*
D03*
X-10668Y99314D02*
D03*
X-82097Y185100D02*
D03*
X-74477Y169860D02*
D03*
X-66857Y177479D02*
D03*
X-82097D02*
D03*
X-74477Y185100D02*
D03*
X-82097Y192719D02*
D03*
X-74477Y177479D02*
D03*
X-66857Y185100D02*
D03*
Y192719D02*
D03*
Y162239D02*
D03*
Y169860D02*
D03*
X-74477Y162239D02*
D03*
X-82097Y169860D02*
D03*
X-74477Y192719D02*
D03*
X-76001Y-160340D02*
D03*
X-83621Y-183200D02*
D03*
X-76001Y-190821D02*
D03*
X-68381Y-183200D02*
D03*
Y-190821D02*
D03*
X-83621D02*
D03*
X-68381Y-160340D02*
D03*
Y-167960D02*
D03*
X-76001Y-175581D02*
D03*
X-83621Y-160340D02*
D03*
X-76001Y-167960D02*
D03*
X-83621Y-175581D02*
D03*
X-68381D02*
D03*
X-76001Y-183200D02*
D03*
X-83621Y-167960D02*
D03*
X81026Y-192532D02*
D03*
Y-184912D02*
D03*
X73406Y-192532D02*
D03*
X65786Y-184912D02*
D03*
X11430Y132334D02*
D03*
X66040Y40640D02*
D03*
X58420D02*
D03*
X50800D02*
D03*
X43180D02*
D03*
X35560D02*
D03*
X27940D02*
D03*
X20320D02*
D03*
X12700D02*
D03*
X5080D02*
D03*
X-2540D02*
D03*
X-10160D02*
D03*
X-17780D02*
D03*
X-25400D02*
D03*
X-33020D02*
D03*
X-40640D02*
D03*
X185420Y-38100D02*
D03*
X193040D02*
D03*
X185420Y-30480D02*
D03*
X193040D02*
D03*
X185420Y-45720D02*
D03*
X193040D02*
D03*
X185420Y38100D02*
D03*
Y30480D02*
D03*
Y45720D02*
D03*
X193040D02*
D03*
Y38100D02*
D03*
Y30480D02*
D03*
X57150Y52578D02*
D03*
X65786Y53086D02*
D03*
X48006Y52578D02*
D03*
X38608Y52324D02*
D03*
X-87122Y109982D02*
D03*
Y102362D02*
D03*
Y94742D02*
D03*
Y87122D02*
D03*
Y79502D02*
D03*
Y71882D02*
D03*
X-10668Y106934D02*
D03*
X30480Y109220D02*
D03*
X22860D02*
D03*
X38100D02*
D03*
Y101600D02*
D03*
X30480D02*
D03*
X22860D02*
D03*
X30480Y116840D02*
D03*
X22860D02*
D03*
X38100D02*
D03*
X-30480D02*
D03*
Y101600D02*
D03*
X-22860D02*
D03*
Y109220D02*
D03*
X-30480D02*
D03*
X3810Y132334D02*
D03*
Y139954D02*
D03*
X-57150D02*
D03*
D58*
X-132913Y-8813D02*
Y1002D01*
X-132990Y-8890D02*
X-132913Y-8813D01*
X-126583Y11176D02*
X-126492Y11085D01*
X-132913Y1002D02*
X-132243Y1672D01*
X-126492Y-608D02*
Y11085D01*
X-138176Y19558D02*
X-137990Y19372D01*
Y-8890D02*
Y19372D01*
X-147955Y-22713D02*
Y4095D01*
X-144780Y7270D01*
Y7874D01*
X-127747Y-8647D02*
Y-1863D01*
X-126492Y-608D01*
X-152400Y-23300D02*
X-148542D01*
X-147955Y-22713D01*
X-127990Y-8890D02*
X-127747Y-8647D01*
D59*
X-190578Y21082D02*
D03*
X-168578Y11582D02*
D03*
Y30582D02*
D03*
D60*
X26500Y19050D02*
D03*
Y6350D02*
D03*
Y-6350D02*
D03*
Y-19050D02*
D03*
X-26500Y19050D02*
D03*
Y6350D02*
D03*
Y-6350D02*
D03*
Y-19050D02*
D03*
X-45550Y-146050D02*
D03*
Y-133350D02*
D03*
Y-120650D02*
D03*
Y-107950D02*
D03*
X7450Y-146050D02*
D03*
Y-133350D02*
D03*
Y-120650D02*
D03*
Y-107950D02*
D03*
D61*
X22860Y-45720D02*
D03*
Y-55880D02*
D03*
X13970Y-45720D02*
D03*
Y-55880D02*
D03*
X25908Y-133096D02*
D03*
Y-122936D02*
D03*
X-156718Y-105156D02*
D03*
Y-94996D02*
D03*
X13970Y-66040D02*
D03*
Y-76200D02*
D03*
X22860Y-66040D02*
D03*
Y-76200D02*
D03*
X60960Y-55880D02*
D03*
Y-66040D02*
D03*
Y-77470D02*
D03*
Y-87630D02*
D03*
X22860Y-86360D02*
D03*
Y-96520D02*
D03*
X13970Y-86360D02*
D03*
Y-96520D02*
D03*
D62*
X51410Y-59120D02*
D03*
X41910D02*
D03*
X32410D02*
D03*
Y-83120D02*
D03*
X41910D02*
D03*
X51410D02*
D03*
D63*
X15240Y177800D02*
D03*
X-45720D02*
D03*
X-15240D02*
D03*
X45720D02*
D03*
D64*
X-166624Y-85852D02*
D03*
X-176784D02*
D03*
X-172466Y-22860D02*
D03*
X-182626D02*
D03*
X-43180Y-78232D02*
D03*
X-53340D02*
D03*
X-23114Y66294D02*
D03*
X-33274D02*
D03*
X-58674D02*
D03*
X-68834D02*
D03*
X50800D02*
D03*
X40640D02*
D03*
X15240D02*
D03*
X5080D02*
D03*
X-5334D02*
D03*
X-15494D02*
D03*
X-40894D02*
D03*
X-51054D02*
D03*
X68580D02*
D03*
X58420D02*
D03*
X22860D02*
D03*
X33020D02*
D03*
X-176784Y-106680D02*
D03*
X-166624D02*
D03*
X50800Y-96520D02*
D03*
X60960D02*
D03*
X-176784Y-95504D02*
D03*
X-166624D02*
D03*
X5080Y-44450D02*
D03*
X-5080D02*
D03*
X5080Y-53340D02*
D03*
X-5080D02*
D03*
X-13970D02*
D03*
X-24130D02*
D03*
X60960Y-46990D02*
D03*
X50800D02*
D03*
X31750D02*
D03*
X41910D02*
D03*
X31750Y-96520D02*
D03*
X41910D02*
D03*
D65*
X-180086Y-44134D02*
D03*
Y-56134D02*
D03*
Y-68134D02*
D03*
D66*
X11430Y135720D02*
D03*
X-11430Y82720D02*
D03*
X-24130D02*
D03*
X-36830D02*
D03*
X-49530D02*
D03*
X-11430Y135720D02*
D03*
X-24130D02*
D03*
X-36830D02*
D03*
X-49530D02*
D03*
X24130D02*
D03*
X36830D02*
D03*
X49530D02*
D03*
X11430Y82720D02*
D03*
X24130D02*
D03*
X36830D02*
D03*
X49530D02*
D03*
D67*
X-67818Y81731D02*
D03*
Y107753D02*
D03*
X68072Y108261D02*
D03*
Y82239D02*
D03*
D68*
X-30480Y109220D02*
D03*
X30480D02*
D03*
D69*
X-18390Y-93740D02*
D03*
X-8890D02*
D03*
X610D02*
D03*
Y-64784D02*
D03*
X-18390D02*
D03*
D70*
X-92990Y-8890D02*
D03*
X-87990D02*
D03*
X-82990D02*
D03*
X-97990D02*
D03*
X-102990D02*
D03*
X-122990D02*
D03*
X-117990D02*
D03*
X-107990D02*
D03*
X-112990D02*
D03*
X-127990D02*
D03*
X-132990D02*
D03*
X-137990D02*
D03*
X-82990Y-92710D02*
D03*
X-87990D02*
D03*
X-92990D02*
D03*
X-107990D02*
D03*
X-112990D02*
D03*
X-102990D02*
D03*
X-97990D02*
D03*
X-117990D02*
D03*
X-122990D02*
D03*
X-137990D02*
D03*
X-132990D02*
D03*
X-127990D02*
D03*
D71*
X-68580Y-53300D02*
D03*
Y-23300D02*
D03*
Y-28300D02*
D03*
Y-33300D02*
D03*
Y-48300D02*
D03*
Y-43300D02*
D03*
Y-38300D02*
D03*
Y-58300D02*
D03*
Y-63300D02*
D03*
X-68580Y-78300D02*
D03*
X-68580Y-73300D02*
D03*
Y-68300D02*
D03*
X-152400Y-68300D02*
D03*
Y-73300D02*
D03*
Y-78300D02*
D03*
Y-63300D02*
D03*
Y-58300D02*
D03*
Y-38300D02*
D03*
Y-43300D02*
D03*
Y-53300D02*
D03*
Y-48300D02*
D03*
Y-33300D02*
D03*
Y-28300D02*
D03*
Y-23300D02*
D03*
D72*
X81026Y-169672D02*
Y-151638D01*
Y-177292D02*
Y-169672D01*
Y-181610D02*
Y-177292D01*
Y-151638D02*
X101092Y-131572D01*
X85852Y156718D02*
Y179832D01*
Y156718D02*
X101092Y141478D01*
Y-131572D02*
Y141478D01*
D73*
X-49530Y135720D02*
Y139954D01*
Y135720D02*
Y136954D01*
X-52916Y135720D02*
X-51138D01*
X-49530Y134112D02*
X-48768Y133350D01*
X-51138Y135720D02*
X-48768Y133350D01*
X-57150D02*
X-52916D01*
X-56134Y139954D02*
X-52019D01*
X3810D02*
X11430D01*
X3810D02*
X11430Y132334D01*
X-57150Y139954D02*
X-52916Y135720D01*
X3810Y132334D02*
X11430D01*
X-57150Y133350D02*
Y139954D01*
X3810Y132334D02*
Y139954D01*
D74*
X-47546Y111760D02*
Y120602D01*
Y111712D02*
Y111760D01*
X-47795Y104140D02*
X-47546D01*
Y120602D02*
X-43434Y124714D01*
X-29750Y124720D02*
X-29210Y125260D01*
X-43434Y124714D02*
X-40275D01*
X-40269Y124720D01*
X-29750D01*
X-29210Y125260D02*
X-28664D01*
X-24130Y129794D02*
Y131572D01*
X21438Y125220D02*
X31748D01*
X21436Y125222D02*
X21438Y125220D01*
X36639Y131381D02*
X36830Y131572D01*
X10922Y118110D02*
X18034Y125222D01*
X21436D01*
X-47568Y103737D02*
X-47546Y103715D01*
X-47744Y103737D02*
X-47568D01*
X10922Y114554D02*
Y118110D01*
D75*
X-47546Y111760D02*
X-47498D01*
X-61722D02*
X-47546D01*
X-64549Y107753D02*
X-61722Y110580D01*
X-67818Y107753D02*
X-64549D01*
X-61722Y110580D02*
Y111760D01*
X-47546Y104140D02*
Y111712D01*
X-10668Y114554D02*
Y118364D01*
Y106934D02*
Y114554D01*
X49022Y116944D02*
Y119380D01*
Y108712D02*
Y116944D01*
X67621Y108712D02*
X68072Y108261D01*
X49022Y100838D02*
Y108712D01*
X-47546Y111712D02*
X-47498Y111760D01*
X-24130Y131826D02*
X-10668Y118364D01*
X49022Y100838D02*
X49276Y100584D01*
X36830Y131572D02*
X49022Y119380D01*
X-10668Y99314D02*
Y106934D01*
X36639Y130111D02*
Y131381D01*
X-47546Y96520D02*
Y103715D01*
X10922Y106934D02*
Y114554D01*
Y99314D02*
Y106934D01*
D76*
X-66538Y106473D02*
X-49879D01*
X-47546Y104140D01*
X-67818Y107753D02*
X-66538Y106473D01*
X-24130Y131826D02*
Y135720D01*
Y131572D02*
Y131826D01*
X36830Y131572D02*
Y135720D01*
D77*
X59337Y114808D02*
X64023Y110122D01*
X51470Y114808D02*
X59337D01*
X49334Y116944D02*
X51470Y114808D01*
X64023Y109041D02*
Y110122D01*
X49022Y108712D02*
X64352D01*
X67621D01*
X64023Y109041D02*
X64352Y108712D01*
D78*
X15240Y158750D02*
Y177800D01*
X-36830Y135720D02*
Y148590D01*
X-45720Y157480D02*
Y177800D01*
Y157480D02*
X-36830Y148590D01*
X24130Y135720D02*
Y149860D01*
X15240Y158750D02*
X24130Y149860D01*
X49530Y135720D02*
Y153670D01*
X45720Y157480D02*
Y177800D01*
Y157480D02*
X49530Y153670D01*
X-15240Y149860D02*
Y177800D01*
Y149860D02*
X-11430Y146050D01*
Y135720D02*
Y146050D01*
M02*
