G04*
G04 #@! TF.GenerationSoftware,Altium Limited,Altium Designer,23.8.1 (32)*
G04*
G04 Layer_Color=65535*
%FSLAX44Y44*%
%MOMM*%
G71*
G04*
G04 #@! TF.SameCoordinates,63047707-2AD3-47D3-9D9A-8CE44674FD2A*
G04*
G04*
G04 #@! TF.FilePolarity,Positive*
G04*
G01*
G75*
%ADD10C,0.2540*%
%ADD11C,0.2000*%
%ADD12C,0.1270*%
%ADD13C,0.0254*%
%ADD14C,0.1524*%
G36*
X28194Y-52451D02*
X31750D01*
Y-54229D01*
X28194D01*
Y-57277D01*
X26670D01*
Y-49403D01*
X28194D01*
Y-52451D01*
D02*
G37*
G36*
X-8636D02*
X-5080D01*
Y-54229D01*
X-8636D01*
Y-57277D01*
X-10160D01*
Y-49403D01*
X-8636D01*
Y-52451D01*
D02*
G37*
G36*
X-62230Y-81280D02*
X-74422D01*
Y-80010D01*
X-62230D01*
Y-81280D01*
D02*
G37*
G36*
X-78740D02*
X-90932D01*
Y-80010D01*
X-78740D01*
Y-81280D01*
D02*
G37*
G36*
X-62230Y-86106D02*
X-74422D01*
Y-84836D01*
X-62230D01*
Y-86106D01*
D02*
G37*
G36*
X-78740D02*
X-90932D01*
Y-84836D01*
X-78740D01*
Y-86106D01*
D02*
G37*
G36*
X-31750Y-104140D02*
X-35560D01*
Y-96520D01*
X-31750D01*
Y-104140D01*
D02*
G37*
G36*
X-55880D02*
X-59690D01*
Y-96520D01*
X-55880D01*
Y-104140D01*
D02*
G37*
G36*
X-62230Y-118110D02*
X-74422D01*
Y-116840D01*
X-62230D01*
Y-118110D01*
D02*
G37*
G36*
X-78740D02*
X-90932D01*
Y-116840D01*
X-78740D01*
Y-118110D01*
D02*
G37*
G36*
X-62230Y-122936D02*
X-74422D01*
Y-121666D01*
X-62230D01*
Y-122936D01*
D02*
G37*
G36*
X-78740D02*
X-90932D01*
Y-121666D01*
X-78740D01*
Y-122936D01*
D02*
G37*
G36*
X161625Y-18579D02*
Y-21488D01*
X161613Y-21665D01*
Y-21865D01*
X161602Y-22065D01*
X161591Y-22242D01*
X161580Y-22331D01*
X161569Y-22398D01*
Y-22420D01*
X161558Y-22498D01*
X161536Y-22598D01*
X161502Y-22731D01*
X161458Y-22875D01*
X161402Y-23042D01*
X161336Y-23197D01*
X161247Y-23352D01*
X161236Y-23375D01*
X161203Y-23419D01*
X161147Y-23486D01*
X161081Y-23574D01*
X160992Y-23674D01*
X160881Y-23774D01*
X160759Y-23874D01*
X160614Y-23952D01*
X160592Y-23963D01*
X160548Y-23985D01*
X160470Y-24018D01*
X160359Y-24063D01*
X160237Y-24096D01*
X160082Y-24129D01*
X159926Y-24152D01*
X159749Y-24163D01*
X159738D01*
X159715D01*
X159682D01*
X159638D01*
X159527Y-24141D01*
X159371Y-24118D01*
X159205Y-24074D01*
X159016Y-24007D01*
X158827Y-23918D01*
X158639Y-23796D01*
X158616Y-23785D01*
X158561Y-23730D01*
X158483Y-23641D01*
X158372Y-23530D01*
X158261Y-23375D01*
X158139Y-23186D01*
X158028Y-22964D01*
X157928Y-22698D01*
Y-22709D01*
X157917Y-22720D01*
X157906Y-22753D01*
X157895Y-22797D01*
X157862Y-22908D01*
X157795Y-23042D01*
X157717Y-23186D01*
X157618Y-23341D01*
X157495Y-23497D01*
X157351Y-23630D01*
X157329Y-23641D01*
X157284Y-23685D01*
X157196Y-23741D01*
X157085Y-23796D01*
X156940Y-23863D01*
X156785Y-23907D01*
X156607Y-23952D01*
X156419Y-23963D01*
X156408D01*
X156385D01*
X156352D01*
X156297Y-23952D01*
X156241D01*
X156163Y-23941D01*
X155997Y-23918D01*
X155786Y-23863D01*
X155564Y-23796D01*
X155331Y-23696D01*
X155098Y-23563D01*
X155087D01*
X155076Y-23541D01*
X155042Y-23519D01*
X154998Y-23497D01*
X154887Y-23408D01*
X154754Y-23286D01*
X154609Y-23130D01*
X154465Y-22942D01*
X154332Y-22720D01*
X154210Y-22476D01*
Y-22464D01*
X154199Y-22442D01*
X154188Y-22409D01*
X154165Y-22353D01*
X154143Y-22276D01*
X154121Y-22198D01*
X154099Y-22098D01*
X154077Y-21987D01*
X154054Y-21854D01*
X154032Y-21710D01*
X154010Y-21554D01*
X153988Y-21388D01*
X153966Y-21210D01*
X153954Y-21010D01*
X153943Y-20810D01*
Y-16970D01*
X161625Y-18579D01*
D02*
G37*
G36*
X155386Y-25040D02*
X155508Y-25051D01*
X155664Y-25073D01*
X155753Y-25095D01*
X155864Y-25106D01*
X155975Y-25128D01*
X156108Y-25150D01*
X156252Y-25184D01*
X156408Y-25217D01*
X159515Y-25916D01*
Y-27437D01*
X156197Y-26693D01*
X156186D01*
X156174D01*
X156108Y-26671D01*
X156008Y-26649D01*
X155886Y-26627D01*
X155764Y-26605D01*
X155642Y-26582D01*
X155542Y-26571D01*
X155464Y-26560D01*
X155453D01*
X155420D01*
X155375Y-26571D01*
X155320Y-26582D01*
X155187Y-26627D01*
X155109Y-26660D01*
X155042Y-26716D01*
X155031Y-26727D01*
X155020Y-26749D01*
X154987Y-26782D01*
X154965Y-26827D01*
X154931Y-26893D01*
X154898Y-26960D01*
X154887Y-27037D01*
X154876Y-27126D01*
Y-27193D01*
X154887Y-27237D01*
X154909Y-27348D01*
X154953Y-27470D01*
Y-27482D01*
X154965Y-27504D01*
X154987Y-27537D01*
X155009Y-27581D01*
X155087Y-27692D01*
X155187Y-27826D01*
X155198Y-27837D01*
X155220Y-27859D01*
X155253Y-27892D01*
X155298Y-27937D01*
X155409Y-28048D01*
X155553Y-28159D01*
X155564Y-28170D01*
X155586Y-28181D01*
X155642Y-28214D01*
X155697Y-28247D01*
X155786Y-28292D01*
X155875Y-28336D01*
X155986Y-28392D01*
X156108Y-28436D01*
X156119D01*
X156152Y-28447D01*
X156208Y-28469D01*
X156297Y-28492D01*
X156397Y-28525D01*
X156530Y-28558D01*
X156674Y-28591D01*
X156852Y-28636D01*
X159515Y-29235D01*
Y-30734D01*
X153943Y-29479D01*
Y-28070D01*
X154654Y-28225D01*
X154643Y-28214D01*
X154621Y-28192D01*
X154576Y-28136D01*
X154521Y-28081D01*
X154454Y-28003D01*
X154387Y-27903D01*
X154310Y-27803D01*
X154232Y-27681D01*
X154143Y-27548D01*
X154066Y-27404D01*
X153932Y-27093D01*
X153877Y-26927D01*
X153832Y-26749D01*
X153810Y-26571D01*
X153799Y-26383D01*
Y-26327D01*
X153810Y-26283D01*
X153821Y-26161D01*
X153843Y-26016D01*
X153899Y-25861D01*
X153966Y-25694D01*
X154054Y-25528D01*
X154188Y-25384D01*
X154210Y-25373D01*
X154265Y-25328D01*
X154354Y-25273D01*
X154476Y-25206D01*
X154621Y-25139D01*
X154809Y-25084D01*
X155020Y-25040D01*
X155253Y-25028D01*
X155264D01*
X155309D01*
X155386Y-25040D01*
D02*
G37*
G36*
X159515Y-31888D02*
Y-32621D01*
X160403Y-32798D01*
X161436Y-34508D01*
X159515Y-34119D01*
Y-35041D01*
X158394Y-34807D01*
Y-33886D01*
X156041Y-33398D01*
X156030D01*
X156019D01*
X155986Y-33387D01*
X155941Y-33375D01*
X155842Y-33353D01*
X155719Y-33331D01*
X155586Y-33309D01*
X155475Y-33287D01*
X155375Y-33276D01*
X155342Y-33265D01*
X155320D01*
X155309D01*
X155298D01*
X155220Y-33276D01*
X155142Y-33309D01*
X155053Y-33364D01*
Y-33375D01*
X155042Y-33387D01*
X155020Y-33420D01*
X155009Y-33453D01*
X154987Y-33509D01*
X154965Y-33586D01*
X154953Y-33675D01*
Y-33831D01*
X154965Y-33875D01*
Y-33942D01*
X154976Y-34030D01*
X154987Y-34141D01*
X154998Y-34275D01*
X153888Y-34042D01*
Y-34019D01*
X153877Y-33975D01*
X153866Y-33897D01*
X153843Y-33797D01*
X153832Y-33675D01*
X153810Y-33542D01*
X153799Y-33242D01*
Y-33109D01*
X153810Y-33043D01*
Y-32976D01*
X153832Y-32798D01*
X153877Y-32610D01*
X153921Y-32410D01*
X153999Y-32232D01*
X154099Y-32077D01*
X154110Y-32066D01*
X154154Y-32021D01*
X154232Y-31966D01*
X154321Y-31899D01*
X154443Y-31833D01*
X154598Y-31777D01*
X154765Y-31733D01*
X154965Y-31722D01*
X154976D01*
X155020D01*
X155098Y-31733D01*
X155209Y-31744D01*
X155287Y-31755D01*
X155364Y-31766D01*
X155464Y-31788D01*
X155575Y-31810D01*
X155697Y-31833D01*
X155830Y-31855D01*
X155986Y-31888D01*
X156152Y-31921D01*
X158394Y-32399D01*
Y-31655D01*
X159515Y-31888D01*
D02*
G37*
G36*
Y-35462D02*
Y-36195D01*
X160403Y-36372D01*
X161436Y-38082D01*
X159515Y-37693D01*
Y-38615D01*
X158394Y-38382D01*
Y-37460D01*
X156041Y-36972D01*
X156030D01*
X156019D01*
X155986Y-36961D01*
X155941Y-36950D01*
X155842Y-36927D01*
X155719Y-36905D01*
X155586Y-36883D01*
X155475Y-36861D01*
X155375Y-36850D01*
X155342Y-36839D01*
X155320D01*
X155309D01*
X155298D01*
X155220Y-36850D01*
X155142Y-36883D01*
X155053Y-36939D01*
Y-36950D01*
X155042Y-36961D01*
X155020Y-36994D01*
X155009Y-37027D01*
X154987Y-37083D01*
X154965Y-37160D01*
X154953Y-37249D01*
Y-37405D01*
X154965Y-37449D01*
Y-37516D01*
X154976Y-37604D01*
X154987Y-37715D01*
X154998Y-37849D01*
X153888Y-37616D01*
Y-37593D01*
X153877Y-37549D01*
X153866Y-37471D01*
X153843Y-37371D01*
X153832Y-37249D01*
X153810Y-37116D01*
X153799Y-36816D01*
Y-36683D01*
X153810Y-36617D01*
Y-36550D01*
X153832Y-36372D01*
X153877Y-36184D01*
X153921Y-35984D01*
X153999Y-35806D01*
X154099Y-35651D01*
X154110Y-35640D01*
X154154Y-35596D01*
X154232Y-35540D01*
X154321Y-35473D01*
X154443Y-35407D01*
X154598Y-35351D01*
X154765Y-35307D01*
X154965Y-35296D01*
X154976D01*
X155020D01*
X155098Y-35307D01*
X155209Y-35318D01*
X155287Y-35329D01*
X155364Y-35340D01*
X155464Y-35362D01*
X155575Y-35385D01*
X155697Y-35407D01*
X155830Y-35429D01*
X155986Y-35462D01*
X156152Y-35496D01*
X158394Y-35973D01*
Y-35229D01*
X159515Y-35462D01*
D02*
G37*
G36*
X156385Y-38659D02*
X156496D01*
X156630Y-38670D01*
X156774Y-38692D01*
X156952Y-38726D01*
X157129Y-38759D01*
X157318Y-38803D01*
X157518Y-38859D01*
X157729Y-38925D01*
X157928Y-39014D01*
X158139Y-39114D01*
X158339Y-39225D01*
X158528Y-39358D01*
X158705Y-39514D01*
X158716Y-39525D01*
X158750Y-39558D01*
X158794Y-39602D01*
X158849Y-39669D01*
X158927Y-39758D01*
X159005Y-39869D01*
X159083Y-39991D01*
X159171Y-40135D01*
X159260Y-40291D01*
X159338Y-40457D01*
X159427Y-40646D01*
X159493Y-40857D01*
X159549Y-41068D01*
X159593Y-41301D01*
X159627Y-41556D01*
X159638Y-41811D01*
Y-41933D01*
X159627Y-42011D01*
X159615Y-42122D01*
X159604Y-42233D01*
X159582Y-42366D01*
X159549Y-42511D01*
X159471Y-42821D01*
X159416Y-42977D01*
X159349Y-43143D01*
X159271Y-43299D01*
X159171Y-43454D01*
X159072Y-43598D01*
X158949Y-43732D01*
X158938Y-43743D01*
X158916Y-43765D01*
X158883Y-43798D01*
X158827Y-43843D01*
X158761Y-43898D01*
X158672Y-43954D01*
X158583Y-44020D01*
X158472Y-44087D01*
X158339Y-44142D01*
X158206Y-44209D01*
X158050Y-44264D01*
X157895Y-44320D01*
X157717Y-44364D01*
X157529Y-44398D01*
X157329Y-44420D01*
X157118Y-44431D01*
X157107D01*
X157063D01*
X156985D01*
X156896Y-44420D01*
X156774Y-44409D01*
X156641Y-44387D01*
X156485Y-44353D01*
X156319Y-44320D01*
X156141Y-44275D01*
X155953Y-44220D01*
X155753Y-44153D01*
X155564Y-44065D01*
X155364Y-43965D01*
X155164Y-43854D01*
X154965Y-43720D01*
X154776Y-43565D01*
X154765Y-43554D01*
X154732Y-43521D01*
X154687Y-43476D01*
X154621Y-43410D01*
X154554Y-43321D01*
X154465Y-43210D01*
X154376Y-43088D01*
X154288Y-42955D01*
X154199Y-42788D01*
X154110Y-42622D01*
X154021Y-42433D01*
X153954Y-42222D01*
X153888Y-42000D01*
X153843Y-41767D01*
X153810Y-41512D01*
X153799Y-41245D01*
Y-41112D01*
X153810Y-41045D01*
X153821Y-40968D01*
X153843Y-40779D01*
X153877Y-40557D01*
X153932Y-40324D01*
X154010Y-40080D01*
X154110Y-39847D01*
Y-39836D01*
X154121Y-39825D01*
X154143Y-39791D01*
X154165Y-39747D01*
X154243Y-39636D01*
X154343Y-39503D01*
X154465Y-39358D01*
X154621Y-39203D01*
X154798Y-39059D01*
X154998Y-38937D01*
X155009D01*
X155020Y-38925D01*
X155053Y-38914D01*
X155098Y-38892D01*
X155220Y-38848D01*
X155375Y-38792D01*
X155553Y-38737D01*
X155764Y-38692D01*
X155997Y-38659D01*
X156241Y-38648D01*
X156263D01*
X156308D01*
X156385Y-38659D01*
D02*
G37*
G36*
X159515Y-46174D02*
Y-47594D01*
X158783Y-47450D01*
Y-47461D01*
X158805Y-47472D01*
X158861Y-47539D01*
X158938Y-47650D01*
X159038Y-47783D01*
X159138Y-47938D01*
X159249Y-48105D01*
X159349Y-48282D01*
X159438Y-48460D01*
X159449Y-48482D01*
X159471Y-48538D01*
X159504Y-48638D01*
X159538Y-48760D01*
X159571Y-48904D01*
X159604Y-49071D01*
X159627Y-49248D01*
X159638Y-49437D01*
Y-49503D01*
X159627Y-49548D01*
X159615Y-49681D01*
X159593Y-49837D01*
X159538Y-50014D01*
X159471Y-50192D01*
X159371Y-50369D01*
X159238Y-50536D01*
X159216Y-50558D01*
X159171Y-50602D01*
X159083Y-50658D01*
X158961Y-50736D01*
X158805Y-50813D01*
X158628Y-50869D01*
X158428Y-50913D01*
X158195Y-50935D01*
X158184D01*
X158139D01*
X158062Y-50924D01*
X157939Y-50902D01*
X157795Y-50880D01*
X157595Y-50847D01*
X157484Y-50824D01*
X157362Y-50802D01*
X157229Y-50769D01*
X157085Y-50736D01*
X153943Y-50058D01*
Y-48571D01*
X157096Y-49248D01*
X157107D01*
X157129Y-49259D01*
X157162D01*
X157207Y-49270D01*
X157329Y-49293D01*
X157462Y-49326D01*
X157606Y-49348D01*
X157751Y-49370D01*
X157862Y-49392D01*
X157906Y-49404D01*
X157939D01*
X157950D01*
X157984D01*
X158039Y-49392D01*
X158106Y-49381D01*
X158173Y-49359D01*
X158250Y-49326D01*
X158328Y-49282D01*
X158394Y-49226D01*
X158406Y-49215D01*
X158417Y-49193D01*
X158450Y-49159D01*
X158483Y-49104D01*
X158505Y-49037D01*
X158539Y-48960D01*
X158550Y-48860D01*
X158561Y-48749D01*
Y-48693D01*
X158550Y-48627D01*
X158528Y-48527D01*
X158494Y-48416D01*
X158439Y-48294D01*
X158372Y-48160D01*
X158284Y-48005D01*
X158272Y-47983D01*
X158228Y-47938D01*
X158173Y-47861D01*
X158084Y-47772D01*
X157984Y-47672D01*
X157862Y-47561D01*
X157717Y-47461D01*
X157551Y-47361D01*
X157540Y-47350D01*
X157484Y-47328D01*
X157395Y-47295D01*
X157329Y-47272D01*
X157262Y-47250D01*
X157174Y-47228D01*
X157085Y-47195D01*
X156974Y-47161D01*
X156852Y-47128D01*
X156718Y-47095D01*
X156563Y-47050D01*
X156397Y-47017D01*
X156219Y-46973D01*
X153943Y-46495D01*
Y-45008D01*
X159515Y-46174D01*
D02*
G37*
G36*
X159693Y-52678D02*
Y-52689D01*
X159704Y-52700D01*
X159726Y-52767D01*
X159782Y-52867D01*
X159848Y-53000D01*
X159926Y-53155D01*
X160015Y-53344D01*
X160126Y-53555D01*
X160259Y-53777D01*
X160392Y-54010D01*
X160548Y-54254D01*
X160714Y-54510D01*
X160881Y-54754D01*
X161070Y-54998D01*
X161258Y-55242D01*
X161458Y-55464D01*
X161669Y-55675D01*
Y-56585D01*
X153943Y-54965D01*
Y-53455D01*
X159260Y-54565D01*
X159249Y-54543D01*
X159205Y-54487D01*
X159149Y-54387D01*
X159072Y-54254D01*
X158983Y-54099D01*
X158894Y-53910D01*
X158794Y-53699D01*
X158694Y-53477D01*
Y-53466D01*
X158683Y-53455D01*
X158672Y-53422D01*
X158650Y-53377D01*
X158616Y-53255D01*
X158561Y-53111D01*
X158505Y-52944D01*
X158450Y-52756D01*
X158394Y-52578D01*
X158350Y-52389D01*
X159693Y-52678D01*
D02*
G37*
G36*
X161625Y57112D02*
Y54204D01*
X161613Y54027D01*
Y53827D01*
X161602Y53627D01*
X161591Y53450D01*
X161580Y53361D01*
X161569Y53294D01*
Y53272D01*
X161558Y53194D01*
X161536Y53094D01*
X161502Y52961D01*
X161458Y52817D01*
X161402Y52650D01*
X161336Y52495D01*
X161247Y52340D01*
X161236Y52317D01*
X161203Y52273D01*
X161147Y52206D01*
X161081Y52118D01*
X160992Y52018D01*
X160881Y51918D01*
X160759Y51818D01*
X160614Y51740D01*
X160592Y51729D01*
X160548Y51707D01*
X160470Y51674D01*
X160359Y51629D01*
X160237Y51596D01*
X160082Y51563D01*
X159926Y51540D01*
X159749Y51529D01*
X159738D01*
X159715D01*
X159682D01*
X159638D01*
X159527Y51551D01*
X159371Y51574D01*
X159205Y51618D01*
X159016Y51685D01*
X158827Y51774D01*
X158639Y51896D01*
X158616Y51907D01*
X158561Y51962D01*
X158483Y52051D01*
X158372Y52162D01*
X158261Y52317D01*
X158139Y52506D01*
X158028Y52728D01*
X157928Y52994D01*
Y52983D01*
X157917Y52972D01*
X157906Y52939D01*
X157895Y52895D01*
X157862Y52784D01*
X157795Y52650D01*
X157717Y52506D01*
X157618Y52351D01*
X157495Y52195D01*
X157351Y52062D01*
X157329Y52051D01*
X157284Y52007D01*
X157196Y51951D01*
X157085Y51896D01*
X156940Y51829D01*
X156785Y51785D01*
X156607Y51740D01*
X156419Y51729D01*
X156408D01*
X156385D01*
X156352D01*
X156297Y51740D01*
X156241D01*
X156163Y51751D01*
X155997Y51774D01*
X155786Y51829D01*
X155564Y51896D01*
X155331Y51996D01*
X155098Y52129D01*
X155087D01*
X155076Y52151D01*
X155042Y52173D01*
X154998Y52195D01*
X154887Y52284D01*
X154754Y52406D01*
X154609Y52562D01*
X154465Y52750D01*
X154332Y52972D01*
X154210Y53217D01*
Y53228D01*
X154199Y53250D01*
X154188Y53283D01*
X154165Y53339D01*
X154143Y53416D01*
X154121Y53494D01*
X154099Y53594D01*
X154077Y53705D01*
X154054Y53838D01*
X154032Y53982D01*
X154010Y54138D01*
X153988Y54304D01*
X153966Y54482D01*
X153954Y54682D01*
X153943Y54882D01*
Y58722D01*
X161625Y57112D01*
D02*
G37*
G36*
X155386Y50652D02*
X155508Y50641D01*
X155664Y50619D01*
X155753Y50597D01*
X155864Y50586D01*
X155975Y50564D01*
X156108Y50542D01*
X156252Y50508D01*
X156408Y50475D01*
X159515Y49776D01*
Y48255D01*
X156197Y48999D01*
X156186D01*
X156174D01*
X156108Y49021D01*
X156008Y49043D01*
X155886Y49065D01*
X155764Y49087D01*
X155642Y49110D01*
X155542Y49121D01*
X155464Y49132D01*
X155453D01*
X155420D01*
X155375Y49121D01*
X155320Y49110D01*
X155187Y49065D01*
X155109Y49032D01*
X155042Y48976D01*
X155031Y48965D01*
X155020Y48943D01*
X154987Y48910D01*
X154965Y48865D01*
X154931Y48799D01*
X154898Y48732D01*
X154887Y48654D01*
X154876Y48566D01*
Y48499D01*
X154887Y48455D01*
X154909Y48344D01*
X154953Y48222D01*
Y48211D01*
X154965Y48188D01*
X154987Y48155D01*
X155009Y48111D01*
X155087Y48000D01*
X155187Y47866D01*
X155198Y47855D01*
X155220Y47833D01*
X155253Y47800D01*
X155298Y47755D01*
X155409Y47644D01*
X155553Y47533D01*
X155564Y47522D01*
X155586Y47511D01*
X155642Y47478D01*
X155697Y47445D01*
X155786Y47400D01*
X155875Y47356D01*
X155986Y47300D01*
X156108Y47256D01*
X156119D01*
X156152Y47245D01*
X156208Y47223D01*
X156297Y47200D01*
X156397Y47167D01*
X156530Y47134D01*
X156674Y47101D01*
X156852Y47056D01*
X159515Y46457D01*
Y44958D01*
X153943Y46213D01*
Y47622D01*
X154654Y47467D01*
X154643Y47478D01*
X154621Y47500D01*
X154576Y47556D01*
X154521Y47611D01*
X154454Y47689D01*
X154387Y47789D01*
X154310Y47889D01*
X154232Y48011D01*
X154143Y48144D01*
X154066Y48288D01*
X153932Y48599D01*
X153877Y48766D01*
X153832Y48943D01*
X153810Y49121D01*
X153799Y49309D01*
Y49365D01*
X153810Y49409D01*
X153821Y49531D01*
X153843Y49676D01*
X153899Y49831D01*
X153966Y49998D01*
X154054Y50164D01*
X154188Y50308D01*
X154210Y50319D01*
X154265Y50364D01*
X154354Y50419D01*
X154476Y50486D01*
X154621Y50553D01*
X154809Y50608D01*
X155020Y50652D01*
X155253Y50664D01*
X155264D01*
X155309D01*
X155386Y50652D01*
D02*
G37*
G36*
X159515Y43804D02*
Y43071D01*
X160403Y42894D01*
X161436Y41184D01*
X159515Y41573D01*
Y40651D01*
X158394Y40885D01*
Y41806D01*
X156041Y42294D01*
X156030D01*
X156019D01*
X155986Y42305D01*
X155941Y42316D01*
X155842Y42339D01*
X155719Y42361D01*
X155586Y42383D01*
X155475Y42405D01*
X155375Y42416D01*
X155342Y42428D01*
X155320D01*
X155309D01*
X155298D01*
X155220Y42416D01*
X155142Y42383D01*
X155053Y42328D01*
Y42316D01*
X155042Y42305D01*
X155020Y42272D01*
X155009Y42239D01*
X154987Y42183D01*
X154965Y42106D01*
X154953Y42017D01*
Y41861D01*
X154965Y41817D01*
Y41750D01*
X154976Y41662D01*
X154987Y41551D01*
X154998Y41417D01*
X153888Y41651D01*
Y41673D01*
X153877Y41717D01*
X153866Y41795D01*
X153843Y41895D01*
X153832Y42017D01*
X153810Y42150D01*
X153799Y42450D01*
Y42583D01*
X153810Y42649D01*
Y42716D01*
X153832Y42894D01*
X153877Y43082D01*
X153921Y43282D01*
X153999Y43460D01*
X154099Y43615D01*
X154110Y43626D01*
X154154Y43671D01*
X154232Y43726D01*
X154321Y43793D01*
X154443Y43859D01*
X154598Y43915D01*
X154765Y43959D01*
X154965Y43970D01*
X154976D01*
X155020D01*
X155098Y43959D01*
X155209Y43948D01*
X155287Y43937D01*
X155364Y43926D01*
X155464Y43904D01*
X155575Y43882D01*
X155697Y43859D01*
X155830Y43837D01*
X155986Y43804D01*
X156152Y43771D01*
X158394Y43293D01*
Y44037D01*
X159515Y43804D01*
D02*
G37*
G36*
Y40230D02*
Y39497D01*
X160403Y39320D01*
X161436Y37610D01*
X159515Y37999D01*
Y37077D01*
X158394Y37311D01*
Y38232D01*
X156041Y38720D01*
X156030D01*
X156019D01*
X155986Y38731D01*
X155941Y38742D01*
X155842Y38765D01*
X155719Y38787D01*
X155586Y38809D01*
X155475Y38831D01*
X155375Y38842D01*
X155342Y38853D01*
X155320D01*
X155309D01*
X155298D01*
X155220Y38842D01*
X155142Y38809D01*
X155053Y38753D01*
Y38742D01*
X155042Y38731D01*
X155020Y38698D01*
X155009Y38665D01*
X154987Y38609D01*
X154965Y38531D01*
X154953Y38443D01*
Y38287D01*
X154965Y38243D01*
Y38176D01*
X154976Y38087D01*
X154987Y37977D01*
X154998Y37843D01*
X153888Y38076D01*
Y38099D01*
X153877Y38143D01*
X153866Y38221D01*
X153843Y38321D01*
X153832Y38443D01*
X153810Y38576D01*
X153799Y38876D01*
Y39009D01*
X153810Y39075D01*
Y39142D01*
X153832Y39320D01*
X153877Y39508D01*
X153921Y39708D01*
X153999Y39886D01*
X154099Y40041D01*
X154110Y40052D01*
X154154Y40097D01*
X154232Y40152D01*
X154321Y40219D01*
X154443Y40285D01*
X154598Y40341D01*
X154765Y40385D01*
X154965Y40396D01*
X154976D01*
X155020D01*
X155098Y40385D01*
X155209Y40374D01*
X155287Y40363D01*
X155364Y40352D01*
X155464Y40330D01*
X155575Y40307D01*
X155697Y40285D01*
X155830Y40263D01*
X155986Y40230D01*
X156152Y40196D01*
X158394Y39719D01*
Y40463D01*
X159515Y40230D01*
D02*
G37*
G36*
X156385Y37033D02*
X156496D01*
X156630Y37022D01*
X156774Y37000D01*
X156952Y36966D01*
X157129Y36933D01*
X157318Y36889D01*
X157518Y36833D01*
X157729Y36767D01*
X157928Y36678D01*
X158139Y36578D01*
X158339Y36467D01*
X158528Y36334D01*
X158705Y36178D01*
X158716Y36167D01*
X158750Y36134D01*
X158794Y36089D01*
X158849Y36023D01*
X158927Y35934D01*
X159005Y35823D01*
X159083Y35701D01*
X159171Y35557D01*
X159260Y35401D01*
X159338Y35235D01*
X159427Y35046D01*
X159493Y34835D01*
X159549Y34624D01*
X159593Y34391D01*
X159627Y34136D01*
X159638Y33881D01*
Y33759D01*
X159627Y33681D01*
X159615Y33570D01*
X159604Y33459D01*
X159582Y33326D01*
X159549Y33181D01*
X159471Y32871D01*
X159416Y32715D01*
X159349Y32549D01*
X159271Y32393D01*
X159171Y32238D01*
X159072Y32094D01*
X158949Y31960D01*
X158938Y31949D01*
X158916Y31927D01*
X158883Y31894D01*
X158827Y31849D01*
X158761Y31794D01*
X158672Y31738D01*
X158583Y31672D01*
X158472Y31605D01*
X158339Y31550D01*
X158206Y31483D01*
X158050Y31428D01*
X157895Y31372D01*
X157717Y31328D01*
X157529Y31294D01*
X157329Y31272D01*
X157118Y31261D01*
X157107D01*
X157063D01*
X156985D01*
X156896Y31272D01*
X156774Y31283D01*
X156641Y31305D01*
X156485Y31339D01*
X156319Y31372D01*
X156141Y31416D01*
X155953Y31472D01*
X155753Y31539D01*
X155564Y31627D01*
X155364Y31727D01*
X155164Y31838D01*
X154965Y31971D01*
X154776Y32127D01*
X154765Y32138D01*
X154732Y32171D01*
X154687Y32216D01*
X154621Y32282D01*
X154554Y32371D01*
X154465Y32482D01*
X154376Y32604D01*
X154288Y32737D01*
X154199Y32904D01*
X154110Y33070D01*
X154021Y33259D01*
X153954Y33470D01*
X153888Y33692D01*
X153843Y33925D01*
X153810Y34180D01*
X153799Y34447D01*
Y34580D01*
X153810Y34646D01*
X153821Y34724D01*
X153843Y34913D01*
X153877Y35135D01*
X153932Y35368D01*
X154010Y35612D01*
X154110Y35845D01*
Y35856D01*
X154121Y35868D01*
X154143Y35901D01*
X154165Y35945D01*
X154243Y36056D01*
X154343Y36189D01*
X154465Y36334D01*
X154621Y36489D01*
X154798Y36633D01*
X154998Y36755D01*
X155009D01*
X155020Y36767D01*
X155053Y36778D01*
X155098Y36800D01*
X155220Y36844D01*
X155375Y36900D01*
X155553Y36955D01*
X155764Y37000D01*
X155997Y37033D01*
X156241Y37044D01*
X156263D01*
X156308D01*
X156385Y37033D01*
D02*
G37*
G36*
X159515Y29518D02*
Y28098D01*
X158783Y28242D01*
Y28231D01*
X158805Y28220D01*
X158861Y28153D01*
X158938Y28042D01*
X159038Y27909D01*
X159138Y27754D01*
X159249Y27587D01*
X159349Y27410D01*
X159438Y27232D01*
X159449Y27210D01*
X159471Y27154D01*
X159504Y27054D01*
X159538Y26932D01*
X159571Y26788D01*
X159604Y26621D01*
X159627Y26444D01*
X159638Y26255D01*
Y26188D01*
X159627Y26144D01*
X159615Y26011D01*
X159593Y25856D01*
X159538Y25678D01*
X159471Y25500D01*
X159371Y25323D01*
X159238Y25156D01*
X159216Y25134D01*
X159171Y25090D01*
X159083Y25034D01*
X158961Y24956D01*
X158805Y24879D01*
X158628Y24823D01*
X158428Y24779D01*
X158195Y24757D01*
X158184D01*
X158139D01*
X158062Y24768D01*
X157939Y24790D01*
X157795Y24812D01*
X157595Y24845D01*
X157484Y24868D01*
X157362Y24890D01*
X157229Y24923D01*
X157085Y24956D01*
X153943Y25633D01*
Y27121D01*
X157096Y26444D01*
X157107D01*
X157129Y26433D01*
X157162D01*
X157207Y26422D01*
X157329Y26399D01*
X157462Y26366D01*
X157606Y26344D01*
X157751Y26322D01*
X157862Y26300D01*
X157906Y26288D01*
X157939D01*
X157950D01*
X157984D01*
X158039Y26300D01*
X158106Y26311D01*
X158173Y26333D01*
X158250Y26366D01*
X158328Y26411D01*
X158394Y26466D01*
X158406Y26477D01*
X158417Y26499D01*
X158450Y26533D01*
X158483Y26588D01*
X158505Y26655D01*
X158539Y26732D01*
X158550Y26832D01*
X158561Y26943D01*
Y26999D01*
X158550Y27065D01*
X158528Y27165D01*
X158494Y27276D01*
X158439Y27398D01*
X158372Y27532D01*
X158284Y27687D01*
X158272Y27709D01*
X158228Y27754D01*
X158173Y27831D01*
X158084Y27920D01*
X157984Y28020D01*
X157862Y28131D01*
X157717Y28231D01*
X157551Y28331D01*
X157540Y28342D01*
X157484Y28364D01*
X157395Y28397D01*
X157329Y28420D01*
X157262Y28442D01*
X157174Y28464D01*
X157085Y28497D01*
X156974Y28530D01*
X156852Y28564D01*
X156718Y28597D01*
X156563Y28642D01*
X156397Y28675D01*
X156219Y28719D01*
X153943Y29197D01*
Y30684D01*
X159515Y29518D01*
D02*
G37*
G36*
X153999Y23913D02*
X154043D01*
X154154Y23891D01*
X154288Y23858D01*
X154454Y23813D01*
X154632Y23758D01*
X154831Y23691D01*
X155020Y23602D01*
X155031D01*
X155042Y23591D01*
X155109Y23558D01*
X155209Y23502D01*
X155331Y23425D01*
X155475Y23325D01*
X155631Y23214D01*
X155797Y23092D01*
X155964Y22959D01*
X155986Y22936D01*
X156052Y22881D01*
X156097Y22836D01*
X156152Y22781D01*
X156230Y22714D01*
X156308Y22637D01*
X156408Y22548D01*
X156508Y22437D01*
X156630Y22326D01*
X156752Y22193D01*
X156896Y22048D01*
X157051Y21893D01*
X157218Y21726D01*
X157395Y21538D01*
X157407Y21527D01*
X157429Y21504D01*
X157462Y21460D01*
X157518Y21416D01*
X157640Y21282D01*
X157795Y21127D01*
X157962Y20961D01*
X158117Y20794D01*
X158261Y20661D01*
X158317Y20605D01*
X158361Y20561D01*
X158383Y20550D01*
X158428Y20505D01*
X158505Y20439D01*
X158605Y20361D01*
X158716Y20272D01*
X158838Y20195D01*
X158961Y20117D01*
X159072Y20061D01*
X159083Y20050D01*
X159127Y20039D01*
X159183Y20017D01*
X159249Y19984D01*
X159338Y19962D01*
X159427Y19939D01*
X159527Y19928D01*
X159615Y19917D01*
X159638D01*
X159682D01*
X159749Y19928D01*
X159837Y19950D01*
X159937Y19973D01*
X160048Y20017D01*
X160148Y20073D01*
X160248Y20150D01*
X160259Y20161D01*
X160281Y20195D01*
X160326Y20239D01*
X160370Y20306D01*
X160415Y20394D01*
X160459Y20494D01*
X160481Y20605D01*
X160492Y20727D01*
Y20783D01*
X160481Y20849D01*
X160459Y20938D01*
X160426Y21038D01*
X160370Y21138D01*
X160304Y21249D01*
X160215Y21349D01*
X160204Y21360D01*
X160159Y21393D01*
X160093Y21438D01*
X159993Y21493D01*
X159860Y21560D01*
X159693Y21627D01*
X159493Y21693D01*
X159249Y21749D01*
X159460Y23214D01*
X159471D01*
X159504Y23203D01*
X159560Y23191D01*
X159638Y23180D01*
X159726Y23147D01*
X159826Y23125D01*
X159937Y23092D01*
X160059Y23047D01*
X160326Y22936D01*
X160603Y22792D01*
X160859Y22614D01*
X160981Y22503D01*
X161092Y22392D01*
X161103Y22381D01*
X161114Y22359D01*
X161147Y22326D01*
X161180Y22270D01*
X161225Y22215D01*
X161269Y22137D01*
X161325Y22048D01*
X161380Y21937D01*
X161436Y21826D01*
X161491Y21704D01*
X161580Y21427D01*
X161647Y21116D01*
X161658Y20938D01*
X161669Y20761D01*
Y20661D01*
X161658Y20583D01*
X161647Y20494D01*
X161636Y20383D01*
X161625Y20272D01*
X161591Y20150D01*
X161525Y19873D01*
X161425Y19595D01*
X161358Y19451D01*
X161280Y19318D01*
X161180Y19196D01*
X161081Y19073D01*
X161070Y19062D01*
X161058Y19051D01*
X161025Y19018D01*
X160981Y18974D01*
X160914Y18929D01*
X160847Y18874D01*
X160770Y18818D01*
X160681Y18763D01*
X160470Y18652D01*
X160215Y18552D01*
X159926Y18474D01*
X159771Y18463D01*
X159604Y18452D01*
X159582D01*
X159527D01*
X159438Y18463D01*
X159316Y18474D01*
X159183Y18496D01*
X159027Y18530D01*
X158861Y18574D01*
X158683Y18641D01*
X158661Y18652D01*
X158605Y18674D01*
X158517Y18718D01*
X158394Y18785D01*
X158250Y18874D01*
X158084Y18985D01*
X157906Y19107D01*
X157717Y19262D01*
X157706Y19273D01*
X157651Y19318D01*
X157573Y19395D01*
X157462Y19506D01*
X157318Y19651D01*
X157140Y19828D01*
X156940Y20039D01*
X156707Y20283D01*
X156696Y20294D01*
X156674Y20317D01*
X156652Y20350D01*
X156607Y20394D01*
X156496Y20517D01*
X156352Y20661D01*
X156208Y20816D01*
X156063Y20972D01*
X155930Y21105D01*
X155819Y21216D01*
X155808Y21227D01*
X155775Y21249D01*
X155730Y21293D01*
X155675Y21349D01*
X155597Y21416D01*
X155508Y21482D01*
X155320Y21638D01*
Y18974D01*
X153943Y19262D01*
Y23924D01*
X153954D01*
X153966D01*
X153999Y23913D01*
D02*
G37*
G36*
X-144222Y-6719D02*
X-144111Y-6730D01*
X-143978Y-6741D01*
X-143834Y-6764D01*
X-143678Y-6786D01*
X-143334Y-6863D01*
X-142979Y-6974D01*
X-142801Y-7041D01*
X-142635Y-7119D01*
X-142468Y-7219D01*
X-142313Y-7330D01*
X-142302Y-7341D01*
X-142280Y-7363D01*
X-142235Y-7396D01*
X-142180Y-7441D01*
X-142113Y-7507D01*
X-142046Y-7585D01*
X-141958Y-7685D01*
X-141869Y-7785D01*
X-141780Y-7907D01*
X-141691Y-8040D01*
X-141602Y-8184D01*
X-141514Y-8351D01*
X-141436Y-8529D01*
X-141358Y-8717D01*
X-141292Y-8917D01*
X-141236Y-9128D01*
X-142712Y-9294D01*
Y-9283D01*
X-142724Y-9261D01*
X-142735Y-9228D01*
X-142746Y-9183D01*
X-142801Y-9072D01*
X-142868Y-8928D01*
X-142957Y-8773D01*
X-143068Y-8606D01*
X-143190Y-8451D01*
X-143345Y-8318D01*
X-143367Y-8306D01*
X-143423Y-8262D01*
X-143512Y-8207D01*
X-143645Y-8151D01*
X-143800Y-8084D01*
X-143989Y-8040D01*
X-144200Y-7996D01*
X-144433Y-7985D01*
X-144511D01*
X-144555Y-7996D01*
X-144633D01*
X-144710Y-8007D01*
X-144888Y-8040D01*
X-145110Y-8084D01*
X-145343Y-8162D01*
X-145587Y-8262D01*
X-145831Y-8395D01*
X-145843D01*
X-145854Y-8418D01*
X-145887Y-8440D01*
X-145931Y-8473D01*
X-146053Y-8562D01*
X-146198Y-8695D01*
X-146353Y-8873D01*
X-146520Y-9083D01*
X-146686Y-9339D01*
X-146830Y-9639D01*
Y-9650D01*
X-146841Y-9672D01*
X-146864Y-9716D01*
X-146886Y-9783D01*
X-146908Y-9861D01*
X-146941Y-9949D01*
X-146975Y-10060D01*
X-147008Y-10182D01*
X-147041Y-10304D01*
X-147075Y-10449D01*
X-147130Y-10760D01*
X-147175Y-11092D01*
X-147186Y-11459D01*
Y-11470D01*
Y-11503D01*
Y-11548D01*
X-147175Y-11614D01*
Y-11703D01*
X-147163Y-11792D01*
X-147130Y-12003D01*
X-147075Y-12236D01*
X-147008Y-12480D01*
X-146897Y-12702D01*
X-146830Y-12813D01*
X-146753Y-12902D01*
X-146730Y-12924D01*
X-146675Y-12968D01*
X-146564Y-13046D01*
X-146420Y-13124D01*
X-146242Y-13213D01*
X-146020Y-13290D01*
X-145754Y-13335D01*
X-145454Y-13357D01*
X-145365D01*
X-145265Y-13346D01*
X-145132Y-13335D01*
X-144977Y-13324D01*
X-144799Y-13290D01*
X-144611Y-13257D01*
X-144411Y-13213D01*
X-144400D01*
X-144389Y-13202D01*
X-144322Y-13190D01*
X-144222Y-13157D01*
X-144100Y-13113D01*
X-143956Y-13068D01*
X-143800Y-13002D01*
X-143645Y-12935D01*
X-143489Y-12868D01*
X-143245Y-11714D01*
X-145210D01*
X-144943Y-10426D01*
X-141514D01*
X-142202Y-13745D01*
X-142213D01*
X-142224Y-13768D01*
X-142268Y-13779D01*
X-142313Y-13812D01*
X-142368Y-13845D01*
X-142446Y-13879D01*
X-142524Y-13923D01*
X-142612Y-13979D01*
X-142835Y-14078D01*
X-143090Y-14189D01*
X-143378Y-14300D01*
X-143700Y-14411D01*
X-143711D01*
X-143745Y-14423D01*
X-143789Y-14434D01*
X-143856Y-14456D01*
X-143933Y-14478D01*
X-144022Y-14500D01*
X-144133Y-14522D01*
X-144255Y-14545D01*
X-144522Y-14589D01*
X-144832Y-14633D01*
X-145154Y-14667D01*
X-145498Y-14678D01*
X-145632D01*
X-145731Y-14667D01*
X-145854Y-14656D01*
X-145987Y-14645D01*
X-146142Y-14622D01*
X-146309Y-14600D01*
X-146653Y-14522D01*
X-146841Y-14467D01*
X-147019Y-14400D01*
X-147197Y-14334D01*
X-147374Y-14245D01*
X-147530Y-14145D01*
X-147685Y-14034D01*
X-147696Y-14023D01*
X-147730Y-13990D01*
X-147785Y-13945D01*
X-147840Y-13867D01*
X-147929Y-13779D01*
X-148007Y-13668D01*
X-148107Y-13534D01*
X-148196Y-13390D01*
X-148296Y-13213D01*
X-148396Y-13024D01*
X-148473Y-12813D01*
X-148551Y-12591D01*
X-148617Y-12336D01*
X-148673Y-12069D01*
X-148706Y-11781D01*
X-148717Y-11481D01*
Y-11470D01*
Y-11425D01*
Y-11370D01*
X-148706Y-11292D01*
Y-11181D01*
X-148695Y-11070D01*
X-148684Y-10937D01*
X-148662Y-10782D01*
X-148640Y-10626D01*
X-148606Y-10460D01*
X-148529Y-10094D01*
X-148418Y-9705D01*
X-148273Y-9317D01*
X-148262Y-9305D01*
X-148251Y-9261D01*
X-148218Y-9194D01*
X-148174Y-9117D01*
X-148118Y-9006D01*
X-148051Y-8895D01*
X-147974Y-8762D01*
X-147885Y-8617D01*
X-147785Y-8462D01*
X-147674Y-8306D01*
X-147552Y-8151D01*
X-147408Y-7985D01*
X-147108Y-7674D01*
X-146941Y-7530D01*
X-146764Y-7396D01*
X-146753Y-7385D01*
X-146719Y-7363D01*
X-146664Y-7330D01*
X-146586Y-7285D01*
X-146497Y-7241D01*
X-146375Y-7174D01*
X-146253Y-7119D01*
X-146098Y-7052D01*
X-145942Y-6986D01*
X-145765Y-6930D01*
X-145576Y-6863D01*
X-145365Y-6819D01*
X-145154Y-6775D01*
X-144921Y-6741D01*
X-144688Y-6719D01*
X-144444Y-6708D01*
X-144311D01*
X-144222Y-6719D01*
D02*
G37*
G36*
X-134754Y-14533D02*
X-136208D01*
X-138295Y-9372D01*
X-139382Y-14533D01*
X-140836D01*
X-139227Y-6852D01*
X-137773D01*
X-135686Y-11992D01*
X-134598Y-6852D01*
X-133144D01*
X-134754Y-14533D01*
D02*
G37*
G36*
X-128782Y-6863D02*
X-128593D01*
X-128438Y-6875D01*
X-128383D01*
X-128327Y-6886D01*
X-128305D01*
X-128249Y-6897D01*
X-128161Y-6908D01*
X-128039Y-6930D01*
X-127905Y-6952D01*
X-127761Y-6986D01*
X-127472Y-7085D01*
X-127450Y-7097D01*
X-127406Y-7108D01*
X-127339Y-7141D01*
X-127239Y-7185D01*
X-127139Y-7252D01*
X-127017Y-7319D01*
X-126906Y-7396D01*
X-126784Y-7496D01*
X-126773Y-7507D01*
X-126729Y-7541D01*
X-126673Y-7596D01*
X-126595Y-7674D01*
X-126518Y-7763D01*
X-126429Y-7874D01*
X-126340Y-7996D01*
X-126251Y-8129D01*
X-126240Y-8140D01*
X-126218Y-8195D01*
X-126174Y-8273D01*
X-126129Y-8373D01*
X-126074Y-8495D01*
X-126007Y-8640D01*
X-125952Y-8806D01*
X-125907Y-8984D01*
X-125896Y-9006D01*
X-125885Y-9072D01*
X-125863Y-9172D01*
X-125841Y-9294D01*
X-125819Y-9450D01*
X-125807Y-9639D01*
X-125785Y-9827D01*
Y-10038D01*
Y-10049D01*
Y-10094D01*
Y-10160D01*
X-125796Y-10249D01*
Y-10360D01*
X-125807Y-10482D01*
X-125830Y-10626D01*
X-125841Y-10782D01*
X-125874Y-10948D01*
X-125896Y-11126D01*
X-125985Y-11492D01*
X-126107Y-11869D01*
X-126174Y-12058D01*
X-126263Y-12247D01*
Y-12258D01*
X-126285Y-12291D01*
X-126307Y-12336D01*
X-126351Y-12402D01*
X-126396Y-12491D01*
X-126451Y-12580D01*
X-126595Y-12802D01*
X-126762Y-13046D01*
X-126973Y-13301D01*
X-127206Y-13546D01*
X-127461Y-13779D01*
X-127472D01*
X-127484Y-13801D01*
X-127517Y-13823D01*
X-127561Y-13845D01*
X-127617Y-13890D01*
X-127683Y-13923D01*
X-127850Y-14023D01*
X-128050Y-14123D01*
X-128294Y-14234D01*
X-128571Y-14334D01*
X-128882Y-14423D01*
X-128904D01*
X-128938Y-14434D01*
X-128971Y-14445D01*
X-129026D01*
X-129093Y-14456D01*
X-129171Y-14467D01*
X-129259Y-14478D01*
X-129359Y-14489D01*
X-129470Y-14500D01*
X-129592Y-14511D01*
X-129737D01*
X-129881Y-14522D01*
X-130048Y-14533D01*
X-133111D01*
X-131502Y-6852D01*
X-128971D01*
X-128782Y-6863D01*
D02*
G37*
G36*
X-138296Y-733D02*
X-136398Y-4374D01*
X-138185D01*
X-138773Y-3252D01*
Y-3241D01*
X-138795Y-3208D01*
X-138818Y-3164D01*
X-138851Y-3108D01*
X-138884Y-3030D01*
X-138929Y-2953D01*
X-139029Y-2764D01*
X-139128Y-2553D01*
X-139228Y-2342D01*
X-139317Y-2154D01*
X-139350Y-2065D01*
X-139384Y-1987D01*
X-139395Y-1998D01*
X-139428Y-2042D01*
X-139495Y-2131D01*
X-139595Y-2253D01*
X-139661Y-2331D01*
X-139728Y-2420D01*
X-139817Y-2520D01*
X-139916Y-2631D01*
X-140016Y-2764D01*
X-140139Y-2897D01*
X-140283Y-3053D01*
X-140427Y-3219D01*
X-141482Y-4374D01*
X-143524D01*
X-140127Y-500D01*
X-142037Y3308D01*
X-140383D01*
X-139628Y1898D01*
X-139617Y1876D01*
X-139595Y1820D01*
X-139572Y1787D01*
X-139550Y1743D01*
X-139528Y1687D01*
X-139484Y1609D01*
X-139450Y1532D01*
X-139395Y1432D01*
X-139339Y1321D01*
X-139273Y1187D01*
X-139206Y1032D01*
X-139117Y866D01*
X-139106Y855D01*
X-139095Y832D01*
X-139073Y788D01*
X-139051Y732D01*
X-139040Y743D01*
X-139017Y766D01*
X-138984Y810D01*
X-138940Y855D01*
X-138895Y921D01*
X-138829Y999D01*
X-138685Y1176D01*
X-138507Y1365D01*
X-138329Y1576D01*
X-138152Y1787D01*
X-137985Y1976D01*
X-136786Y3308D01*
X-134777D01*
X-138296Y-733D01*
D02*
G37*
G36*
X-142403Y2020D02*
X-144645D01*
X-145977Y-4374D01*
X-147553D01*
X-146221Y2020D01*
X-148463D01*
X-148208Y3308D01*
X-142148D01*
X-142403Y2020D01*
D02*
G37*
G36*
X-135821Y10708D02*
X-133923Y7067D01*
X-135710D01*
X-136298Y8188D01*
Y8199D01*
X-136320Y8232D01*
X-136343Y8277D01*
X-136376Y8332D01*
X-136409Y8410D01*
X-136454Y8488D01*
X-136553Y8676D01*
X-136653Y8887D01*
X-136753Y9098D01*
X-136842Y9287D01*
X-136875Y9376D01*
X-136909Y9453D01*
X-136920Y9442D01*
X-136953Y9398D01*
X-137020Y9309D01*
X-137120Y9187D01*
X-137186Y9109D01*
X-137253Y9021D01*
X-137341Y8921D01*
X-137441Y8810D01*
X-137541Y8676D01*
X-137663Y8543D01*
X-137808Y8388D01*
X-137952Y8221D01*
X-139007Y7067D01*
X-141049D01*
X-137652Y10941D01*
X-139562Y14748D01*
X-137908D01*
X-137153Y13339D01*
X-137142Y13316D01*
X-137120Y13261D01*
X-137097Y13227D01*
X-137075Y13183D01*
X-137053Y13128D01*
X-137008Y13050D01*
X-136975Y12972D01*
X-136920Y12872D01*
X-136864Y12761D01*
X-136798Y12628D01*
X-136731Y12473D01*
X-136642Y12306D01*
X-136631Y12295D01*
X-136620Y12273D01*
X-136598Y12228D01*
X-136576Y12173D01*
X-136565Y12184D01*
X-136542Y12206D01*
X-136509Y12251D01*
X-136465Y12295D01*
X-136420Y12362D01*
X-136354Y12439D01*
X-136209Y12617D01*
X-136032Y12806D01*
X-135854Y13017D01*
X-135677Y13227D01*
X-135510Y13416D01*
X-134311Y14748D01*
X-132302D01*
X-135821Y10708D01*
D02*
G37*
G36*
X-142681Y14737D02*
X-142481Y14726D01*
X-142259Y14704D01*
X-142037Y14670D01*
X-141815Y14626D01*
X-141615Y14559D01*
X-141604D01*
X-141593Y14548D01*
X-141537Y14526D01*
X-141448Y14482D01*
X-141337Y14415D01*
X-141204Y14315D01*
X-141071Y14204D01*
X-140949Y14060D01*
X-140827Y13893D01*
X-140816Y13871D01*
X-140782Y13805D01*
X-140727Y13705D01*
X-140672Y13572D01*
X-140616Y13405D01*
X-140561Y13205D01*
X-140527Y12972D01*
X-140516Y12728D01*
Y12717D01*
Y12684D01*
Y12639D01*
X-140527Y12562D01*
X-140538Y12484D01*
X-140549Y12384D01*
X-140561Y12273D01*
X-140594Y12162D01*
X-140660Y11907D01*
X-140760Y11629D01*
X-140827Y11496D01*
X-140905Y11363D01*
X-141004Y11229D01*
X-141104Y11107D01*
X-141116Y11096D01*
X-141127Y11085D01*
X-141171Y11052D01*
X-141215Y11007D01*
X-141282Y10952D01*
X-141349Y10897D01*
X-141437Y10841D01*
X-141548Y10774D01*
X-141659Y10708D01*
X-141793Y10641D01*
X-141937Y10575D01*
X-142103Y10508D01*
X-142270Y10453D01*
X-142458Y10408D01*
X-142669Y10364D01*
X-142880Y10330D01*
X-142869Y10319D01*
X-142825Y10286D01*
X-142769Y10219D01*
X-142692Y10142D01*
X-142614Y10031D01*
X-142514Y9909D01*
X-142414Y9764D01*
X-142314Y9609D01*
X-142303Y9598D01*
X-142292Y9564D01*
X-142259Y9520D01*
X-142225Y9442D01*
X-142170Y9354D01*
X-142114Y9243D01*
X-142048Y9109D01*
X-141970Y8954D01*
X-141881Y8788D01*
X-141793Y8599D01*
X-141693Y8388D01*
X-141593Y8155D01*
X-141482Y7911D01*
X-141371Y7644D01*
X-141249Y7367D01*
X-141127Y7067D01*
X-142825D01*
Y7078D01*
X-142836Y7100D01*
X-142847Y7134D01*
X-142869Y7189D01*
X-142891Y7256D01*
X-142925Y7345D01*
X-142958Y7444D01*
X-143002Y7567D01*
X-143058Y7700D01*
X-143113Y7844D01*
X-143180Y8011D01*
X-143258Y8188D01*
X-143335Y8388D01*
X-143424Y8610D01*
X-143524Y8843D01*
X-143635Y9087D01*
Y9098D01*
X-143646Y9121D01*
X-143668Y9154D01*
X-143691Y9209D01*
X-143757Y9331D01*
X-143846Y9487D01*
X-143946Y9653D01*
X-144057Y9820D01*
X-144190Y9975D01*
X-144257Y10031D01*
X-144323Y10086D01*
X-144334Y10097D01*
X-144368Y10108D01*
X-144423Y10131D01*
X-144501Y10164D01*
X-144612Y10197D01*
X-144745Y10219D01*
X-144912Y10230D01*
X-145111Y10242D01*
X-145755D01*
X-146421Y7067D01*
X-147986D01*
X-146377Y14748D01*
X-142758D01*
X-142681Y14737D01*
D02*
G37*
G36*
X-142619Y-70702D02*
X-142508Y-70713D01*
X-142374Y-70725D01*
X-142230Y-70747D01*
X-142075Y-70769D01*
X-141731Y-70847D01*
X-141375Y-70958D01*
X-141198Y-71024D01*
X-141031Y-71102D01*
X-140865Y-71202D01*
X-140709Y-71313D01*
X-140698Y-71324D01*
X-140676Y-71346D01*
X-140632Y-71379D01*
X-140576Y-71424D01*
X-140510Y-71490D01*
X-140443Y-71568D01*
X-140354Y-71668D01*
X-140265Y-71768D01*
X-140177Y-71890D01*
X-140088Y-72023D01*
X-139999Y-72167D01*
X-139910Y-72334D01*
X-139832Y-72512D01*
X-139755Y-72700D01*
X-139688Y-72900D01*
X-139633Y-73111D01*
X-141109Y-73277D01*
Y-73266D01*
X-141120Y-73244D01*
X-141131Y-73211D01*
X-141142Y-73166D01*
X-141198Y-73055D01*
X-141264Y-72911D01*
X-141353Y-72756D01*
X-141464Y-72589D01*
X-141586Y-72434D01*
X-141742Y-72301D01*
X-141764Y-72290D01*
X-141819Y-72245D01*
X-141908Y-72190D01*
X-142041Y-72134D01*
X-142197Y-72067D01*
X-142386Y-72023D01*
X-142596Y-71979D01*
X-142830Y-71968D01*
X-142907D01*
X-142952Y-71979D01*
X-143029D01*
X-143107Y-71990D01*
X-143285Y-72023D01*
X-143507Y-72067D01*
X-143740Y-72145D01*
X-143984Y-72245D01*
X-144228Y-72378D01*
X-144239D01*
X-144250Y-72400D01*
X-144284Y-72423D01*
X-144328Y-72456D01*
X-144450Y-72545D01*
X-144594Y-72678D01*
X-144750Y-72856D01*
X-144916Y-73067D01*
X-145083Y-73322D01*
X-145227Y-73622D01*
Y-73633D01*
X-145238Y-73655D01*
X-145260Y-73699D01*
X-145282Y-73766D01*
X-145305Y-73843D01*
X-145338Y-73932D01*
X-145371Y-74043D01*
X-145405Y-74165D01*
X-145438Y-74288D01*
X-145471Y-74432D01*
X-145527Y-74743D01*
X-145571Y-75076D01*
X-145582Y-75442D01*
Y-75453D01*
Y-75486D01*
Y-75531D01*
X-145571Y-75597D01*
Y-75686D01*
X-145560Y-75775D01*
X-145527Y-75986D01*
X-145471Y-76219D01*
X-145405Y-76463D01*
X-145294Y-76685D01*
X-145227Y-76796D01*
X-145149Y-76885D01*
X-145127Y-76907D01*
X-145072Y-76951D01*
X-144961Y-77029D01*
X-144816Y-77107D01*
X-144639Y-77196D01*
X-144417Y-77273D01*
X-144150Y-77318D01*
X-143851Y-77340D01*
X-143762D01*
X-143662Y-77329D01*
X-143529Y-77318D01*
X-143373Y-77307D01*
X-143196Y-77273D01*
X-143007Y-77240D01*
X-142807Y-77196D01*
X-142796D01*
X-142785Y-77185D01*
X-142718Y-77174D01*
X-142619Y-77140D01*
X-142497Y-77096D01*
X-142352Y-77051D01*
X-142197Y-76985D01*
X-142041Y-76918D01*
X-141886Y-76852D01*
X-141642Y-75697D01*
X-143607D01*
X-143340Y-74410D01*
X-139910D01*
X-140598Y-77728D01*
X-140610D01*
X-140621Y-77751D01*
X-140665Y-77762D01*
X-140709Y-77795D01*
X-140765Y-77828D01*
X-140843Y-77862D01*
X-140920Y-77906D01*
X-141009Y-77962D01*
X-141231Y-78061D01*
X-141486Y-78172D01*
X-141775Y-78283D01*
X-142097Y-78394D01*
X-142108D01*
X-142141Y-78405D01*
X-142186Y-78417D01*
X-142252Y-78439D01*
X-142330Y-78461D01*
X-142419Y-78483D01*
X-142530Y-78505D01*
X-142652Y-78528D01*
X-142918Y-78572D01*
X-143229Y-78616D01*
X-143551Y-78650D01*
X-143895Y-78661D01*
X-144028D01*
X-144128Y-78650D01*
X-144250Y-78639D01*
X-144383Y-78628D01*
X-144539Y-78605D01*
X-144705Y-78583D01*
X-145049Y-78505D01*
X-145238Y-78450D01*
X-145416Y-78383D01*
X-145593Y-78317D01*
X-145771Y-78228D01*
X-145926Y-78128D01*
X-146082Y-78017D01*
X-146093Y-78006D01*
X-146126Y-77973D01*
X-146182Y-77928D01*
X-146237Y-77850D01*
X-146326Y-77762D01*
X-146404Y-77651D01*
X-146503Y-77517D01*
X-146592Y-77373D01*
X-146692Y-77196D01*
X-146792Y-77007D01*
X-146870Y-76796D01*
X-146947Y-76574D01*
X-147014Y-76319D01*
X-147070Y-76052D01*
X-147103Y-75764D01*
X-147114Y-75464D01*
Y-75453D01*
Y-75409D01*
Y-75353D01*
X-147103Y-75275D01*
Y-75164D01*
X-147092Y-75053D01*
X-147081Y-74920D01*
X-147058Y-74765D01*
X-147036Y-74609D01*
X-147003Y-74443D01*
X-146925Y-74077D01*
X-146814Y-73688D01*
X-146670Y-73300D01*
X-146659Y-73288D01*
X-146648Y-73244D01*
X-146615Y-73177D01*
X-146570Y-73100D01*
X-146515Y-72989D01*
X-146448Y-72878D01*
X-146370Y-72745D01*
X-146281Y-72600D01*
X-146182Y-72445D01*
X-146071Y-72290D01*
X-145948Y-72134D01*
X-145804Y-71968D01*
X-145505Y-71657D01*
X-145338Y-71513D01*
X-145160Y-71379D01*
X-145149Y-71368D01*
X-145116Y-71346D01*
X-145061Y-71313D01*
X-144983Y-71268D01*
X-144894Y-71224D01*
X-144772Y-71157D01*
X-144650Y-71102D01*
X-144494Y-71035D01*
X-144339Y-70969D01*
X-144162Y-70913D01*
X-143973Y-70847D01*
X-143762Y-70802D01*
X-143551Y-70758D01*
X-143318Y-70725D01*
X-143085Y-70702D01*
X-142841Y-70691D01*
X-142707D01*
X-142619Y-70702D01*
D02*
G37*
G36*
X-133151Y-78517D02*
X-134605D01*
X-136691Y-73355D01*
X-137779Y-78517D01*
X-139233D01*
X-137624Y-70835D01*
X-136170D01*
X-134083Y-75975D01*
X-132995Y-70835D01*
X-131541D01*
X-133151Y-78517D01*
D02*
G37*
G36*
X-127179Y-70847D02*
X-126990D01*
X-126835Y-70858D01*
X-126779D01*
X-126724Y-70869D01*
X-126701D01*
X-126646Y-70880D01*
X-126557Y-70891D01*
X-126435Y-70913D01*
X-126302Y-70935D01*
X-126158Y-70969D01*
X-125869Y-71069D01*
X-125847Y-71080D01*
X-125802Y-71091D01*
X-125736Y-71124D01*
X-125636Y-71168D01*
X-125536Y-71235D01*
X-125414Y-71302D01*
X-125303Y-71379D01*
X-125181Y-71479D01*
X-125170Y-71490D01*
X-125125Y-71524D01*
X-125070Y-71579D01*
X-124992Y-71657D01*
X-124914Y-71746D01*
X-124826Y-71857D01*
X-124737Y-71979D01*
X-124648Y-72112D01*
X-124637Y-72123D01*
X-124615Y-72179D01*
X-124570Y-72256D01*
X-124526Y-72356D01*
X-124470Y-72478D01*
X-124404Y-72622D01*
X-124348Y-72789D01*
X-124304Y-72967D01*
X-124293Y-72989D01*
X-124282Y-73055D01*
X-124260Y-73155D01*
X-124237Y-73277D01*
X-124215Y-73433D01*
X-124204Y-73622D01*
X-124182Y-73810D01*
Y-74021D01*
Y-74032D01*
Y-74077D01*
Y-74143D01*
X-124193Y-74232D01*
Y-74343D01*
X-124204Y-74465D01*
X-124226Y-74609D01*
X-124237Y-74765D01*
X-124271Y-74931D01*
X-124293Y-75109D01*
X-124382Y-75475D01*
X-124504Y-75853D01*
X-124570Y-76041D01*
X-124659Y-76230D01*
Y-76241D01*
X-124681Y-76274D01*
X-124704Y-76319D01*
X-124748Y-76385D01*
X-124792Y-76474D01*
X-124848Y-76563D01*
X-124992Y-76785D01*
X-125159Y-77029D01*
X-125370Y-77284D01*
X-125603Y-77529D01*
X-125858Y-77762D01*
X-125869D01*
X-125880Y-77784D01*
X-125913Y-77806D01*
X-125958Y-77828D01*
X-126013Y-77873D01*
X-126080Y-77906D01*
X-126246Y-78006D01*
X-126446Y-78106D01*
X-126690Y-78217D01*
X-126968Y-78317D01*
X-127279Y-78405D01*
X-127301D01*
X-127334Y-78417D01*
X-127367Y-78428D01*
X-127423D01*
X-127490Y-78439D01*
X-127567Y-78450D01*
X-127656Y-78461D01*
X-127756Y-78472D01*
X-127867Y-78483D01*
X-127989Y-78494D01*
X-128133D01*
X-128278Y-78505D01*
X-128444Y-78517D01*
X-131508D01*
X-129898Y-70835D01*
X-127367D01*
X-127179Y-70847D01*
D02*
G37*
G36*
X-143483Y-82386D02*
X-143372Y-82397D01*
X-143239Y-82409D01*
X-143095Y-82431D01*
X-142939Y-82453D01*
X-142595Y-82531D01*
X-142417Y-82586D01*
X-142251Y-82642D01*
X-142073Y-82719D01*
X-141907Y-82808D01*
X-141751Y-82908D01*
X-141607Y-83019D01*
X-141596Y-83030D01*
X-141574Y-83052D01*
X-141541Y-83086D01*
X-141485Y-83130D01*
X-141430Y-83197D01*
X-141363Y-83274D01*
X-141296Y-83363D01*
X-141230Y-83463D01*
X-141152Y-83585D01*
X-141074Y-83707D01*
X-141008Y-83851D01*
X-140941Y-83996D01*
X-140886Y-84162D01*
X-140841Y-84329D01*
X-140808Y-84517D01*
X-140786Y-84706D01*
X-142295Y-84773D01*
Y-84762D01*
Y-84750D01*
X-142306Y-84684D01*
X-142340Y-84584D01*
X-142373Y-84462D01*
X-142429Y-84329D01*
X-142495Y-84184D01*
X-142584Y-84051D01*
X-142706Y-83929D01*
X-142717Y-83918D01*
X-142773Y-83885D01*
X-142850Y-83829D01*
X-142961Y-83774D01*
X-143095Y-83729D01*
X-143272Y-83674D01*
X-143483Y-83640D01*
X-143716Y-83629D01*
X-143827D01*
X-143938Y-83640D01*
X-144082Y-83663D01*
X-144227Y-83685D01*
X-144382Y-83729D01*
X-144527Y-83785D01*
X-144649Y-83862D01*
X-144660Y-83874D01*
X-144693Y-83907D01*
X-144737Y-83951D01*
X-144782Y-84018D01*
X-144837Y-84107D01*
X-144882Y-84207D01*
X-144915Y-84329D01*
X-144926Y-84451D01*
Y-84462D01*
Y-84506D01*
X-144915Y-84562D01*
X-144893Y-84640D01*
X-144860Y-84728D01*
X-144815Y-84817D01*
X-144760Y-84906D01*
X-144671Y-84995D01*
X-144660Y-85006D01*
X-144615Y-85039D01*
X-144549Y-85084D01*
X-144438Y-85150D01*
X-144360Y-85195D01*
X-144282Y-85239D01*
X-144193Y-85294D01*
X-144082Y-85350D01*
X-143972Y-85405D01*
X-143838Y-85472D01*
X-143694Y-85539D01*
X-143539Y-85605D01*
X-143527Y-85616D01*
X-143483Y-85627D01*
X-143417Y-85661D01*
X-143328Y-85694D01*
X-143217Y-85750D01*
X-143095Y-85805D01*
X-142828Y-85938D01*
X-142540Y-86082D01*
X-142262Y-86238D01*
X-142129Y-86316D01*
X-142018Y-86393D01*
X-141918Y-86471D01*
X-141840Y-86538D01*
X-141829Y-86549D01*
X-141818Y-86560D01*
X-141785Y-86593D01*
X-141751Y-86626D01*
X-141663Y-86749D01*
X-141563Y-86904D01*
X-141463Y-87093D01*
X-141385Y-87326D01*
X-141319Y-87592D01*
X-141307Y-87725D01*
X-141296Y-87881D01*
Y-87892D01*
Y-87925D01*
Y-87981D01*
X-141307Y-88047D01*
X-141319Y-88136D01*
X-141341Y-88247D01*
X-141363Y-88358D01*
X-141396Y-88480D01*
X-141441Y-88613D01*
X-141496Y-88758D01*
X-141563Y-88902D01*
X-141641Y-89046D01*
X-141729Y-89190D01*
X-141840Y-89346D01*
X-141962Y-89479D01*
X-142107Y-89623D01*
X-142118Y-89634D01*
X-142140Y-89657D01*
X-142196Y-89690D01*
X-142251Y-89734D01*
X-142340Y-89790D01*
X-142440Y-89856D01*
X-142551Y-89912D01*
X-142695Y-89979D01*
X-142839Y-90056D01*
X-143006Y-90112D01*
X-143195Y-90178D01*
X-143394Y-90234D01*
X-143605Y-90278D01*
X-143838Y-90311D01*
X-144082Y-90334D01*
X-144349Y-90345D01*
X-144515D01*
X-144604Y-90334D01*
X-144704Y-90323D01*
X-144815D01*
X-144937Y-90300D01*
X-145204Y-90267D01*
X-145492Y-90212D01*
X-145792Y-90134D01*
X-146069Y-90023D01*
X-146080D01*
X-146103Y-90012D01*
X-146136Y-89990D01*
X-146191Y-89956D01*
X-146313Y-89890D01*
X-146469Y-89779D01*
X-146635Y-89657D01*
X-146802Y-89490D01*
X-146957Y-89312D01*
X-147091Y-89102D01*
Y-89091D01*
X-147102Y-89080D01*
X-147113Y-89046D01*
X-147135Y-88991D01*
X-147157Y-88935D01*
X-147179Y-88869D01*
X-147235Y-88702D01*
X-147290Y-88502D01*
X-147335Y-88269D01*
X-147357Y-88014D01*
X-147368Y-87736D01*
X-145858Y-87648D01*
Y-87659D01*
Y-87681D01*
Y-87714D01*
X-145847Y-87759D01*
X-145836Y-87892D01*
X-145814Y-88036D01*
X-145792Y-88203D01*
X-145747Y-88369D01*
X-145692Y-88513D01*
X-145614Y-88624D01*
X-145592Y-88647D01*
X-145548Y-88691D01*
X-145459Y-88747D01*
X-145326Y-88824D01*
X-145248Y-88857D01*
X-145148Y-88902D01*
X-145048Y-88935D01*
X-144926Y-88957D01*
X-144804Y-88991D01*
X-144660Y-89002D01*
X-144504Y-89024D01*
X-144216D01*
X-144149Y-89013D01*
X-144071D01*
X-143905Y-88991D01*
X-143727Y-88957D01*
X-143539Y-88902D01*
X-143361Y-88835D01*
X-143217Y-88747D01*
X-143206Y-88735D01*
X-143161Y-88702D01*
X-143106Y-88636D01*
X-143039Y-88558D01*
X-142972Y-88458D01*
X-142917Y-88347D01*
X-142873Y-88225D01*
X-142861Y-88081D01*
Y-88069D01*
Y-88025D01*
X-142873Y-87958D01*
X-142895Y-87881D01*
X-142928Y-87792D01*
X-142984Y-87692D01*
X-143050Y-87592D01*
X-143150Y-87503D01*
X-143161Y-87492D01*
X-143195Y-87470D01*
X-143261Y-87426D01*
X-143361Y-87370D01*
X-143428Y-87326D01*
X-143505Y-87281D01*
X-143594Y-87237D01*
X-143694Y-87192D01*
X-143816Y-87137D01*
X-143938Y-87070D01*
X-144094Y-87004D01*
X-144249Y-86937D01*
X-144260D01*
X-144293Y-86915D01*
X-144338Y-86904D01*
X-144393Y-86871D01*
X-144471Y-86837D01*
X-144560Y-86804D01*
X-144748Y-86715D01*
X-144959Y-86604D01*
X-145181Y-86504D01*
X-145381Y-86393D01*
X-145481Y-86338D01*
X-145559Y-86293D01*
X-145581Y-86282D01*
X-145625Y-86249D01*
X-145703Y-86182D01*
X-145792Y-86105D01*
X-145892Y-86016D01*
X-146003Y-85894D01*
X-146103Y-85761D01*
X-146202Y-85616D01*
X-146214Y-85594D01*
X-146236Y-85539D01*
X-146280Y-85450D01*
X-146313Y-85339D01*
X-146358Y-85195D01*
X-146402Y-85028D01*
X-146425Y-84839D01*
X-146436Y-84640D01*
Y-84628D01*
Y-84595D01*
Y-84540D01*
X-146425Y-84473D01*
X-146413Y-84395D01*
X-146402Y-84295D01*
X-146380Y-84184D01*
X-146347Y-84073D01*
X-146269Y-83818D01*
X-146202Y-83685D01*
X-146136Y-83541D01*
X-146058Y-83407D01*
X-145969Y-83274D01*
X-145858Y-83141D01*
X-145736Y-83019D01*
X-145725Y-83008D01*
X-145703Y-82986D01*
X-145659Y-82963D01*
X-145603Y-82919D01*
X-145536Y-82875D01*
X-145448Y-82819D01*
X-145337Y-82753D01*
X-145215Y-82697D01*
X-145081Y-82642D01*
X-144937Y-82575D01*
X-144771Y-82520D01*
X-144582Y-82475D01*
X-144382Y-82431D01*
X-144171Y-82397D01*
X-143949Y-82386D01*
X-143705Y-82375D01*
X-143572D01*
X-143483Y-82386D01*
D02*
G37*
G36*
X-125468D02*
X-125368Y-82397D01*
X-125246Y-82409D01*
X-125102Y-82431D01*
X-124958Y-82464D01*
X-124636Y-82542D01*
X-124469Y-82597D01*
X-124303Y-82664D01*
X-124125Y-82741D01*
X-123970Y-82830D01*
X-123803Y-82930D01*
X-123659Y-83052D01*
X-123648Y-83063D01*
X-123625Y-83086D01*
X-123592Y-83119D01*
X-123537Y-83174D01*
X-123481Y-83241D01*
X-123404Y-83319D01*
X-123337Y-83419D01*
X-123259Y-83530D01*
X-123181Y-83652D01*
X-123104Y-83785D01*
X-123026Y-83940D01*
X-122948Y-84096D01*
X-122882Y-84273D01*
X-122826Y-84462D01*
X-122782Y-84662D01*
X-122749Y-84873D01*
X-124258Y-85017D01*
Y-85006D01*
X-124269Y-84984D01*
Y-84950D01*
X-124280Y-84906D01*
X-124314Y-84795D01*
X-124369Y-84651D01*
X-124436Y-84484D01*
X-124525Y-84329D01*
X-124625Y-84173D01*
X-124747Y-84051D01*
X-124758Y-84040D01*
X-124813Y-84007D01*
X-124891Y-83951D01*
X-125002Y-83896D01*
X-125135Y-83840D01*
X-125302Y-83785D01*
X-125490Y-83751D01*
X-125701Y-83740D01*
X-125768D01*
X-125812Y-83751D01*
X-125934Y-83763D01*
X-126101Y-83796D01*
X-126290Y-83840D01*
X-126489Y-83918D01*
X-126711Y-84018D01*
X-126922Y-84151D01*
X-126933D01*
X-126944Y-84173D01*
X-127011Y-84229D01*
X-127122Y-84318D01*
X-127244Y-84462D01*
X-127388Y-84628D01*
X-127544Y-84850D01*
X-127699Y-85106D01*
X-127832Y-85405D01*
Y-85416D01*
X-127844Y-85439D01*
X-127866Y-85483D01*
X-127888Y-85550D01*
X-127910Y-85627D01*
X-127932Y-85716D01*
X-127966Y-85816D01*
X-127999Y-85927D01*
X-128054Y-86182D01*
X-128110Y-86471D01*
X-128154Y-86782D01*
X-128165Y-87093D01*
Y-87104D01*
Y-87137D01*
Y-87181D01*
X-128154Y-87248D01*
Y-87326D01*
X-128143Y-87415D01*
X-128110Y-87614D01*
X-128054Y-87847D01*
X-127988Y-88081D01*
X-127877Y-88314D01*
X-127732Y-88525D01*
X-127710Y-88547D01*
X-127655Y-88602D01*
X-127555Y-88680D01*
X-127433Y-88769D01*
X-127266Y-88869D01*
X-127078Y-88946D01*
X-126867Y-89002D01*
X-126756Y-89013D01*
X-126634Y-89024D01*
X-126578D01*
X-126534Y-89013D01*
X-126412Y-89002D01*
X-126267Y-88980D01*
X-126090Y-88924D01*
X-125901Y-88857D01*
X-125712Y-88769D01*
X-125513Y-88636D01*
X-125501D01*
X-125490Y-88613D01*
X-125424Y-88558D01*
X-125335Y-88469D01*
X-125224Y-88336D01*
X-125102Y-88169D01*
X-124969Y-87970D01*
X-124858Y-87725D01*
X-124747Y-87448D01*
X-123148Y-87692D01*
Y-87703D01*
X-123170Y-87747D01*
X-123193Y-87814D01*
X-123237Y-87903D01*
X-123293Y-88014D01*
X-123348Y-88136D01*
X-123415Y-88280D01*
X-123503Y-88425D01*
X-123703Y-88747D01*
X-123947Y-89068D01*
X-124225Y-89390D01*
X-124391Y-89535D01*
X-124558Y-89668D01*
X-124569Y-89679D01*
X-124602Y-89701D01*
X-124647Y-89734D01*
X-124724Y-89768D01*
X-124813Y-89823D01*
X-124913Y-89879D01*
X-125046Y-89945D01*
X-125180Y-90001D01*
X-125335Y-90067D01*
X-125501Y-90134D01*
X-125679Y-90189D01*
X-125868Y-90234D01*
X-126067Y-90278D01*
X-126278Y-90311D01*
X-126500Y-90334D01*
X-126734Y-90345D01*
X-126800D01*
X-126867Y-90334D01*
X-126967D01*
X-127089Y-90323D01*
X-127222Y-90300D01*
X-127377Y-90278D01*
X-127533Y-90234D01*
X-127710Y-90189D01*
X-127888Y-90134D01*
X-128077Y-90067D01*
X-128254Y-89990D01*
X-128443Y-89890D01*
X-128620Y-89779D01*
X-128787Y-89646D01*
X-128942Y-89501D01*
X-128953Y-89490D01*
X-128976Y-89457D01*
X-129020Y-89412D01*
X-129064Y-89346D01*
X-129120Y-89257D01*
X-129186Y-89146D01*
X-129264Y-89013D01*
X-129331Y-88869D01*
X-129409Y-88702D01*
X-129486Y-88525D01*
X-129553Y-88314D01*
X-129608Y-88092D01*
X-129653Y-87858D01*
X-129697Y-87592D01*
X-129719Y-87326D01*
X-129730Y-87026D01*
Y-87015D01*
Y-86971D01*
Y-86893D01*
X-129719Y-86804D01*
Y-86693D01*
X-129697Y-86549D01*
X-129686Y-86404D01*
X-129664Y-86238D01*
X-129642Y-86060D01*
X-129597Y-85861D01*
X-129508Y-85461D01*
X-129375Y-85039D01*
X-129298Y-84839D01*
X-129209Y-84628D01*
X-129198Y-84617D01*
X-129186Y-84584D01*
X-129153Y-84529D01*
X-129109Y-84451D01*
X-129053Y-84362D01*
X-128987Y-84251D01*
X-128909Y-84140D01*
X-128820Y-84007D01*
X-128609Y-83740D01*
X-128365Y-83463D01*
X-128066Y-83197D01*
X-127899Y-83075D01*
X-127732Y-82963D01*
X-127721Y-82952D01*
X-127688Y-82941D01*
X-127633Y-82908D01*
X-127566Y-82875D01*
X-127477Y-82830D01*
X-127377Y-82775D01*
X-127255Y-82719D01*
X-127122Y-82664D01*
X-126978Y-82619D01*
X-126811Y-82564D01*
X-126467Y-82464D01*
X-126090Y-82397D01*
X-125890Y-82386D01*
X-125679Y-82375D01*
X-125557D01*
X-125468Y-82386D01*
D02*
G37*
G36*
X-111305Y-85539D02*
X-108774Y-90201D01*
X-110561D01*
X-112459Y-86549D01*
X-113958Y-87870D01*
X-114457Y-90201D01*
X-116022D01*
X-114413Y-82520D01*
X-112837D01*
X-113525Y-85794D01*
X-109973Y-82520D01*
X-107853D01*
X-111305Y-85539D01*
D02*
G37*
G36*
X-133138Y-90201D02*
X-134736D01*
X-134914Y-84584D01*
X-137711Y-90201D01*
X-139343D01*
X-139631Y-82520D01*
X-138089D01*
X-138022Y-87903D01*
X-135369Y-82520D01*
X-133660D01*
X-133482Y-87847D01*
X-130951Y-82520D01*
X-129420D01*
X-133138Y-90201D01*
D02*
G37*
G36*
X-120684Y-88913D02*
X-116755D01*
X-117021Y-90201D01*
X-122527D01*
X-120917Y-82520D01*
X-119341D01*
X-120684Y-88913D01*
D02*
G37*
G36*
X-144245Y-93816D02*
X-144134Y-93827D01*
X-144001Y-93839D01*
X-143857Y-93861D01*
X-143701Y-93883D01*
X-143357Y-93961D01*
X-143180Y-94016D01*
X-143013Y-94072D01*
X-142835Y-94149D01*
X-142669Y-94238D01*
X-142514Y-94338D01*
X-142369Y-94449D01*
X-142358Y-94460D01*
X-142336Y-94482D01*
X-142303Y-94516D01*
X-142247Y-94560D01*
X-142192Y-94627D01*
X-142125Y-94704D01*
X-142058Y-94793D01*
X-141992Y-94893D01*
X-141914Y-95015D01*
X-141836Y-95137D01*
X-141770Y-95281D01*
X-141703Y-95426D01*
X-141648Y-95592D01*
X-141603Y-95759D01*
X-141570Y-95947D01*
X-141548Y-96136D01*
X-143057Y-96203D01*
Y-96192D01*
Y-96180D01*
X-143069Y-96114D01*
X-143102Y-96014D01*
X-143135Y-95892D01*
X-143191Y-95759D01*
X-143257Y-95614D01*
X-143346Y-95481D01*
X-143468Y-95359D01*
X-143479Y-95348D01*
X-143535Y-95315D01*
X-143612Y-95259D01*
X-143723Y-95204D01*
X-143857Y-95159D01*
X-144034Y-95104D01*
X-144245Y-95070D01*
X-144478Y-95059D01*
X-144589D01*
X-144700Y-95070D01*
X-144845Y-95093D01*
X-144989Y-95115D01*
X-145144Y-95159D01*
X-145288Y-95215D01*
X-145411Y-95293D01*
X-145422Y-95304D01*
X-145455Y-95337D01*
X-145499Y-95381D01*
X-145544Y-95448D01*
X-145599Y-95537D01*
X-145644Y-95637D01*
X-145677Y-95759D01*
X-145688Y-95881D01*
Y-95892D01*
Y-95936D01*
X-145677Y-95992D01*
X-145655Y-96069D01*
X-145622Y-96158D01*
X-145577Y-96247D01*
X-145522Y-96336D01*
X-145433Y-96425D01*
X-145422Y-96436D01*
X-145377Y-96469D01*
X-145311Y-96514D01*
X-145200Y-96580D01*
X-145122Y-96624D01*
X-145044Y-96669D01*
X-144956Y-96724D01*
X-144845Y-96780D01*
X-144733Y-96835D01*
X-144600Y-96902D01*
X-144456Y-96969D01*
X-144301Y-97035D01*
X-144290Y-97046D01*
X-144245Y-97057D01*
X-144178Y-97091D01*
X-144090Y-97124D01*
X-143979Y-97179D01*
X-143857Y-97235D01*
X-143590Y-97368D01*
X-143302Y-97513D01*
X-143024Y-97668D01*
X-142891Y-97746D01*
X-142780Y-97823D01*
X-142680Y-97901D01*
X-142602Y-97968D01*
X-142591Y-97979D01*
X-142580Y-97990D01*
X-142547Y-98023D01*
X-142514Y-98056D01*
X-142425Y-98179D01*
X-142325Y-98334D01*
X-142225Y-98523D01*
X-142147Y-98756D01*
X-142081Y-99022D01*
X-142070Y-99155D01*
X-142058Y-99311D01*
Y-99322D01*
Y-99355D01*
Y-99411D01*
X-142070Y-99477D01*
X-142081Y-99566D01*
X-142103Y-99677D01*
X-142125Y-99788D01*
X-142158Y-99910D01*
X-142203Y-100043D01*
X-142258Y-100188D01*
X-142325Y-100332D01*
X-142402Y-100476D01*
X-142491Y-100620D01*
X-142602Y-100776D01*
X-142724Y-100909D01*
X-142869Y-101053D01*
X-142880Y-101064D01*
X-142902Y-101087D01*
X-142957Y-101120D01*
X-143013Y-101164D01*
X-143102Y-101220D01*
X-143202Y-101286D01*
X-143313Y-101342D01*
X-143457Y-101409D01*
X-143601Y-101486D01*
X-143768Y-101542D01*
X-143956Y-101608D01*
X-144156Y-101664D01*
X-144367Y-101708D01*
X-144600Y-101742D01*
X-144845Y-101764D01*
X-145111Y-101775D01*
X-145277D01*
X-145366Y-101764D01*
X-145466Y-101753D01*
X-145577D01*
X-145699Y-101730D01*
X-145965Y-101697D01*
X-146254Y-101642D01*
X-146554Y-101564D01*
X-146831Y-101453D01*
X-146842D01*
X-146865Y-101442D01*
X-146898Y-101420D01*
X-146953Y-101386D01*
X-147076Y-101320D01*
X-147231Y-101209D01*
X-147397Y-101087D01*
X-147564Y-100920D01*
X-147719Y-100743D01*
X-147852Y-100532D01*
Y-100521D01*
X-147864Y-100510D01*
X-147875Y-100476D01*
X-147897Y-100421D01*
X-147919Y-100365D01*
X-147941Y-100299D01*
X-147997Y-100132D01*
X-148052Y-99932D01*
X-148097Y-99699D01*
X-148119Y-99444D01*
X-148130Y-99166D01*
X-146620Y-99078D01*
Y-99089D01*
Y-99111D01*
Y-99144D01*
X-146609Y-99189D01*
X-146598Y-99322D01*
X-146576Y-99466D01*
X-146554Y-99633D01*
X-146509Y-99799D01*
X-146454Y-99943D01*
X-146376Y-100054D01*
X-146354Y-100077D01*
X-146310Y-100121D01*
X-146221Y-100176D01*
X-146088Y-100254D01*
X-146010Y-100288D01*
X-145910Y-100332D01*
X-145810Y-100365D01*
X-145688Y-100387D01*
X-145566Y-100421D01*
X-145422Y-100432D01*
X-145266Y-100454D01*
X-144978D01*
X-144911Y-100443D01*
X-144833D01*
X-144667Y-100421D01*
X-144489Y-100387D01*
X-144301Y-100332D01*
X-144123Y-100265D01*
X-143979Y-100176D01*
X-143968Y-100165D01*
X-143923Y-100132D01*
X-143868Y-100065D01*
X-143801Y-99988D01*
X-143735Y-99888D01*
X-143679Y-99777D01*
X-143635Y-99655D01*
X-143624Y-99510D01*
Y-99499D01*
Y-99455D01*
X-143635Y-99388D01*
X-143657Y-99311D01*
X-143690Y-99222D01*
X-143746Y-99122D01*
X-143812Y-99022D01*
X-143912Y-98933D01*
X-143923Y-98922D01*
X-143956Y-98900D01*
X-144023Y-98856D01*
X-144123Y-98800D01*
X-144190Y-98756D01*
X-144267Y-98711D01*
X-144356Y-98667D01*
X-144456Y-98623D01*
X-144578Y-98567D01*
X-144700Y-98500D01*
X-144856Y-98434D01*
X-145011Y-98367D01*
X-145022D01*
X-145055Y-98345D01*
X-145100Y-98334D01*
X-145155Y-98301D01*
X-145233Y-98267D01*
X-145322Y-98234D01*
X-145511Y-98145D01*
X-145721Y-98034D01*
X-145943Y-97934D01*
X-146143Y-97823D01*
X-146243Y-97768D01*
X-146321Y-97723D01*
X-146343Y-97712D01*
X-146387Y-97679D01*
X-146465Y-97612D01*
X-146554Y-97535D01*
X-146654Y-97446D01*
X-146765Y-97324D01*
X-146865Y-97191D01*
X-146965Y-97046D01*
X-146976Y-97024D01*
X-146998Y-96969D01*
X-147042Y-96880D01*
X-147076Y-96769D01*
X-147120Y-96624D01*
X-147164Y-96458D01*
X-147186Y-96269D01*
X-147198Y-96069D01*
Y-96058D01*
Y-96025D01*
Y-95970D01*
X-147186Y-95903D01*
X-147175Y-95825D01*
X-147164Y-95725D01*
X-147142Y-95614D01*
X-147109Y-95503D01*
X-147031Y-95248D01*
X-146965Y-95115D01*
X-146898Y-94971D01*
X-146820Y-94838D01*
X-146731Y-94704D01*
X-146620Y-94571D01*
X-146498Y-94449D01*
X-146487Y-94438D01*
X-146465Y-94416D01*
X-146421Y-94394D01*
X-146365Y-94349D01*
X-146299Y-94305D01*
X-146210Y-94249D01*
X-146099Y-94183D01*
X-145977Y-94127D01*
X-145843Y-94072D01*
X-145699Y-94005D01*
X-145533Y-93949D01*
X-145344Y-93905D01*
X-145144Y-93861D01*
X-144933Y-93827D01*
X-144711Y-93816D01*
X-144467Y-93805D01*
X-144334D01*
X-144245Y-93816D01*
D02*
G37*
G36*
X-133900Y-101630D02*
X-135498D01*
X-135676Y-96014D01*
X-138473Y-101630D01*
X-140105D01*
X-140393Y-93949D01*
X-138851D01*
X-138784Y-99333D01*
X-136131Y-93949D01*
X-134422D01*
X-134244Y-99277D01*
X-131713Y-93949D01*
X-130182D01*
X-133900Y-101630D01*
D02*
G37*
G36*
X-121824D02*
X-123389D01*
X-121779Y-93949D01*
X-120203D01*
X-121824Y-101630D01*
D02*
G37*
G36*
X-126730Y-93961D02*
X-126541D01*
X-126385Y-93972D01*
X-126330D01*
X-126274Y-93983D01*
X-126252D01*
X-126197Y-93994D01*
X-126108Y-94005D01*
X-125986Y-94027D01*
X-125853Y-94049D01*
X-125708Y-94083D01*
X-125420Y-94183D01*
X-125398Y-94194D01*
X-125353Y-94205D01*
X-125287Y-94238D01*
X-125187Y-94283D01*
X-125087Y-94349D01*
X-124965Y-94416D01*
X-124854Y-94493D01*
X-124732Y-94593D01*
X-124720Y-94604D01*
X-124676Y-94638D01*
X-124621Y-94693D01*
X-124543Y-94771D01*
X-124465Y-94860D01*
X-124376Y-94971D01*
X-124288Y-95093D01*
X-124199Y-95226D01*
X-124188Y-95237D01*
X-124165Y-95293D01*
X-124121Y-95370D01*
X-124077Y-95470D01*
X-124021Y-95592D01*
X-123955Y-95737D01*
X-123899Y-95903D01*
X-123855Y-96081D01*
X-123844Y-96103D01*
X-123833Y-96169D01*
X-123810Y-96269D01*
X-123788Y-96391D01*
X-123766Y-96547D01*
X-123755Y-96735D01*
X-123733Y-96924D01*
Y-97135D01*
Y-97146D01*
Y-97191D01*
Y-97257D01*
X-123744Y-97346D01*
Y-97457D01*
X-123755Y-97579D01*
X-123777Y-97723D01*
X-123788Y-97879D01*
X-123821Y-98045D01*
X-123844Y-98223D01*
X-123932Y-98589D01*
X-124054Y-98967D01*
X-124121Y-99155D01*
X-124210Y-99344D01*
Y-99355D01*
X-124232Y-99388D01*
X-124254Y-99433D01*
X-124299Y-99499D01*
X-124343Y-99588D01*
X-124399Y-99677D01*
X-124543Y-99899D01*
X-124709Y-100143D01*
X-124920Y-100399D01*
X-125153Y-100643D01*
X-125409Y-100876D01*
X-125420D01*
X-125431Y-100898D01*
X-125464Y-100920D01*
X-125509Y-100942D01*
X-125564Y-100987D01*
X-125631Y-101020D01*
X-125797Y-101120D01*
X-125997Y-101220D01*
X-126241Y-101331D01*
X-126519Y-101431D01*
X-126830Y-101519D01*
X-126852D01*
X-126885Y-101531D01*
X-126918Y-101542D01*
X-126974D01*
X-127040Y-101553D01*
X-127118Y-101564D01*
X-127207Y-101575D01*
X-127307Y-101586D01*
X-127418Y-101597D01*
X-127540Y-101608D01*
X-127684D01*
X-127829Y-101619D01*
X-127995Y-101630D01*
X-131059D01*
X-129449Y-93949D01*
X-126918D01*
X-126730Y-93961D01*
D02*
G37*
G36*
X-115319Y-93816D02*
X-115197Y-93827D01*
X-115053Y-93850D01*
X-114897Y-93883D01*
X-114731Y-93916D01*
X-114542Y-93961D01*
X-114353Y-94016D01*
X-114165Y-94094D01*
X-113976Y-94183D01*
X-113776Y-94283D01*
X-113598Y-94405D01*
X-113410Y-94538D01*
X-113243Y-94693D01*
X-113232Y-94704D01*
X-113210Y-94738D01*
X-113166Y-94782D01*
X-113110Y-94860D01*
X-113043Y-94949D01*
X-112966Y-95048D01*
X-112888Y-95182D01*
X-112799Y-95326D01*
X-112722Y-95481D01*
X-112644Y-95659D01*
X-112566Y-95859D01*
X-112500Y-96069D01*
X-112444Y-96292D01*
X-112400Y-96536D01*
X-112378Y-96791D01*
X-112367Y-97057D01*
Y-97069D01*
Y-97113D01*
Y-97179D01*
X-112378Y-97268D01*
X-112389Y-97368D01*
X-112400Y-97501D01*
X-112411Y-97646D01*
X-112433Y-97801D01*
X-112466Y-97979D01*
X-112511Y-98167D01*
X-112611Y-98556D01*
X-112677Y-98767D01*
X-112755Y-98978D01*
X-112844Y-99200D01*
X-112944Y-99411D01*
X-112955Y-99422D01*
X-112966Y-99466D01*
X-112999Y-99522D01*
X-113043Y-99599D01*
X-113110Y-99699D01*
X-113177Y-99799D01*
X-113254Y-99921D01*
X-113354Y-100054D01*
X-113454Y-100199D01*
X-113576Y-100343D01*
X-113698Y-100487D01*
X-113843Y-100632D01*
X-114142Y-100909D01*
X-114320Y-101042D01*
X-114498Y-101164D01*
X-114509Y-101175D01*
X-114542Y-101187D01*
X-114598Y-101220D01*
X-114664Y-101264D01*
X-114764Y-101309D01*
X-114875Y-101353D01*
X-114997Y-101409D01*
X-115141Y-101464D01*
X-115297Y-101531D01*
X-115463Y-101586D01*
X-115652Y-101630D01*
X-115841Y-101675D01*
X-116263Y-101753D01*
X-116473Y-101764D01*
X-116706Y-101775D01*
X-116806D01*
X-116884Y-101764D01*
X-116973D01*
X-117084Y-101753D01*
X-117206Y-101730D01*
X-117339Y-101708D01*
X-117617Y-101653D01*
X-117928Y-101564D01*
X-118227Y-101442D01*
X-118371Y-101375D01*
X-118516Y-101286D01*
X-118527Y-101275D01*
X-118549Y-101264D01*
X-118582Y-101231D01*
X-118638Y-101198D01*
X-118760Y-101098D01*
X-118915Y-100953D01*
X-119082Y-100776D01*
X-119248Y-100565D01*
X-119404Y-100332D01*
X-119537Y-100077D01*
Y-100065D01*
X-119548Y-100043D01*
X-119559Y-100010D01*
X-119581Y-99955D01*
X-119604Y-99888D01*
X-119637Y-99810D01*
X-119681Y-99621D01*
X-119737Y-99399D01*
X-119792Y-99155D01*
X-119825Y-98900D01*
X-119837Y-98623D01*
Y-98611D01*
Y-98589D01*
Y-98556D01*
Y-98500D01*
X-119825Y-98445D01*
Y-98367D01*
X-119814Y-98190D01*
X-119792Y-97968D01*
X-119748Y-97723D01*
X-119703Y-97457D01*
X-119637Y-97179D01*
Y-97168D01*
X-119626Y-97135D01*
X-119604Y-97080D01*
X-119581Y-97013D01*
X-119559Y-96924D01*
X-119526Y-96824D01*
X-119481Y-96702D01*
X-119437Y-96580D01*
X-119326Y-96303D01*
X-119182Y-96014D01*
X-119015Y-95714D01*
X-118827Y-95426D01*
X-118815Y-95415D01*
X-118804Y-95392D01*
X-118771Y-95359D01*
X-118727Y-95304D01*
X-118671Y-95237D01*
X-118604Y-95170D01*
X-118449Y-95004D01*
X-118249Y-94815D01*
X-118016Y-94615D01*
X-117750Y-94427D01*
X-117450Y-94249D01*
X-117439D01*
X-117417Y-94227D01*
X-117361Y-94205D01*
X-117306Y-94183D01*
X-117228Y-94149D01*
X-117128Y-94105D01*
X-117017Y-94072D01*
X-116895Y-94027D01*
X-116762Y-93983D01*
X-116618Y-93949D01*
X-116296Y-93872D01*
X-115941Y-93827D01*
X-115552Y-93805D01*
X-115419D01*
X-115319Y-93816D01*
D02*
G37*
G36*
X87397Y-111312D02*
Y-116817D01*
X79716Y-115208D01*
Y-113632D01*
X86109Y-114975D01*
Y-111045D01*
X87397Y-111312D01*
D02*
G37*
G36*
X89517Y-123366D02*
X88562D01*
Y-117239D01*
X89517D01*
Y-123366D01*
D02*
G37*
G36*
X87397Y-124454D02*
Y-125908D01*
X82235Y-127995D01*
X87397Y-129083D01*
Y-130537D01*
X79716Y-128927D01*
Y-127473D01*
X84855Y-125386D01*
X79716Y-124299D01*
Y-122844D01*
X87397Y-124454D01*
D02*
G37*
G36*
Y-133034D02*
X85699Y-133289D01*
Y-136331D01*
X87397Y-137252D01*
Y-138873D01*
X79716Y-134555D01*
Y-132768D01*
X87397Y-131536D01*
Y-133034D01*
D02*
G37*
G36*
X82213Y-140016D02*
X82202D01*
X82180Y-140027D01*
X82147D01*
X82102Y-140038D01*
X81991Y-140071D01*
X81847Y-140127D01*
X81681Y-140194D01*
X81525Y-140282D01*
X81370Y-140382D01*
X81248Y-140504D01*
X81237Y-140515D01*
X81203Y-140571D01*
X81148Y-140649D01*
X81092Y-140760D01*
X81037Y-140893D01*
X80981Y-141059D01*
X80948Y-141248D01*
X80937Y-141459D01*
Y-141525D01*
X80948Y-141570D01*
X80959Y-141692D01*
X80992Y-141858D01*
X81037Y-142047D01*
X81115Y-142247D01*
X81214Y-142469D01*
X81348Y-142680D01*
Y-142691D01*
X81370Y-142702D01*
X81425Y-142769D01*
X81514Y-142880D01*
X81658Y-143002D01*
X81825Y-143146D01*
X82047Y-143301D01*
X82302Y-143457D01*
X82602Y-143590D01*
X82613D01*
X82635Y-143601D01*
X82680Y-143623D01*
X82746Y-143645D01*
X82824Y-143668D01*
X82913Y-143690D01*
X83013Y-143723D01*
X83124Y-143757D01*
X83379Y-143812D01*
X83667Y-143868D01*
X83978Y-143912D01*
X84289Y-143923D01*
X84300D01*
X84333D01*
X84378D01*
X84444Y-143912D01*
X84522D01*
X84611Y-143901D01*
X84811Y-143868D01*
X85044Y-143812D01*
X85277Y-143745D01*
X85510Y-143634D01*
X85721Y-143490D01*
X85743Y-143468D01*
X85799Y-143412D01*
X85876Y-143313D01*
X85965Y-143190D01*
X86065Y-143024D01*
X86143Y-142835D01*
X86198Y-142624D01*
X86209Y-142513D01*
X86220Y-142391D01*
Y-142336D01*
X86209Y-142291D01*
X86198Y-142169D01*
X86176Y-142025D01*
X86121Y-141847D01*
X86054Y-141659D01*
X85965Y-141470D01*
X85832Y-141270D01*
Y-141259D01*
X85810Y-141248D01*
X85754Y-141181D01*
X85665Y-141093D01*
X85532Y-140982D01*
X85366Y-140859D01*
X85166Y-140726D01*
X84922Y-140615D01*
X84644Y-140504D01*
X84888Y-138906D01*
X84900D01*
X84944Y-138928D01*
X85010Y-138950D01*
X85099Y-138995D01*
X85210Y-139050D01*
X85332Y-139106D01*
X85477Y-139172D01*
X85621Y-139261D01*
X85943Y-139461D01*
X86265Y-139705D01*
X86587Y-139983D01*
X86731Y-140149D01*
X86864Y-140316D01*
X86875Y-140327D01*
X86897Y-140360D01*
X86931Y-140404D01*
X86964Y-140482D01*
X87020Y-140571D01*
X87075Y-140671D01*
X87142Y-140804D01*
X87197Y-140937D01*
X87264Y-141093D01*
X87330Y-141259D01*
X87386Y-141437D01*
X87430Y-141625D01*
X87475Y-141825D01*
X87508Y-142036D01*
X87530Y-142258D01*
X87541Y-142491D01*
Y-142558D01*
X87530Y-142624D01*
Y-142724D01*
X87519Y-142846D01*
X87497Y-142979D01*
X87475Y-143135D01*
X87430Y-143290D01*
X87386Y-143468D01*
X87330Y-143645D01*
X87264Y-143834D01*
X87186Y-144012D01*
X87086Y-144200D01*
X86975Y-144378D01*
X86842Y-144545D01*
X86698Y-144700D01*
X86687Y-144711D01*
X86653Y-144733D01*
X86609Y-144778D01*
X86542Y-144822D01*
X86454Y-144878D01*
X86342Y-144944D01*
X86209Y-145022D01*
X86065Y-145089D01*
X85899Y-145166D01*
X85721Y-145244D01*
X85510Y-145310D01*
X85288Y-145366D01*
X85055Y-145410D01*
X84789Y-145455D01*
X84522Y-145477D01*
X84222Y-145488D01*
X84211D01*
X84167D01*
X84089D01*
X84000Y-145477D01*
X83889D01*
X83745Y-145455D01*
X83601Y-145444D01*
X83434Y-145421D01*
X83257Y-145399D01*
X83057Y-145355D01*
X82657Y-145266D01*
X82235Y-145133D01*
X82036Y-145055D01*
X81825Y-144966D01*
X81814Y-144955D01*
X81781Y-144944D01*
X81725Y-144911D01*
X81647Y-144867D01*
X81559Y-144811D01*
X81447Y-144744D01*
X81336Y-144667D01*
X81203Y-144578D01*
X80937Y-144367D01*
X80659Y-144123D01*
X80393Y-143823D01*
X80271Y-143657D01*
X80160Y-143490D01*
X80149Y-143479D01*
X80138Y-143446D01*
X80104Y-143390D01*
X80071Y-143324D01*
X80027Y-143235D01*
X79971Y-143135D01*
X79916Y-143013D01*
X79860Y-142880D01*
X79816Y-142735D01*
X79760Y-142569D01*
X79660Y-142225D01*
X79594Y-141847D01*
X79583Y-141648D01*
X79572Y-141437D01*
Y-141315D01*
X79583Y-141226D01*
X79594Y-141126D01*
X79605Y-141004D01*
X79627Y-140859D01*
X79660Y-140715D01*
X79738Y-140393D01*
X79794Y-140227D01*
X79860Y-140060D01*
X79938Y-139883D01*
X80027Y-139727D01*
X80127Y-139561D01*
X80249Y-139417D01*
X80260Y-139405D01*
X80282Y-139383D01*
X80315Y-139350D01*
X80371Y-139294D01*
X80437Y-139239D01*
X80515Y-139161D01*
X80615Y-139095D01*
X80726Y-139017D01*
X80848Y-138939D01*
X80981Y-138862D01*
X81137Y-138784D01*
X81292Y-138706D01*
X81470Y-138639D01*
X81658Y-138584D01*
X81858Y-138540D01*
X82069Y-138506D01*
X82213Y-140016D01*
D02*
G37*
G36*
X74951Y-111220D02*
Y-112786D01*
X71521Y-112075D01*
Y-115061D01*
X74951Y-115782D01*
Y-117347D01*
X67270Y-115738D01*
Y-114162D01*
X70233Y-114783D01*
Y-111798D01*
X67270Y-111176D01*
Y-109600D01*
X74951Y-111220D01*
D02*
G37*
G36*
X77071Y-123874D02*
X76116D01*
Y-117747D01*
X77071D01*
Y-123874D01*
D02*
G37*
G36*
X74951Y-124962D02*
Y-126416D01*
X69790Y-128503D01*
X74951Y-129591D01*
Y-131045D01*
X67270Y-129435D01*
Y-127981D01*
X72409Y-125894D01*
X67270Y-124807D01*
Y-123352D01*
X74951Y-124962D01*
D02*
G37*
G36*
Y-133542D02*
X73253Y-133797D01*
Y-136839D01*
X74951Y-137760D01*
Y-139381D01*
X67270Y-135063D01*
Y-133276D01*
X74951Y-132044D01*
Y-133542D01*
D02*
G37*
G36*
X69767Y-140524D02*
X69756D01*
X69734Y-140535D01*
X69701D01*
X69656Y-140546D01*
X69545Y-140579D01*
X69401Y-140635D01*
X69235Y-140702D01*
X69079Y-140790D01*
X68924Y-140890D01*
X68802Y-141012D01*
X68791Y-141023D01*
X68757Y-141079D01*
X68702Y-141157D01*
X68646Y-141268D01*
X68591Y-141401D01*
X68535Y-141567D01*
X68502Y-141756D01*
X68491Y-141967D01*
Y-142033D01*
X68502Y-142078D01*
X68513Y-142200D01*
X68546Y-142366D01*
X68591Y-142555D01*
X68668Y-142755D01*
X68768Y-142977D01*
X68902Y-143188D01*
Y-143199D01*
X68924Y-143210D01*
X68979Y-143277D01*
X69068Y-143388D01*
X69212Y-143510D01*
X69379Y-143654D01*
X69601Y-143809D01*
X69856Y-143965D01*
X70156Y-144098D01*
X70167D01*
X70189Y-144109D01*
X70233Y-144131D01*
X70300Y-144153D01*
X70378Y-144176D01*
X70467Y-144198D01*
X70567Y-144231D01*
X70677Y-144264D01*
X70933Y-144320D01*
X71221Y-144375D01*
X71532Y-144420D01*
X71843Y-144431D01*
X71854D01*
X71887D01*
X71932D01*
X71998Y-144420D01*
X72076D01*
X72165Y-144409D01*
X72365Y-144375D01*
X72598Y-144320D01*
X72831Y-144253D01*
X73064Y-144142D01*
X73275Y-143998D01*
X73297Y-143976D01*
X73353Y-143920D01*
X73430Y-143820D01*
X73519Y-143698D01*
X73619Y-143532D01*
X73697Y-143343D01*
X73752Y-143132D01*
X73763Y-143021D01*
X73774Y-142899D01*
Y-142844D01*
X73763Y-142799D01*
X73752Y-142677D01*
X73730Y-142533D01*
X73675Y-142355D01*
X73608Y-142167D01*
X73519Y-141978D01*
X73386Y-141778D01*
Y-141767D01*
X73364Y-141756D01*
X73308Y-141689D01*
X73219Y-141601D01*
X73086Y-141490D01*
X72920Y-141368D01*
X72720Y-141234D01*
X72476Y-141123D01*
X72198Y-141012D01*
X72442Y-139414D01*
X72453D01*
X72498Y-139436D01*
X72565Y-139458D01*
X72653Y-139503D01*
X72764Y-139558D01*
X72886Y-139614D01*
X73031Y-139680D01*
X73175Y-139769D01*
X73497Y-139969D01*
X73819Y-140213D01*
X74141Y-140491D01*
X74285Y-140657D01*
X74418Y-140824D01*
X74429Y-140835D01*
X74451Y-140868D01*
X74485Y-140912D01*
X74518Y-140990D01*
X74574Y-141079D01*
X74629Y-141179D01*
X74696Y-141312D01*
X74751Y-141445D01*
X74818Y-141601D01*
X74884Y-141767D01*
X74940Y-141945D01*
X74984Y-142133D01*
X75029Y-142333D01*
X75062Y-142544D01*
X75084Y-142766D01*
X75095Y-142999D01*
Y-143066D01*
X75084Y-143132D01*
Y-143232D01*
X75073Y-143354D01*
X75051Y-143488D01*
X75029Y-143643D01*
X74984Y-143798D01*
X74940Y-143976D01*
X74884Y-144153D01*
X74818Y-144342D01*
X74740Y-144520D01*
X74640Y-144708D01*
X74529Y-144886D01*
X74396Y-145053D01*
X74252Y-145208D01*
X74241Y-145219D01*
X74207Y-145241D01*
X74163Y-145286D01*
X74096Y-145330D01*
X74008Y-145386D01*
X73896Y-145452D01*
X73763Y-145530D01*
X73619Y-145597D01*
X73453Y-145674D01*
X73275Y-145752D01*
X73064Y-145819D01*
X72842Y-145874D01*
X72609Y-145918D01*
X72343Y-145963D01*
X72076Y-145985D01*
X71776Y-145996D01*
X71765D01*
X71721D01*
X71643D01*
X71554Y-145985D01*
X71443D01*
X71299Y-145963D01*
X71155Y-145952D01*
X70988Y-145929D01*
X70811Y-145907D01*
X70611Y-145863D01*
X70211Y-145774D01*
X69790Y-145641D01*
X69590Y-145563D01*
X69379Y-145474D01*
X69368Y-145463D01*
X69335Y-145452D01*
X69279Y-145419D01*
X69201Y-145374D01*
X69113Y-145319D01*
X69001Y-145252D01*
X68891Y-145175D01*
X68757Y-145086D01*
X68491Y-144875D01*
X68213Y-144631D01*
X67947Y-144331D01*
X67825Y-144165D01*
X67714Y-143998D01*
X67703Y-143987D01*
X67692Y-143954D01*
X67658Y-143898D01*
X67625Y-143832D01*
X67581Y-143743D01*
X67525Y-143643D01*
X67470Y-143521D01*
X67414Y-143388D01*
X67370Y-143243D01*
X67314Y-143077D01*
X67214Y-142733D01*
X67148Y-142355D01*
X67137Y-142156D01*
X67126Y-141945D01*
Y-141823D01*
X67137Y-141734D01*
X67148Y-141634D01*
X67159Y-141512D01*
X67181Y-141368D01*
X67214Y-141223D01*
X67292Y-140901D01*
X67348Y-140735D01*
X67414Y-140568D01*
X67492Y-140391D01*
X67581Y-140235D01*
X67681Y-140069D01*
X67803Y-139924D01*
X67814Y-139913D01*
X67836Y-139891D01*
X67869Y-139858D01*
X67925Y-139802D01*
X67991Y-139747D01*
X68069Y-139669D01*
X68169Y-139603D01*
X68280Y-139525D01*
X68402Y-139447D01*
X68535Y-139369D01*
X68691Y-139292D01*
X68846Y-139214D01*
X69024Y-139148D01*
X69212Y-139092D01*
X69412Y-139048D01*
X69623Y-139014D01*
X69767Y-140524D01*
D02*
G37*
G36*
X65060Y138976D02*
X65171D01*
X65315Y138953D01*
X65459Y138942D01*
X65626Y138920D01*
X65804Y138898D01*
X66003Y138854D01*
X66403Y138765D01*
X66825Y138631D01*
X67025Y138554D01*
X67235Y138465D01*
X67247Y138454D01*
X67280Y138443D01*
X67335Y138410D01*
X67413Y138365D01*
X67502Y138310D01*
X67613Y138243D01*
X67724Y138165D01*
X67857Y138076D01*
X68123Y137866D01*
X68401Y137621D01*
X68667Y137322D01*
X68789Y137155D01*
X68900Y136989D01*
X68911Y136978D01*
X68923Y136944D01*
X68956Y136889D01*
X68989Y136822D01*
X69034Y136733D01*
X69089Y136634D01*
X69145Y136511D01*
X69200Y136378D01*
X69244Y136234D01*
X69300Y136067D01*
X69400Y135723D01*
X69467Y135346D01*
X69478Y135146D01*
X69489Y134935D01*
Y134813D01*
X69478Y134724D01*
X69467Y134625D01*
X69455Y134502D01*
X69433Y134358D01*
X69400Y134214D01*
X69322Y133892D01*
X69267Y133725D01*
X69200Y133559D01*
X69122Y133381D01*
X69034Y133226D01*
X68934Y133059D01*
X68812Y132915D01*
X68801Y132904D01*
X68778Y132882D01*
X68745Y132849D01*
X68689Y132793D01*
X68623Y132738D01*
X68545Y132660D01*
X68445Y132593D01*
X68334Y132515D01*
X68212Y132438D01*
X68079Y132360D01*
X67924Y132282D01*
X67768Y132205D01*
X67591Y132138D01*
X67402Y132083D01*
X67202Y132038D01*
X66991Y132005D01*
X66847Y133514D01*
X66858D01*
X66880Y133526D01*
X66914D01*
X66958Y133537D01*
X67069Y133570D01*
X67213Y133625D01*
X67380Y133692D01*
X67535Y133781D01*
X67691Y133881D01*
X67813Y134003D01*
X67824Y134014D01*
X67857Y134069D01*
X67913Y134147D01*
X67968Y134258D01*
X68024Y134391D01*
X68079Y134558D01*
X68112Y134747D01*
X68123Y134958D01*
Y135024D01*
X68112Y135069D01*
X68101Y135191D01*
X68068Y135357D01*
X68024Y135546D01*
X67946Y135746D01*
X67846Y135968D01*
X67713Y136178D01*
Y136189D01*
X67691Y136201D01*
X67635Y136267D01*
X67546Y136378D01*
X67402Y136500D01*
X67235Y136645D01*
X67014Y136800D01*
X66758Y136955D01*
X66459Y137089D01*
X66447D01*
X66425Y137100D01*
X66381Y137122D01*
X66314Y137144D01*
X66237Y137166D01*
X66148Y137189D01*
X66048Y137222D01*
X65937Y137255D01*
X65682Y137311D01*
X65393Y137366D01*
X65082Y137410D01*
X64771Y137422D01*
X64760D01*
X64727D01*
X64682D01*
X64616Y137410D01*
X64538D01*
X64449Y137399D01*
X64250Y137366D01*
X64016Y137311D01*
X63783Y137244D01*
X63550Y137133D01*
X63339Y136989D01*
X63317Y136966D01*
X63262Y136911D01*
X63184Y136811D01*
X63095Y136689D01*
X62995Y136523D01*
X62918Y136334D01*
X62862Y136123D01*
X62851Y136012D01*
X62840Y135890D01*
Y135834D01*
X62851Y135790D01*
X62862Y135668D01*
X62884Y135524D01*
X62940Y135346D01*
X63006Y135157D01*
X63095Y134969D01*
X63228Y134769D01*
Y134758D01*
X63251Y134747D01*
X63306Y134680D01*
X63395Y134591D01*
X63528Y134480D01*
X63695Y134358D01*
X63894Y134225D01*
X64139Y134114D01*
X64416Y134003D01*
X64172Y132404D01*
X64161D01*
X64116Y132427D01*
X64050Y132449D01*
X63961Y132493D01*
X63850Y132549D01*
X63728Y132604D01*
X63584Y132671D01*
X63439Y132760D01*
X63117Y132959D01*
X62796Y133204D01*
X62474Y133481D01*
X62329Y133648D01*
X62196Y133814D01*
X62185Y133825D01*
X62163Y133859D01*
X62130Y133903D01*
X62096Y133981D01*
X62041Y134069D01*
X61985Y134169D01*
X61919Y134303D01*
X61863Y134436D01*
X61796Y134591D01*
X61730Y134758D01*
X61674Y134935D01*
X61630Y135124D01*
X61586Y135324D01*
X61552Y135535D01*
X61530Y135757D01*
X61519Y135990D01*
Y136056D01*
X61530Y136123D01*
Y136223D01*
X61541Y136345D01*
X61564Y136478D01*
X61586Y136634D01*
X61630Y136789D01*
X61674Y136966D01*
X61730Y137144D01*
X61796Y137333D01*
X61874Y137510D01*
X61974Y137699D01*
X62085Y137877D01*
X62218Y138043D01*
X62363Y138199D01*
X62374Y138210D01*
X62407Y138232D01*
X62451Y138276D01*
X62518Y138321D01*
X62607Y138376D01*
X62718Y138443D01*
X62851Y138520D01*
X62995Y138587D01*
X63162Y138665D01*
X63339Y138743D01*
X63550Y138809D01*
X63772Y138865D01*
X64005Y138909D01*
X64272Y138953D01*
X64538Y138976D01*
X64838Y138987D01*
X64849D01*
X64893D01*
X64971D01*
X65060Y138976D01*
D02*
G37*
G36*
X69344Y128053D02*
Y126266D01*
X61663Y125034D01*
Y126533D01*
X63362Y126788D01*
Y129829D01*
X61663Y130751D01*
Y132371D01*
X69344Y128053D01*
D02*
G37*
G36*
Y122492D02*
Y120239D01*
X64061Y119995D01*
X69344Y117586D01*
Y115311D01*
X61663Y116709D01*
Y118141D01*
X68035Y116809D01*
X61663Y119662D01*
Y121160D01*
X68079Y121449D01*
X61663Y122659D01*
Y124091D01*
X69344Y122492D01*
D02*
G37*
G36*
X60498Y109539D02*
X59543D01*
Y115666D01*
X60498D01*
Y109539D01*
D02*
G37*
G36*
X69344Y107530D02*
Y104999D01*
X69333Y104810D01*
Y104622D01*
X69322Y104466D01*
Y104411D01*
X69311Y104355D01*
Y104333D01*
X69300Y104278D01*
X69289Y104189D01*
X69267Y104067D01*
X69244Y103933D01*
X69211Y103789D01*
X69111Y103501D01*
X69100Y103478D01*
X69089Y103434D01*
X69056Y103367D01*
X69011Y103267D01*
X68945Y103168D01*
X68878Y103046D01*
X68801Y102935D01*
X68701Y102812D01*
X68689Y102801D01*
X68656Y102757D01*
X68601Y102701D01*
X68523Y102624D01*
X68434Y102546D01*
X68323Y102457D01*
X68201Y102368D01*
X68068Y102280D01*
X68057Y102269D01*
X68001Y102246D01*
X67924Y102202D01*
X67824Y102158D01*
X67702Y102102D01*
X67557Y102036D01*
X67391Y101980D01*
X67213Y101936D01*
X67191Y101924D01*
X67125Y101913D01*
X67025Y101891D01*
X66902Y101869D01*
X66747Y101847D01*
X66558Y101836D01*
X66370Y101813D01*
X66159D01*
X66148D01*
X66103D01*
X66037D01*
X65948Y101825D01*
X65837D01*
X65715Y101836D01*
X65571Y101858D01*
X65415Y101869D01*
X65249Y101902D01*
X65071Y101924D01*
X64705Y102013D01*
X64327Y102135D01*
X64139Y102202D01*
X63950Y102291D01*
X63939D01*
X63906Y102313D01*
X63861Y102335D01*
X63794Y102380D01*
X63706Y102424D01*
X63617Y102479D01*
X63395Y102624D01*
X63151Y102790D01*
X62895Y103001D01*
X62651Y103234D01*
X62418Y103490D01*
Y103501D01*
X62396Y103512D01*
X62374Y103545D01*
X62351Y103589D01*
X62307Y103645D01*
X62274Y103712D01*
X62174Y103878D01*
X62074Y104078D01*
X61963Y104322D01*
X61863Y104600D01*
X61774Y104910D01*
Y104932D01*
X61763Y104966D01*
X61752Y104999D01*
Y105055D01*
X61741Y105121D01*
X61730Y105199D01*
X61719Y105288D01*
X61708Y105388D01*
X61697Y105499D01*
X61686Y105621D01*
Y105765D01*
X61674Y105909D01*
X61663Y106076D01*
Y109139D01*
X69344Y107530D01*
D02*
G37*
G36*
Y99760D02*
Y98306D01*
X64205Y96219D01*
X69344Y95131D01*
Y93677D01*
X61663Y95287D01*
Y96741D01*
X66825Y98828D01*
X61663Y99915D01*
Y101369D01*
X69344Y99760D01*
D02*
G37*
G36*
X88047Y138467D02*
X88158D01*
X88269Y138456D01*
X88402Y138445D01*
X88557Y138422D01*
X88713Y138400D01*
X88879Y138367D01*
X89245Y138289D01*
X89634Y138178D01*
X90022Y138034D01*
X90034Y138023D01*
X90078Y138012D01*
X90145Y137978D01*
X90222Y137934D01*
X90333Y137879D01*
X90444Y137812D01*
X90577Y137734D01*
X90722Y137646D01*
X90877Y137546D01*
X91032Y137435D01*
X91188Y137312D01*
X91354Y137168D01*
X91665Y136868D01*
X91809Y136702D01*
X91943Y136524D01*
X91954Y136513D01*
X91976Y136480D01*
X92009Y136425D01*
X92054Y136347D01*
X92098Y136258D01*
X92165Y136136D01*
X92220Y136014D01*
X92287Y135858D01*
X92353Y135703D01*
X92409Y135525D01*
X92475Y135337D01*
X92520Y135126D01*
X92564Y134915D01*
X92598Y134682D01*
X92620Y134449D01*
X92631Y134205D01*
Y134071D01*
X92620Y133982D01*
X92609Y133871D01*
X92598Y133738D01*
X92575Y133594D01*
X92553Y133439D01*
X92475Y133095D01*
X92364Y132739D01*
X92298Y132562D01*
X92220Y132395D01*
X92120Y132229D01*
X92009Y132073D01*
X91998Y132062D01*
X91976Y132040D01*
X91943Y131996D01*
X91898Y131940D01*
X91832Y131874D01*
X91754Y131807D01*
X91654Y131718D01*
X91554Y131629D01*
X91432Y131541D01*
X91299Y131452D01*
X91155Y131363D01*
X90988Y131274D01*
X90810Y131196D01*
X90622Y131119D01*
X90422Y131052D01*
X90211Y130997D01*
X90045Y132473D01*
X90056D01*
X90078Y132484D01*
X90111Y132495D01*
X90156Y132506D01*
X90267Y132562D01*
X90411Y132628D01*
X90566Y132717D01*
X90733Y132828D01*
X90888Y132950D01*
X91021Y133106D01*
X91032Y133128D01*
X91077Y133183D01*
X91132Y133272D01*
X91188Y133405D01*
X91255Y133561D01*
X91299Y133749D01*
X91343Y133960D01*
X91354Y134193D01*
Y134271D01*
X91343Y134316D01*
Y134393D01*
X91332Y134471D01*
X91299Y134649D01*
X91255Y134871D01*
X91177Y135104D01*
X91077Y135348D01*
X90944Y135592D01*
Y135603D01*
X90921Y135614D01*
X90899Y135647D01*
X90866Y135692D01*
X90777Y135814D01*
X90644Y135958D01*
X90466Y136114D01*
X90255Y136280D01*
X90000Y136447D01*
X89700Y136591D01*
X89689D01*
X89667Y136602D01*
X89623Y136624D01*
X89556Y136646D01*
X89479Y136669D01*
X89390Y136702D01*
X89279Y136735D01*
X89157Y136769D01*
X89035Y136802D01*
X88890Y136835D01*
X88579Y136891D01*
X88246Y136935D01*
X87880Y136946D01*
X87869D01*
X87836D01*
X87791D01*
X87725Y136935D01*
X87636D01*
X87547Y136924D01*
X87336Y136891D01*
X87103Y136835D01*
X86859Y136769D01*
X86637Y136658D01*
X86526Y136591D01*
X86437Y136513D01*
X86415Y136491D01*
X86370Y136436D01*
X86293Y136325D01*
X86215Y136180D01*
X86126Y136003D01*
X86049Y135781D01*
X86004Y135514D01*
X85982Y135215D01*
Y135126D01*
X85993Y135026D01*
X86004Y134893D01*
X86015Y134737D01*
X86049Y134560D01*
X86082Y134371D01*
X86126Y134171D01*
Y134160D01*
X86137Y134149D01*
X86149Y134082D01*
X86182Y133982D01*
X86226Y133860D01*
X86271Y133716D01*
X86337Y133561D01*
X86404Y133405D01*
X86470Y133250D01*
X87625Y133006D01*
Y134970D01*
X88912Y134704D01*
Y131274D01*
X85594Y131962D01*
Y131973D01*
X85571Y131985D01*
X85560Y132029D01*
X85527Y132073D01*
X85494Y132129D01*
X85460Y132207D01*
X85416Y132284D01*
X85360Y132373D01*
X85261Y132595D01*
X85150Y132850D01*
X85039Y133139D01*
X84928Y133461D01*
Y133472D01*
X84916Y133505D01*
X84905Y133550D01*
X84883Y133616D01*
X84861Y133694D01*
X84839Y133783D01*
X84817Y133894D01*
X84794Y134016D01*
X84750Y134282D01*
X84706Y134593D01*
X84672Y134915D01*
X84661Y135259D01*
Y135392D01*
X84672Y135492D01*
X84683Y135614D01*
X84694Y135747D01*
X84717Y135903D01*
X84739Y136069D01*
X84817Y136413D01*
X84872Y136602D01*
X84939Y136780D01*
X85005Y136957D01*
X85094Y137135D01*
X85194Y137290D01*
X85305Y137446D01*
X85316Y137457D01*
X85349Y137490D01*
X85394Y137546D01*
X85471Y137601D01*
X85560Y137690D01*
X85671Y137768D01*
X85805Y137867D01*
X85949Y137956D01*
X86126Y138056D01*
X86315Y138156D01*
X86526Y138234D01*
X86748Y138312D01*
X87003Y138378D01*
X87270Y138434D01*
X87558Y138467D01*
X87858Y138478D01*
X87869D01*
X87913D01*
X87969D01*
X88047Y138467D01*
D02*
G37*
G36*
X92486Y128988D02*
Y127534D01*
X87347Y125447D01*
X92486Y124359D01*
Y122905D01*
X84805Y124514D01*
Y125969D01*
X89967Y128055D01*
X84805Y129143D01*
Y130597D01*
X92486Y128988D01*
D02*
G37*
G36*
Y121262D02*
Y118731D01*
X92475Y118543D01*
Y118354D01*
X92464Y118199D01*
Y118143D01*
X92453Y118088D01*
Y118065D01*
X92442Y118010D01*
X92431Y117921D01*
X92409Y117799D01*
X92387Y117666D01*
X92353Y117521D01*
X92253Y117233D01*
X92242Y117211D01*
X92231Y117166D01*
X92198Y117100D01*
X92154Y117000D01*
X92087Y116900D01*
X92020Y116778D01*
X91943Y116667D01*
X91843Y116545D01*
X91832Y116534D01*
X91798Y116489D01*
X91743Y116434D01*
X91665Y116356D01*
X91576Y116278D01*
X91465Y116190D01*
X91343Y116101D01*
X91210Y116012D01*
X91199Y116001D01*
X91144Y115979D01*
X91066Y115934D01*
X90966Y115890D01*
X90844Y115834D01*
X90700Y115768D01*
X90533Y115712D01*
X90355Y115668D01*
X90333Y115657D01*
X90267Y115646D01*
X90167Y115624D01*
X90045Y115601D01*
X89889Y115579D01*
X89700Y115568D01*
X89512Y115546D01*
X89301D01*
X89290D01*
X89245D01*
X89179D01*
X89090Y115557D01*
X88979D01*
X88857Y115568D01*
X88713Y115590D01*
X88557Y115601D01*
X88391Y115635D01*
X88213Y115657D01*
X87847Y115746D01*
X87469Y115868D01*
X87281Y115934D01*
X87092Y116023D01*
X87081D01*
X87048Y116045D01*
X87003Y116067D01*
X86937Y116112D01*
X86848Y116156D01*
X86759Y116212D01*
X86537Y116356D01*
X86293Y116523D01*
X86038Y116733D01*
X85793Y116966D01*
X85560Y117222D01*
Y117233D01*
X85538Y117244D01*
X85516Y117277D01*
X85494Y117322D01*
X85449Y117377D01*
X85416Y117444D01*
X85316Y117610D01*
X85216Y117810D01*
X85105Y118054D01*
X85005Y118332D01*
X84916Y118643D01*
Y118665D01*
X84905Y118698D01*
X84894Y118731D01*
Y118787D01*
X84883Y118854D01*
X84872Y118931D01*
X84861Y119020D01*
X84850Y119120D01*
X84839Y119231D01*
X84828Y119353D01*
Y119497D01*
X84817Y119642D01*
X84805Y119808D01*
Y122872D01*
X92486Y121262D01*
D02*
G37*
G36*
X76998Y138467D02*
X77109D01*
X77253Y138445D01*
X77397Y138434D01*
X77564Y138411D01*
X77742Y138389D01*
X77941Y138345D01*
X78341Y138256D01*
X78763Y138123D01*
X78963Y138045D01*
X79173Y137956D01*
X79185Y137945D01*
X79218Y137934D01*
X79273Y137901D01*
X79351Y137856D01*
X79440Y137801D01*
X79551Y137734D01*
X79662Y137657D01*
X79795Y137568D01*
X80061Y137357D01*
X80339Y137113D01*
X80605Y136813D01*
X80727Y136646D01*
X80838Y136480D01*
X80850Y136469D01*
X80861Y136436D01*
X80894Y136380D01*
X80927Y136313D01*
X80972Y136225D01*
X81027Y136125D01*
X81083Y136003D01*
X81138Y135870D01*
X81182Y135725D01*
X81238Y135559D01*
X81338Y135215D01*
X81404Y134837D01*
X81416Y134637D01*
X81427Y134427D01*
Y134305D01*
X81416Y134216D01*
X81404Y134116D01*
X81393Y133994D01*
X81371Y133849D01*
X81338Y133705D01*
X81260Y133383D01*
X81205Y133217D01*
X81138Y133050D01*
X81060Y132873D01*
X80972Y132717D01*
X80872Y132551D01*
X80750Y132406D01*
X80738Y132395D01*
X80716Y132373D01*
X80683Y132340D01*
X80627Y132284D01*
X80561Y132229D01*
X80483Y132151D01*
X80383Y132085D01*
X80272Y132007D01*
X80150Y131929D01*
X80017Y131851D01*
X79862Y131774D01*
X79706Y131696D01*
X79529Y131629D01*
X79340Y131574D01*
X79140Y131530D01*
X78929Y131496D01*
X78785Y133006D01*
X78796D01*
X78818Y133017D01*
X78852D01*
X78896Y133028D01*
X79007Y133061D01*
X79151Y133117D01*
X79318Y133183D01*
X79473Y133272D01*
X79629Y133372D01*
X79751Y133494D01*
X79762Y133505D01*
X79795Y133561D01*
X79851Y133638D01*
X79906Y133750D01*
X79962Y133883D01*
X80017Y134049D01*
X80050Y134238D01*
X80061Y134449D01*
Y134515D01*
X80050Y134560D01*
X80039Y134682D01*
X80006Y134848D01*
X79962Y135037D01*
X79884Y135237D01*
X79784Y135459D01*
X79651Y135670D01*
Y135681D01*
X79629Y135692D01*
X79573Y135759D01*
X79484Y135870D01*
X79340Y135992D01*
X79173Y136136D01*
X78952Y136291D01*
X78696Y136447D01*
X78397Y136580D01*
X78385D01*
X78363Y136591D01*
X78319Y136613D01*
X78252Y136635D01*
X78175Y136658D01*
X78086Y136680D01*
X77986Y136713D01*
X77875Y136746D01*
X77620Y136802D01*
X77331Y136857D01*
X77020Y136902D01*
X76709Y136913D01*
X76698D01*
X76665D01*
X76620D01*
X76554Y136902D01*
X76476D01*
X76387Y136891D01*
X76188Y136857D01*
X75954Y136802D01*
X75721Y136735D01*
X75488Y136624D01*
X75277Y136480D01*
X75255Y136458D01*
X75200Y136402D01*
X75122Y136302D01*
X75033Y136180D01*
X74933Y136014D01*
X74856Y135825D01*
X74800Y135614D01*
X74789Y135503D01*
X74778Y135381D01*
Y135326D01*
X74789Y135281D01*
X74800Y135159D01*
X74822Y135015D01*
X74878Y134837D01*
X74944Y134649D01*
X75033Y134460D01*
X75166Y134260D01*
Y134249D01*
X75189Y134238D01*
X75244Y134171D01*
X75333Y134082D01*
X75466Y133972D01*
X75633Y133849D01*
X75832Y133716D01*
X76077Y133605D01*
X76354Y133494D01*
X76110Y131896D01*
X76099D01*
X76054Y131918D01*
X75988Y131940D01*
X75899Y131985D01*
X75788Y132040D01*
X75666Y132096D01*
X75522Y132162D01*
X75377Y132251D01*
X75055Y132451D01*
X74734Y132695D01*
X74412Y132972D01*
X74267Y133139D01*
X74134Y133306D01*
X74123Y133317D01*
X74101Y133350D01*
X74068Y133394D01*
X74034Y133472D01*
X73979Y133561D01*
X73923Y133661D01*
X73857Y133794D01*
X73801Y133927D01*
X73734Y134082D01*
X73668Y134249D01*
X73612Y134427D01*
X73568Y134615D01*
X73524Y134815D01*
X73490Y135026D01*
X73468Y135248D01*
X73457Y135481D01*
Y135548D01*
X73468Y135614D01*
Y135714D01*
X73479Y135836D01*
X73502Y135969D01*
X73524Y136125D01*
X73568Y136280D01*
X73612Y136458D01*
X73668Y136635D01*
X73734Y136824D01*
X73812Y137002D01*
X73912Y137190D01*
X74023Y137368D01*
X74156Y137535D01*
X74301Y137690D01*
X74312Y137701D01*
X74345Y137723D01*
X74389Y137768D01*
X74456Y137812D01*
X74545Y137867D01*
X74656Y137934D01*
X74789Y138012D01*
X74933Y138078D01*
X75100Y138156D01*
X75277Y138234D01*
X75488Y138300D01*
X75710Y138356D01*
X75943Y138400D01*
X76210Y138445D01*
X76476Y138467D01*
X76776Y138478D01*
X76787D01*
X76831D01*
X76909D01*
X76998Y138467D01*
D02*
G37*
G36*
X81282Y127545D02*
Y125758D01*
X73601Y124526D01*
Y126024D01*
X75300Y126279D01*
Y129321D01*
X73601Y130242D01*
Y131862D01*
X81282Y127545D01*
D02*
G37*
G36*
Y121984D02*
Y119730D01*
X75999Y119486D01*
X81282Y117078D01*
Y114802D01*
X73601Y116201D01*
Y117633D01*
X79973Y116301D01*
X73601Y119153D01*
Y120652D01*
X80017Y120940D01*
X73601Y122150D01*
Y123582D01*
X81282Y121984D01*
D02*
G37*
G36*
X72436Y109030D02*
X71481D01*
Y115157D01*
X72436D01*
Y109030D01*
D02*
G37*
G36*
X81282Y107021D02*
Y104490D01*
X81271Y104302D01*
Y104113D01*
X81260Y103958D01*
Y103902D01*
X81249Y103847D01*
Y103824D01*
X81238Y103769D01*
X81227Y103680D01*
X81205Y103558D01*
X81182Y103425D01*
X81149Y103280D01*
X81049Y102992D01*
X81038Y102970D01*
X81027Y102925D01*
X80994Y102859D01*
X80949Y102759D01*
X80883Y102659D01*
X80816Y102537D01*
X80738Y102426D01*
X80639Y102304D01*
X80627Y102293D01*
X80594Y102248D01*
X80539Y102193D01*
X80461Y102115D01*
X80372Y102037D01*
X80261Y101949D01*
X80139Y101860D01*
X80006Y101771D01*
X79995Y101760D01*
X79939Y101738D01*
X79862Y101693D01*
X79762Y101649D01*
X79640Y101593D01*
X79495Y101527D01*
X79329Y101471D01*
X79151Y101427D01*
X79129Y101416D01*
X79062Y101405D01*
X78963Y101383D01*
X78840Y101360D01*
X78685Y101338D01*
X78496Y101327D01*
X78308Y101305D01*
X78097D01*
X78086D01*
X78041D01*
X77975D01*
X77886Y101316D01*
X77775D01*
X77653Y101327D01*
X77509Y101349D01*
X77353Y101360D01*
X77187Y101394D01*
X77009Y101416D01*
X76643Y101505D01*
X76265Y101627D01*
X76077Y101693D01*
X75888Y101782D01*
X75877D01*
X75844Y101804D01*
X75799Y101826D01*
X75732Y101871D01*
X75644Y101915D01*
X75555Y101971D01*
X75333Y102115D01*
X75089Y102282D01*
X74833Y102493D01*
X74589Y102726D01*
X74356Y102981D01*
Y102992D01*
X74334Y103003D01*
X74312Y103036D01*
X74289Y103081D01*
X74245Y103136D01*
X74212Y103203D01*
X74112Y103369D01*
X74012Y103569D01*
X73901Y103813D01*
X73801Y104091D01*
X73712Y104402D01*
Y104424D01*
X73701Y104457D01*
X73690Y104490D01*
Y104546D01*
X73679Y104613D01*
X73668Y104690D01*
X73657Y104779D01*
X73646Y104879D01*
X73635Y104990D01*
X73624Y105112D01*
Y105256D01*
X73612Y105401D01*
X73601Y105567D01*
Y108631D01*
X81282Y107021D01*
D02*
G37*
G36*
Y99296D02*
Y96044D01*
X81271Y95966D01*
Y95888D01*
X81260Y95699D01*
X81238Y95489D01*
X81194Y95278D01*
X81149Y95056D01*
X81083Y94867D01*
Y94856D01*
X81072Y94845D01*
X81049Y94789D01*
X80994Y94700D01*
X80927Y94589D01*
X80838Y94467D01*
X80727Y94334D01*
X80583Y94201D01*
X80428Y94090D01*
X80406Y94079D01*
X80350Y94045D01*
X80250Y94001D01*
X80128Y93946D01*
X79962Y93890D01*
X79784Y93846D01*
X79573Y93812D01*
X79351Y93801D01*
X79340D01*
X79329D01*
X79296D01*
X79251D01*
X79140Y93812D01*
X78985Y93835D01*
X78818Y93857D01*
X78618Y93901D01*
X78419Y93957D01*
X78208Y94034D01*
X78197D01*
X78186Y94045D01*
X78119Y94079D01*
X78019Y94123D01*
X77897Y94190D01*
X77753Y94268D01*
X77608Y94356D01*
X77464Y94467D01*
X77331Y94589D01*
X77320Y94600D01*
X77275Y94645D01*
X77220Y94712D01*
X77153Y94800D01*
X77064Y94900D01*
X76987Y95022D01*
X76909Y95144D01*
X76831Y95289D01*
X76820Y95311D01*
X76809Y95355D01*
X76776Y95444D01*
X76743Y95555D01*
X76698Y95699D01*
X76654Y95877D01*
X76609Y96077D01*
X76576Y96310D01*
Y96332D01*
X76565Y96388D01*
Y96488D01*
X76554Y96554D01*
Y96721D01*
X76543Y96820D01*
Y97054D01*
X76532Y97198D01*
Y98719D01*
X73601Y99340D01*
Y100905D01*
X81282Y99296D01*
D02*
G37*
G36*
X-59499Y144329D02*
X-59388D01*
X-59243Y144307D01*
X-59099Y144296D01*
X-58932Y144274D01*
X-58755Y144251D01*
X-58555Y144207D01*
X-58156Y144118D01*
X-57734Y143985D01*
X-57534Y143907D01*
X-57323Y143819D01*
X-57312Y143807D01*
X-57279Y143796D01*
X-57223Y143763D01*
X-57146Y143719D01*
X-57057Y143663D01*
X-56946Y143597D01*
X-56835Y143519D01*
X-56701Y143430D01*
X-56435Y143219D01*
X-56158Y142975D01*
X-55891Y142675D01*
X-55769Y142509D01*
X-55658Y142342D01*
X-55647Y142331D01*
X-55636Y142298D01*
X-55603Y142242D01*
X-55569Y142176D01*
X-55525Y142087D01*
X-55469Y141987D01*
X-55414Y141865D01*
X-55358Y141732D01*
X-55314Y141587D01*
X-55258Y141421D01*
X-55159Y141077D01*
X-55092Y140700D01*
X-55081Y140500D01*
X-55070Y140289D01*
Y140167D01*
X-55081Y140078D01*
X-55092Y139978D01*
X-55103Y139856D01*
X-55125Y139712D01*
X-55159Y139567D01*
X-55236Y139245D01*
X-55292Y139079D01*
X-55358Y138912D01*
X-55436Y138735D01*
X-55525Y138580D01*
X-55625Y138413D01*
X-55747Y138269D01*
X-55758Y138258D01*
X-55780Y138235D01*
X-55813Y138202D01*
X-55869Y138147D01*
X-55936Y138091D01*
X-56013Y138013D01*
X-56113Y137947D01*
X-56224Y137869D01*
X-56346Y137791D01*
X-56480Y137714D01*
X-56635Y137636D01*
X-56790Y137558D01*
X-56968Y137492D01*
X-57157Y137436D01*
X-57356Y137392D01*
X-57567Y137359D01*
X-57712Y138868D01*
X-57701D01*
X-57678Y138879D01*
X-57645D01*
X-57601Y138890D01*
X-57490Y138924D01*
X-57345Y138979D01*
X-57179Y139046D01*
X-57023Y139134D01*
X-56868Y139234D01*
X-56746Y139356D01*
X-56735Y139368D01*
X-56701Y139423D01*
X-56646Y139501D01*
X-56590Y139612D01*
X-56535Y139745D01*
X-56480Y139911D01*
X-56446Y140100D01*
X-56435Y140311D01*
Y140378D01*
X-56446Y140422D01*
X-56457Y140544D01*
X-56491Y140711D01*
X-56535Y140899D01*
X-56613Y141099D01*
X-56713Y141321D01*
X-56846Y141532D01*
Y141543D01*
X-56868Y141554D01*
X-56923Y141621D01*
X-57012Y141732D01*
X-57157Y141854D01*
X-57323Y141998D01*
X-57545Y142154D01*
X-57800Y142309D01*
X-58100Y142442D01*
X-58111D01*
X-58133Y142453D01*
X-58178Y142476D01*
X-58244Y142498D01*
X-58322Y142520D01*
X-58411Y142542D01*
X-58511Y142575D01*
X-58622Y142609D01*
X-58877Y142664D01*
X-59166Y142720D01*
X-59476Y142764D01*
X-59787Y142775D01*
X-59798D01*
X-59832D01*
X-59876D01*
X-59943Y142764D01*
X-60020D01*
X-60109Y142753D01*
X-60309Y142720D01*
X-60542Y142664D01*
X-60775Y142598D01*
X-61008Y142487D01*
X-61219Y142342D01*
X-61241Y142320D01*
X-61297Y142265D01*
X-61375Y142165D01*
X-61463Y142043D01*
X-61563Y141876D01*
X-61641Y141687D01*
X-61696Y141476D01*
X-61708Y141365D01*
X-61719Y141243D01*
Y141188D01*
X-61708Y141144D01*
X-61696Y141021D01*
X-61674Y140877D01*
X-61619Y140700D01*
X-61552Y140511D01*
X-61463Y140322D01*
X-61330Y140122D01*
Y140111D01*
X-61308Y140100D01*
X-61252Y140034D01*
X-61164Y139945D01*
X-61030Y139834D01*
X-60864Y139712D01*
X-60664Y139578D01*
X-60420Y139467D01*
X-60142Y139356D01*
X-60387Y137758D01*
X-60398D01*
X-60442Y137780D01*
X-60509Y137802D01*
X-60598Y137847D01*
X-60708Y137902D01*
X-60831Y137958D01*
X-60975Y138025D01*
X-61119Y138113D01*
X-61441Y138313D01*
X-61763Y138557D01*
X-62085Y138835D01*
X-62229Y139001D01*
X-62362Y139168D01*
X-62373Y139179D01*
X-62396Y139212D01*
X-62429Y139256D01*
X-62462Y139334D01*
X-62518Y139423D01*
X-62573Y139523D01*
X-62640Y139656D01*
X-62695Y139789D01*
X-62762Y139945D01*
X-62829Y140111D01*
X-62884Y140289D01*
X-62929Y140478D01*
X-62973Y140677D01*
X-63006Y140888D01*
X-63028Y141110D01*
X-63039Y141343D01*
Y141410D01*
X-63028Y141476D01*
Y141576D01*
X-63017Y141699D01*
X-62995Y141832D01*
X-62973Y141987D01*
X-62929Y142142D01*
X-62884Y142320D01*
X-62829Y142498D01*
X-62762Y142686D01*
X-62684Y142864D01*
X-62584Y143053D01*
X-62473Y143230D01*
X-62340Y143397D01*
X-62196Y143552D01*
X-62185Y143563D01*
X-62151Y143586D01*
X-62107Y143630D01*
X-62041Y143674D01*
X-61952Y143730D01*
X-61841Y143796D01*
X-61708Y143874D01*
X-61563Y143941D01*
X-61397Y144018D01*
X-61219Y144096D01*
X-61008Y144163D01*
X-60786Y144218D01*
X-60553Y144263D01*
X-60287Y144307D01*
X-60020Y144329D01*
X-59721Y144340D01*
X-59710D01*
X-59665D01*
X-59587D01*
X-59499Y144329D01*
D02*
G37*
G36*
X-55214Y133407D02*
Y131620D01*
X-62895Y130388D01*
Y131886D01*
X-61197Y132142D01*
Y135183D01*
X-62895Y136104D01*
Y137725D01*
X-55214Y133407D01*
D02*
G37*
G36*
Y127846D02*
Y125593D01*
X-60498Y125349D01*
X-55214Y122940D01*
Y120664D01*
X-62895Y122063D01*
Y123495D01*
X-56524Y122163D01*
X-62895Y125015D01*
Y126514D01*
X-56480Y126803D01*
X-62895Y128012D01*
Y129444D01*
X-55214Y127846D01*
D02*
G37*
G36*
X-64061Y114893D02*
X-65015D01*
Y121020D01*
X-64061D01*
Y114893D01*
D02*
G37*
G36*
X-55214Y112151D02*
X-61019Y111185D01*
X-55214Y107999D01*
Y106434D01*
X-62895Y110675D01*
Y112351D01*
X-55214Y113716D01*
Y112151D01*
D02*
G37*
G36*
Y105746D02*
Y102838D01*
X-55225Y102661D01*
Y102461D01*
X-55236Y102261D01*
X-55247Y102083D01*
X-55258Y101994D01*
X-55270Y101928D01*
Y101906D01*
X-55281Y101828D01*
X-55303Y101728D01*
X-55336Y101595D01*
X-55381Y101451D01*
X-55436Y101284D01*
X-55503Y101129D01*
X-55592Y100973D01*
X-55603Y100951D01*
X-55636Y100907D01*
X-55691Y100840D01*
X-55758Y100751D01*
X-55847Y100651D01*
X-55958Y100552D01*
X-56080Y100452D01*
X-56224Y100374D01*
X-56246Y100363D01*
X-56291Y100341D01*
X-56368Y100307D01*
X-56480Y100263D01*
X-56602Y100230D01*
X-56757Y100196D01*
X-56912Y100174D01*
X-57090Y100163D01*
X-57101D01*
X-57123D01*
X-57157D01*
X-57201D01*
X-57312Y100185D01*
X-57467Y100207D01*
X-57634Y100252D01*
X-57823Y100318D01*
X-58011Y100407D01*
X-58200Y100529D01*
X-58222Y100540D01*
X-58278Y100596D01*
X-58355Y100685D01*
X-58466Y100796D01*
X-58577Y100951D01*
X-58699Y101140D01*
X-58810Y101362D01*
X-58910Y101628D01*
Y101617D01*
X-58921Y101606D01*
X-58932Y101573D01*
X-58944Y101528D01*
X-58977Y101417D01*
X-59043Y101284D01*
X-59121Y101140D01*
X-59221Y100984D01*
X-59343Y100829D01*
X-59488Y100696D01*
X-59510Y100685D01*
X-59554Y100640D01*
X-59643Y100585D01*
X-59754Y100529D01*
X-59898Y100463D01*
X-60054Y100418D01*
X-60231Y100374D01*
X-60420Y100363D01*
X-60431D01*
X-60453D01*
X-60486D01*
X-60542Y100374D01*
X-60598D01*
X-60675Y100385D01*
X-60842Y100407D01*
X-61053Y100463D01*
X-61275Y100529D01*
X-61508Y100629D01*
X-61741Y100762D01*
X-61752D01*
X-61763Y100785D01*
X-61796Y100807D01*
X-61841Y100829D01*
X-61952Y100918D01*
X-62085Y101040D01*
X-62229Y101195D01*
X-62373Y101384D01*
X-62507Y101606D01*
X-62629Y101850D01*
Y101861D01*
X-62640Y101883D01*
X-62651Y101917D01*
X-62673Y101972D01*
X-62695Y102050D01*
X-62718Y102128D01*
X-62740Y102228D01*
X-62762Y102339D01*
X-62784Y102472D01*
X-62806Y102616D01*
X-62829Y102772D01*
X-62851Y102938D01*
X-62873Y103116D01*
X-62884Y103315D01*
X-62895Y103515D01*
Y107356D01*
X-55214Y105746D01*
D02*
G37*
G36*
X-60609Y99053D02*
X-60553D01*
X-60475Y99042D01*
X-60398Y99031D01*
X-60220Y99009D01*
X-60209D01*
X-60187Y98998D01*
X-60120D01*
X-60043Y98975D01*
X-59909Y98953D01*
X-59832Y98942D01*
X-59743Y98920D01*
X-59643Y98898D01*
X-59532Y98876D01*
X-59410Y98853D01*
X-59265Y98820D01*
X-55214Y97910D01*
Y96345D01*
X-59399Y97255D01*
X-60420Y97488D01*
X-60431D01*
X-60442D01*
X-60509Y97499D01*
X-60620Y97510D01*
X-60753Y97532D01*
X-60775D01*
X-60820Y97521D01*
X-60897Y97510D01*
X-60997Y97488D01*
X-61108Y97444D01*
X-61230Y97377D01*
X-61341Y97299D01*
X-61452Y97177D01*
X-61463Y97155D01*
X-61497Y97111D01*
X-61541Y97022D01*
X-61585Y96911D01*
X-61630Y96755D01*
X-61674Y96578D01*
X-61708Y96367D01*
X-61719Y96123D01*
Y96023D01*
X-61708Y95901D01*
X-61696Y95756D01*
X-61663Y95601D01*
X-61630Y95435D01*
X-61574Y95257D01*
X-61508Y95101D01*
X-61497Y95079D01*
X-61463Y95035D01*
X-61419Y94957D01*
X-61352Y94868D01*
X-61263Y94768D01*
X-61153Y94657D01*
X-61019Y94558D01*
X-60875Y94469D01*
X-60853Y94458D01*
X-60786Y94436D01*
X-60742Y94413D01*
X-60686Y94391D01*
X-60609Y94358D01*
X-60531Y94325D01*
X-60431Y94302D01*
X-60331Y94258D01*
X-60209Y94225D01*
X-60076Y94191D01*
X-59932Y94147D01*
X-59776Y94103D01*
X-59610Y94069D01*
X-59421Y94025D01*
X-55214Y93137D01*
Y91561D01*
X-59565Y92482D01*
X-59576D01*
X-59621Y92493D01*
X-59687Y92504D01*
X-59776Y92526D01*
X-59887Y92560D01*
X-60009Y92593D01*
X-60142Y92626D01*
X-60287Y92671D01*
X-60598Y92760D01*
X-60931Y92871D01*
X-61241Y93004D01*
X-61386Y93070D01*
X-61519Y93137D01*
X-61530D01*
X-61552Y93159D01*
X-61585Y93181D01*
X-61630Y93203D01*
X-61752Y93292D01*
X-61907Y93426D01*
X-62085Y93581D01*
X-62263Y93781D01*
X-62451Y94014D01*
X-62618Y94280D01*
Y94291D01*
X-62640Y94313D01*
X-62651Y94358D01*
X-62684Y94413D01*
X-62718Y94491D01*
X-62751Y94580D01*
X-62784Y94680D01*
X-62829Y94802D01*
X-62873Y94935D01*
X-62906Y95079D01*
X-62940Y95235D01*
X-62973Y95401D01*
X-62995Y95579D01*
X-63017Y95779D01*
X-63039Y96189D01*
Y96322D01*
X-63028Y96422D01*
X-63017Y96533D01*
X-63006Y96667D01*
X-62984Y96822D01*
X-62962Y96977D01*
X-62884Y97322D01*
X-62829Y97510D01*
X-62762Y97688D01*
X-62684Y97854D01*
X-62596Y98021D01*
X-62496Y98187D01*
X-62385Y98332D01*
X-62373Y98343D01*
X-62351Y98365D01*
X-62318Y98398D01*
X-62263Y98443D01*
X-62196Y98498D01*
X-62118Y98565D01*
X-62029Y98631D01*
X-61918Y98698D01*
X-61807Y98764D01*
X-61674Y98831D01*
X-61541Y98898D01*
X-61386Y98953D01*
X-61230Y98998D01*
X-61053Y99031D01*
X-60875Y99053D01*
X-60686Y99064D01*
X-60675D01*
X-60653D01*
X-60609Y99053D01*
D02*
G37*
G36*
X-60342Y90107D02*
X-60353D01*
X-60375D01*
X-60409D01*
X-60453Y90096D01*
X-60586Y90084D01*
X-60731Y90062D01*
X-60897Y90040D01*
X-61064Y89996D01*
X-61208Y89940D01*
X-61319Y89862D01*
X-61341Y89840D01*
X-61386Y89796D01*
X-61441Y89707D01*
X-61519Y89574D01*
X-61552Y89496D01*
X-61596Y89396D01*
X-61630Y89296D01*
X-61652Y89174D01*
X-61685Y89052D01*
X-61696Y88908D01*
X-61719Y88752D01*
Y88464D01*
X-61708Y88397D01*
Y88320D01*
X-61685Y88153D01*
X-61652Y87976D01*
X-61596Y87787D01*
X-61530Y87609D01*
X-61441Y87465D01*
X-61430Y87454D01*
X-61397Y87409D01*
X-61330Y87354D01*
X-61252Y87287D01*
X-61153Y87221D01*
X-61041Y87165D01*
X-60919Y87121D01*
X-60775Y87110D01*
X-60764D01*
X-60720D01*
X-60653Y87121D01*
X-60575Y87143D01*
X-60486Y87176D01*
X-60387Y87232D01*
X-60287Y87298D01*
X-60198Y87398D01*
X-60187Y87409D01*
X-60165Y87443D01*
X-60120Y87509D01*
X-60065Y87609D01*
X-60020Y87676D01*
X-59976Y87753D01*
X-59932Y87842D01*
X-59887Y87942D01*
X-59832Y88064D01*
X-59765Y88186D01*
X-59698Y88342D01*
X-59632Y88497D01*
Y88508D01*
X-59610Y88542D01*
X-59598Y88586D01*
X-59565Y88642D01*
X-59532Y88719D01*
X-59499Y88808D01*
X-59410Y88997D01*
X-59299Y89207D01*
X-59199Y89430D01*
X-59088Y89629D01*
X-59032Y89729D01*
X-58988Y89807D01*
X-58977Y89829D01*
X-58944Y89874D01*
X-58877Y89951D01*
X-58799Y90040D01*
X-58711Y90140D01*
X-58589Y90251D01*
X-58455Y90351D01*
X-58311Y90451D01*
X-58289Y90462D01*
X-58233Y90484D01*
X-58144Y90528D01*
X-58033Y90562D01*
X-57889Y90606D01*
X-57723Y90651D01*
X-57534Y90673D01*
X-57334Y90684D01*
X-57323D01*
X-57290D01*
X-57234D01*
X-57168Y90673D01*
X-57090Y90662D01*
X-56990Y90651D01*
X-56879Y90628D01*
X-56768Y90595D01*
X-56513Y90517D01*
X-56380Y90451D01*
X-56235Y90384D01*
X-56102Y90306D01*
X-55969Y90218D01*
X-55836Y90107D01*
X-55714Y89985D01*
X-55703Y89973D01*
X-55680Y89951D01*
X-55658Y89907D01*
X-55614Y89851D01*
X-55569Y89785D01*
X-55514Y89696D01*
X-55447Y89585D01*
X-55392Y89463D01*
X-55336Y89330D01*
X-55270Y89185D01*
X-55214Y89019D01*
X-55170Y88830D01*
X-55125Y88630D01*
X-55092Y88420D01*
X-55081Y88197D01*
X-55070Y87953D01*
Y87820D01*
X-55081Y87731D01*
X-55092Y87620D01*
X-55103Y87487D01*
X-55125Y87343D01*
X-55148Y87187D01*
X-55225Y86843D01*
X-55281Y86666D01*
X-55336Y86499D01*
X-55414Y86322D01*
X-55503Y86155D01*
X-55603Y86000D01*
X-55714Y85855D01*
X-55725Y85844D01*
X-55747Y85822D01*
X-55780Y85789D01*
X-55825Y85733D01*
X-55891Y85678D01*
X-55969Y85611D01*
X-56058Y85545D01*
X-56158Y85478D01*
X-56280Y85400D01*
X-56402Y85323D01*
X-56546Y85256D01*
X-56690Y85189D01*
X-56857Y85134D01*
X-57023Y85090D01*
X-57212Y85056D01*
X-57401Y85034D01*
X-57467Y86544D01*
X-57456D01*
X-57445D01*
X-57379Y86555D01*
X-57279Y86588D01*
X-57157Y86621D01*
X-57023Y86677D01*
X-56879Y86743D01*
X-56746Y86832D01*
X-56624Y86954D01*
X-56613Y86965D01*
X-56579Y87021D01*
X-56524Y87099D01*
X-56468Y87210D01*
X-56424Y87343D01*
X-56368Y87520D01*
X-56335Y87731D01*
X-56324Y87964D01*
Y88075D01*
X-56335Y88186D01*
X-56357Y88331D01*
X-56380Y88475D01*
X-56424Y88630D01*
X-56480Y88775D01*
X-56557Y88897D01*
X-56568Y88908D01*
X-56602Y88941D01*
X-56646Y88986D01*
X-56713Y89030D01*
X-56801Y89085D01*
X-56901Y89130D01*
X-57023Y89163D01*
X-57146Y89174D01*
X-57157D01*
X-57201D01*
X-57256Y89163D01*
X-57334Y89141D01*
X-57423Y89108D01*
X-57512Y89063D01*
X-57601Y89008D01*
X-57689Y88919D01*
X-57701Y88908D01*
X-57734Y88863D01*
X-57778Y88797D01*
X-57845Y88686D01*
X-57889Y88608D01*
X-57934Y88531D01*
X-57989Y88442D01*
X-58045Y88331D01*
X-58100Y88220D01*
X-58167Y88087D01*
X-58233Y87942D01*
X-58300Y87787D01*
X-58311Y87776D01*
X-58322Y87731D01*
X-58355Y87665D01*
X-58389Y87576D01*
X-58444Y87465D01*
X-58500Y87343D01*
X-58633Y87076D01*
X-58777Y86788D01*
X-58932Y86510D01*
X-59010Y86377D01*
X-59088Y86266D01*
X-59166Y86166D01*
X-59232Y86088D01*
X-59243Y86077D01*
X-59254Y86066D01*
X-59288Y86033D01*
X-59321Y86000D01*
X-59443Y85911D01*
X-59598Y85811D01*
X-59787Y85711D01*
X-60020Y85633D01*
X-60287Y85567D01*
X-60420Y85556D01*
X-60575Y85545D01*
X-60586D01*
X-60620D01*
X-60675D01*
X-60742Y85556D01*
X-60831Y85567D01*
X-60942Y85589D01*
X-61053Y85611D01*
X-61175Y85645D01*
X-61308Y85689D01*
X-61452Y85744D01*
X-61596Y85811D01*
X-61741Y85889D01*
X-61885Y85977D01*
X-62041Y86088D01*
X-62174Y86211D01*
X-62318Y86355D01*
X-62329Y86366D01*
X-62351Y86388D01*
X-62385Y86444D01*
X-62429Y86499D01*
X-62484Y86588D01*
X-62551Y86688D01*
X-62607Y86799D01*
X-62673Y86943D01*
X-62751Y87087D01*
X-62806Y87254D01*
X-62873Y87443D01*
X-62929Y87642D01*
X-62973Y87853D01*
X-63006Y88087D01*
X-63028Y88331D01*
X-63039Y88597D01*
Y88764D01*
X-63028Y88852D01*
X-63017Y88952D01*
Y89063D01*
X-62995Y89185D01*
X-62962Y89452D01*
X-62906Y89740D01*
X-62829Y90040D01*
X-62718Y90317D01*
Y90329D01*
X-62706Y90351D01*
X-62684Y90384D01*
X-62651Y90440D01*
X-62584Y90562D01*
X-62473Y90717D01*
X-62351Y90884D01*
X-62185Y91050D01*
X-62007Y91206D01*
X-61796Y91339D01*
X-61785D01*
X-61774Y91350D01*
X-61741Y91361D01*
X-61685Y91383D01*
X-61630Y91405D01*
X-61563Y91427D01*
X-61397Y91483D01*
X-61197Y91538D01*
X-60964Y91583D01*
X-60708Y91605D01*
X-60431Y91616D01*
X-60342Y90107D01*
D02*
G37*
G36*
X-70652Y144860D02*
X-70541D01*
X-70397Y144838D01*
X-70252Y144826D01*
X-70086Y144804D01*
X-69908Y144782D01*
X-69709Y144738D01*
X-69309Y144649D01*
X-68887Y144516D01*
X-68687Y144438D01*
X-68477Y144349D01*
X-68465Y144338D01*
X-68432Y144327D01*
X-68377Y144294D01*
X-68299Y144249D01*
X-68210Y144194D01*
X-68099Y144127D01*
X-67988Y144049D01*
X-67855Y143961D01*
X-67589Y143750D01*
X-67311Y143506D01*
X-67045Y143206D01*
X-66923Y143039D01*
X-66812Y142873D01*
X-66800Y142862D01*
X-66789Y142829D01*
X-66756Y142773D01*
X-66723Y142706D01*
X-66678Y142618D01*
X-66623Y142518D01*
X-66567Y142396D01*
X-66512Y142262D01*
X-66467Y142118D01*
X-66412Y141952D01*
X-66312Y141608D01*
X-66245Y141230D01*
X-66234Y141030D01*
X-66223Y140819D01*
Y140697D01*
X-66234Y140609D01*
X-66245Y140509D01*
X-66257Y140386D01*
X-66279Y140242D01*
X-66312Y140098D01*
X-66390Y139776D01*
X-66445Y139609D01*
X-66512Y139443D01*
X-66590Y139265D01*
X-66678Y139110D01*
X-66778Y138944D01*
X-66900Y138799D01*
X-66912Y138788D01*
X-66934Y138766D01*
X-66967Y138733D01*
X-67023Y138677D01*
X-67089Y138622D01*
X-67167Y138544D01*
X-67267Y138477D01*
X-67378Y138400D01*
X-67500Y138322D01*
X-67633Y138244D01*
X-67788Y138167D01*
X-67944Y138089D01*
X-68121Y138022D01*
X-68310Y137967D01*
X-68510Y137922D01*
X-68721Y137889D01*
X-68865Y139399D01*
X-68854D01*
X-68832Y139410D01*
X-68798D01*
X-68754Y139421D01*
X-68643Y139454D01*
X-68499Y139510D01*
X-68332Y139576D01*
X-68177Y139665D01*
X-68021Y139765D01*
X-67899Y139887D01*
X-67888Y139898D01*
X-67855Y139954D01*
X-67800Y140031D01*
X-67744Y140142D01*
X-67688Y140275D01*
X-67633Y140442D01*
X-67600Y140631D01*
X-67589Y140842D01*
Y140908D01*
X-67600Y140953D01*
X-67611Y141075D01*
X-67644Y141241D01*
X-67688Y141430D01*
X-67766Y141630D01*
X-67866Y141852D01*
X-67999Y142063D01*
Y142074D01*
X-68021Y142085D01*
X-68077Y142151D01*
X-68166Y142262D01*
X-68310Y142385D01*
X-68477Y142529D01*
X-68699Y142684D01*
X-68954Y142840D01*
X-69254Y142973D01*
X-69265D01*
X-69287Y142984D01*
X-69331Y143006D01*
X-69398Y143028D01*
X-69475Y143050D01*
X-69564Y143073D01*
X-69664Y143106D01*
X-69775Y143139D01*
X-70030Y143195D01*
X-70319Y143250D01*
X-70630Y143295D01*
X-70941Y143306D01*
X-70952D01*
X-70985D01*
X-71030D01*
X-71096Y143295D01*
X-71174D01*
X-71263Y143284D01*
X-71462Y143250D01*
X-71695Y143195D01*
X-71929Y143128D01*
X-72162Y143017D01*
X-72373Y142873D01*
X-72395Y142851D01*
X-72450Y142795D01*
X-72528Y142695D01*
X-72617Y142573D01*
X-72717Y142407D01*
X-72794Y142218D01*
X-72850Y142007D01*
X-72861Y141896D01*
X-72872Y141774D01*
Y141719D01*
X-72861Y141674D01*
X-72850Y141552D01*
X-72828Y141408D01*
X-72772Y141230D01*
X-72706Y141041D01*
X-72617Y140853D01*
X-72484Y140653D01*
Y140642D01*
X-72461Y140631D01*
X-72406Y140564D01*
X-72317Y140475D01*
X-72184Y140364D01*
X-72017Y140242D01*
X-71818Y140109D01*
X-71573Y139998D01*
X-71296Y139887D01*
X-71540Y138289D01*
X-71551D01*
X-71596Y138311D01*
X-71662Y138333D01*
X-71751Y138377D01*
X-71862Y138433D01*
X-71984Y138488D01*
X-72128Y138555D01*
X-72273Y138644D01*
X-72595Y138844D01*
X-72916Y139088D01*
X-73238Y139365D01*
X-73383Y139532D01*
X-73516Y139698D01*
X-73527Y139709D01*
X-73549Y139743D01*
X-73583Y139787D01*
X-73616Y139865D01*
X-73671Y139954D01*
X-73727Y140054D01*
X-73793Y140187D01*
X-73849Y140320D01*
X-73915Y140475D01*
X-73982Y140642D01*
X-74037Y140819D01*
X-74082Y141008D01*
X-74126Y141208D01*
X-74160Y141419D01*
X-74182Y141641D01*
X-74193Y141874D01*
Y141940D01*
X-74182Y142007D01*
Y142107D01*
X-74171Y142229D01*
X-74149Y142362D01*
X-74126Y142518D01*
X-74082Y142673D01*
X-74037Y142851D01*
X-73982Y143028D01*
X-73915Y143217D01*
X-73838Y143395D01*
X-73738Y143583D01*
X-73627Y143761D01*
X-73494Y143927D01*
X-73349Y144083D01*
X-73338Y144094D01*
X-73305Y144116D01*
X-73261Y144160D01*
X-73194Y144205D01*
X-73105Y144260D01*
X-72994Y144327D01*
X-72861Y144405D01*
X-72717Y144471D01*
X-72550Y144549D01*
X-72373Y144627D01*
X-72162Y144693D01*
X-71940Y144749D01*
X-71707Y144793D01*
X-71440Y144838D01*
X-71174Y144860D01*
X-70874Y144871D01*
X-70863D01*
X-70819D01*
X-70741D01*
X-70652Y144860D01*
D02*
G37*
G36*
X-66368Y133938D02*
Y132150D01*
X-74049Y130918D01*
Y132417D01*
X-72350Y132672D01*
Y135714D01*
X-74049Y136635D01*
Y138255D01*
X-66368Y133938D01*
D02*
G37*
G36*
Y128310D02*
Y126856D01*
X-71507Y124769D01*
X-66368Y123681D01*
Y122227D01*
X-74049Y123837D01*
Y125291D01*
X-68887Y127378D01*
X-74049Y128465D01*
Y129919D01*
X-66368Y128310D01*
D02*
G37*
G36*
X-75214Y116622D02*
X-76169D01*
Y122749D01*
X-75214D01*
Y116622D01*
D02*
G37*
G36*
X-66368Y114613D02*
Y113037D01*
X-69331Y113658D01*
Y110672D01*
X-66368Y110051D01*
Y108475D01*
X-74049Y110095D01*
Y111660D01*
X-70619Y110950D01*
Y113936D01*
X-74049Y114657D01*
Y116222D01*
X-66368Y114613D01*
D02*
G37*
G36*
X-83098Y144352D02*
X-82987D01*
X-82843Y144330D01*
X-82698Y144318D01*
X-82532Y144296D01*
X-82354Y144274D01*
X-82155Y144230D01*
X-81755Y144141D01*
X-81333Y144008D01*
X-81133Y143930D01*
X-80922Y143841D01*
X-80911Y143830D01*
X-80878Y143819D01*
X-80823Y143786D01*
X-80745Y143741D01*
X-80656Y143686D01*
X-80545Y143619D01*
X-80434Y143541D01*
X-80301Y143453D01*
X-80035Y143242D01*
X-79757Y142998D01*
X-79491Y142698D01*
X-79369Y142531D01*
X-79258Y142365D01*
X-79247Y142354D01*
X-79235Y142320D01*
X-79202Y142265D01*
X-79169Y142198D01*
X-79124Y142110D01*
X-79069Y142010D01*
X-79013Y141888D01*
X-78958Y141754D01*
X-78913Y141610D01*
X-78858Y141444D01*
X-78758Y141100D01*
X-78692Y140722D01*
X-78680Y140522D01*
X-78669Y140311D01*
Y140189D01*
X-78680Y140100D01*
X-78692Y140001D01*
X-78703Y139879D01*
X-78725Y139734D01*
X-78758Y139590D01*
X-78836Y139268D01*
X-78891Y139101D01*
X-78958Y138935D01*
X-79036Y138757D01*
X-79124Y138602D01*
X-79224Y138435D01*
X-79346Y138291D01*
X-79358Y138280D01*
X-79380Y138258D01*
X-79413Y138225D01*
X-79468Y138169D01*
X-79535Y138114D01*
X-79613Y138036D01*
X-79713Y137969D01*
X-79824Y137892D01*
X-79946Y137814D01*
X-80079Y137736D01*
X-80234Y137659D01*
X-80390Y137581D01*
X-80567Y137514D01*
X-80756Y137459D01*
X-80956Y137414D01*
X-81167Y137381D01*
X-81311Y138891D01*
X-81300D01*
X-81278Y138902D01*
X-81244D01*
X-81200Y138913D01*
X-81089Y138946D01*
X-80945Y139002D01*
X-80778Y139068D01*
X-80623Y139157D01*
X-80468Y139257D01*
X-80345Y139379D01*
X-80334Y139390D01*
X-80301Y139446D01*
X-80246Y139523D01*
X-80190Y139634D01*
X-80134Y139768D01*
X-80079Y139934D01*
X-80046Y140123D01*
X-80035Y140334D01*
Y140400D01*
X-80046Y140445D01*
X-80057Y140567D01*
X-80090Y140733D01*
X-80134Y140922D01*
X-80212Y141122D01*
X-80312Y141344D01*
X-80445Y141555D01*
Y141566D01*
X-80468Y141577D01*
X-80523Y141643D01*
X-80612Y141754D01*
X-80756Y141876D01*
X-80922Y142021D01*
X-81145Y142176D01*
X-81400Y142332D01*
X-81699Y142465D01*
X-81711D01*
X-81733Y142476D01*
X-81777Y142498D01*
X-81844Y142520D01*
X-81922Y142542D01*
X-82010Y142565D01*
X-82110Y142598D01*
X-82221Y142631D01*
X-82477Y142687D01*
X-82765Y142742D01*
X-83076Y142787D01*
X-83387Y142798D01*
X-83398D01*
X-83431D01*
X-83476D01*
X-83542Y142787D01*
X-83620D01*
X-83709Y142776D01*
X-83908Y142742D01*
X-84142Y142687D01*
X-84375Y142620D01*
X-84608Y142509D01*
X-84819Y142365D01*
X-84841Y142343D01*
X-84896Y142287D01*
X-84974Y142187D01*
X-85063Y142065D01*
X-85163Y141899D01*
X-85240Y141710D01*
X-85296Y141499D01*
X-85307Y141388D01*
X-85318Y141266D01*
Y141210D01*
X-85307Y141166D01*
X-85296Y141044D01*
X-85274Y140900D01*
X-85218Y140722D01*
X-85152Y140533D01*
X-85063Y140345D01*
X-84930Y140145D01*
Y140134D01*
X-84907Y140123D01*
X-84852Y140056D01*
X-84763Y139967D01*
X-84630Y139856D01*
X-84463Y139734D01*
X-84264Y139601D01*
X-84019Y139490D01*
X-83742Y139379D01*
X-83986Y137781D01*
X-83997D01*
X-84042Y137803D01*
X-84108Y137825D01*
X-84197Y137869D01*
X-84308Y137925D01*
X-84430Y137980D01*
X-84574Y138047D01*
X-84719Y138136D01*
X-85041Y138336D01*
X-85363Y138580D01*
X-85684Y138857D01*
X-85829Y139024D01*
X-85962Y139190D01*
X-85973Y139201D01*
X-85995Y139235D01*
X-86028Y139279D01*
X-86062Y139357D01*
X-86117Y139446D01*
X-86173Y139545D01*
X-86239Y139679D01*
X-86295Y139812D01*
X-86361Y139967D01*
X-86428Y140134D01*
X-86483Y140311D01*
X-86528Y140500D01*
X-86572Y140700D01*
X-86606Y140911D01*
X-86628Y141133D01*
X-86639Y141366D01*
Y141433D01*
X-86628Y141499D01*
Y141599D01*
X-86617Y141721D01*
X-86594Y141854D01*
X-86572Y142010D01*
X-86528Y142165D01*
X-86483Y142343D01*
X-86428Y142520D01*
X-86361Y142709D01*
X-86284Y142887D01*
X-86184Y143075D01*
X-86073Y143253D01*
X-85940Y143419D01*
X-85795Y143575D01*
X-85784Y143586D01*
X-85751Y143608D01*
X-85707Y143652D01*
X-85640Y143697D01*
X-85551Y143752D01*
X-85440Y143819D01*
X-85307Y143897D01*
X-85163Y143963D01*
X-84996Y144041D01*
X-84819Y144119D01*
X-84608Y144185D01*
X-84386Y144241D01*
X-84153Y144285D01*
X-83886Y144330D01*
X-83620Y144352D01*
X-83320Y144363D01*
X-83309D01*
X-83265D01*
X-83187D01*
X-83098Y144352D01*
D02*
G37*
G36*
X-78814Y133429D02*
Y131643D01*
X-86495Y130410D01*
Y131909D01*
X-84796Y132164D01*
Y135205D01*
X-86495Y136127D01*
Y137747D01*
X-78814Y133429D01*
D02*
G37*
G36*
Y127802D02*
Y126348D01*
X-83953Y124261D01*
X-78814Y123173D01*
Y121719D01*
X-86495Y123329D01*
Y124783D01*
X-81333Y126869D01*
X-86495Y127957D01*
Y129411D01*
X-78814Y127802D01*
D02*
G37*
G36*
X-87660Y116114D02*
X-88615D01*
Y122241D01*
X-87660D01*
Y116114D01*
D02*
G37*
G36*
X-78814Y114083D02*
Y112506D01*
X-85207Y113849D01*
Y109920D01*
X-86495Y110187D01*
Y115692D01*
X-78814Y114083D01*
D02*
G37*
%LPC*%
G36*
X155176Y-18801D02*
Y-20555D01*
X155187Y-20644D01*
Y-20844D01*
X155209Y-21066D01*
X155231Y-21277D01*
X155253Y-21465D01*
X155275Y-21543D01*
X155298Y-21610D01*
X155309Y-21621D01*
X155320Y-21665D01*
X155353Y-21721D01*
X155398Y-21798D01*
X155453Y-21887D01*
X155520Y-21976D01*
X155597Y-22065D01*
X155697Y-22143D01*
X155708Y-22154D01*
X155753Y-22176D01*
X155808Y-22209D01*
X155886Y-22242D01*
X155975Y-22276D01*
X156075Y-22309D01*
X156186Y-22331D01*
X156297Y-22342D01*
X156319D01*
X156363D01*
X156430Y-22331D01*
X156519Y-22309D01*
X156618Y-22276D01*
X156729Y-22220D01*
X156829Y-22154D01*
X156929Y-22054D01*
X156940Y-22043D01*
X156974Y-21998D01*
X157007Y-21932D01*
X157063Y-21832D01*
X157107Y-21699D01*
X157140Y-21532D01*
X157174Y-21343D01*
X157185Y-21110D01*
Y-19223D01*
X155176Y-18801D01*
D02*
G37*
G36*
X158517Y-19501D02*
Y-20910D01*
X158528Y-20988D01*
Y-21166D01*
X158539Y-21354D01*
X158561Y-21543D01*
X158594Y-21721D01*
X158628Y-21876D01*
X158639Y-21887D01*
X158650Y-21932D01*
X158672Y-21998D01*
X158716Y-22076D01*
X158772Y-22165D01*
X158838Y-22253D01*
X158916Y-22331D01*
X159005Y-22409D01*
X159016Y-22420D01*
X159049Y-22442D01*
X159105Y-22464D01*
X159171Y-22509D01*
X159260Y-22542D01*
X159360Y-22564D01*
X159460Y-22587D01*
X159571Y-22598D01*
X159582D01*
X159615D01*
X159671Y-22587D01*
X159738Y-22575D01*
X159815Y-22553D01*
X159893Y-22520D01*
X159971Y-22476D01*
X160048Y-22420D01*
X160059Y-22409D01*
X160082Y-22387D01*
X160115Y-22353D01*
X160148Y-22298D01*
X160193Y-22231D01*
X160237Y-22154D01*
X160270Y-22054D01*
X160304Y-21943D01*
Y-21932D01*
X160315Y-21909D01*
Y-21854D01*
X160326Y-21776D01*
Y-21665D01*
X160337Y-21521D01*
Y-19878D01*
X158517Y-19501D01*
D02*
G37*
G36*
X156263Y-40157D02*
X156252D01*
X156241D01*
X156208D01*
X156163D01*
X156052Y-40180D01*
X155919Y-40202D01*
X155764Y-40235D01*
X155608Y-40291D01*
X155453Y-40368D01*
X155309Y-40479D01*
X155298Y-40490D01*
X155253Y-40535D01*
X155198Y-40613D01*
X155142Y-40701D01*
X155076Y-40823D01*
X155020Y-40957D01*
X154976Y-41112D01*
X154965Y-41290D01*
Y-41345D01*
X154976Y-41390D01*
X154998Y-41512D01*
X155031Y-41656D01*
X155098Y-41822D01*
X155187Y-41989D01*
X155320Y-42167D01*
X155398Y-42255D01*
X155486Y-42333D01*
X155497Y-42344D01*
X155520Y-42355D01*
X155564Y-42389D01*
X155619Y-42422D01*
X155697Y-42477D01*
X155786Y-42522D01*
X155886Y-42577D01*
X155997Y-42633D01*
X156130Y-42688D01*
X156263Y-42744D01*
X156419Y-42799D01*
X156574Y-42844D01*
X156929Y-42910D01*
X157118Y-42921D01*
X157318Y-42932D01*
X157329D01*
X157340D01*
X157407D01*
X157507Y-42921D01*
X157629Y-42888D01*
X157762Y-42855D01*
X157906Y-42799D01*
X158039Y-42722D01*
X158173Y-42611D01*
X158184Y-42599D01*
X158228Y-42555D01*
X158284Y-42488D01*
X158339Y-42400D01*
X158406Y-42277D01*
X158450Y-42144D01*
X158494Y-41989D01*
X158505Y-41811D01*
Y-41734D01*
X158494Y-41634D01*
X158472Y-41523D01*
X158428Y-41390D01*
X158372Y-41245D01*
X158295Y-41090D01*
X158195Y-40946D01*
X158184Y-40935D01*
X158139Y-40879D01*
X158073Y-40812D01*
X157973Y-40735D01*
X157851Y-40635D01*
X157695Y-40535D01*
X157518Y-40446D01*
X157318Y-40357D01*
X157307D01*
X157296Y-40346D01*
X157262Y-40335D01*
X157218Y-40324D01*
X157107Y-40291D01*
X156974Y-40257D01*
X156807Y-40224D01*
X156630Y-40191D01*
X156441Y-40169D01*
X156263Y-40157D01*
D02*
G37*
G36*
X155176Y56891D02*
Y55137D01*
X155187Y55048D01*
Y54848D01*
X155209Y54626D01*
X155231Y54415D01*
X155253Y54227D01*
X155275Y54149D01*
X155298Y54082D01*
X155309Y54071D01*
X155320Y54027D01*
X155353Y53971D01*
X155398Y53894D01*
X155453Y53805D01*
X155520Y53716D01*
X155597Y53627D01*
X155697Y53549D01*
X155708Y53538D01*
X155753Y53516D01*
X155808Y53483D01*
X155886Y53450D01*
X155975Y53416D01*
X156075Y53383D01*
X156186Y53361D01*
X156297Y53350D01*
X156319D01*
X156363D01*
X156430Y53361D01*
X156519Y53383D01*
X156618Y53416D01*
X156729Y53472D01*
X156829Y53538D01*
X156929Y53638D01*
X156940Y53649D01*
X156974Y53694D01*
X157007Y53760D01*
X157063Y53860D01*
X157107Y53994D01*
X157140Y54160D01*
X157174Y54349D01*
X157185Y54582D01*
Y56469D01*
X155176Y56891D01*
D02*
G37*
G36*
X158517Y56191D02*
Y54782D01*
X158528Y54704D01*
Y54526D01*
X158539Y54338D01*
X158561Y54149D01*
X158594Y53971D01*
X158628Y53816D01*
X158639Y53805D01*
X158650Y53760D01*
X158672Y53694D01*
X158716Y53616D01*
X158772Y53527D01*
X158838Y53439D01*
X158916Y53361D01*
X159005Y53283D01*
X159016Y53272D01*
X159049Y53250D01*
X159105Y53228D01*
X159171Y53183D01*
X159260Y53150D01*
X159360Y53128D01*
X159460Y53106D01*
X159571Y53094D01*
X159582D01*
X159615D01*
X159671Y53106D01*
X159738Y53117D01*
X159815Y53139D01*
X159893Y53172D01*
X159971Y53217D01*
X160048Y53272D01*
X160059Y53283D01*
X160082Y53305D01*
X160115Y53339D01*
X160148Y53394D01*
X160193Y53461D01*
X160237Y53538D01*
X160270Y53638D01*
X160304Y53749D01*
Y53760D01*
X160315Y53783D01*
Y53838D01*
X160326Y53916D01*
Y54027D01*
X160337Y54171D01*
Y55814D01*
X158517Y56191D01*
D02*
G37*
G36*
X156263Y35535D02*
X156252D01*
X156241D01*
X156208D01*
X156163D01*
X156052Y35512D01*
X155919Y35490D01*
X155764Y35457D01*
X155608Y35401D01*
X155453Y35324D01*
X155309Y35213D01*
X155298Y35201D01*
X155253Y35157D01*
X155198Y35079D01*
X155142Y34991D01*
X155076Y34869D01*
X155020Y34735D01*
X154976Y34580D01*
X154965Y34402D01*
Y34347D01*
X154976Y34302D01*
X154998Y34180D01*
X155031Y34036D01*
X155098Y33870D01*
X155187Y33703D01*
X155320Y33526D01*
X155398Y33437D01*
X155486Y33359D01*
X155497Y33348D01*
X155520Y33337D01*
X155564Y33303D01*
X155619Y33270D01*
X155697Y33215D01*
X155786Y33170D01*
X155886Y33115D01*
X155997Y33059D01*
X156130Y33004D01*
X156263Y32948D01*
X156419Y32893D01*
X156574Y32848D01*
X156929Y32782D01*
X157118Y32771D01*
X157318Y32760D01*
X157329D01*
X157340D01*
X157407D01*
X157507Y32771D01*
X157629Y32804D01*
X157762Y32837D01*
X157906Y32893D01*
X158039Y32970D01*
X158173Y33082D01*
X158184Y33093D01*
X158228Y33137D01*
X158284Y33204D01*
X158339Y33292D01*
X158406Y33414D01*
X158450Y33548D01*
X158494Y33703D01*
X158505Y33881D01*
Y33958D01*
X158494Y34058D01*
X158472Y34169D01*
X158428Y34302D01*
X158372Y34447D01*
X158295Y34602D01*
X158195Y34746D01*
X158184Y34757D01*
X158139Y34813D01*
X158073Y34880D01*
X157973Y34957D01*
X157851Y35057D01*
X157695Y35157D01*
X157518Y35246D01*
X157318Y35335D01*
X157307D01*
X157296Y35346D01*
X157262Y35357D01*
X157218Y35368D01*
X157107Y35401D01*
X156974Y35435D01*
X156807Y35468D01*
X156630Y35501D01*
X156441Y35523D01*
X156263Y35535D01*
D02*
G37*
G36*
X-129026Y-8118D02*
X-130192D01*
X-131280Y-13301D01*
X-130269D01*
X-130181Y-13290D01*
X-129992D01*
X-129781Y-13279D01*
X-129581Y-13257D01*
X-129382Y-13235D01*
X-129293Y-13224D01*
X-129215Y-13202D01*
X-129193Y-13190D01*
X-129148Y-13179D01*
X-129071Y-13146D01*
X-128971Y-13113D01*
X-128860Y-13057D01*
X-128738Y-12991D01*
X-128616Y-12902D01*
X-128493Y-12802D01*
X-128482D01*
X-128471Y-12780D01*
X-128416Y-12724D01*
X-128327Y-12624D01*
X-128216Y-12502D01*
X-128083Y-12336D01*
X-127950Y-12136D01*
X-127816Y-11914D01*
X-127694Y-11670D01*
Y-11659D01*
X-127683Y-11636D01*
X-127661Y-11592D01*
X-127639Y-11548D01*
X-127617Y-11470D01*
X-127594Y-11392D01*
X-127561Y-11303D01*
X-127528Y-11192D01*
X-127506Y-11081D01*
X-127472Y-10948D01*
X-127417Y-10660D01*
X-127384Y-10338D01*
X-127373Y-9994D01*
Y-9983D01*
Y-9960D01*
Y-9916D01*
Y-9861D01*
X-127384Y-9794D01*
Y-9716D01*
X-127406Y-9528D01*
X-127439Y-9328D01*
X-127484Y-9128D01*
X-127550Y-8928D01*
X-127639Y-8762D01*
X-127650Y-8739D01*
X-127683Y-8695D01*
X-127739Y-8628D01*
X-127816Y-8540D01*
X-127916Y-8451D01*
X-128027Y-8362D01*
X-128161Y-8284D01*
X-128305Y-8218D01*
X-128316D01*
X-128360Y-8207D01*
X-128427Y-8184D01*
X-128527Y-8162D01*
X-128660Y-8151D01*
X-128827Y-8129D01*
X-129026Y-8118D01*
D02*
G37*
G36*
X-143102Y13461D02*
X-145078D01*
X-145511Y11396D01*
X-144357D01*
X-144246Y11407D01*
X-143979Y11418D01*
X-143702Y11429D01*
X-143424Y11463D01*
X-143302Y11474D01*
X-143180Y11496D01*
X-143080Y11518D01*
X-142991Y11540D01*
X-142969Y11551D01*
X-142925Y11574D01*
X-142847Y11607D01*
X-142747Y11662D01*
X-142647Y11729D01*
X-142536Y11807D01*
X-142436Y11907D01*
X-142336Y12018D01*
X-142325Y12029D01*
X-142303Y12073D01*
X-142259Y12140D01*
X-142214Y12228D01*
X-142170Y12328D01*
X-142126Y12439D01*
X-142103Y12573D01*
X-142092Y12706D01*
Y12728D01*
Y12772D01*
X-142114Y12850D01*
X-142137Y12939D01*
X-142181Y13039D01*
X-142236Y13139D01*
X-142325Y13239D01*
X-142436Y13327D01*
X-142447Y13339D01*
X-142481Y13350D01*
X-142536Y13372D01*
X-142625Y13394D01*
X-142747Y13416D01*
X-142914Y13438D01*
X-143102Y13461D01*
D02*
G37*
G36*
X-127423Y-72101D02*
X-128588D01*
X-129676Y-77284D01*
X-128666D01*
X-128577Y-77273D01*
X-128389D01*
X-128178Y-77262D01*
X-127978Y-77240D01*
X-127778Y-77218D01*
X-127689Y-77207D01*
X-127612Y-77185D01*
X-127590Y-77174D01*
X-127545Y-77162D01*
X-127467Y-77129D01*
X-127367Y-77096D01*
X-127256Y-77040D01*
X-127134Y-76974D01*
X-127012Y-76885D01*
X-126890Y-76785D01*
X-126879D01*
X-126868Y-76763D01*
X-126812Y-76707D01*
X-126724Y-76607D01*
X-126613Y-76485D01*
X-126480Y-76319D01*
X-126346Y-76119D01*
X-126213Y-75897D01*
X-126091Y-75653D01*
Y-75642D01*
X-126080Y-75620D01*
X-126058Y-75575D01*
X-126035Y-75531D01*
X-126013Y-75453D01*
X-125991Y-75375D01*
X-125958Y-75286D01*
X-125925Y-75175D01*
X-125902Y-75065D01*
X-125869Y-74931D01*
X-125814Y-74643D01*
X-125780Y-74321D01*
X-125769Y-73977D01*
Y-73966D01*
Y-73943D01*
Y-73899D01*
Y-73843D01*
X-125780Y-73777D01*
Y-73699D01*
X-125802Y-73510D01*
X-125836Y-73311D01*
X-125880Y-73111D01*
X-125947Y-72911D01*
X-126035Y-72745D01*
X-126047Y-72722D01*
X-126080Y-72678D01*
X-126135Y-72611D01*
X-126213Y-72523D01*
X-126313Y-72434D01*
X-126424Y-72345D01*
X-126557Y-72267D01*
X-126701Y-72201D01*
X-126713D01*
X-126757Y-72190D01*
X-126824Y-72167D01*
X-126924Y-72145D01*
X-127057Y-72134D01*
X-127223Y-72112D01*
X-127423Y-72101D01*
D02*
G37*
G36*
X-126974Y-95215D02*
X-128139D01*
X-129227Y-100399D01*
X-128217D01*
X-128128Y-100387D01*
X-127940D01*
X-127729Y-100376D01*
X-127529Y-100354D01*
X-127329Y-100332D01*
X-127240Y-100321D01*
X-127163Y-100299D01*
X-127140Y-100288D01*
X-127096Y-100276D01*
X-127018Y-100243D01*
X-126918Y-100210D01*
X-126807Y-100154D01*
X-126685Y-100088D01*
X-126563Y-99999D01*
X-126441Y-99899D01*
X-126430D01*
X-126419Y-99877D01*
X-126363Y-99821D01*
X-126274Y-99721D01*
X-126164Y-99599D01*
X-126030Y-99433D01*
X-125897Y-99233D01*
X-125764Y-99011D01*
X-125642Y-98767D01*
Y-98756D01*
X-125631Y-98734D01*
X-125609Y-98689D01*
X-125586Y-98645D01*
X-125564Y-98567D01*
X-125542Y-98489D01*
X-125509Y-98400D01*
X-125475Y-98289D01*
X-125453Y-98179D01*
X-125420Y-98045D01*
X-125364Y-97757D01*
X-125331Y-97435D01*
X-125320Y-97091D01*
Y-97080D01*
Y-97057D01*
Y-97013D01*
Y-96958D01*
X-125331Y-96891D01*
Y-96813D01*
X-125353Y-96624D01*
X-125386Y-96425D01*
X-125431Y-96225D01*
X-125498Y-96025D01*
X-125586Y-95859D01*
X-125597Y-95836D01*
X-125631Y-95792D01*
X-125686Y-95725D01*
X-125764Y-95637D01*
X-125864Y-95548D01*
X-125975Y-95459D01*
X-126108Y-95381D01*
X-126252Y-95315D01*
X-126263D01*
X-126308Y-95304D01*
X-126374Y-95281D01*
X-126474Y-95259D01*
X-126608Y-95248D01*
X-126774Y-95226D01*
X-126974Y-95215D01*
D02*
G37*
G36*
X-115541Y-95126D02*
X-115730D01*
X-115785Y-95137D01*
X-115863D01*
X-115963Y-95159D01*
X-116074Y-95182D01*
X-116207Y-95215D01*
X-116340Y-95259D01*
X-116484Y-95315D01*
X-116640Y-95392D01*
X-116795Y-95481D01*
X-116951Y-95581D01*
X-117106Y-95714D01*
X-117261Y-95859D01*
X-117406Y-96025D01*
X-117550Y-96214D01*
X-117561Y-96225D01*
X-117583Y-96258D01*
X-117617Y-96325D01*
X-117661Y-96403D01*
X-117717Y-96502D01*
X-117783Y-96624D01*
X-117839Y-96769D01*
X-117905Y-96913D01*
X-117983Y-97091D01*
X-118038Y-97268D01*
X-118105Y-97468D01*
X-118160Y-97679D01*
X-118205Y-97890D01*
X-118238Y-98112D01*
X-118260Y-98345D01*
X-118272Y-98589D01*
Y-98600D01*
Y-98623D01*
Y-98667D01*
X-118260Y-98722D01*
Y-98789D01*
X-118249Y-98867D01*
X-118216Y-99055D01*
X-118149Y-99266D01*
X-118072Y-99488D01*
X-117950Y-99710D01*
X-117883Y-99821D01*
X-117794Y-99921D01*
X-117783Y-99932D01*
X-117772Y-99943D01*
X-117705Y-99999D01*
X-117606Y-100088D01*
X-117461Y-100188D01*
X-117273Y-100288D01*
X-117062Y-100365D01*
X-116806Y-100432D01*
X-116673Y-100443D01*
X-116529Y-100454D01*
X-116462D01*
X-116418Y-100443D01*
X-116296Y-100432D01*
X-116140Y-100399D01*
X-115952Y-100354D01*
X-115752Y-100276D01*
X-115530Y-100176D01*
X-115308Y-100032D01*
X-115297D01*
X-115286Y-100010D01*
X-115252Y-99988D01*
X-115208Y-99955D01*
X-115097Y-99855D01*
X-114964Y-99710D01*
X-114808Y-99533D01*
X-114642Y-99311D01*
X-114487Y-99055D01*
X-114331Y-98756D01*
Y-98745D01*
X-114309Y-98711D01*
X-114298Y-98667D01*
X-114264Y-98611D01*
X-114242Y-98534D01*
X-114209Y-98434D01*
X-114176Y-98334D01*
X-114131Y-98223D01*
X-114065Y-97968D01*
X-113998Y-97679D01*
X-113954Y-97379D01*
X-113943Y-97080D01*
Y-97069D01*
Y-97035D01*
Y-96991D01*
X-113954Y-96924D01*
Y-96858D01*
X-113965Y-96769D01*
X-113998Y-96558D01*
X-114065Y-96325D01*
X-114153Y-96092D01*
X-114264Y-95859D01*
X-114342Y-95748D01*
X-114431Y-95648D01*
Y-95637D01*
X-114453Y-95625D01*
X-114520Y-95570D01*
X-114620Y-95481D01*
X-114764Y-95381D01*
X-114953Y-95293D01*
X-115164Y-95204D01*
X-115408Y-95148D01*
X-115541Y-95126D01*
D02*
G37*
G36*
X84411Y-133478D02*
X81325Y-133933D01*
X84411Y-135620D01*
Y-133478D01*
D02*
G37*
G36*
X71965Y-133986D02*
X68879Y-134441D01*
X71965Y-136128D01*
Y-133986D01*
D02*
G37*
G36*
X64649Y129119D02*
Y126977D01*
X67735Y127432D01*
X64649Y129119D01*
D02*
G37*
G36*
X62895Y107308D02*
Y106298D01*
X62906Y106209D01*
Y106020D01*
X62918Y105809D01*
X62940Y105610D01*
X62962Y105410D01*
X62973Y105321D01*
X62995Y105243D01*
X63006Y105221D01*
X63018Y105177D01*
X63051Y105099D01*
X63084Y104999D01*
X63140Y104888D01*
X63206Y104766D01*
X63295Y104644D01*
X63395Y104522D01*
Y104511D01*
X63417Y104500D01*
X63473Y104444D01*
X63573Y104355D01*
X63695Y104244D01*
X63861Y104111D01*
X64061Y103978D01*
X64283Y103845D01*
X64527Y103723D01*
X64538D01*
X64560Y103712D01*
X64605Y103689D01*
X64649Y103667D01*
X64727Y103645D01*
X64805Y103623D01*
X64893Y103589D01*
X65004Y103556D01*
X65115Y103534D01*
X65249Y103501D01*
X65537Y103445D01*
X65859Y103412D01*
X66203Y103401D01*
X66214D01*
X66237D01*
X66281D01*
X66336D01*
X66403Y103412D01*
X66481D01*
X66669Y103434D01*
X66869Y103467D01*
X67069Y103512D01*
X67269Y103578D01*
X67435Y103667D01*
X67457Y103678D01*
X67502Y103712D01*
X67568Y103767D01*
X67657Y103845D01*
X67746Y103945D01*
X67835Y104056D01*
X67913Y104189D01*
X67979Y104333D01*
Y104344D01*
X67990Y104389D01*
X68012Y104455D01*
X68035Y104555D01*
X68046Y104688D01*
X68068Y104855D01*
X68079Y105055D01*
Y106220D01*
X62895Y107308D01*
D02*
G37*
G36*
X86038Y121040D02*
Y120030D01*
X86049Y119941D01*
Y119753D01*
X86060Y119542D01*
X86082Y119342D01*
X86104Y119142D01*
X86115Y119053D01*
X86137Y118976D01*
X86149Y118953D01*
X86160Y118909D01*
X86193Y118831D01*
X86226Y118731D01*
X86282Y118620D01*
X86348Y118498D01*
X86437Y118376D01*
X86537Y118254D01*
Y118243D01*
X86559Y118232D01*
X86615Y118176D01*
X86715Y118088D01*
X86837Y117977D01*
X87003Y117843D01*
X87203Y117710D01*
X87425Y117577D01*
X87669Y117455D01*
X87680D01*
X87703Y117444D01*
X87747Y117422D01*
X87791Y117399D01*
X87869Y117377D01*
X87947Y117355D01*
X88035Y117322D01*
X88146Y117288D01*
X88258Y117266D01*
X88391Y117233D01*
X88679Y117177D01*
X89001Y117144D01*
X89345Y117133D01*
X89356D01*
X89379D01*
X89423D01*
X89479D01*
X89545Y117144D01*
X89623D01*
X89811Y117166D01*
X90011Y117200D01*
X90211Y117244D01*
X90411Y117311D01*
X90577Y117399D01*
X90600Y117410D01*
X90644Y117444D01*
X90711Y117499D01*
X90799Y117577D01*
X90888Y117677D01*
X90977Y117788D01*
X91055Y117921D01*
X91121Y118065D01*
Y118076D01*
X91132Y118121D01*
X91155Y118188D01*
X91177Y118287D01*
X91188Y118421D01*
X91210Y118587D01*
X91221Y118787D01*
Y119952D01*
X86038Y121040D01*
D02*
G37*
G36*
X76587Y128610D02*
Y126468D01*
X79673Y126923D01*
X76587Y128610D01*
D02*
G37*
G36*
X74833Y106799D02*
Y105789D01*
X74844Y105700D01*
Y105512D01*
X74856Y105301D01*
X74878Y105101D01*
X74900Y104901D01*
X74911Y104812D01*
X74933Y104735D01*
X74944Y104712D01*
X74956Y104668D01*
X74989Y104590D01*
X75022Y104490D01*
X75078Y104379D01*
X75144Y104257D01*
X75233Y104135D01*
X75333Y104013D01*
Y104002D01*
X75355Y103991D01*
X75411Y103935D01*
X75511Y103847D01*
X75633Y103736D01*
X75799Y103602D01*
X75999Y103469D01*
X76221Y103336D01*
X76465Y103214D01*
X76476D01*
X76498Y103203D01*
X76543Y103181D01*
X76587Y103158D01*
X76665Y103136D01*
X76743Y103114D01*
X76831Y103081D01*
X76942Y103047D01*
X77053Y103025D01*
X77187Y102992D01*
X77475Y102936D01*
X77797Y102903D01*
X78141Y102892D01*
X78152D01*
X78175D01*
X78219D01*
X78274D01*
X78341Y102903D01*
X78419D01*
X78607Y102925D01*
X78807Y102959D01*
X79007Y103003D01*
X79207Y103070D01*
X79373Y103158D01*
X79395Y103169D01*
X79440Y103203D01*
X79506Y103258D01*
X79595Y103336D01*
X79684Y103436D01*
X79773Y103547D01*
X79851Y103680D01*
X79917Y103824D01*
Y103835D01*
X79928Y103880D01*
X79950Y103947D01*
X79973Y104046D01*
X79984Y104180D01*
X80006Y104346D01*
X80017Y104546D01*
Y105711D01*
X74833Y106799D01*
D02*
G37*
G36*
X77819Y98452D02*
Y97664D01*
X77830Y97542D01*
X77842Y97287D01*
X77853Y97009D01*
X77886Y96732D01*
X77908Y96610D01*
X77919Y96488D01*
X77952Y96388D01*
X77975Y96299D01*
X77986Y96277D01*
X78008Y96232D01*
X78041Y96154D01*
X78097Y96055D01*
X78163Y95955D01*
X78252Y95844D01*
X78352Y95733D01*
X78463Y95633D01*
X78474Y95622D01*
X78519Y95599D01*
X78596Y95555D01*
X78685Y95511D01*
X78796Y95466D01*
X78929Y95422D01*
X79062Y95400D01*
X79218Y95389D01*
X79229D01*
X79262D01*
X79318Y95400D01*
X79384D01*
X79529Y95444D01*
X79606Y95477D01*
X79673Y95522D01*
X79684D01*
X79706Y95544D01*
X79773Y95611D01*
X79851Y95722D01*
X79928Y95866D01*
Y95877D01*
X79939Y95910D01*
X79962Y95977D01*
X79973Y96077D01*
X79995Y96199D01*
X80006Y96376D01*
Y96476D01*
X80017Y96587D01*
Y97986D01*
X77819Y98452D01*
D02*
G37*
G36*
X-59909Y134473D02*
Y132330D01*
X-56824Y132785D01*
X-59909Y134473D01*
D02*
G37*
G36*
X-61663Y105524D02*
Y103771D01*
X-61652Y103682D01*
Y103482D01*
X-61630Y103260D01*
X-61608Y103049D01*
X-61585Y102860D01*
X-61563Y102783D01*
X-61541Y102716D01*
X-61530Y102705D01*
X-61519Y102661D01*
X-61486Y102605D01*
X-61441Y102527D01*
X-61386Y102438D01*
X-61319Y102350D01*
X-61241Y102261D01*
X-61141Y102183D01*
X-61130Y102172D01*
X-61086Y102150D01*
X-61030Y102117D01*
X-60953Y102083D01*
X-60864Y102050D01*
X-60764Y102017D01*
X-60653Y101994D01*
X-60542Y101983D01*
X-60520D01*
X-60475D01*
X-60409Y101994D01*
X-60320Y102017D01*
X-60220Y102050D01*
X-60109Y102106D01*
X-60009Y102172D01*
X-59909Y102272D01*
X-59898Y102283D01*
X-59865Y102327D01*
X-59832Y102394D01*
X-59776Y102494D01*
X-59732Y102627D01*
X-59698Y102794D01*
X-59665Y102982D01*
X-59654Y103216D01*
Y105103D01*
X-61663Y105524D01*
D02*
G37*
G36*
X-58322Y104825D02*
Y103415D01*
X-58311Y103338D01*
Y103160D01*
X-58300Y102971D01*
X-58278Y102783D01*
X-58244Y102605D01*
X-58211Y102450D01*
X-58200Y102438D01*
X-58189Y102394D01*
X-58167Y102327D01*
X-58122Y102250D01*
X-58067Y102161D01*
X-58000Y102072D01*
X-57923Y101994D01*
X-57834Y101917D01*
X-57823Y101906D01*
X-57789Y101883D01*
X-57734Y101861D01*
X-57667Y101817D01*
X-57578Y101784D01*
X-57478Y101761D01*
X-57379Y101739D01*
X-57268Y101728D01*
X-57256D01*
X-57223D01*
X-57168Y101739D01*
X-57101Y101750D01*
X-57023Y101772D01*
X-56946Y101806D01*
X-56868Y101850D01*
X-56790Y101906D01*
X-56779Y101917D01*
X-56757Y101939D01*
X-56724Y101972D01*
X-56690Y102028D01*
X-56646Y102094D01*
X-56602Y102172D01*
X-56568Y102272D01*
X-56535Y102383D01*
Y102394D01*
X-56524Y102416D01*
Y102472D01*
X-56513Y102549D01*
Y102661D01*
X-56502Y102805D01*
Y104448D01*
X-58322Y104825D01*
D02*
G37*
G36*
X-71063Y135003D02*
Y132861D01*
X-67977Y133316D01*
X-71063Y135003D01*
D02*
G37*
G36*
X-83509Y134495D02*
Y132353D01*
X-80423Y132808D01*
X-83509Y134495D01*
D02*
G37*
%LPD*%
D10*
X2286Y-3810D02*
G03*
X17491Y-13544I13970J5080D01*
G01*
X-12414Y-40615D02*
Y-55850D01*
X-2257D01*
X2821D02*
X7900D01*
X5361D01*
Y-40615D01*
X2821Y-43154D01*
D11*
X-105000Y7500D02*
X-88000D01*
Y-7500D02*
Y7500D01*
X-105000Y-7500D02*
X-88000D01*
X-98056Y-21194D02*
X-50556D01*
Y-60594D02*
Y-55944D01*
Y-25844D02*
Y-21194D01*
X-98056Y-60594D02*
X-50556D01*
X-98056D02*
Y-55944D01*
Y-25844D02*
Y-21194D01*
X-106184Y-7728D02*
X-93460D01*
X-106184Y-21228D02*
X-93460D01*
X-3418Y-123052D02*
X45582D01*
X-3418Y-74052D02*
X45582D01*
D12*
X36830Y-59690D02*
Y-46990D01*
X11430Y-59690D02*
Y-46990D01*
Y-59690D02*
X46990D01*
Y-46990D01*
X11430D02*
X46990D01*
X-25400D02*
X10160D01*
Y-59690D02*
Y-46990D01*
X-25400Y-59690D02*
X10160D01*
X-25400D02*
Y-46990D01*
X0Y-59690D02*
Y-46990D01*
D13*
X-62230Y-122936D02*
Y-121666D01*
X-74422Y-122936D02*
Y-121666D01*
X-62230D01*
X-74422Y-122936D02*
X-62230D01*
X-74422Y-116840D02*
X-62230D01*
X-74422Y-118110D02*
X-62230D01*
X-74422D02*
Y-116840D01*
X-62230Y-118110D02*
Y-116840D01*
X-78740Y-122936D02*
Y-121666D01*
X-90932Y-122936D02*
Y-121666D01*
X-78740D01*
X-90932Y-122936D02*
X-78740D01*
X-90932Y-116840D02*
X-78740D01*
X-90932Y-118110D02*
X-78740D01*
X-90932D02*
Y-116840D01*
X-78740Y-118110D02*
Y-116840D01*
X-90932Y-81280D02*
Y-80010D01*
X-78740Y-81280D02*
Y-80010D01*
X-90932Y-81280D02*
X-78740D01*
X-90932Y-80010D02*
X-78740D01*
X-90932Y-86106D02*
X-78740D01*
X-90932Y-84836D02*
X-78740D01*
Y-86106D02*
Y-84836D01*
X-90932Y-86106D02*
Y-84836D01*
X-74422Y-81280D02*
Y-80010D01*
X-62230Y-81280D02*
Y-80010D01*
X-74422Y-81280D02*
X-62230D01*
X-74422Y-80010D02*
X-62230D01*
X-74422Y-86106D02*
X-62230D01*
X-74422Y-84836D02*
X-62230D01*
Y-86106D02*
Y-84836D01*
X-74422Y-86106D02*
Y-84836D01*
D14*
X-31750Y-137160D02*
Y-96520D01*
X-35560D02*
X-31750D01*
X-35560Y-104140D02*
X-31750D01*
X-35560D02*
Y-96520D01*
Y-137160D02*
X-31750D01*
X-59690D02*
X-55880D01*
Y-104140D02*
Y-96520D01*
X-59690Y-137160D02*
Y-96520D01*
X-55880D01*
X-59690Y-104140D02*
X-55880D01*
M02*
