G04*
G04 #@! TF.GenerationSoftware,Altium Limited,Altium Designer,23.8.1 (32)*
G04*
G04 Layer_Color=32768*
%FSLAX44Y44*%
%MOMM*%
G71*
G04*
G04 #@! TF.SameCoordinates,63047707-2AD3-47D3-9D9A-8CE44674FD2A*
G04*
G04*
G04 #@! TF.FilePolarity,Positive*
G04*
G01*
G75*
%ADD11C,0.2000*%
%ADD92C,0.1000*%
%ADD94C,0.0500*%
D11*
X-110606Y-20194D02*
X-38006D01*
Y-61594D02*
Y-20194D01*
X-110606Y-61594D02*
X-38006D01*
X-110606D02*
Y-20194D01*
X-77318Y113533D02*
X-58318D01*
Y75951D02*
Y113533D01*
X-77318Y75951D02*
X-58318D01*
X-77318D02*
Y113533D01*
X58572Y76459D02*
Y114041D01*
Y76459D02*
X77572D01*
Y114041D01*
X58572D02*
X77572D01*
D92*
X-79306Y-40894D02*
X-69306D01*
X-74306Y-45894D02*
Y-35894D01*
X42000Y-28000D02*
Y31750D01*
X-42000Y-28000D02*
Y31750D01*
X42000D01*
X-42000Y-28000D02*
X42000D01*
X-5000Y0D02*
X5000D01*
X0Y-5000D02*
Y5000D01*
X56582Y-133052D02*
Y-64052D01*
X-14418D02*
X56582D01*
X-14418Y-133052D02*
Y-64052D01*
Y-133052D02*
X56582D01*
X36910Y-71120D02*
X46910D01*
X41910Y-76120D02*
Y-66120D01*
X21410Y-94620D02*
Y-47620D01*
X62410Y-94620D02*
Y-47620D01*
X21410D02*
X62410D01*
X21410Y-94620D02*
X62410D01*
X-199586Y-82134D02*
X-160586D01*
X-199586D02*
Y-30134D01*
X-160586D01*
Y-82134D02*
Y-30134D01*
X-72818Y94742D02*
X-62818D01*
X-67818Y89742D02*
Y99742D01*
X-58480Y67220D02*
X1270D01*
X-58480Y151220D02*
X1270D01*
Y67220D02*
Y151220D01*
X-58480Y67220D02*
Y151220D01*
X-30480Y104220D02*
Y114220D01*
X-35480Y109220D02*
X-25480D01*
X68072Y90250D02*
Y100250D01*
X63072Y95250D02*
X73072D01*
X-13890Y-78740D02*
X-3890D01*
X-8890Y-83740D02*
Y-73740D01*
X-26890Y-101600D02*
Y-55880D01*
X9110Y-101600D02*
Y-55880D01*
X-26890D02*
X9110D01*
X-26890Y-101600D02*
X9110D01*
X-61050Y-158750D02*
Y-99000D01*
X22950Y-158750D02*
Y-99000D01*
X-61050Y-158750D02*
X22950D01*
X-61050Y-99000D02*
X22950D01*
X-24050Y-127000D02*
X-14050D01*
X-19050Y-132000D02*
Y-122000D01*
X25480Y109220D02*
X35480D01*
X30480Y104220D02*
Y114220D01*
X2480Y67220D02*
Y151220D01*
X62230Y67220D02*
Y151220D01*
X2480D02*
X62230D01*
X2480Y67220D02*
X62230D01*
D94*
X-87000Y-8500D02*
Y8500D01*
X-113000D02*
X-87000D01*
X-113000Y-8500D02*
Y8500D01*
Y-8500D02*
X-87000D01*
X-160578Y3582D02*
Y38582D01*
X-198578Y3582D02*
X-160578D01*
X-198578D02*
Y38582D01*
X-160578D01*
M02*
