G04*
G04 #@! TF.GenerationSoftware,Altium Limited,Altium Designer,23.8.1 (32)*
G04*
G04 Layer_Color=16711935*
%FSLAX44Y44*%
%MOMM*%
G71*
G04*
G04 #@! TF.SameCoordinates,63047707-2AD3-47D3-9D9A-8CE44674FD2A*
G04*
G04*
G04 #@! TF.FilePolarity,Positive*
G04*
G01*
G75*
%ADD92C,0.1000*%
%ADD93C,0.0508*%
D92*
X16000Y16000D02*
G03*
X16000Y16000I-5000J0D01*
G01*
X-25050Y-143000D02*
G03*
X-25050Y-143000I-5000J0D01*
G01*
X-131490Y-76800D02*
G03*
X-131490Y-76800I-5000J0D01*
G01*
X-97000Y-3000D02*
X-95000Y-1000D01*
Y-3000D02*
Y3000D01*
X-105000D02*
X-95000D01*
X-105000Y-3000D02*
Y3000D01*
Y-3000D02*
X-95000D01*
X-182578Y35582D02*
X-173078Y26082D01*
Y6582D02*
Y35582D01*
X-186078Y6582D02*
X-173078D01*
X-186078D02*
Y35582D01*
X-173078D01*
X20000Y-25000D02*
Y25000D01*
X-20000Y-25000D02*
Y25000D01*
X20000D01*
X-20000Y-25000D02*
X20000D01*
X45582Y-123052D02*
Y-74052D01*
X-3418D02*
X45582D01*
X-3418Y-123052D02*
Y-74052D01*
Y-123052D02*
X45582D01*
X26410Y-80120D02*
Y-62120D01*
X57410D01*
X26410Y-80120D02*
X57410D01*
Y-62120D01*
X-186586Y-72134D02*
X-173586D01*
X-186586D02*
Y-40134D01*
X-173586D01*
Y-72134D02*
Y-40134D01*
X-55480Y89220D02*
X-5480D01*
X-55480Y129220D02*
X-5480D01*
Y89220D02*
Y129220D01*
X-55480Y89220D02*
Y129220D01*
X-24390Y-87740D02*
Y-69740D01*
X6610Y-87740D02*
Y-69740D01*
X-24390D02*
X6610D01*
X-24390Y-87740D02*
X6610D01*
X-39050Y-152000D02*
Y-102000D01*
X950Y-152000D02*
Y-102000D01*
X-39050Y-152000D02*
X950D01*
X-39050Y-102000D02*
X950D01*
X5480Y89220D02*
Y129220D01*
X55480Y89220D02*
Y129220D01*
X5480D02*
X55480D01*
X5480Y89220D02*
X55480D01*
X-145490Y-85800D02*
Y-15800D01*
X-75490Y-85800D02*
Y-15800D01*
X-145490Y-85800D02*
X-75490D01*
X-145490Y-15800D02*
X-75490D01*
D93*
X20360Y-55800D02*
X25360D01*
X20360Y-45800D02*
X25360D01*
X25360Y-55800D02*
Y-45800D01*
X20360Y-55800D02*
Y-45800D01*
X21336Y-50800D02*
X24384D01*
X22861Y-52323D02*
Y-49275D01*
X11470Y-55800D02*
X16470D01*
X11470Y-45800D02*
X16470D01*
X16470Y-55800D02*
Y-45800D01*
X11470Y-55800D02*
Y-45800D01*
X12446Y-50800D02*
X15494D01*
X13971Y-52323D02*
Y-49275D01*
X25909Y-129539D02*
Y-126491D01*
X24384Y-128016D02*
X27432D01*
X23408Y-133016D02*
Y-123016D01*
X28408Y-133016D02*
Y-123016D01*
X23408D02*
X28408D01*
X23408Y-133016D02*
X28408D01*
X-173229Y-85851D02*
X-170181D01*
X-171704Y-87376D02*
Y-84328D01*
X-176704Y-88352D02*
X-166704D01*
X-176704Y-83352D02*
X-166704D01*
X-176704Y-88352D02*
Y-83352D01*
X-166704Y-88352D02*
Y-83352D01*
X-182546Y-25360D02*
Y-20360D01*
X-172546Y-25360D02*
Y-20360D01*
X-182546Y-25360D02*
X-172546D01*
X-182546Y-20360D02*
X-172546D01*
X-177546Y-24384D02*
Y-21336D01*
X-179069Y-22861D02*
X-176021D01*
X170422Y18098D02*
X200422D01*
X170422D02*
Y58098D01*
X200420Y18100D02*
Y58100D01*
X170420D02*
X200420D01*
X-49785Y-78231D02*
X-46737D01*
X-48260Y-79756D02*
Y-76708D01*
X-53260Y-80732D02*
X-43260D01*
X-53260Y-75732D02*
X-43260D01*
X-53260Y-80732D02*
Y-75732D01*
X-43260Y-80732D02*
Y-75732D01*
X-156717Y-101599D02*
Y-98551D01*
X-158242Y-100076D02*
X-155194D01*
X-159218Y-105076D02*
Y-95076D01*
X-154218Y-105076D02*
Y-95076D01*
X-159218D02*
X-154218D01*
X-159218Y-105076D02*
X-154218D01*
X-33194Y63794D02*
Y68794D01*
X-23194Y63794D02*
Y68794D01*
X-33194Y63794D02*
X-23194D01*
X-33194Y68794D02*
X-23194D01*
X-28194Y64770D02*
Y67818D01*
X-29717Y66293D02*
X-26669D01*
X-68754Y63794D02*
Y68794D01*
X-58754Y63794D02*
Y68794D01*
X-68754Y63794D02*
X-58754D01*
X-68754Y68794D02*
X-58754D01*
X-63754Y64770D02*
Y67818D01*
X-65277Y66293D02*
X-62229D01*
X40720Y63794D02*
Y68794D01*
X50720Y63794D02*
Y68794D01*
X40720Y63794D02*
X50720D01*
X40720Y68794D02*
X50720D01*
X45720Y64770D02*
Y67818D01*
X44197Y66293D02*
X47245D01*
X5160Y63794D02*
Y68794D01*
X15160Y63794D02*
Y68794D01*
X5160Y63794D02*
X15160D01*
X5160Y68794D02*
X15160D01*
X10160Y64770D02*
Y67818D01*
X8637Y66293D02*
X11685D01*
X-11939Y66295D02*
X-8891D01*
X-10414Y64770D02*
Y67818D01*
X-15414Y63794D02*
X-5414D01*
X-15414Y68794D02*
X-5414D01*
X-15414Y63794D02*
Y68794D01*
X-5414Y63794D02*
Y68794D01*
X-47499Y66295D02*
X-44451D01*
X-45974Y64770D02*
Y67818D01*
X-50974Y63794D02*
X-40974D01*
X-50974Y68794D02*
X-40974D01*
X-50974Y63794D02*
Y68794D01*
X-40974Y63794D02*
Y68794D01*
X61975Y66295D02*
X65023D01*
X63500Y64770D02*
Y67818D01*
X58500Y63794D02*
X68500D01*
X58500Y68794D02*
X68500D01*
X58500Y63794D02*
Y68794D01*
X68500Y63794D02*
Y68794D01*
X26417Y66293D02*
X29465D01*
X27940Y64770D02*
Y67818D01*
X22940Y68794D02*
X32940D01*
X22940Y63794D02*
X32940D01*
Y63794D02*
Y68794D01*
X22940Y63794D02*
Y68794D01*
X170420Y-58100D02*
X200420D01*
X170420D02*
Y-18100D01*
X200418Y-58098D02*
Y-18098D01*
X170418D02*
X200418D01*
X-166704Y-109180D02*
Y-104180D01*
X-176704Y-109180D02*
Y-104180D01*
Y-104180D02*
X-166704D01*
X-176704Y-109180D02*
X-166704D01*
X-171704Y-108204D02*
Y-105156D01*
X-173229Y-106679D02*
X-170181D01*
X54357Y-96521D02*
X57405D01*
X55880Y-98044D02*
Y-94996D01*
X50880Y-94020D02*
X60880D01*
X50880Y-99020D02*
X60880D01*
Y-99020D02*
Y-94020D01*
X50880Y-99020D02*
Y-94020D01*
X-173227Y-95505D02*
X-170179D01*
X-171704Y-97028D02*
Y-93980D01*
X-176704Y-93004D02*
X-166704D01*
X-176704Y-98004D02*
X-166704D01*
Y-98004D02*
Y-93004D01*
X-176704Y-98004D02*
Y-93004D01*
X-1525Y-44449D02*
X1523D01*
X0Y-45974D02*
Y-42926D01*
X-5000Y-46950D02*
X5000D01*
X-5000Y-41950D02*
X5000D01*
X-5000Y-46950D02*
Y-41950D01*
X5000Y-46950D02*
Y-41950D01*
X-1525Y-53339D02*
X1523D01*
X0Y-54864D02*
Y-51816D01*
X-5000Y-55840D02*
X5000D01*
X-5000Y-50840D02*
X5000D01*
X-5000Y-55840D02*
Y-50840D01*
X5000Y-55840D02*
Y-50840D01*
X-20575Y-53339D02*
X-17527D01*
X-19050Y-54864D02*
Y-51816D01*
X-24050Y-55840D02*
X-14050D01*
X-24050Y-50840D02*
X-14050D01*
X-24050Y-55840D02*
Y-50840D01*
X-14050Y-55840D02*
Y-50840D01*
X13969Y-72645D02*
Y-69597D01*
X12446Y-71120D02*
X15494D01*
X16470Y-76120D02*
Y-66120D01*
X11470Y-76120D02*
Y-66120D01*
X11470Y-76120D02*
X16470D01*
X11470Y-66120D02*
X16470D01*
X22859Y-72645D02*
Y-69597D01*
X21336Y-71120D02*
X24384D01*
X25360Y-76120D02*
Y-66120D01*
X20360Y-76120D02*
Y-66120D01*
X20360Y-76120D02*
X25360D01*
X20360Y-66120D02*
X25360D01*
X60959Y-62485D02*
Y-59437D01*
X59436Y-60960D02*
X62484D01*
X63460Y-65960D02*
Y-55960D01*
X58460Y-65960D02*
Y-55960D01*
X58460Y-65960D02*
X63460D01*
X58460Y-55960D02*
X63460D01*
X60959Y-84075D02*
Y-81027D01*
X59436Y-82550D02*
X62484D01*
X63460Y-87550D02*
Y-77550D01*
X58460Y-87550D02*
Y-77550D01*
X58460Y-87550D02*
X63460D01*
X58460Y-77550D02*
X63460D01*
X54355Y-46989D02*
X57403D01*
X55880Y-48514D02*
Y-45466D01*
X50880Y-49490D02*
X60880D01*
X50880Y-44490D02*
X60880D01*
X50880Y-49490D02*
Y-44490D01*
X60880Y-49490D02*
Y-44490D01*
X41830Y-49490D02*
Y-44490D01*
X31830Y-49490D02*
Y-44490D01*
Y-44490D02*
X41830D01*
X31830Y-49490D02*
X41830D01*
X36830Y-48514D02*
Y-45466D01*
X35305Y-46989D02*
X38353D01*
X20360Y-96440D02*
X25360D01*
X20360Y-86440D02*
X25360D01*
X25360Y-96440D02*
Y-86440D01*
X20360Y-96440D02*
Y-86440D01*
X21336Y-91440D02*
X24384D01*
X22861Y-92963D02*
Y-89915D01*
X13969Y-92965D02*
Y-89917D01*
X12446Y-91440D02*
X15494D01*
X16470Y-96440D02*
Y-86440D01*
X11470Y-96440D02*
Y-86440D01*
X11470Y-96440D02*
X16470D01*
X11470Y-86440D02*
X16470D01*
X41830Y-99020D02*
Y-94020D01*
X31830Y-99020D02*
Y-94020D01*
Y-94020D02*
X41830D01*
X31830Y-99020D02*
X41830D01*
X36830Y-98044D02*
Y-94996D01*
X35305Y-96519D02*
X38353D01*
X-74576Y-129888D02*
X-62076D01*
X-74576Y-109888D02*
X-62076D01*
X-74576Y-129888D02*
Y-109888D01*
X-62076Y-129888D02*
Y-109888D01*
X-68326Y-122428D02*
Y-117348D01*
X-70866Y-119888D02*
X-65786D01*
X-48258Y-116842D02*
X-43178D01*
X-45718Y-119382D02*
Y-114302D01*
X-59217Y-141843D02*
Y-91843D01*
Y-141843D02*
X-32218D01*
X-59217Y-91843D02*
X-32218D01*
Y-141843D02*
Y-91843D01*
X-110490Y-53340D02*
Y-48260D01*
X-113030Y-50800D02*
X-107950D01*
X-91086Y-129888D02*
X-78586D01*
X-91086Y-109888D02*
X-78586D01*
X-91086Y-129888D02*
Y-109888D01*
X-78586Y-129888D02*
Y-109888D01*
X-84836Y-122428D02*
Y-117348D01*
X-87376Y-119888D02*
X-82296D01*
X-91086Y-73058D02*
X-78586D01*
X-91086Y-93058D02*
X-78586D01*
Y-73058D01*
X-91086Y-93058D02*
Y-73058D01*
X-84836Y-85598D02*
Y-80518D01*
X-87376Y-83058D02*
X-82296D01*
X-74576Y-73058D02*
X-62076D01*
X-74576Y-93058D02*
X-62076D01*
Y-73058D01*
X-74576Y-93058D02*
Y-73058D01*
X-68326Y-85598D02*
Y-80518D01*
X-70866Y-83058D02*
X-65786D01*
M02*
