G04*
G04 #@! TF.GenerationSoftware,Altium Limited,Altium Designer,23.8.1 (32)*
G04*
G04 Layer_Color=8388736*
%FSLAX44Y44*%
%MOMM*%
G71*
G04*
G04 #@! TF.SameCoordinates,63047707-2AD3-47D3-9D9A-8CE44674FD2A*
G04*
G04*
G04 #@! TF.FilePolarity,Positive*
G04*
G01*
G75*
%ADD93C,0.0508*%
G36*
X-38608Y-115169D02*
X-40911D01*
Y-111644D01*
X-49768D01*
X-48100Y-114722D01*
X-50215Y-115568D01*
X-52517Y-111174D01*
Y-108989D01*
X-40911D01*
Y-105959D01*
X-38608D01*
Y-115169D01*
D02*
G37*
G36*
X-45116Y-117354D02*
X-44717Y-117377D01*
X-44270Y-117424D01*
X-43777Y-117495D01*
X-43260Y-117589D01*
X-42767Y-117730D01*
X-42743D01*
X-42720Y-117753D01*
X-42649Y-117777D01*
X-42555Y-117800D01*
X-42297Y-117894D01*
X-41991Y-118035D01*
X-41639Y-118200D01*
X-41263Y-118411D01*
X-40887Y-118669D01*
X-40511Y-118975D01*
X-40464Y-119022D01*
X-40370Y-119116D01*
X-40206Y-119304D01*
X-39994Y-119562D01*
X-39759Y-119868D01*
X-39524Y-120244D01*
X-39313Y-120667D01*
X-39101Y-121136D01*
Y-121160D01*
X-39078Y-121183D01*
X-39054Y-121277D01*
X-39031Y-121371D01*
X-38984Y-121489D01*
X-38937Y-121630D01*
X-38890Y-121818D01*
X-38866Y-122006D01*
X-38772Y-122476D01*
X-38679Y-122992D01*
X-38631Y-123603D01*
X-38608Y-124261D01*
Y-127762D01*
X-52423D01*
Y-123274D01*
X-52400Y-123110D01*
X-52376Y-122734D01*
X-52329Y-122311D01*
X-52259Y-121841D01*
X-52165Y-121371D01*
X-52024Y-120925D01*
Y-120901D01*
X-52000Y-120878D01*
X-51953Y-120714D01*
X-51859Y-120502D01*
X-51718Y-120220D01*
X-51554Y-119915D01*
X-51342Y-119586D01*
X-51084Y-119233D01*
X-50802Y-118928D01*
X-50755Y-118881D01*
X-50661Y-118787D01*
X-50473Y-118646D01*
X-50238Y-118482D01*
X-49933Y-118294D01*
X-49580Y-118082D01*
X-49157Y-117894D01*
X-48711Y-117730D01*
X-48687D01*
X-48664Y-117706D01*
X-48593Y-117683D01*
X-48476Y-117659D01*
X-48358Y-117636D01*
X-48218Y-117612D01*
X-47865Y-117518D01*
X-47419Y-117448D01*
X-46902Y-117401D01*
X-46314Y-117354D01*
X-45680Y-117330D01*
X-45656D01*
X-45609D01*
X-45515D01*
X-45422D01*
X-45281D01*
X-45116Y-117354D01*
D02*
G37*
%LPC*%
G36*
X-45069Y-120126D02*
X-45515D01*
X-45539D01*
X-45563D01*
X-45704D01*
X-45915D01*
X-46173Y-120150D01*
X-46479Y-120173D01*
X-46808Y-120197D01*
X-47489Y-120314D01*
X-47536D01*
X-47630Y-120338D01*
X-47794Y-120385D01*
X-48006Y-120455D01*
X-48241Y-120549D01*
X-48499Y-120643D01*
X-48758Y-120784D01*
X-48993Y-120925D01*
X-49016Y-120948D01*
X-49087Y-120995D01*
X-49204Y-121089D01*
X-49345Y-121230D01*
X-49486Y-121395D01*
X-49627Y-121583D01*
X-49792Y-121818D01*
X-49909Y-122076D01*
X-49933Y-122100D01*
X-49956Y-122194D01*
X-50003Y-122358D01*
X-50074Y-122570D01*
X-50144Y-122805D01*
X-50191Y-123110D01*
X-50215Y-123462D01*
X-50238Y-123838D01*
Y-125154D01*
X-40793D01*
Y-123838D01*
X-40816Y-123721D01*
Y-123556D01*
X-40863Y-123368D01*
X-40934Y-122945D01*
X-41075Y-122476D01*
X-41263Y-122006D01*
X-41545Y-121536D01*
X-41733Y-121324D01*
X-41921Y-121136D01*
X-41944Y-121113D01*
X-41968Y-121089D01*
X-42038Y-121042D01*
X-42132Y-120972D01*
X-42273Y-120901D01*
X-42414Y-120808D01*
X-42602Y-120714D01*
X-42814Y-120619D01*
X-43049Y-120526D01*
X-43307Y-120455D01*
X-43589Y-120361D01*
X-43918Y-120291D01*
X-44270Y-120220D01*
X-44670Y-120173D01*
X-45069Y-120126D01*
D02*
G37*
%LPD*%
D93*
X27178Y-59690D02*
Y-41910D01*
X18542D02*
X27178D01*
X18542Y-59690D02*
X27178D01*
X18542D02*
Y-41910D01*
X18288Y-59690D02*
Y-41910D01*
X9652D02*
X18288D01*
X9652Y-59690D02*
X18288D01*
X9652D02*
Y-41910D01*
X30226Y-136906D02*
Y-119126D01*
X21590D02*
X30226D01*
X21590Y-136906D02*
X30226D01*
X21590D02*
Y-119126D01*
X-180594Y-81534D02*
X-162814D01*
X-180594Y-90170D02*
Y-81534D01*
X-162814Y-90170D02*
Y-81534D01*
X-180594Y-90170D02*
X-162814D01*
X-186436Y-27178D02*
X-168656D01*
Y-18542D01*
X-186436Y-27178D02*
Y-18542D01*
X-168656D01*
X168910Y11430D02*
Y64770D01*
X201930D01*
X168910Y11430D02*
X201930D01*
Y64770D01*
X-57150Y-82550D02*
X-39370D01*
Y-73914D01*
X-57150Y-82550D02*
Y-73914D01*
X-39370D01*
X-161036Y-108966D02*
Y-91186D01*
Y-108966D02*
X-152400D01*
X-161036Y-91186D02*
X-152400D01*
Y-108966D02*
Y-91186D01*
X-37084Y70612D02*
X-19304D01*
X-37084Y61976D02*
Y70612D01*
X-19304Y61976D02*
Y70612D01*
X-37084Y61976D02*
X-19304D01*
X-72644Y70612D02*
X-54864D01*
X-72644Y61976D02*
Y70612D01*
X-54864Y61976D02*
Y70612D01*
X-72644Y61976D02*
X-54864D01*
X36830Y70612D02*
X54610D01*
X36830Y61976D02*
Y70612D01*
X54610Y61976D02*
Y70612D01*
X36830Y61976D02*
X54610D01*
X1270Y70612D02*
X19050D01*
X1270Y61976D02*
Y70612D01*
X19050Y61976D02*
Y70612D01*
X1270Y61976D02*
X19050D01*
X-19304D02*
X-1524D01*
Y70612D01*
X-19304Y61976D02*
Y70612D01*
X-1524D01*
X-54864Y61976D02*
X-37084D01*
Y70612D01*
X-54864Y61976D02*
Y70612D01*
X-37084D01*
X54610Y61976D02*
X72390D01*
Y70612D01*
X54610Y61976D02*
Y70612D01*
X72390D01*
X19050D02*
X36830D01*
X19050Y61976D02*
Y70612D01*
X36830Y61976D02*
Y70612D01*
X19050Y61976D02*
X36830D01*
X168910Y-64770D02*
Y-11430D01*
X201930D01*
X168910Y-64770D02*
X201930D01*
Y-11430D01*
X-180594Y-110998D02*
X-162814D01*
Y-102362D01*
X-180594Y-110998D02*
Y-102362D01*
X-162814D01*
X46990Y-92202D02*
X64770D01*
X46990Y-100838D02*
Y-92202D01*
X64770Y-100838D02*
Y-92202D01*
X46990Y-100838D02*
X64770D01*
X-180594Y-91186D02*
X-162814D01*
X-180594Y-99822D02*
Y-91186D01*
X-162814Y-99822D02*
Y-91186D01*
X-180594Y-99822D02*
X-162814D01*
X-8890Y-48768D02*
X8890D01*
Y-40132D01*
X-8890Y-48768D02*
Y-40132D01*
X8890D01*
X-8890Y-57658D02*
X8890D01*
Y-49022D01*
X-8890Y-57658D02*
Y-49022D01*
X8890D01*
X-27940Y-57658D02*
X-10160D01*
Y-49022D01*
X-27940Y-57658D02*
Y-49022D01*
X-10160D01*
X18288Y-80010D02*
Y-62230D01*
X9652D02*
X18288D01*
X9652Y-80010D02*
X18288D01*
X9652D02*
Y-62230D01*
X27178Y-80010D02*
Y-62230D01*
X18542D02*
X27178D01*
X18542Y-80010D02*
X27178D01*
X18542D02*
Y-62230D01*
X65278Y-69850D02*
Y-52070D01*
X56642D02*
X65278D01*
X56642Y-69850D02*
X65278D01*
X56642D02*
Y-52070D01*
X65278Y-91440D02*
Y-73660D01*
X56642D02*
X65278D01*
X56642Y-91440D02*
X65278D01*
X56642D02*
Y-73660D01*
X46990Y-51308D02*
X64770D01*
Y-42672D01*
X46990Y-51308D02*
Y-42672D01*
X64770D01*
X27940Y-51308D02*
X45720D01*
Y-42672D01*
X27940Y-51308D02*
Y-42672D01*
X45720D01*
X18542Y-100330D02*
Y-82550D01*
Y-100330D02*
X27178D01*
X18542Y-82550D02*
X27178D01*
Y-100330D02*
Y-82550D01*
X18288Y-100330D02*
Y-82550D01*
X9652D02*
X18288D01*
X9652Y-100330D02*
X18288D01*
X9652D02*
Y-82550D01*
X27940Y-100838D02*
X45720D01*
Y-92202D01*
X27940Y-100838D02*
Y-92202D01*
X45720D01*
X-75946Y-133858D02*
Y-105918D01*
X-60706D01*
X-75946Y-133858D02*
X-60706D01*
Y-105918D01*
X-30480Y-144780D02*
Y-88900D01*
X-60960Y-144780D02*
X-30480D01*
X-60960Y-88900D02*
X-30480D01*
X-60960Y-144780D02*
Y-88900D01*
Y-100330D02*
Y-1270D01*
X-160020D02*
X-60960D01*
X-160020Y-100330D02*
X-160020Y-1270D01*
X-160020Y-100330D02*
X-60960Y-100330D01*
X-92456Y-133858D02*
Y-105918D01*
X-77216D01*
X-92456Y-133858D02*
X-77216D01*
Y-105918D01*
Y-97028D02*
Y-69088D01*
X-92456Y-97028D02*
X-77216D01*
X-92456Y-69088D02*
X-77216D01*
X-92456Y-97028D02*
Y-69088D01*
X-60706Y-97028D02*
Y-69088D01*
X-75946Y-97028D02*
X-60706D01*
X-75946Y-69088D02*
X-60706D01*
X-75946Y-97028D02*
Y-69088D01*
M02*
