G04*
G04 #@! TF.GenerationSoftware,Altium Limited,Altium Designer,23.8.1 (32)*
G04*
G04 Layer_Color=255*
%FSLAX44Y44*%
%MOMM*%
G71*
G04*
G04 #@! TF.SameCoordinates,63047707-2AD3-47D3-9D9A-8CE44674FD2A*
G04*
G04*
G04 #@! TF.FilePolarity,Positive*
G04*
G01*
G75*
%ADD15R,0.8000X0.7000*%
G04:AMPARAMS|DCode=16|XSize=2.16mm|YSize=2.26mm|CornerRadius=0.54mm|HoleSize=0mm|Usage=FLASHONLY|Rotation=0.000|XOffset=0mm|YOffset=0mm|HoleType=Round|Shape=RoundedRectangle|*
%AMROUNDEDRECTD16*
21,1,2.1600,1.1800,0,0,0.0*
21,1,1.0800,2.2600,0,0,0.0*
1,1,1.0800,0.5400,-0.5900*
1,1,1.0800,-0.5400,-0.5900*
1,1,1.0800,-0.5400,0.5900*
1,1,1.0800,0.5400,0.5900*
%
%ADD16ROUNDEDRECTD16*%
G04:AMPARAMS|DCode=17|XSize=0.4mm|YSize=1.5mm|CornerRadius=0.1mm|HoleSize=0mm|Usage=FLASHONLY|Rotation=270.000|XOffset=0mm|YOffset=0mm|HoleType=Round|Shape=RoundedRectangle|*
%AMROUNDEDRECTD17*
21,1,0.4000,1.3000,0,0,270.0*
21,1,0.2000,1.5000,0,0,270.0*
1,1,0.2000,-0.6500,-0.1000*
1,1,0.2000,-0.6500,0.1000*
1,1,0.2000,0.6500,0.1000*
1,1,0.2000,0.6500,-0.1000*
%
%ADD17ROUNDEDRECTD17*%
G04:AMPARAMS|DCode=18|XSize=1mm|YSize=1.5mm|CornerRadius=0.25mm|HoleSize=0mm|Usage=FLASHONLY|Rotation=90.000|XOffset=0mm|YOffset=0mm|HoleType=Round|Shape=RoundedRectangle|*
%AMROUNDEDRECTD18*
21,1,1.0000,1.0000,0,0,90.0*
21,1,0.5000,1.5000,0,0,90.0*
1,1,0.5000,0.5000,0.2500*
1,1,0.5000,0.5000,-0.2500*
1,1,0.5000,-0.5000,-0.2500*
1,1,0.5000,-0.5000,0.2500*
%
%ADD18ROUNDEDRECTD18*%
%ADD19R,0.4682X0.4725*%
%ADD20R,1.0000X1.5000*%
%ADD21R,3.0000X5.0000*%
G04:AMPARAMS|DCode=22|XSize=0.4mm|YSize=1.5mm|CornerRadius=0.1mm|HoleSize=0mm|Usage=FLASHONLY|Rotation=0.000|XOffset=0mm|YOffset=0mm|HoleType=Round|Shape=RoundedRectangle|*
%AMROUNDEDRECTD22*
21,1,0.4000,1.3000,0,0,0.0*
21,1,0.2000,1.5000,0,0,0.0*
1,1,0.2000,0.1000,-0.6500*
1,1,0.2000,-0.1000,-0.6500*
1,1,0.2000,-0.1000,0.6500*
1,1,0.2000,0.1000,0.6500*
%
%ADD22ROUNDEDRECTD22*%
G04:AMPARAMS|DCode=23|XSize=1mm|YSize=1.5mm|CornerRadius=0.25mm|HoleSize=0mm|Usage=FLASHONLY|Rotation=0.000|XOffset=0mm|YOffset=0mm|HoleType=Round|Shape=RoundedRectangle|*
%AMROUNDEDRECTD23*
21,1,1.0000,1.0000,0,0,0.0*
21,1,0.5000,1.5000,0,0,0.0*
1,1,0.5000,0.2500,-0.5000*
1,1,0.5000,-0.2500,-0.5000*
1,1,0.5000,-0.2500,0.5000*
1,1,0.5000,0.2500,0.5000*
%
%ADD23ROUNDEDRECTD23*%
%ADD24R,1.5000X4.0000*%
G04:AMPARAMS|DCode=25|XSize=0.5mm|YSize=0.6mm|CornerRadius=0.125mm|HoleSize=0mm|Usage=FLASHONLY|Rotation=90.000|XOffset=0mm|YOffset=0mm|HoleType=Round|Shape=RoundedRectangle|*
%AMROUNDEDRECTD25*
21,1,0.5000,0.3500,0,0,90.0*
21,1,0.2500,0.6000,0,0,90.0*
1,1,0.2500,0.1750,0.1250*
1,1,0.2500,0.1750,-0.1250*
1,1,0.2500,-0.1750,-0.1250*
1,1,0.2500,-0.1750,0.1250*
%
%ADD25ROUNDEDRECTD25*%
G04:AMPARAMS|DCode=26|XSize=1.016mm|YSize=1.8796mm|CornerRadius=0.254mm|HoleSize=0mm|Usage=FLASHONLY|Rotation=270.000|XOffset=0mm|YOffset=0mm|HoleType=Round|Shape=RoundedRectangle|*
%AMROUNDEDRECTD26*
21,1,1.0160,1.3716,0,0,270.0*
21,1,0.5080,1.8796,0,0,270.0*
1,1,0.5080,-0.6858,-0.2540*
1,1,0.5080,-0.6858,0.2540*
1,1,0.5080,0.6858,0.2540*
1,1,0.5080,0.6858,-0.2540*
%
%ADD26ROUNDEDRECTD26*%
G04:AMPARAMS|DCode=27|XSize=1.5mm|YSize=1mm|CornerRadius=0.25mm|HoleSize=0mm|Usage=FLASHONLY|Rotation=180.000|XOffset=0mm|YOffset=0mm|HoleType=Round|Shape=RoundedRectangle|*
%AMROUNDEDRECTD27*
21,1,1.5000,0.5000,0,0,180.0*
21,1,1.0000,1.0000,0,0,180.0*
1,1,0.5000,-0.5000,0.2500*
1,1,0.5000,0.5000,0.2500*
1,1,0.5000,0.5000,-0.2500*
1,1,0.5000,-0.5000,-0.2500*
%
%ADD27ROUNDEDRECTD27*%
G04:AMPARAMS|DCode=28|XSize=1.397mm|YSize=1.651mm|CornerRadius=0.3493mm|HoleSize=0mm|Usage=FLASHONLY|Rotation=90.000|XOffset=0mm|YOffset=0mm|HoleType=Round|Shape=RoundedRectangle|*
%AMROUNDEDRECTD28*
21,1,1.3970,0.9525,0,0,90.0*
21,1,0.6985,1.6510,0,0,90.0*
1,1,0.6985,0.4763,0.3493*
1,1,0.6985,0.4763,-0.3493*
1,1,0.6985,-0.4763,-0.3493*
1,1,0.6985,-0.4763,0.3493*
%
%ADD28ROUNDEDRECTD28*%
%ADD55C,5.0800*%
D15*
X-105000Y0D02*
D03*
X-95000D02*
D03*
D16*
X-98806Y-40894D02*
D03*
X-49806D02*
D03*
D17*
X-158750Y9840D02*
D03*
Y-160D02*
D03*
Y-20160D02*
D03*
Y-10160D02*
D03*
Y-30160D02*
D03*
Y-76360D02*
D03*
Y-86360D02*
D03*
Y-96360D02*
D03*
D18*
X-195580Y-41910D02*
D03*
Y21590D02*
D03*
Y-64770D02*
D03*
Y-107950D02*
D03*
D19*
X-95801Y-14478D02*
D03*
X-103843D02*
D03*
D20*
X-105143Y194792D02*
D03*
Y-192812D02*
D03*
D21*
X73152Y-177038D02*
D03*
X-75692Y-176022D02*
D03*
X-74676Y177546D02*
D03*
X78740Y176022D02*
D03*
D22*
X-25000Y158750D02*
D03*
X25000D02*
D03*
X15000D02*
D03*
X-5000D02*
D03*
X5000D02*
D03*
X-15000D02*
D03*
X15000Y-158750D02*
D03*
X-5000D02*
D03*
X5000D02*
D03*
X-15000D02*
D03*
X-25000D02*
D03*
X25000D02*
D03*
D23*
X-36910Y195580D02*
D03*
X36910D02*
D03*
X-36910Y-195580D02*
D03*
X36910D02*
D03*
D24*
X3082Y-98552D02*
D03*
X39082D02*
D03*
D25*
X15916Y-53340D02*
D03*
X42504D02*
D03*
X5674D02*
D03*
X-20914D02*
D03*
D26*
X185420Y57912D02*
D03*
Y18288D02*
D03*
Y-18288D02*
D03*
Y-57912D02*
D03*
D27*
X-68326Y-132588D02*
D03*
X-68325Y-107187D02*
D03*
X-84836Y-132588D02*
D03*
X-84835Y-107187D02*
D03*
X-84836Y-70358D02*
D03*
X-84837Y-95759D02*
D03*
X-68326Y-70358D02*
D03*
X-68327Y-95759D02*
D03*
D28*
X-45720Y-96520D02*
D03*
Y-137160D02*
D03*
D55*
X-155000Y-155000D02*
D03*
X155000D02*
D03*
Y155000D02*
D03*
X-155000D02*
D03*
M02*
