G04*
G04 #@! TF.GenerationSoftware,Altium Limited,Altium Designer,23.8.1 (32)*
G04*
G04 Layer_Physical_Order=3*
G04 Layer_Color=16440176*
%FSLAX44Y44*%
%MOMM*%
G71*
G04*
G04 #@! TF.SameCoordinates,63047707-2AD3-47D3-9D9A-8CE44674FD2A*
G04*
G04*
G04 #@! TF.FilePolarity,Positive*
G04*
G01*
G75*
%ADD11C,0.2000*%
%ADD55C,5.0800*%
%ADD56C,0.4500*%
%ADD57C,0.6000*%
G36*
X-155058Y203665D02*
X153796D01*
X153805Y203665D01*
X155058Y203665D01*
X156289Y203571D01*
X159386Y203328D01*
X163608Y202314D01*
X167619Y200653D01*
X170697Y198766D01*
X171715Y198019D01*
X171715Y198019D01*
X171715Y198019D01*
X178015Y193053D01*
X185829Y185829D01*
X193053Y178015D01*
X198019Y171715D01*
X198019Y171715D01*
X198019Y171715D01*
X198766Y170697D01*
X200653Y167619D01*
X202314Y163608D01*
X203328Y159386D01*
X203571Y156290D01*
X203665Y155058D01*
X203843Y154164D01*
X204002Y153927D01*
X204203Y153626D01*
Y-153626D01*
X203843Y-154164D01*
X203665Y-155058D01*
X203571Y-156290D01*
X203328Y-159386D01*
X202314Y-163608D01*
X200653Y-167619D01*
X198766Y-170697D01*
X198019Y-171715D01*
X198019Y-171715D01*
X198019Y-171715D01*
X193053Y-178015D01*
X185829Y-185829D01*
X178015Y-193053D01*
X171715Y-198019D01*
X171715Y-198019D01*
X171715Y-198019D01*
X170697Y-198766D01*
X167619Y-200653D01*
X163608Y-202314D01*
X159386Y-203328D01*
X156347Y-203567D01*
X155595Y-203417D01*
X-154520D01*
X-155414Y-203595D01*
X-155474Y-203636D01*
X-159386Y-203328D01*
X-163608Y-202314D01*
X-167619Y-200653D01*
X-170697Y-198766D01*
X-171715Y-198019D01*
X-171715Y-198019D01*
X-171715Y-198019D01*
X-178015Y-193053D01*
X-185829Y-185829D01*
X-193053Y-178015D01*
X-198019Y-171715D01*
X-198019Y-171715D01*
X-198019Y-171715D01*
X-198766Y-170697D01*
X-200653Y-167619D01*
X-202314Y-163608D01*
X-203328Y-159386D01*
X-203585Y-156121D01*
X-203305Y-155703D01*
X-203128Y-154810D01*
Y155306D01*
X-203305Y156199D01*
X-203550Y156565D01*
X-203328Y159386D01*
X-202314Y163608D01*
X-200653Y167619D01*
X-198766Y170697D01*
X-198019Y171715D01*
X-198019Y171715D01*
X-198019Y171715D01*
X-193053Y178015D01*
X-185829Y185829D01*
X-178015Y193053D01*
X-171715Y198019D01*
X-171715Y198019D01*
X-171715Y198019D01*
X-170697Y198766D01*
X-167619Y200653D01*
X-163608Y202314D01*
X-159386Y203328D01*
X-155069Y203667D01*
X-155058Y203665D01*
D02*
G37*
%LPC*%
G36*
X87413Y195278D02*
X85815D01*
X84339Y194667D01*
X83608Y193936D01*
X82804Y193671D01*
X82000Y193936D01*
X81269Y194667D01*
X79793Y195278D01*
X78195D01*
X76719Y194667D01*
X75988Y193936D01*
X75184Y193671D01*
X74380Y193936D01*
X73649Y194667D01*
X72173Y195278D01*
X70575D01*
X69099Y194667D01*
X67969Y193537D01*
X67358Y192061D01*
Y190463D01*
X67969Y188987D01*
X68700Y188256D01*
X68966Y187452D01*
X68700Y186648D01*
X67969Y185917D01*
X67358Y184441D01*
Y182843D01*
X67969Y181367D01*
X68700Y180636D01*
X68966Y179832D01*
X68700Y179028D01*
X67969Y178297D01*
X67358Y176821D01*
Y175223D01*
X67969Y173747D01*
X68700Y173016D01*
X68966Y172212D01*
X68700Y171408D01*
X67969Y170677D01*
X67358Y169201D01*
Y167603D01*
X67969Y166127D01*
X68700Y165396D01*
X68966Y164592D01*
X68700Y163788D01*
X67969Y163057D01*
X67358Y161581D01*
Y159983D01*
X67969Y158507D01*
X69099Y157377D01*
X70575Y156766D01*
X72173D01*
X73649Y157377D01*
X74380Y158108D01*
X75184Y158373D01*
X75988Y158108D01*
X76719Y157377D01*
X78195Y156766D01*
X79793D01*
X81269Y157377D01*
X82000Y158108D01*
X82804Y158373D01*
X83608Y158108D01*
X84339Y157377D01*
X85815Y156766D01*
X87413D01*
X88889Y157377D01*
X90019Y158507D01*
X90630Y159983D01*
Y161581D01*
X90019Y163057D01*
X89288Y163788D01*
X89023Y164592D01*
X89288Y165396D01*
X90019Y166127D01*
X90630Y167603D01*
Y169201D01*
X90019Y170677D01*
X89257Y171439D01*
X89044Y172287D01*
X89280Y173019D01*
X90074Y173814D01*
X90685Y175290D01*
Y176887D01*
X90074Y178363D01*
X89374Y179063D01*
X89057Y179829D01*
X89351Y180699D01*
X90019Y181367D01*
X90630Y182843D01*
Y184441D01*
X90019Y185917D01*
X89288Y186648D01*
X89023Y187452D01*
X89288Y188256D01*
X90019Y188987D01*
X90630Y190463D01*
Y192061D01*
X90019Y193537D01*
X88889Y194667D01*
X87413Y195278D01*
D02*
G37*
G36*
X-104798Y196852D02*
X-106097D01*
X-107298Y196354D01*
X-108216Y195436D01*
X-108714Y194235D01*
Y192936D01*
X-108216Y191735D01*
X-107298Y190817D01*
X-106097Y190320D01*
X-104798D01*
X-103597Y190817D01*
X-102679Y191735D01*
X-102182Y192936D01*
Y194235D01*
X-102679Y195436D01*
X-103597Y196354D01*
X-104798Y196852D01*
D02*
G37*
G36*
X-48731Y143970D02*
X-50329D01*
X-51805Y143359D01*
X-52536Y142628D01*
X-53340Y142362D01*
X-54144Y142628D01*
X-54875Y143359D01*
X-56351Y143970D01*
X-57949D01*
X-59425Y143359D01*
X-60555Y142229D01*
X-61166Y140753D01*
Y139155D01*
X-60555Y137679D01*
X-59528Y136652D01*
X-60555Y135625D01*
X-61166Y134149D01*
Y132551D01*
X-60555Y131075D01*
X-59425Y129945D01*
X-57949Y129334D01*
X-56351D01*
X-54875Y129945D01*
X-53745Y131075D01*
X-53646Y131314D01*
X-52272D01*
X-52173Y131075D01*
X-51043Y129945D01*
X-49567Y129334D01*
X-47969D01*
X-46493Y129945D01*
X-45363Y131075D01*
X-44752Y132551D01*
Y134149D01*
X-45363Y135625D01*
X-46493Y136755D01*
X-46585Y137219D01*
X-46125Y137679D01*
X-45514Y139155D01*
Y140753D01*
X-46125Y142229D01*
X-47255Y143359D01*
X-48731Y143970D01*
D02*
G37*
G36*
X4609D02*
X3011D01*
X1535Y143359D01*
X405Y142229D01*
X-206Y140753D01*
Y139155D01*
X405Y137679D01*
X1136Y136948D01*
X1401Y136144D01*
X1136Y135340D01*
X405Y134609D01*
X-206Y133133D01*
Y131535D01*
X405Y130059D01*
X1535Y128929D01*
X3011Y128318D01*
X4609D01*
X6085Y128929D01*
X6816Y129660D01*
X7620Y129925D01*
X8424Y129660D01*
X9155Y128929D01*
X10631Y128318D01*
X12229D01*
X13705Y128929D01*
X14835Y130059D01*
X15446Y131535D01*
Y133133D01*
X14835Y134609D01*
X14234Y135209D01*
X14081Y136853D01*
X14087Y136859D01*
X14699Y138335D01*
Y139932D01*
X14087Y141409D01*
X12958Y142538D01*
X11481Y143150D01*
X9884D01*
X8408Y142538D01*
X8371Y142502D01*
X6758Y142685D01*
X6085Y143359D01*
X4609Y143970D01*
D02*
G37*
G36*
X50133Y120960D02*
X48535D01*
X47059Y120348D01*
X45930Y119218D01*
X45318Y117742D01*
Y116145D01*
X45930Y114669D01*
X47059Y113539D01*
X46961Y112205D01*
X46747Y112117D01*
X45617Y110987D01*
X45006Y109511D01*
Y107913D01*
X45617Y106437D01*
X46747Y105307D01*
X46807Y105283D01*
X46911Y104587D01*
X46887Y103875D01*
X45871Y102859D01*
X45260Y101383D01*
Y99785D01*
X45871Y98309D01*
X47001Y97179D01*
X48477Y96568D01*
X50075D01*
X51551Y97179D01*
X52681Y98309D01*
X53292Y99785D01*
Y101383D01*
X52681Y102859D01*
X51551Y103989D01*
X51491Y104013D01*
X51387Y104709D01*
X51411Y105421D01*
X52427Y106437D01*
X53038Y107913D01*
Y109511D01*
X52427Y110987D01*
X51297Y112117D01*
X51396Y113450D01*
X51609Y113539D01*
X52739Y114669D01*
X53350Y116145D01*
Y117742D01*
X52739Y119218D01*
X51609Y120348D01*
X50133Y120960D01*
D02*
G37*
G36*
X11721Y118570D02*
X10123D01*
X8647Y117959D01*
X7517Y116829D01*
X6906Y115353D01*
Y113755D01*
X7517Y112279D01*
X8248Y111548D01*
X8514Y110744D01*
X8248Y109940D01*
X7517Y109209D01*
X6906Y107733D01*
Y106135D01*
X7517Y104659D01*
X8248Y103928D01*
X8514Y103124D01*
X8248Y102320D01*
X7517Y101589D01*
X6906Y100113D01*
Y98515D01*
X7517Y97039D01*
X8647Y95909D01*
X10123Y95298D01*
X11721D01*
X13197Y95909D01*
X14327Y97039D01*
X14938Y98515D01*
Y100113D01*
X14327Y101589D01*
X13596Y102320D01*
X13331Y103124D01*
X13596Y103928D01*
X14327Y104659D01*
X14938Y106135D01*
Y107733D01*
X14327Y109209D01*
X13596Y109940D01*
X13331Y110744D01*
X13596Y111548D01*
X14327Y112279D01*
X14938Y113755D01*
Y115353D01*
X14327Y116829D01*
X13197Y117959D01*
X11721Y118570D01*
D02*
G37*
G36*
X-9869D02*
X-11467D01*
X-12943Y117959D01*
X-14073Y116829D01*
X-14684Y115353D01*
Y113755D01*
X-14073Y112279D01*
X-13342Y111548D01*
X-13076Y110744D01*
X-13342Y109940D01*
X-14073Y109209D01*
X-14684Y107733D01*
Y106135D01*
X-14073Y104659D01*
X-13342Y103928D01*
X-13076Y103124D01*
X-13342Y102320D01*
X-14073Y101589D01*
X-14684Y100113D01*
Y98515D01*
X-14073Y97039D01*
X-12943Y95909D01*
X-11467Y95298D01*
X-9869D01*
X-8393Y95909D01*
X-7263Y97039D01*
X-6652Y98515D01*
Y100113D01*
X-7263Y101589D01*
X-7994Y102320D01*
X-8260Y103124D01*
X-7994Y103928D01*
X-7263Y104659D01*
X-6652Y106135D01*
Y107733D01*
X-7263Y109209D01*
X-7994Y109940D01*
X-8260Y110744D01*
X-7994Y111548D01*
X-7263Y112279D01*
X-6652Y113755D01*
Y115353D01*
X-7263Y116829D01*
X-8393Y117959D01*
X-9869Y118570D01*
D02*
G37*
G36*
X-46699Y115776D02*
X-48297D01*
X-49773Y115165D01*
X-50903Y114035D01*
X-51514Y112559D01*
Y110961D01*
X-50903Y109485D01*
X-50186Y108768D01*
X-49932Y107916D01*
X-50205Y107160D01*
X-50951Y106415D01*
X-51562Y104939D01*
Y103341D01*
X-50951Y101865D01*
X-50220Y101134D01*
X-49955Y100330D01*
X-50220Y99526D01*
X-50951Y98795D01*
X-51562Y97319D01*
Y95721D01*
X-50951Y94245D01*
X-49821Y93115D01*
X-48345Y92504D01*
X-46747D01*
X-45271Y93115D01*
X-44141Y94245D01*
X-43530Y95721D01*
Y97319D01*
X-44141Y98795D01*
X-44872Y99526D01*
X-45138Y100330D01*
X-44872Y101134D01*
X-44141Y101865D01*
X-43530Y103341D01*
Y104939D01*
X-44141Y106415D01*
X-44858Y107132D01*
X-45112Y107984D01*
X-44839Y108740D01*
X-44093Y109485D01*
X-43482Y110961D01*
Y112559D01*
X-44093Y114035D01*
X-45223Y115165D01*
X-46699Y115776D01*
D02*
G37*
G36*
X37480Y82224D02*
X36180D01*
X34980Y81727D01*
X34061Y80808D01*
X33564Y79608D01*
Y78308D01*
X34061Y77108D01*
X34980Y76189D01*
X36180Y75692D01*
X37480D01*
X38680Y76189D01*
X39599Y77108D01*
X40096Y78308D01*
Y79608D01*
X39599Y80808D01*
X38680Y81727D01*
X37480Y82224D01*
D02*
G37*
G36*
X24780D02*
X23480D01*
X22280Y81727D01*
X21361Y80808D01*
X20864Y79608D01*
Y78308D01*
X21361Y77108D01*
X22280Y76189D01*
X23480Y75692D01*
X24780D01*
X25980Y76189D01*
X26899Y77108D01*
X27396Y78308D01*
Y79608D01*
X26899Y80808D01*
X25980Y81727D01*
X24780Y82224D01*
D02*
G37*
G36*
X-23770Y82106D02*
X-25070D01*
X-26270Y81609D01*
X-27189Y80690D01*
X-27686Y79490D01*
Y78190D01*
X-27189Y76990D01*
X-26270Y76071D01*
X-25070Y75574D01*
X-23770D01*
X-22570Y76071D01*
X-21651Y76990D01*
X-21154Y78190D01*
Y79490D01*
X-21651Y80690D01*
X-22570Y81609D01*
X-23770Y82106D01*
D02*
G37*
G36*
X-36180Y82006D02*
X-37480D01*
X-38680Y81509D01*
X-39599Y80590D01*
X-40096Y79390D01*
Y78090D01*
X-39599Y76890D01*
X-38680Y75971D01*
X-37480Y75474D01*
X-36180D01*
X-34980Y75971D01*
X-34061Y76890D01*
X-33564Y78090D01*
Y79390D01*
X-34061Y80590D01*
X-34980Y81509D01*
X-36180Y82006D01*
D02*
G37*
G36*
X-137526Y22824D02*
X-138826D01*
X-140026Y22327D01*
X-140945Y21408D01*
X-141442Y20208D01*
Y18908D01*
X-140945Y17708D01*
X-140026Y16789D01*
X-138826Y16292D01*
X-137526D01*
X-136326Y16789D01*
X-135407Y17708D01*
X-134910Y18908D01*
Y20208D01*
X-135407Y21408D01*
X-136326Y22327D01*
X-137526Y22824D01*
D02*
G37*
G36*
X28082Y22316D02*
X26782D01*
X25582Y21819D01*
X24663Y20900D01*
X24166Y19700D01*
Y18400D01*
X24663Y17200D01*
X25582Y16281D01*
X26782Y15784D01*
X28082D01*
X29282Y16281D01*
X30201Y17200D01*
X30698Y18400D01*
Y19700D01*
X30201Y20900D01*
X29282Y21819D01*
X28082Y22316D01*
D02*
G37*
G36*
X-112126Y19014D02*
X-113426D01*
X-114626Y18517D01*
X-115545Y17598D01*
X-116042Y16398D01*
Y15098D01*
X-115545Y13898D01*
X-114626Y12979D01*
X-113426Y12482D01*
X-112126D01*
X-110926Y12979D01*
X-110007Y13898D01*
X-109510Y15098D01*
Y16398D01*
X-110007Y17598D01*
X-110926Y18517D01*
X-112126Y19014D01*
D02*
G37*
G36*
X22860Y25400D02*
X-22860D01*
Y8392D01*
X-24130Y8139D01*
X-24155Y8200D01*
X-25074Y9119D01*
X-26274Y9616D01*
X-27574D01*
X-28774Y9119D01*
X-29693Y8200D01*
X-30190Y7000D01*
Y5700D01*
X-29693Y4500D01*
X-28774Y3581D01*
X-27574Y3084D01*
X-26274D01*
X-25074Y3581D01*
X-24155Y4500D01*
X-24130Y4561D01*
X-22860Y4308D01*
Y-25400D01*
X22860D01*
Y25400D01*
D02*
G37*
G36*
X-125933Y14442D02*
X-127233D01*
X-128433Y13945D01*
X-129352Y13026D01*
X-129849Y11826D01*
Y10526D01*
X-129352Y9326D01*
X-128433Y8407D01*
X-127233Y7910D01*
X-125933D01*
X-124733Y8407D01*
X-123814Y9326D01*
X-123317Y10526D01*
Y11826D01*
X-123814Y13026D01*
X-124733Y13945D01*
X-125933Y14442D01*
D02*
G37*
G36*
X-190358Y13934D02*
X-191658D01*
X-192858Y13437D01*
X-193777Y12518D01*
X-194274Y11318D01*
Y10018D01*
X-193777Y8818D01*
X-192858Y7899D01*
X-191658Y7402D01*
X-190358D01*
X-189158Y7899D01*
X-188239Y8818D01*
X-187742Y10018D01*
Y11318D01*
X-188239Y12518D01*
X-189158Y13437D01*
X-190358Y13934D01*
D02*
G37*
G36*
X60340Y28920D02*
X59040D01*
X57840Y28423D01*
X56921Y27504D01*
X56424Y26304D01*
Y25004D01*
X56921Y23804D01*
X57840Y22885D01*
X59040Y22388D01*
X60340D01*
X61540Y22885D01*
X62249Y23594D01*
X167803D01*
X182154Y9243D01*
Y8240D01*
X182651Y7040D01*
X183570Y6121D01*
X184770Y5624D01*
X186070D01*
X187270Y6121D01*
X188189Y7040D01*
X188686Y8240D01*
Y9540D01*
X188189Y10740D01*
X187270Y11659D01*
X186070Y12156D01*
X185067D01*
X170112Y27110D01*
X169444Y27557D01*
X168656Y27714D01*
X62249D01*
X61540Y28423D01*
X60340Y28920D01*
D02*
G37*
G36*
X-144130Y11140D02*
X-145430D01*
X-146630Y10643D01*
X-147549Y9724D01*
X-148046Y8524D01*
Y7224D01*
X-147549Y6024D01*
X-146630Y5105D01*
X-145430Y4608D01*
X-144130D01*
X-142930Y5105D01*
X-142011Y6024D01*
X-141514Y7224D01*
Y8524D01*
X-142011Y9724D01*
X-142930Y10643D01*
X-144130Y11140D01*
D02*
G37*
G36*
X-131593Y4938D02*
X-132893D01*
X-134093Y4441D01*
X-135012Y3522D01*
X-135509Y2322D01*
Y1022D01*
X-135012Y-178D01*
X-134093Y-1097D01*
X-132893Y-1594D01*
X-131593D01*
X-130393Y-1097D01*
X-129474Y-178D01*
X-128977Y1022D01*
Y2322D01*
X-129474Y3522D01*
X-130393Y4441D01*
X-131593Y4938D01*
D02*
G37*
G36*
X-175880Y472D02*
X-177180D01*
X-178380Y-25D01*
X-179299Y-944D01*
X-179796Y-2144D01*
Y-3444D01*
X-179299Y-4644D01*
X-178380Y-5563D01*
X-177180Y-6060D01*
X-175880D01*
X-174680Y-5563D01*
X-173761Y-4644D01*
X-173264Y-3444D01*
Y-2144D01*
X-173761Y-944D01*
X-174680Y-25D01*
X-175880Y472D01*
D02*
G37*
G36*
X66182Y22316D02*
X64882D01*
X63682Y21819D01*
X62763Y20900D01*
X62266Y19700D01*
Y18400D01*
X62763Y17200D01*
X63682Y16281D01*
X64882Y15784D01*
X66182D01*
X67382Y16281D01*
X68091Y16990D01*
X159167D01*
X181138Y-4981D01*
Y-5984D01*
X181635Y-7184D01*
X182554Y-8103D01*
X183754Y-8600D01*
X185054D01*
X186254Y-8103D01*
X187173Y-7184D01*
X187670Y-5984D01*
Y-4684D01*
X187173Y-3484D01*
X186254Y-2565D01*
X185054Y-2068D01*
X184051D01*
X161476Y20506D01*
X160808Y20953D01*
X160020Y21110D01*
X68091D01*
X67382Y21819D01*
X66182Y22316D01*
D02*
G37*
G36*
X-45832Y-7402D02*
X-47132D01*
X-48332Y-7899D01*
X-49251Y-8818D01*
X-49748Y-10018D01*
Y-11318D01*
X-49251Y-12518D01*
X-48332Y-13437D01*
X-47132Y-13934D01*
X-45832D01*
X-44632Y-13437D01*
X-43713Y-12518D01*
X-43216Y-11318D01*
Y-10018D01*
X-43713Y-8818D01*
X-44632Y-7899D01*
X-45832Y-7402D01*
D02*
G37*
G36*
X-28306Y-15784D02*
X-29606D01*
X-30806Y-16281D01*
X-31725Y-17200D01*
X-32222Y-18400D01*
Y-19700D01*
X-31725Y-20900D01*
X-30806Y-21819D01*
X-29606Y-22316D01*
X-28306D01*
X-27106Y-21819D01*
X-26187Y-20900D01*
X-25690Y-19700D01*
Y-18400D01*
X-26187Y-17200D01*
X-27106Y-16281D01*
X-28306Y-15784D01*
D02*
G37*
G36*
X-89774Y-17852D02*
X-91074D01*
X-92274Y-18349D01*
X-93193Y-19268D01*
X-93690Y-20468D01*
Y-21768D01*
X-93193Y-22968D01*
X-92274Y-23887D01*
X-91074Y-24384D01*
X-89774D01*
X-88574Y-23887D01*
X-87655Y-22968D01*
X-87158Y-21768D01*
Y-20468D01*
X-87655Y-19268D01*
X-88574Y-18349D01*
X-89774Y-17852D01*
D02*
G37*
G36*
X-80122Y-27976D02*
X-81422D01*
X-82622Y-28473D01*
X-83541Y-29392D01*
X-84038Y-30592D01*
Y-31892D01*
X-83541Y-33092D01*
X-82622Y-34011D01*
X-81422Y-34508D01*
X-80122D01*
X-78922Y-34011D01*
X-78003Y-33092D01*
X-77506Y-31892D01*
Y-30592D01*
X-78003Y-29392D01*
X-78922Y-28473D01*
X-80122Y-27976D01*
D02*
G37*
G36*
X-118730Y-34299D02*
X-120030D01*
X-121230Y-34797D01*
X-122149Y-35715D01*
X-122646Y-36916D01*
Y-38215D01*
X-122149Y-39415D01*
X-121230Y-40334D01*
X-120030Y-40831D01*
X-118730D01*
X-117530Y-40334D01*
X-116611Y-39415D01*
X-116114Y-38215D01*
Y-36916D01*
X-116611Y-35715D01*
X-117530Y-34797D01*
X-118730Y-34299D01*
D02*
G37*
G36*
X38750Y-36104D02*
X37450D01*
X36250Y-36601D01*
X35331Y-37520D01*
X34834Y-38720D01*
Y-40020D01*
X35331Y-41220D01*
X36250Y-42139D01*
X37450Y-42636D01*
X38750D01*
X39950Y-42139D01*
X40869Y-41220D01*
X41366Y-40020D01*
Y-38720D01*
X40869Y-37520D01*
X39950Y-36601D01*
X38750Y-36104D01*
D02*
G37*
G36*
X47894Y-36358D02*
X46594D01*
X45394Y-36855D01*
X44475Y-37774D01*
X43978Y-38974D01*
Y-40274D01*
X44475Y-41474D01*
X45394Y-42393D01*
X46594Y-42890D01*
X47404D01*
X48232Y-43869D01*
X48296Y-44054D01*
Y-45354D01*
X48793Y-46554D01*
X49712Y-47473D01*
X50912Y-47970D01*
X52212D01*
X53412Y-47473D01*
X54331Y-46554D01*
X54828Y-45354D01*
Y-44054D01*
X54331Y-42854D01*
X53412Y-41935D01*
X52212Y-41438D01*
X51402D01*
X50574Y-40459D01*
X50510Y-40274D01*
Y-38974D01*
X50013Y-37774D01*
X49094Y-36855D01*
X47894Y-36358D01*
D02*
G37*
G36*
X-164156Y-41478D02*
X-165456D01*
X-166656Y-41975D01*
X-167575Y-42894D01*
X-168072Y-44094D01*
Y-45394D01*
X-167575Y-46594D01*
X-166656Y-47513D01*
X-165456Y-48010D01*
X-164156D01*
X-162956Y-47513D01*
X-162037Y-46594D01*
X-161540Y-45394D01*
Y-44094D01*
X-162037Y-42894D01*
X-162956Y-41975D01*
X-164156Y-41478D01*
D02*
G37*
G36*
X-123084Y-41624D02*
X-124384D01*
X-125584Y-42121D01*
X-126503Y-43040D01*
X-127000Y-44240D01*
Y-45539D01*
X-126503Y-46740D01*
X-125584Y-47658D01*
X-124384Y-48156D01*
X-123084D01*
X-121884Y-47658D01*
X-120965Y-46740D01*
X-120468Y-45539D01*
Y-44240D01*
X-120965Y-43040D01*
X-121884Y-42121D01*
X-123084Y-41624D01*
D02*
G37*
G36*
X59832Y-52614D02*
X58532D01*
X57332Y-53111D01*
X56413Y-54030D01*
X55916Y-55230D01*
Y-56530D01*
X56413Y-57730D01*
X57332Y-58649D01*
X58532Y-59146D01*
X59832D01*
X61032Y-58649D01*
X61951Y-57730D01*
X62448Y-56530D01*
Y-55230D01*
X61951Y-54030D01*
X61032Y-53111D01*
X59832Y-52614D01*
D02*
G37*
G36*
X51958D02*
X50658D01*
X49458Y-53111D01*
X48539Y-54030D01*
X48042Y-55230D01*
Y-56530D01*
X48539Y-57730D01*
X49458Y-58649D01*
X50658Y-59146D01*
X51958D01*
X53158Y-58649D01*
X54077Y-57730D01*
X54574Y-56530D01*
Y-55230D01*
X54077Y-54030D01*
X53158Y-53111D01*
X51958Y-52614D01*
D02*
G37*
G36*
X-91044Y-58202D02*
X-92344D01*
X-93544Y-58699D01*
X-94463Y-59618D01*
X-94960Y-60818D01*
Y-62118D01*
X-94463Y-63318D01*
X-93544Y-64237D01*
X-92344Y-64734D01*
X-91044D01*
X-89844Y-64237D01*
X-88925Y-63318D01*
X-88428Y-62118D01*
Y-60818D01*
X-88925Y-59618D01*
X-89844Y-58699D01*
X-91044Y-58202D01*
D02*
G37*
G36*
X-99426Y-62520D02*
X-100726D01*
X-101926Y-63017D01*
X-102845Y-63936D01*
X-103342Y-65136D01*
Y-66436D01*
X-102845Y-67636D01*
X-101926Y-68555D01*
X-100726Y-69052D01*
X-99426D01*
X-98226Y-68555D01*
X-97307Y-67636D01*
X-96810Y-66436D01*
Y-65136D01*
X-97307Y-63936D01*
X-98226Y-63017D01*
X-99426Y-62520D01*
D02*
G37*
G36*
X-140828Y-65568D02*
X-142128D01*
X-143328Y-66065D01*
X-144247Y-66984D01*
X-144744Y-68184D01*
Y-69484D01*
X-144247Y-70684D01*
X-143328Y-71603D01*
X-142128Y-72100D01*
X-140828D01*
X-139628Y-71603D01*
X-138709Y-70684D01*
X-138212Y-69484D01*
Y-68184D01*
X-138709Y-66984D01*
X-139628Y-66065D01*
X-140828Y-65568D01*
D02*
G37*
G36*
X-103400Y-71664D02*
X-104700D01*
X-105900Y-72161D01*
X-106819Y-73080D01*
X-107316Y-74280D01*
Y-75580D01*
X-106819Y-76780D01*
X-105900Y-77699D01*
X-104700Y-78196D01*
X-103400D01*
X-102200Y-77699D01*
X-101281Y-76780D01*
X-100784Y-75580D01*
Y-74280D01*
X-101281Y-73080D01*
X-102200Y-72161D01*
X-103400Y-71664D01*
D02*
G37*
G36*
X-130160Y-76998D02*
X-131460D01*
X-132660Y-77495D01*
X-133579Y-78414D01*
X-134076Y-79614D01*
Y-80914D01*
X-133579Y-82114D01*
X-132660Y-83033D01*
X-131460Y-83530D01*
X-130160D01*
X-128960Y-83033D01*
X-128041Y-82114D01*
X-127544Y-80914D01*
Y-79614D01*
X-128041Y-78414D01*
X-128960Y-77495D01*
X-130160Y-76998D01*
D02*
G37*
G36*
X-85202Y-77760D02*
X-86502D01*
X-87702Y-78257D01*
X-88621Y-79176D01*
X-89118Y-80376D01*
Y-81676D01*
X-88621Y-82876D01*
X-87702Y-83795D01*
X-86502Y-84292D01*
X-85202D01*
X-84002Y-83795D01*
X-83083Y-82876D01*
X-82586Y-81676D01*
Y-80376D01*
X-83083Y-79176D01*
X-84002Y-78257D01*
X-85202Y-77760D01*
D02*
G37*
G36*
X1260Y-81926D02*
X-40D01*
X-1240Y-82423D01*
X-2159Y-83342D01*
X-2656Y-84542D01*
Y-85842D01*
X-2159Y-87042D01*
X-1240Y-87961D01*
X-1227Y-88062D01*
X-1243Y-89334D01*
X-2007Y-90098D01*
X-2504Y-91298D01*
Y-92598D01*
X-2007Y-93798D01*
X-1088Y-94717D01*
X112Y-95214D01*
X1412D01*
X2612Y-94717D01*
X3531Y-93798D01*
X4028Y-92598D01*
Y-91298D01*
X3531Y-90098D01*
X2612Y-89179D01*
X2599Y-89078D01*
X2615Y-87806D01*
X3379Y-87042D01*
X3876Y-85842D01*
Y-84542D01*
X3379Y-83342D01*
X2460Y-82423D01*
X1260Y-81926D01*
D02*
G37*
G36*
X-184516Y-94016D02*
X-185816D01*
X-187016Y-94513D01*
X-187935Y-95432D01*
X-188432Y-96632D01*
Y-97932D01*
X-187935Y-99132D01*
X-187016Y-100051D01*
X-185816Y-100548D01*
X-184516D01*
X-183316Y-100051D01*
X-182397Y-99132D01*
X-181900Y-97932D01*
Y-96632D01*
X-182397Y-95432D01*
X-183316Y-94513D01*
X-184516Y-94016D01*
D02*
G37*
G36*
X1412Y-96556D02*
X112D01*
X-1088Y-97053D01*
X-2007Y-97972D01*
X-2504Y-99172D01*
Y-100472D01*
X-2007Y-101672D01*
X-1088Y-102591D01*
X112Y-103088D01*
X1412D01*
X2612Y-102591D01*
X3531Y-101672D01*
X4028Y-100472D01*
Y-99172D01*
X3531Y-97972D01*
X2612Y-97053D01*
X1412Y-96556D01*
D02*
G37*
G36*
X-110348Y-102144D02*
X-111648D01*
X-112848Y-102641D01*
X-113767Y-103560D01*
X-114264Y-104760D01*
Y-106060D01*
X-113767Y-107260D01*
X-112848Y-108179D01*
X-111648Y-108676D01*
X-110348D01*
X-109148Y-108179D01*
X-108229Y-107260D01*
X-107732Y-106060D01*
Y-104760D01*
X-108229Y-103560D01*
X-109148Y-102641D01*
X-110348Y-102144D01*
D02*
G37*
G36*
X-140828Y-106970D02*
X-142128D01*
X-143328Y-107467D01*
X-144247Y-108386D01*
X-144744Y-109586D01*
Y-110886D01*
X-144247Y-112086D01*
X-143328Y-113005D01*
X-142128Y-113502D01*
X-140828D01*
X-139628Y-113005D01*
X-138709Y-112086D01*
X-138212Y-110886D01*
Y-109586D01*
X-138709Y-108386D01*
X-139628Y-107467D01*
X-140828Y-106970D01*
D02*
G37*
G36*
X57038Y-103668D02*
X55738D01*
X54538Y-104165D01*
X53619Y-105084D01*
X53122Y-106284D01*
Y-106993D01*
X52232Y-107870D01*
X51949Y-107961D01*
X50840D01*
X49640Y-108458D01*
X48721Y-109377D01*
X48224Y-110577D01*
Y-111876D01*
X48721Y-113077D01*
X49640Y-113996D01*
X50840Y-114493D01*
X52140D01*
X53340Y-113996D01*
X54259Y-113077D01*
X54756Y-111876D01*
Y-111168D01*
X55646Y-110291D01*
X55929Y-110200D01*
X57038D01*
X58238Y-109703D01*
X59157Y-108784D01*
X59654Y-107584D01*
Y-106284D01*
X59157Y-105084D01*
X58238Y-104165D01*
X57038Y-103668D01*
D02*
G37*
G36*
X-102728Y-108240D02*
X-104028D01*
X-105228Y-108737D01*
X-106147Y-109656D01*
X-106644Y-110856D01*
Y-112156D01*
X-106147Y-113356D01*
X-105228Y-114275D01*
X-104028Y-114772D01*
X-102728D01*
X-101528Y-114275D01*
X-100609Y-113356D01*
X-100112Y-112156D01*
Y-110856D01*
X-100609Y-109656D01*
X-101528Y-108737D01*
X-102728Y-108240D01*
D02*
G37*
G36*
X-27290Y-107986D02*
X-28590D01*
X-29790Y-108483D01*
X-30709Y-109402D01*
X-31206Y-110602D01*
Y-111902D01*
X-30981Y-112445D01*
X-31187Y-112843D01*
X-31887Y-113577D01*
X-32867D01*
X-34068Y-114074D01*
X-34987Y-114993D01*
X-35484Y-116193D01*
Y-117493D01*
X-34987Y-118693D01*
X-34068Y-119612D01*
X-32867Y-120109D01*
X-31568D01*
X-30368Y-119612D01*
X-29449Y-118693D01*
X-28952Y-117493D01*
Y-116193D01*
X-29177Y-115649D01*
X-28970Y-115252D01*
X-28271Y-114518D01*
X-27290D01*
X-26090Y-114021D01*
X-25171Y-113102D01*
X-24674Y-111902D01*
Y-110602D01*
X-25171Y-109402D01*
X-26090Y-108483D01*
X-27290Y-107986D01*
D02*
G37*
G36*
X81847Y-157820D02*
X80250D01*
X78774Y-158432D01*
X78042Y-159163D01*
X77238Y-159428D01*
X76434Y-159163D01*
X75703Y-158432D01*
X74227Y-157820D01*
X72630D01*
X71154Y-158432D01*
X70423Y-159163D01*
X69618Y-159428D01*
X68814Y-159163D01*
X68083Y-158432D01*
X66607Y-157820D01*
X65010D01*
X63534Y-158432D01*
X62404Y-159561D01*
X61792Y-161037D01*
Y-162635D01*
X62404Y-164111D01*
X63281Y-164988D01*
X63423Y-165776D01*
X63272Y-166507D01*
X62381Y-167397D01*
X61770Y-168873D01*
Y-170471D01*
X62381Y-171947D01*
X63112Y-172678D01*
X63377Y-173482D01*
X63112Y-174286D01*
X62381Y-175017D01*
X61770Y-176493D01*
Y-178091D01*
X62381Y-179567D01*
X63112Y-180298D01*
X63377Y-181102D01*
X63112Y-181906D01*
X62381Y-182637D01*
X61770Y-184113D01*
Y-185711D01*
X62381Y-187187D01*
X63112Y-187918D01*
X63377Y-188722D01*
X63112Y-189526D01*
X62381Y-190257D01*
X61770Y-191733D01*
Y-193331D01*
X62381Y-194807D01*
X63511Y-195937D01*
X64987Y-196548D01*
X66585D01*
X68061Y-195937D01*
X68792Y-195206D01*
X69596Y-194940D01*
X70400Y-195206D01*
X71131Y-195937D01*
X72607Y-196548D01*
X74205D01*
X75681Y-195937D01*
X76412Y-195206D01*
X77216Y-194940D01*
X78020Y-195206D01*
X78751Y-195937D01*
X80227Y-196548D01*
X81825D01*
X83301Y-195937D01*
X84431Y-194807D01*
X85042Y-193331D01*
Y-191733D01*
X84431Y-190257D01*
X83700Y-189526D01*
X83434Y-188722D01*
X83700Y-187918D01*
X84431Y-187187D01*
X85042Y-185711D01*
Y-184113D01*
X84431Y-182637D01*
X83700Y-181906D01*
X83434Y-181102D01*
X83700Y-180298D01*
X84431Y-179567D01*
X85042Y-178091D01*
Y-176493D01*
X84431Y-175017D01*
X83700Y-174286D01*
X83434Y-173482D01*
X83700Y-172678D01*
X84431Y-171947D01*
X85042Y-170471D01*
Y-168873D01*
X84431Y-167397D01*
X83553Y-166520D01*
X83412Y-165732D01*
X83563Y-165001D01*
X84453Y-164111D01*
X85064Y-162635D01*
Y-161037D01*
X84453Y-159561D01*
X83323Y-158432D01*
X81847Y-157820D01*
D02*
G37*
G36*
X15836Y-155628D02*
X14537D01*
X13336Y-156126D01*
X12418Y-157044D01*
X11920Y-158245D01*
Y-159544D01*
X12418Y-160744D01*
X13336Y-161663D01*
X14537Y-162160D01*
X15836D01*
X17036Y-161663D01*
X17955Y-160744D01*
X18452Y-159544D01*
Y-158245D01*
X17955Y-157044D01*
X17036Y-156126D01*
X15836Y-155628D01*
D02*
G37*
G36*
X26250Y-155883D02*
X24951D01*
X23750Y-156380D01*
X22831Y-157298D01*
X22334Y-158499D01*
Y-159798D01*
X22831Y-160998D01*
X23750Y-161917D01*
X24951Y-162414D01*
X26250D01*
X27450Y-161917D01*
X28369Y-160998D01*
X28866Y-159798D01*
Y-158499D01*
X28369Y-157298D01*
X27450Y-156380D01*
X26250Y-155883D01*
D02*
G37*
G36*
X-104544Y-190499D02*
X-105843D01*
X-107044Y-190996D01*
X-107962Y-191914D01*
X-108460Y-193115D01*
Y-194414D01*
X-107962Y-195614D01*
X-107044Y-196533D01*
X-105843Y-197030D01*
X-104544D01*
X-103343Y-196533D01*
X-102425Y-195614D01*
X-101928Y-194414D01*
Y-193115D01*
X-102425Y-191914D01*
X-103343Y-190996D01*
X-104544Y-190499D01*
D02*
G37*
%LPD*%
D11*
X65532Y19050D02*
X160020D01*
X184404Y-5334D01*
X59690Y25654D02*
X168656D01*
X185420Y8890D01*
D55*
X-155000Y-155000D02*
D03*
X155000D02*
D03*
Y155000D02*
D03*
X-155000D02*
D03*
D56*
X-127762Y57912D02*
D03*
X-144684Y24559D02*
D03*
X-169164Y-14478D02*
D03*
X-167894Y18796D02*
D03*
X44704Y-137629D02*
D03*
X-30378Y-67243D02*
D03*
X-196850Y-63754D02*
D03*
X-9144Y-90932D02*
D03*
X-8890Y-99822D02*
D03*
X-34290Y23928D02*
D03*
X-27940D02*
D03*
X13970Y-53340D02*
D03*
X44196Y-70866D02*
D03*
X65532Y19050D02*
D03*
X59690Y25654D02*
D03*
X-29210Y-126746D02*
D03*
X61214Y-39624D02*
D03*
Y-22860D02*
D03*
X19558Y-104902D02*
D03*
X26162D02*
D03*
X30480Y-70612D02*
D03*
X37592Y-70866D02*
D03*
X-12954Y-56134D02*
D03*
Y-49784D02*
D03*
X61214Y-31496D02*
D03*
X184404Y-5334D02*
D03*
X-84836Y-143510D02*
D03*
X-30480Y-74422D02*
D03*
X-137160Y-41656D02*
D03*
X21590Y-61214D02*
D03*
X13970D02*
D03*
X185420Y8890D02*
D03*
X-196596Y-55118D02*
D03*
X-177546Y-116586D02*
D03*
X-186690Y-88900D02*
D03*
X-194818Y-89154D02*
D03*
X-118872Y57658D02*
D03*
X-137160Y57404D02*
D03*
X-81280Y12700D02*
D03*
X-81534Y4318D02*
D03*
X-98806Y-133604D02*
D03*
X37846Y-31496D02*
D03*
X45466D02*
D03*
X53340D02*
D03*
X-34290Y13970D02*
D03*
X-27940D02*
D03*
X21590Y-53340D02*
D03*
X-29210Y-133858D02*
D03*
X-137160Y-49784D02*
D03*
X-133350Y-116332D02*
D03*
X-133096Y-109474D02*
D03*
D57*
X-105474Y-41063D02*
D03*
Y-34036D02*
D03*
X-98298Y-48514D02*
D03*
X-90424Y-48260D02*
D03*
X-38100Y116840D02*
D03*
X67564Y96266D02*
D03*
X-37582Y109220D02*
D03*
X762Y74168D02*
D03*
X73914Y77978D02*
D03*
Y87376D02*
D03*
X64516D02*
D03*
X64262Y78232D02*
D03*
X762Y83058D02*
D03*
X-22863Y116835D02*
D03*
X-47546Y40640D02*
D03*
X-38100Y101600D02*
D03*
X-105664Y-48006D02*
D03*
X-90424Y-34036D02*
D03*
X-98044D02*
D03*
X-98056Y-40894D02*
D03*
X-90319D02*
D03*
X-82097Y162239D02*
D03*
X177800Y30480D02*
D03*
Y-45720D02*
D03*
Y-38100D02*
D03*
Y45720D02*
D03*
Y-30480D02*
D03*
Y38100D02*
D03*
X-82097Y185100D02*
D03*
X-74477Y169860D02*
D03*
X-66857Y177479D02*
D03*
X-82097D02*
D03*
X-74477Y185100D02*
D03*
X-82097Y192719D02*
D03*
X-74477Y177479D02*
D03*
X-66857Y185100D02*
D03*
Y192719D02*
D03*
Y162239D02*
D03*
Y169860D02*
D03*
X-74477Y162239D02*
D03*
X-82097Y169860D02*
D03*
X-74477Y192719D02*
D03*
X-76001Y-160340D02*
D03*
X-83621Y-183200D02*
D03*
X-76001Y-190821D02*
D03*
X-68381Y-183200D02*
D03*
Y-190821D02*
D03*
X-83621D02*
D03*
X-68381Y-160340D02*
D03*
Y-167960D02*
D03*
X-76001Y-175581D02*
D03*
X-83621Y-160340D02*
D03*
X-76001Y-167960D02*
D03*
X-83621Y-175581D02*
D03*
X-68381D02*
D03*
X-76001Y-183200D02*
D03*
X-83621Y-167960D02*
D03*
X66040Y40640D02*
D03*
X58420D02*
D03*
X50800D02*
D03*
X43180D02*
D03*
X35560D02*
D03*
X27940D02*
D03*
X20320D02*
D03*
X12700D02*
D03*
X5080D02*
D03*
X-2540D02*
D03*
X-10160D02*
D03*
X-17780D02*
D03*
X-25400D02*
D03*
X-33020D02*
D03*
X-40640D02*
D03*
X185420Y-38100D02*
D03*
X193040D02*
D03*
X185420Y-30480D02*
D03*
X193040D02*
D03*
X185420Y-45720D02*
D03*
X193040D02*
D03*
X185420Y38100D02*
D03*
Y30480D02*
D03*
Y45720D02*
D03*
X193040D02*
D03*
Y38100D02*
D03*
Y30480D02*
D03*
X57150Y52578D02*
D03*
X65786Y53086D02*
D03*
X48006Y52578D02*
D03*
X38608Y52324D02*
D03*
X-87122Y109982D02*
D03*
Y102362D02*
D03*
Y94742D02*
D03*
Y87122D02*
D03*
Y79502D02*
D03*
Y71882D02*
D03*
X30480Y109220D02*
D03*
X22860D02*
D03*
X38100D02*
D03*
Y101600D02*
D03*
X30480D02*
D03*
X22860D02*
D03*
X30480Y116840D02*
D03*
X22860D02*
D03*
X38100D02*
D03*
X-30480D02*
D03*
Y101600D02*
D03*
X-22860D02*
D03*
Y109220D02*
D03*
X-30480D02*
D03*
M02*
