M48
;Layer_Color=9474304
;FILE_FORMAT=4:4
METRIC,LZ
;TYPE=PLATED
T01F00S00C0.3000
T02F00S00C0.5000
T04F00S00C0.9000
T05F00S00C1.0000
T06F00S00C1.1000
T07F00S00C1.6000
T08F00S00C1.7000
T09F00S00C2.2000
T10F00S00C2.5000
;TYPE=NON_PLATED
T11F00S00C0.6500
T12F00S00C3.2500
%
T01
X00177Y0000875
X0017725Y00016
X0017329Y0007799
X00212Y00089
X0029225Y0005975
X0029325Y0004075
X0031075Y0003775
X00319
X0032675Y00038
X00326127Y00024097
X003295Y000505
X0034375Y0004975
X003405Y000395
X0039925Y0003075
Y000205
X00399Y0001075
X00446231Y00010484
X00446481Y00020234
Y00030484
X00484107Y00028414
X0049625Y0003225
X00524022Y00042213
X0054725Y000425
X0056325Y0013025
X005245
X0052575Y00328
Y00344
Y00352
Y0036
X00525397Y00368
X00533Y0036775
X00538817Y00371716
X00555438Y00372
X0055875Y0036375
X00555Y0038775
X005565Y00401
X005255Y00384
Y0037625
X0053725Y003465
X00547438Y00323
X00423591Y00340942
X00413091Y00340442
X00413Y0035725
X0042375Y00357
Y0036375
X00423841Y00371192
X004465Y00379
X0045175Y0038775
X0046375Y00388
X0047275Y0039625
X004815Y0040225
X0037975Y004015
X0035625Y0036675
X00343Y003665
X003365Y0037325
X00318482Y00363
X00304964Y00362042
X00292Y0035275
X002735Y0034925
X0027325Y003395
X00278Y0036475
X0025775Y0038525
X00250407Y00385261
X002185Y003745
X0020925Y00363
X002055Y0035
X00207Y00328
X0021475Y0030025
X00214Y002855
X002095Y0027075
X002065Y0024275
X0019875Y0024275
X00198719Y00234957
X00206469Y00234957
X002065Y00227
X0019875Y00227
Y0021925
X0020675
Y002115
X0021525
X00215Y0021925
X00215031Y00227043
X00215Y00235
X00223031Y00227043
X00223Y0021925
X002235Y002115
X0023175Y0021175
X0023125Y002195
X0024025Y0021175
X00241Y002355
X00233374Y00240124
X00226335Y00239987
X00247495Y00249897
X00254995
X00262745
X00270494
X00277994
X0025075Y002305
X001905Y00227
Y0021925
X0019025Y0021125
X001985Y0021125
X00190469Y00234957
X001905Y0024275
X001065Y0025125
X0010675Y0025775
Y00264
X00107Y00271
X00099Y00271
X0009925Y00264
Y002575
Y00251
X0012025Y00138902
X0011675Y0012325
X0012425
X00132103Y00122398
X0013725Y0013414
X0014475Y0013425
X00145Y001475
Y001555
X00153904Y00155596
X0015375Y0014725
X001355Y001475
X0017925Y00134
X0018625Y00134
X00193
X0019296Y00124
X0018625Y00124
X0017925Y00124
Y00114
X0018625Y00114
X0019296Y0011425
X002575Y0011775
X0026825Y0011875
X0026775Y0013125
X00258Y00131
X0025775Y0014275
X00257717Y00151449
X0026775Y0015125
X00268Y00142
X00278
X002785Y00151
X0027825Y0016025
X002885Y001605
X0028825Y00151
X0029775
X0030704Y0015116
X00307Y0014175
X00298
X0028875
X00298122Y00160753
X0030679Y0016041
X0030704Y0013166
X0030729Y0012241
X0030725Y0011225
X00237013Y00152159
X0041125Y0015375
X004115Y00163
X0041125Y0017125
X0042125Y0017075
X0042925Y00171
X0042975Y001625
X0042125
X00421Y001545
X0042975Y0015375
X00405Y0024
X00392Y002405
X00379Y0024025
X003645Y002405
X003435Y0024625
X0032875Y0024525
X00330105Y00268002
X0031575Y00276
X0034775Y002785
X0037175Y00273
X003875Y00282
X00404417Y00279809
X0040175Y00311152
X00392316Y0032613
X00393Y0034125
X0036075Y0033875
X0036096Y0034475
X0036054Y003315
X00360595Y00325091
X003605Y00318
Y0031125
X0036025Y0030429
X00342178Y00307497
X00342036Y0031409
Y0032034
Y0032659
X00341691Y00332999
X00341717Y0033921
X0034175Y0034521
X003345Y003445
X00334Y0033875
X00334191Y00332999
X00334536Y0032659
Y0032034
Y0031409
X003345Y00308152
X0032654Y003075
X0032675Y0031375
X00327Y003205
X00326858Y00326843
X0032675Y0033275
X0032654Y00339
X0032656Y00345243
X00296Y0032875
X00283Y003115
X0025775Y0032375
X0026675Y004185
X0027825Y0042
X0017375Y0040425
Y003965
X00165939Y00396373
X0016575Y0040425
X00157
Y003965
X00149189Y00396373
X00149Y0040425
X001405
Y003965
X00132689Y00396373
X001325Y0040425
X0012425Y004045
X00116311Y00404627
X001165Y0039675
X00124439Y00396623
X0035975Y0020625
X0009125Y0025775
X0009125Y00264
X000915Y00271
X0006825Y00268
X00068Y0026075
X0005975
Y00254
X0005075Y0025425
X0005075Y0026075
X0005075Y0026775
X00050595Y00275314
X00041345
X000415Y0026775
X00033
X00032845Y00275314
X00024845
X00025Y0026775
X0005975Y00268
X00059595Y00275564
X00068095
X000365Y002305
X00085Y0014725
X00091Y00153
T02
X00107Y00047
X00315316Y00081813
X003835Y00099
X00115Y002365
X0011475Y0028525
X0004875Y00189
T04
X0048835Y0006025
X0051375
X0059555
X0062095
X005991Y0016435
X005737
X005483
X005229
X004975
X005102Y0018975
X005356
X00561
X005864
X006118
T05
X00255Y0002312
X00365
T06
X00631079Y0029756
Y0032296
Y0034836
Y0037376
T07
X006324Y0013135
X004769
T08
X00285Y0012312
X00335
T09
X004185Y00021
X00635Y00425
X00025
T10
X00445Y0023
T11
X001371Y000515
X001949
T12
X004975Y0010085
X006118
M30
