G04*
G04 #@! TF.GenerationSoftware,Altium Limited,Altium Designer,23.8.1 (32)*
G04*
G04 Layer_Physical_Order=4*
G04 Layer_Color=16711680*
%FSLAX44Y44*%
%MOMM*%
G71*
G04*
G04 #@! TF.SameCoordinates,4EFDB198-7814-4870-AD9F-EEE93015B5C1*
G04*
G04*
G04 #@! TF.FilePolarity,Positive*
G04*
G01*
G75*
%ADD12C,0.1500*%
%ADD14C,0.2000*%
%ADD21R,0.4725X0.4682*%
%ADD23R,0.4682X0.4725*%
%ADD24R,0.7154X0.6725*%
%ADD26R,0.6725X0.7154*%
%ADD68C,0.1519*%
%ADD69C,0.1565*%
%ADD71C,0.5000*%
%ADD72C,0.1560*%
%ADD76O,1.0000X1.8000*%
%ADD77O,1.0000X2.1000*%
%ADD78C,3.0000*%
%ADD79C,1.4000*%
%ADD80R,1.4000X1.4000*%
%ADD81C,1.6250*%
%ADD82C,2.4000*%
%ADD83C,2.5500*%
%ADD84C,1.5000*%
%ADD85R,1.6500X1.6500*%
%ADD86C,1.6500*%
%ADD87C,0.4500*%
%ADD88C,0.6500*%
%ADD89R,0.2500X1.4500*%
%ADD90R,4.6500X4.6500*%
%ADD91R,0.2000X0.8500*%
%ADD92R,0.8500X0.2000*%
%ADD93R,3.1000X2.2000*%
%ADD94R,5.7000X1.6000*%
%ADD95R,1.8062X1.6039*%
%ADD96R,0.4000X1.8000*%
%ADD97R,2.0000X1.5000*%
%ADD98R,0.6500X1.5250*%
%ADD99R,3.1000X2.4000*%
%ADD100R,1.1000X1.3500*%
%ADD101R,3.3500X3.3500*%
%ADD102R,1.0000X0.3000*%
%ADD103R,0.3000X1.0000*%
%ADD104R,1.1000X0.6000*%
%ADD105C,0.1180*%
%ADD106C,0.1800*%
G36*
X314391Y360359D02*
X314421Y360287D01*
X315768Y358939D01*
X315841Y358909D01*
X316500Y358250D01*
X317432D01*
X317529Y358210D01*
X319434D01*
X319531Y358250D01*
X325250D01*
X325941Y357559D01*
Y354250D01*
X326000Y353955D01*
Y351250D01*
X324750Y350000D01*
X309500D01*
X299000Y360500D01*
Y364250D01*
X301000Y366250D01*
X308500D01*
X314391Y360359D01*
D02*
G37*
G36*
X409500Y435750D02*
X399000Y425250D01*
X202250Y425250D01*
X193500Y416500D01*
Y265000D01*
X251237Y207263D01*
X250751Y206090D01*
X107648D01*
Y214862D01*
X106659D01*
Y221671D01*
X115699Y230710D01*
X116152D01*
X118280Y231591D01*
X119909Y233220D01*
X120790Y235348D01*
Y237652D01*
X119909Y239780D01*
X118280Y241409D01*
X116152Y242290D01*
X113848D01*
X111720Y241409D01*
X110091Y239780D01*
X109210Y237652D01*
Y237199D01*
X98827Y226815D01*
X97832Y225327D01*
X97483Y223571D01*
Y214862D01*
X93412D01*
X91638Y216636D01*
Y228755D01*
X92300D01*
Y248005D01*
X81800D01*
Y231651D01*
X80530Y231081D01*
X80212Y231364D01*
X80072Y232554D01*
X79962Y232892D01*
X79893Y233241D01*
X79807Y233369D01*
X79760Y233515D01*
X79600Y233702D01*
Y248005D01*
X69100D01*
Y233644D01*
X68991Y233517D01*
X68944Y233370D01*
X68857Y233241D01*
X68788Y232893D01*
X68678Y232556D01*
X68526Y231273D01*
X68170Y230947D01*
X66900Y231505D01*
Y248005D01*
X56400D01*
Y228755D01*
X66231D01*
X67113Y227573D01*
X64361Y221000D01*
X64360Y220995D01*
X64357Y220991D01*
X64259Y220498D01*
X64160Y220010D01*
X64161Y220005D01*
X64160Y220000D01*
Y198625D01*
Y184925D01*
X64162Y184914D01*
X64160Y184903D01*
X64261Y184418D01*
X64357Y183934D01*
X64363Y183925D01*
X64366Y183914D01*
X64644Y183505D01*
X64919Y183094D01*
X64928Y183088D01*
X64934Y183078D01*
X74265Y173903D01*
X74678Y173633D01*
X75089Y173357D01*
X75100Y173355D01*
X75110Y173349D01*
X75595Y173257D01*
X76080Y173160D01*
X397177D01*
X401160Y169177D01*
Y136750D01*
X401224Y136432D01*
X401241Y136107D01*
X401321Y135940D01*
X401357Y135759D01*
X401538Y135489D01*
X401678Y135196D01*
X403178Y133196D01*
X403316Y133073D01*
X403419Y132919D01*
X403689Y132738D01*
X403931Y132522D01*
X404105Y132460D01*
X404259Y132357D01*
X404577Y132294D01*
X404884Y132186D01*
X405069Y132196D01*
X405250Y132160D01*
X428000D01*
Y62500D01*
X448750Y41750D01*
Y11500D01*
X456018Y4232D01*
X455532Y3059D01*
X11750D01*
X9888Y3429D01*
X8133Y4156D01*
X6554Y5211D01*
X5211Y6554D01*
X4156Y8133D01*
X3429Y9888D01*
X3059Y11750D01*
Y12700D01*
Y437300D01*
Y438250D01*
X3429Y440112D01*
X4156Y441867D01*
X5211Y443446D01*
X6554Y444789D01*
X8133Y445844D01*
X9888Y446571D01*
X11750Y446941D01*
X409500D01*
Y435750D01*
D02*
G37*
G36*
X77750Y230132D02*
X81750Y220250D01*
Y203500D01*
X355726D01*
X357037Y202189D01*
X358797Y201460D01*
X360703D01*
X362463Y202189D01*
X363774Y203500D01*
X422985D01*
X429162Y197871D01*
X437250Y189783D01*
Y138750D01*
X433250Y134750D01*
X405250D01*
X403750Y136750D01*
Y170250D01*
X398250Y175750D01*
X76080D01*
X66750Y184925D01*
Y196750D01*
Y220000D01*
X71000Y230153D01*
X71250Y232250D01*
X77500D01*
X77750Y230132D01*
D02*
G37*
G36*
X656941Y132309D02*
Y12700D01*
Y11750D01*
X656571Y9888D01*
X655844Y8133D01*
X654789Y6554D01*
X653446Y5211D01*
X651867Y4156D01*
X650112Y3429D01*
X648250Y3059D01*
X479785D01*
X468500Y13750D01*
Y37987D01*
X469770Y38513D01*
X479317Y28966D01*
Y27461D01*
X480046Y25700D01*
X481394Y24353D01*
X483154Y23624D01*
X485060D01*
X486820Y24353D01*
X488168Y25700D01*
X488897Y27461D01*
Y29366D01*
X488168Y31127D01*
X487159Y32136D01*
X487637Y33406D01*
X491324D01*
X491460Y33203D01*
Y31297D01*
X492189Y29537D01*
X493537Y28189D01*
X495297Y27460D01*
X497203D01*
X498963Y28189D01*
X500311Y29537D01*
X501040Y31297D01*
Y33203D01*
X500311Y34963D01*
X500271Y35003D01*
X500757Y36176D01*
X515143D01*
X517052Y34267D01*
X517962Y33660D01*
X519035Y33446D01*
X527500D01*
X528573Y33660D01*
X529483Y34267D01*
X534911Y39696D01*
X543280D01*
X544537Y38439D01*
X546297Y37710D01*
X548203D01*
X549963Y38439D01*
X551311Y39787D01*
X552040Y41547D01*
Y43453D01*
X551311Y45213D01*
X549963Y46561D01*
X548203Y47290D01*
X546297D01*
X544537Y46561D01*
X543280Y45304D01*
X533750D01*
X532677Y45090D01*
X531767Y44483D01*
X529985Y42701D01*
X528766Y43277D01*
X528083Y44926D01*
X526735Y46274D01*
X524975Y47003D01*
X523069D01*
X521309Y46274D01*
X519961Y44926D01*
X519807Y44554D01*
X483411D01*
X451304Y76661D01*
Y138038D01*
X455480Y142000D01*
X478000D01*
X499090Y120910D01*
X498564Y119640D01*
X495649D01*
X492019Y118918D01*
X488600Y117501D01*
X485522Y115445D01*
X482905Y112828D01*
X480849Y109750D01*
X479432Y106331D01*
X478710Y102701D01*
Y98999D01*
X479432Y95369D01*
X480849Y91950D01*
X482905Y88872D01*
X485522Y86255D01*
X488600Y84199D01*
X492019Y82782D01*
X495649Y82060D01*
X499351D01*
X502981Y82782D01*
X506400Y84199D01*
X509478Y86255D01*
X512095Y88872D01*
X514151Y91950D01*
X515568Y95369D01*
X516290Y98999D01*
Y102701D01*
X515568Y106331D01*
X514151Y109750D01*
X513898Y110130D01*
X514496Y111250D01*
X571250D01*
X604250Y144250D01*
Y144750D01*
X644500D01*
X656941Y132309D01*
D02*
G37*
%LPC*%
G36*
X109250Y415090D02*
X108259Y414893D01*
X107419Y414331D01*
X102419Y409331D01*
X101857Y408491D01*
X101660Y407500D01*
X101660Y380323D01*
X89427Y368090D01*
X42000Y368090D01*
X41009Y367893D01*
X40169Y367331D01*
X35169Y362331D01*
X34607Y361491D01*
X34410Y360500D01*
X34410Y320500D01*
X34607Y319509D01*
X34874Y319110D01*
X34297Y317840D01*
X23250Y317840D01*
X22259Y317643D01*
X21419Y317081D01*
X21407Y317069D01*
X20388D01*
Y316050D01*
X20169Y315831D01*
X19607Y314991D01*
X19410Y314000D01*
X19410Y305750D01*
X19607Y304759D01*
X20169Y303919D01*
X21419Y302669D01*
X22259Y302107D01*
X23250Y301910D01*
X38177D01*
X42910Y297177D01*
Y291250D01*
X43107Y290259D01*
X43669Y289419D01*
X43700Y289398D01*
Y282995D01*
X54200D01*
Y302245D01*
X53840D01*
Y306452D01*
X54943Y306909D01*
X55910Y306119D01*
Y294500D01*
X56107Y293509D01*
X56400Y293071D01*
Y282995D01*
X66900D01*
Y293146D01*
X67143Y293509D01*
X67340Y294500D01*
Y303160D01*
X68605D01*
X68734Y303186D01*
X68864Y303173D01*
X69226Y303284D01*
X69597Y303357D01*
X69706Y303430D01*
X69831Y303468D01*
X70122Y303709D01*
X70437Y303919D01*
X70510Y304028D01*
X70611Y304111D01*
X72676Y306638D01*
X77541D01*
Y317362D01*
X66647D01*
X66243Y317973D01*
X66098Y318610D01*
X72876Y325388D01*
X77541D01*
Y336112D01*
X66388D01*
Y331876D01*
X59871Y325360D01*
X57750D01*
X56507Y325112D01*
X53388D01*
Y321907D01*
X53162Y320771D01*
X53388Y319636D01*
Y315500D01*
X53178Y315221D01*
X53038Y314928D01*
X52857Y314658D01*
X52821Y314476D01*
X52741Y314309D01*
X52724Y313985D01*
X52660Y313667D01*
Y312048D01*
X51390Y311522D01*
X46424Y316488D01*
X46757Y317952D01*
X47081Y318169D01*
X47643Y319009D01*
X47840Y320000D01*
Y335677D01*
X51823Y339660D01*
X86677D01*
X88160Y338177D01*
Y330500D01*
X88357Y329509D01*
X88919Y328669D01*
X89469Y328119D01*
Y323992D01*
X111531D01*
Y327456D01*
X113331Y329256D01*
X113893Y330097D01*
X114090Y331087D01*
Y350177D01*
X128823Y364910D01*
X140000D01*
X140991Y365107D01*
X141205Y365250D01*
X181250D01*
Y379837D01*
X183581Y382169D01*
X184143Y383009D01*
X184340Y384000D01*
X184340Y407000D01*
X184142Y407991D01*
X183581Y408831D01*
X183581Y408831D01*
X178081Y414331D01*
X178081Y414331D01*
X177241Y414893D01*
X176250Y415090D01*
X109250Y415090D01*
D02*
G37*
G36*
X177500Y343090D02*
X126750D01*
X125759Y342893D01*
X124919Y342331D01*
X120837Y338250D01*
X120250D01*
Y337663D01*
X118919Y336331D01*
X118357Y335491D01*
X118160Y334500D01*
Y313073D01*
X109700Y304612D01*
X109274Y303976D01*
X108638Y303550D01*
X107677Y302590D01*
X84000D01*
X83009Y302393D01*
X82788Y302245D01*
X81800D01*
Y301279D01*
X81607Y300991D01*
X81410Y300000D01*
Y290000D01*
X81607Y289009D01*
X81800Y288721D01*
Y282995D01*
X87343D01*
X93919Y276419D01*
X94759Y275857D01*
X95750Y275660D01*
X177250D01*
X178241Y275857D01*
X179081Y276419D01*
X185081Y282419D01*
X185643Y283259D01*
X185840Y284250D01*
Y334750D01*
X185643Y335741D01*
X185081Y336581D01*
X179331Y342331D01*
X178491Y342893D01*
X177500Y343090D01*
D02*
G37*
G36*
X54200Y248005D02*
X43700D01*
Y238073D01*
X43612Y237630D01*
Y230350D01*
X38756Y225494D01*
X37761Y224006D01*
X37412Y222250D01*
Y217022D01*
X37638Y215886D01*
Y212681D01*
X40757D01*
X42000Y212433D01*
X43243Y212681D01*
X46362D01*
Y215886D01*
X46588Y217022D01*
Y220350D01*
X51444Y225206D01*
X52439Y226694D01*
X52788Y228450D01*
Y228755D01*
X54200D01*
Y248005D01*
D02*
G37*
G36*
X49902Y194790D02*
X47598D01*
X45470Y193909D01*
X43842Y192280D01*
X42960Y190152D01*
Y187848D01*
X43842Y185720D01*
X44162Y185400D01*
Y150250D01*
X44511Y148494D01*
X45506Y147006D01*
X54662Y137850D01*
Y76750D01*
X55011Y74994D01*
X56006Y73506D01*
X85756Y43756D01*
X87244Y42761D01*
X89000Y42412D01*
X103400D01*
X103720Y42091D01*
X103720Y42091D01*
X103863Y41984D01*
X104638Y41362D01*
Y32681D01*
X113362D01*
Y33963D01*
X137021D01*
X137022Y33963D01*
X138192Y34195D01*
X139184Y34859D01*
X150663Y46337D01*
X150663Y46337D01*
X151326Y47330D01*
X151559Y48500D01*
X151559Y48500D01*
Y55300D01*
X155691D01*
Y54000D01*
X155691Y54000D01*
X155924Y52829D01*
X156587Y51837D01*
X182837Y25587D01*
X182837Y25587D01*
X183829Y24924D01*
X185000Y24691D01*
X185000Y24691D01*
X217999D01*
X217999Y24691D01*
X219169Y24924D01*
X220162Y25587D01*
X242433Y47858D01*
X242433Y47858D01*
X243096Y48850D01*
X243329Y50021D01*
Y136730D01*
X243329Y136730D01*
X243096Y137900D01*
X242433Y138893D01*
X234817Y146509D01*
X235536Y147586D01*
X236060Y147369D01*
X237966D01*
X239726Y148098D01*
X241074Y149445D01*
X241803Y151206D01*
Y153111D01*
X241074Y154872D01*
X239726Y156219D01*
X237966Y156949D01*
X236060D01*
X234300Y156219D01*
X233389Y155309D01*
X231517D01*
X216913Y169913D01*
X215921Y170576D01*
X214750Y170809D01*
X214750Y170809D01*
X145250D01*
X144080Y170576D01*
X143087Y169913D01*
X143087Y169913D01*
X135174Y162000D01*
X124500D01*
X124059Y163087D01*
Y163828D01*
X124059Y163828D01*
X123826Y164999D01*
X123163Y165991D01*
X123163Y165991D01*
X121991Y167163D01*
X120999Y167826D01*
X119828Y168059D01*
X119828Y168059D01*
X117500D01*
Y171500D01*
X102500D01*
Y169559D01*
X88000D01*
X86830Y169326D01*
X85837Y168663D01*
X85837Y168663D01*
X73337Y156163D01*
X72674Y155170D01*
X72441Y154000D01*
X72441Y154000D01*
Y131288D01*
X70015Y128862D01*
X65638D01*
Y120181D01*
Y112138D01*
X66941D01*
Y108000D01*
X66941Y108000D01*
X67174Y106830D01*
X67837Y105837D01*
X91087Y82587D01*
X92079Y81924D01*
X93250Y81691D01*
X104250D01*
Y79750D01*
X119250D01*
Y89750D01*
X104250D01*
Y87809D01*
X94517D01*
X73059Y109267D01*
Y112138D01*
X74362D01*
Y124558D01*
X75914Y126109D01*
X77007Y126667D01*
X79388Y124287D01*
Y111888D01*
X80763D01*
X80924Y111080D01*
X81587Y110087D01*
X90087Y101587D01*
X90087Y101587D01*
X91079Y100924D01*
X92250Y100691D01*
X104250D01*
Y98750D01*
X119250D01*
Y100691D01*
X132750D01*
X132750Y100691D01*
X133920Y100924D01*
X134913Y101587D01*
X148230Y114904D01*
X149500Y114378D01*
Y105500D01*
X161500D01*
Y93500D01*
X161500D01*
X161262Y92329D01*
X142497D01*
X141250Y93576D01*
Y99250D01*
X126250D01*
Y89250D01*
X136924D01*
X139067Y87107D01*
X140059Y86444D01*
X141230Y86211D01*
X141230Y86211D01*
X146226D01*
X146712Y85038D01*
X140837Y79163D01*
X140174Y78170D01*
X139941Y77000D01*
X139941Y77000D01*
Y73800D01*
X136750D01*
Y57290D01*
X135948D01*
X133820Y56409D01*
X132191Y54780D01*
X131310Y52652D01*
Y50348D01*
X132191Y48220D01*
X133820Y46592D01*
X135948Y45710D01*
X138252D01*
X140380Y46592D01*
X142008Y48220D01*
X142890Y50348D01*
Y52652D01*
X142319Y54030D01*
X143148Y55300D01*
X145441D01*
Y49767D01*
X135754Y40080D01*
X113362D01*
Y41362D01*
X111347D01*
X110821Y42632D01*
X111909Y43720D01*
X112790Y45848D01*
Y48152D01*
X111909Y50280D01*
X110280Y51908D01*
X108152Y52790D01*
X105848D01*
X103720Y51908D01*
X103400Y51588D01*
X90900D01*
X63838Y78650D01*
Y139750D01*
X63489Y141506D01*
X62494Y142994D01*
X53338Y152150D01*
Y185400D01*
X53658Y185720D01*
X54540Y187848D01*
Y190152D01*
X53658Y192280D01*
X52030Y193909D01*
X49902Y194790D01*
D02*
G37*
G36*
X336506Y138410D02*
X333494D01*
X330540Y137822D01*
X327757Y136670D01*
X325253Y134997D01*
X323124Y132867D01*
X321450Y130363D01*
X320298Y127580D01*
X319710Y124626D01*
Y121614D01*
X320298Y118660D01*
X321450Y115878D01*
X323124Y113373D01*
X325253Y111243D01*
X327757Y109570D01*
X330540Y108418D01*
X333494Y107830D01*
X336506D01*
X339460Y108418D01*
X342243Y109570D01*
X344747Y111243D01*
X346876Y113373D01*
X348550Y115878D01*
X349702Y118660D01*
X350290Y121614D01*
Y124626D01*
X349702Y127580D01*
X348550Y130363D01*
X346876Y132867D01*
X344747Y134997D01*
X342243Y136670D01*
X339460Y137822D01*
X336506Y138410D01*
D02*
G37*
G36*
X384652Y104790D02*
X382348D01*
X380220Y103909D01*
X379900Y103588D01*
X334000D01*
X332244Y103239D01*
X330756Y102244D01*
X316114Y87603D01*
X314164D01*
X312036Y86721D01*
X310408Y85092D01*
X309526Y82964D01*
Y80661D01*
X310408Y78533D01*
X312036Y76904D01*
X314164Y76023D01*
X316468D01*
X318596Y76904D01*
X320224Y78533D01*
X320368Y78879D01*
X335900Y94412D01*
X379900D01*
X380220Y94092D01*
X382348Y93210D01*
X384652D01*
X386780Y94092D01*
X388409Y95720D01*
X389290Y97848D01*
Y100152D01*
X388409Y102280D01*
X386780Y103909D01*
X384652Y104790D01*
D02*
G37*
G36*
X330453Y55290D02*
X328547D01*
X326787Y54561D01*
X325439Y53213D01*
X324710Y51453D01*
Y49547D01*
X325439Y47787D01*
X326787Y46439D01*
X328547Y45710D01*
X329964D01*
X331441Y44233D01*
Y28958D01*
X329740Y27257D01*
X328840Y28157D01*
X327080Y28887D01*
X325174D01*
X323413Y28157D01*
X322066Y26810D01*
X321337Y25050D01*
Y23144D01*
X322066Y21383D01*
X323413Y20036D01*
X325174Y19307D01*
X327080D01*
X328840Y20036D01*
X329842Y21038D01*
X330905D01*
X330906Y21038D01*
X332076Y21271D01*
X333068Y21934D01*
X336663Y25528D01*
X336663Y25528D01*
X337326Y26521D01*
X337559Y27691D01*
X337559Y27691D01*
Y45500D01*
X337559Y45500D01*
X337326Y46670D01*
X336663Y47663D01*
X334290Y50036D01*
Y51453D01*
X333561Y53213D01*
X332213Y54561D01*
X330453Y55290D01*
D02*
G37*
%LPD*%
G36*
X176250Y412500D02*
X181750Y407000D01*
X181750Y384000D01*
X174000Y376250D01*
X142750D01*
X142750Y370250D01*
X140000Y367500D01*
X127750D01*
X111500Y351250D01*
Y331087D01*
X109163Y328750D01*
X92500D01*
X90750Y330500D01*
Y339250D01*
X87750Y342250D01*
X50750D01*
X45250Y336750D01*
Y320000D01*
X45000D01*
X43500Y318500D01*
X39000D01*
X38000Y319500D01*
X37000Y320500D01*
X37000Y360500D01*
X42000Y365500D01*
X90500Y365500D01*
X104625Y379625D01*
X104250Y380000D01*
X104250Y407500D01*
X109250Y412500D01*
X176250Y412500D01*
D02*
G37*
G36*
X72000Y313500D02*
Y309902D01*
X68605Y305750D01*
X65250D01*
X64750Y305250D01*
Y294500D01*
X64000Y293750D01*
X59000D01*
Y294000D01*
X58500Y294500D01*
Y299813D01*
Y307250D01*
X55250Y310500D01*
Y313667D01*
X56062Y314750D01*
X70750Y314750D01*
X72000Y313500D01*
D02*
G37*
G36*
X51250Y308000D02*
Y291500D01*
X51000Y291250D01*
X45500D01*
Y298250D01*
X39250Y304500D01*
X23250D01*
X22000Y305750D01*
X22000Y314000D01*
X23250Y315250D01*
X44000Y315250D01*
X51250Y308000D01*
D02*
G37*
G36*
X183250Y334750D02*
Y284250D01*
X177250Y278250D01*
X95750D01*
X84000Y290000D01*
Y290250D01*
Y300000D01*
X108750D01*
X110469Y301719D01*
X111531D01*
Y302781D01*
X120750Y312000D01*
Y334500D01*
X126750Y340500D01*
X177500D01*
X183250Y334750D01*
D02*
G37*
%LPC*%
G36*
X152750Y298838D02*
X148250D01*
X146494Y298489D01*
X145006Y297494D01*
X144011Y296006D01*
X143662Y294250D01*
X144011Y292494D01*
X145006Y291006D01*
X146494Y290011D01*
X148250Y289662D01*
X152750D01*
X154506Y290011D01*
X155994Y291006D01*
X156989Y292494D01*
X157338Y294250D01*
X156989Y296006D01*
X155994Y297494D01*
X154506Y298489D01*
X152750Y298838D01*
D02*
G37*
%LPD*%
G36*
X223456Y144593D02*
X222891Y143362D01*
X214638D01*
Y142070D01*
X210500D01*
Y142500D01*
X206559D01*
Y145000D01*
X206326Y146171D01*
X205663Y147163D01*
X205663Y147163D01*
X203163Y149663D01*
X202171Y150326D01*
X201000Y150559D01*
X201000Y150559D01*
X198500D01*
Y154500D01*
X188059D01*
Y156441D01*
X211609D01*
X223456Y144593D01*
D02*
G37*
G36*
X102500Y150674D02*
Y142500D01*
X117500D01*
Y147124D01*
X118331Y147510D01*
X118770Y147561D01*
X127494Y138837D01*
X127494Y138837D01*
X128486Y138174D01*
X129657Y137941D01*
X145733D01*
X146837Y136837D01*
X146837Y136837D01*
X147830Y136174D01*
X149000Y135941D01*
X149500Y134864D01*
Y132059D01*
X147713D01*
X146543Y131826D01*
X145551Y131163D01*
X145551Y131163D01*
X145469Y131081D01*
X134745D01*
X134112Y131713D01*
Y136112D01*
X117388D01*
Y134809D01*
X105767D01*
X94287Y146289D01*
Y149513D01*
X95061Y150287D01*
X95790Y152047D01*
Y153953D01*
X95061Y155713D01*
X94832Y155942D01*
X95264Y157306D01*
X95778Y157396D01*
X102500Y150674D01*
D02*
G37*
G36*
X229941Y133484D02*
Y53267D01*
X214733Y38059D01*
X192267D01*
X187059Y43267D01*
Y49733D01*
X187937Y50611D01*
X189215Y50094D01*
X189991Y48220D01*
X191620Y46592D01*
X193748Y45710D01*
X196052D01*
X198180Y46592D01*
X199809Y48220D01*
X200690Y50348D01*
Y52652D01*
X199809Y54780D01*
X198180Y56409D01*
X196052Y57290D01*
X195250D01*
Y73800D01*
X192059D01*
Y77000D01*
X192059Y77000D01*
X191826Y78170D01*
X191163Y79163D01*
X191163Y79163D01*
X185288Y85038D01*
X185774Y86211D01*
X208015D01*
X209287Y84939D01*
X211047Y84210D01*
X212953D01*
X214713Y84939D01*
X216061Y86287D01*
X216790Y88047D01*
Y89953D01*
X216061Y91713D01*
X214713Y93061D01*
X212953Y93790D01*
X211047D01*
X209287Y93061D01*
X208555Y92329D01*
X198738D01*
X198500Y93500D01*
X198500D01*
Y105500D01*
X210500D01*
Y115500D01*
Y127145D01*
X211770Y128035D01*
X212243Y127941D01*
X212243Y127941D01*
X214638D01*
Y126638D01*
X223362D01*
Y135963D01*
X227463D01*
X229941Y133484D01*
D02*
G37*
G36*
X104500Y128691D02*
X117388D01*
Y127388D01*
X129787D01*
X131315Y125859D01*
X132307Y125196D01*
X133478Y124964D01*
X139978D01*
X140464Y123790D01*
X135983Y119309D01*
X112017D01*
X103788Y127538D01*
X104413Y128708D01*
X104500Y128691D01*
D02*
G37*
G36*
X180942Y163518D02*
X177837Y160413D01*
X177174Y159420D01*
X176941Y158250D01*
X176941Y158250D01*
Y154500D01*
X176500D01*
Y140500D01*
X196500D01*
Y130500D01*
Y120500D01*
Y107500D01*
X163500D01*
Y120500D01*
Y130500D01*
Y140500D01*
X173500D01*
Y154500D01*
X161500D01*
Y142500D01*
X149826D01*
X149163Y143163D01*
X148170Y143826D01*
X147000Y144059D01*
X147000Y144059D01*
X130924D01*
X124078Y150905D01*
X124527Y152000D01*
X139500D01*
Y157674D01*
X146517Y164691D01*
X180456D01*
X180942Y163518D01*
D02*
G37*
G36*
X108587Y114087D02*
X108587Y114087D01*
X109579Y113424D01*
X110750Y113191D01*
X136069D01*
X136595Y111921D01*
X131483Y106809D01*
X119250D01*
Y108750D01*
X104250D01*
Y106809D01*
X93517D01*
X88112Y112213D01*
Y119931D01*
Y128612D01*
X83713D01*
X82229Y130097D01*
Y138649D01*
X83499Y139176D01*
X108587Y114087D01*
D02*
G37*
%LPC*%
G36*
X613651Y119640D02*
X609949D01*
X606319Y118918D01*
X602900Y117501D01*
X599822Y115445D01*
X597205Y112828D01*
X595149Y109750D01*
X593732Y106331D01*
X593010Y102701D01*
Y98999D01*
X593732Y95369D01*
X595149Y91950D01*
X597205Y88872D01*
X599822Y86255D01*
X602900Y84199D01*
X606319Y82782D01*
X609949Y82060D01*
X613651D01*
X617281Y82782D01*
X620700Y84199D01*
X623778Y86255D01*
X626395Y88872D01*
X628451Y91950D01*
X629868Y95369D01*
X630590Y98999D01*
Y102701D01*
X629868Y106331D01*
X628451Y109750D01*
X626395Y112828D01*
X623778Y115445D01*
X620700Y117501D01*
X617281Y118918D01*
X613651Y119640D01*
D02*
G37*
G36*
X622206Y69790D02*
X619694D01*
X617268Y69140D01*
X615092Y67884D01*
X613316Y66108D01*
X612060Y63932D01*
X611410Y61506D01*
Y58994D01*
X612060Y56568D01*
X613316Y54392D01*
X615092Y52616D01*
X617268Y51360D01*
X619694Y50710D01*
X622206D01*
X624632Y51360D01*
X626808Y52616D01*
X628584Y54392D01*
X629840Y56568D01*
X630490Y58994D01*
Y61506D01*
X629840Y63932D01*
X628584Y66108D01*
X626808Y67884D01*
X624632Y69140D01*
X622206Y69790D01*
D02*
G37*
G36*
X596806D02*
X594294D01*
X591868Y69140D01*
X589692Y67884D01*
X587916Y66108D01*
X586660Y63932D01*
X586010Y61506D01*
Y58994D01*
X586660Y56568D01*
X587916Y54392D01*
X589692Y52616D01*
X591868Y51360D01*
X594294Y50710D01*
X596806D01*
X599232Y51360D01*
X601408Y52616D01*
X603184Y54392D01*
X604440Y56568D01*
X605090Y58994D01*
Y61506D01*
X604440Y63932D01*
X603184Y66108D01*
X601408Y67884D01*
X599232Y69140D01*
X596806Y69790D01*
D02*
G37*
G36*
X515006D02*
X512494D01*
X510068Y69140D01*
X507892Y67884D01*
X506116Y66108D01*
X504860Y63932D01*
X504210Y61506D01*
Y58994D01*
X504860Y56568D01*
X506116Y54392D01*
X507892Y52616D01*
X510068Y51360D01*
X512494Y50710D01*
X515006D01*
X517432Y51360D01*
X519608Y52616D01*
X521384Y54392D01*
X522640Y56568D01*
X523290Y58994D01*
Y61506D01*
X522640Y63932D01*
X521384Y66108D01*
X519608Y67884D01*
X517432Y69140D01*
X515006Y69790D01*
D02*
G37*
G36*
X489606D02*
X487094D01*
X484668Y69140D01*
X482492Y67884D01*
X480716Y66108D01*
X479460Y63932D01*
X478810Y61506D01*
Y58994D01*
X479460Y56568D01*
X480716Y54392D01*
X482492Y52616D01*
X484668Y51360D01*
X487094Y50710D01*
X489606D01*
X492032Y51360D01*
X494208Y52616D01*
X495984Y54392D01*
X497240Y56568D01*
X497890Y58994D01*
Y61506D01*
X497240Y63932D01*
X495984Y66108D01*
X494208Y67884D01*
X492032Y69140D01*
X489606Y69790D01*
D02*
G37*
%LPD*%
D12*
X253645Y215020D02*
X419895D01*
X418748Y212250D02*
X440190Y190808D01*
X252498Y212250D02*
X418748D01*
X419895Y215020D02*
X442960Y191955D01*
X422190Y220560D02*
X448500Y194250D01*
X226909Y237839D02*
X252498Y212250D01*
X233791Y234874D02*
X253645Y215020D01*
X421043Y217790D02*
X445730Y193103D01*
X253087Y225413D02*
X257940Y220560D01*
X255625Y217790D02*
X421043D01*
X257940Y220560D02*
X422190D01*
X245210Y228205D02*
X255625Y217790D01*
X241000Y235500D02*
X245210Y231290D01*
Y228205D02*
Y231290D01*
X440190Y72058D02*
X483999Y28249D01*
X250750Y230459D02*
X253087Y228121D01*
X250750Y230459D02*
Y230500D01*
X253087Y225413D02*
Y228121D01*
X226909Y237839D02*
Y239413D01*
X233374Y240124D02*
X233791Y239706D01*
Y234874D02*
Y239706D01*
X226335Y239987D02*
X226909Y239413D01*
X496250Y32250D02*
Y32745D01*
X492785Y36210D02*
X496250Y32745D01*
X479955Y36210D02*
X492785D01*
X516305Y38980D02*
X519035Y36250D01*
X527500D01*
X533750Y42500D01*
X448500Y75500D02*
X482250Y41750D01*
X481103Y38980D02*
X516305D01*
X482250Y41750D02*
X524000D01*
X445730Y74353D02*
X481103Y38980D01*
X533750Y42500D02*
X547250D01*
X445730Y74353D02*
Y193103D01*
X440190Y72058D02*
Y190808D01*
X448500Y75500D02*
Y194250D01*
X442960Y73205D02*
Y191955D01*
Y73205D02*
X479955Y36210D01*
D14*
X171812Y49188D02*
X189270Y31730D01*
X171812Y49188D02*
Y50562D01*
X173500Y52250D02*
Y64550D01*
X171812Y50562D02*
X173500Y52250D01*
X166812Y50562D02*
X171812D01*
X163500Y53875D02*
X166812Y50562D01*
X163500Y53875D02*
Y64550D01*
X158750Y54000D02*
Y65700D01*
X185000Y27750D02*
X217999D01*
X158750Y54000D02*
X185000Y27750D01*
X217999D02*
X240270Y50021D01*
X158500Y65950D02*
X158750Y65700D01*
X158500Y65950D02*
Y73693D01*
X161537Y76730D01*
X342500Y401750D02*
Y415250D01*
X349250Y422000D02*
X535500D01*
X342500Y415250D02*
X349250Y422000D01*
X372750Y401500D02*
X379750D01*
X372500Y401750D02*
X372750Y401500D01*
X535500Y422000D02*
X556500Y401000D01*
X282395Y385020D02*
X382645D01*
X384000Y381750D02*
X398460Y396210D01*
X257750Y365000D02*
X281040Y388290D01*
X261020Y363646D02*
X282395Y385020D01*
X381290Y388290D02*
X395750Y402750D01*
X283749Y381750D02*
X384000D01*
X264500Y362501D02*
X283749Y381750D01*
X382645Y385020D02*
X397104Y399480D01*
X281040Y388290D02*
X381290D01*
X362125Y344125D02*
X365000Y347000D01*
X349625Y332625D02*
X361125Y344125D01*
X362125D01*
X347000Y324750D02*
X349625Y327375D01*
X360960Y344750D02*
X361000D01*
X365000Y347000D02*
Y354250D01*
X349625Y327375D02*
Y332625D01*
X349000Y326750D02*
Y332000D01*
Y333250D02*
Y354250D01*
X463241Y388000D02*
X463750D01*
X455031Y396210D02*
X463241Y388000D01*
X466500Y396285D02*
X472715D01*
X472750Y396250D01*
X463305Y399480D02*
X466500Y396285D01*
X397104Y399480D02*
X463305D01*
X481022Y402728D02*
X481500Y402250D01*
X479232Y402750D02*
X479254Y402728D01*
X481022D01*
X395750Y402750D02*
X479232D01*
X389750Y374250D02*
X403250Y387750D01*
X451750D01*
X353250Y374250D02*
X389750D01*
X394750Y365750D02*
X408618Y379618D01*
X364000Y365750D02*
X394750D01*
X361000Y362750D02*
X364000Y365750D01*
X408618Y379618D02*
X444114D01*
X444254Y379478D02*
X446022D01*
X446500Y379000D01*
X444114Y379618D02*
X444254Y379478D01*
X330105Y268002D02*
X333966D01*
X335750Y269786D01*
X404417Y279133D02*
X405250Y278300D01*
X404417Y279133D02*
Y279809D01*
X405250Y272750D02*
Y278300D01*
X387500Y282000D02*
X391831Y277669D01*
Y272920D02*
Y277669D01*
X364500Y272750D02*
X364625Y272875D01*
X371625D01*
X391831Y272920D02*
X392000Y272750D01*
X347000Y324750D02*
X349000Y326750D01*
X318482Y363000D02*
X318771D01*
X318960Y363188D02*
Y367731D01*
X319000Y363000D02*
X325742D01*
X318771D02*
X318960Y363188D01*
Y367731D02*
X319979Y368750D01*
X329000Y354250D02*
Y359743D01*
X325742Y363000D02*
X329000Y359743D01*
X278000Y364750D02*
X284114Y358636D01*
Y348886D02*
Y358636D01*
X290250Y342750D02*
X317500D01*
X284114Y348886D02*
X290250Y342750D01*
X387750Y341077D02*
X392827D01*
X393000Y341250D01*
X385423Y338750D02*
X387750Y341077D01*
X391500Y314750D02*
X394619Y311631D01*
X401272D01*
X401750Y311152D01*
X387750Y314750D02*
X391500D01*
X376500Y314750D02*
X387750D01*
X387750Y314750D01*
X376500Y338750D02*
X385423D01*
X398460Y396210D02*
X455031D01*
X349000Y370000D02*
X353250Y374250D01*
X361000Y354250D02*
Y362750D01*
X261020Y334980D02*
Y363646D01*
X264500Y336250D02*
Y362501D01*
X257750Y323750D02*
Y365000D01*
X272000Y328750D02*
X296000D01*
X264500Y336250D02*
X272000Y328750D01*
X261020Y334980D02*
X273250Y322750D01*
X317500D01*
X257750Y323750D02*
X262750Y318750D01*
X317500D01*
X292500Y314750D02*
X317500D01*
X289250Y311500D02*
X292500Y314750D01*
X283000Y311500D02*
X289250D01*
X298000Y346750D02*
X317500D01*
X292000Y352750D02*
X298000Y346750D01*
X284000Y338750D02*
X317500D01*
X273500Y349250D02*
X284000Y338750D01*
X298676Y326750D02*
X317500D01*
X296677Y328750D02*
X298676Y326750D01*
X296000Y328750D02*
X296677D01*
X337000Y354250D02*
Y372074D01*
X336500Y372574D02*
Y373250D01*
Y372574D02*
X337000Y372074D01*
X328250Y368750D02*
X329750D01*
X333000Y354250D02*
Y365500D01*
X329750Y368750D02*
X333000Y365500D01*
X345000Y359743D02*
X349000Y363743D01*
Y370000D01*
X341000Y363823D02*
X343000Y365824D01*
X341000Y354250D02*
Y363823D01*
X343000Y365824D02*
Y366500D01*
X356250Y366073D02*
Y366750D01*
X357000Y354250D02*
Y365324D01*
X356250Y366073D02*
X357000Y365324D01*
X345000Y354250D02*
Y359743D01*
X315750Y276000D02*
X321421Y281671D01*
X330671D01*
X353000Y354250D02*
X357000D01*
X376500Y326750D02*
X391023D01*
X330671Y281671D02*
X337000Y288000D01*
Y295250D01*
X347750Y278500D02*
X348228Y278022D01*
Y275500D02*
Y278022D01*
Y275500D02*
X350979Y272750D01*
X351000D01*
X371750Y273000D02*
X371875Y272875D01*
X378875D02*
X379000Y272750D01*
X371875Y272875D02*
X378875D01*
X371625Y272875D02*
X371750Y273000D01*
X326127Y24097D02*
X330906D01*
X334500Y27691D01*
Y45500D01*
X85000Y142000D02*
X110750Y116250D01*
X85000Y147250D02*
X85000Y147250D01*
X91228Y145022D02*
Y152772D01*
X91000Y153000D02*
X91228Y152772D01*
X85000Y142000D02*
Y147250D01*
X286250Y411978D02*
X291227D01*
X273272D02*
X286250D01*
X236500Y152250D02*
X236750Y152000D01*
X230250Y152250D02*
X236500D01*
X214750Y167750D02*
X230250Y152250D01*
X145250Y167750D02*
X214750D01*
X134500Y157000D02*
X145250Y167750D01*
X132000Y157000D02*
X134500D01*
X266750Y418500D02*
X273272Y411978D01*
X75500Y130021D02*
Y154000D01*
X70000Y124522D02*
X75500Y130021D01*
Y154000D02*
X88000Y166500D01*
X91228Y145022D02*
X104500Y131750D01*
X121728D01*
X79170Y151920D02*
X88250Y161000D01*
X79170Y128830D02*
X83729Y124271D01*
X79170Y128830D02*
Y151920D01*
X96500Y161000D02*
X105629Y151871D01*
X88250Y161000D02*
X96500D01*
X88000Y166500D02*
X110000D01*
X110750Y116250D02*
X137250D01*
X83729Y124271D02*
X83750D01*
X133478Y128022D02*
X146736D01*
X130500Y131000D02*
X133478Y128022D01*
X147000Y141000D02*
X149000Y139000D01*
X156500D01*
X129657Y141000D02*
X147000D01*
X147713Y129000D02*
X156500D01*
X120828Y149828D02*
X129657Y141000D01*
X146736Y128022D02*
X147713Y129000D01*
X161537Y76730D02*
X165463D01*
X173768Y77512D02*
X174681D01*
X173290Y77990D02*
X173768Y77512D01*
X168250Y66200D02*
Y73943D01*
X165463Y76730D02*
X168250Y73943D01*
X178250Y66200D02*
Y73943D01*
X168250Y66200D02*
X168500Y65950D01*
X174681Y77512D02*
X178250Y73943D01*
X211730Y89270D02*
X212000Y89000D01*
X152000Y86000D02*
X180000D01*
X141230Y89270D02*
X211730D01*
X136250Y94250D02*
X141230Y89270D01*
X143000Y77000D02*
X152000Y86000D01*
X180000D02*
X189000Y77000D01*
X178250Y66200D02*
X178500Y65950D01*
X278250Y420000D02*
X278261Y420011D01*
X286239D02*
X286250Y420022D01*
X278261Y420011D02*
X286239D01*
X332000Y402250D02*
Y413250D01*
X286250Y420022D02*
X325229D01*
X332000Y413250D01*
X322500Y401750D02*
Y413646D01*
X319394Y416752D02*
X322500Y413646D01*
X296000Y416752D02*
X319394D01*
X291227Y411978D02*
X296000Y416752D01*
X70000Y108000D02*
Y116479D01*
X111750Y103750D02*
X132750D01*
X92250D02*
X111750D01*
X83750Y112250D02*
Y116229D01*
Y112250D02*
X92250Y103750D01*
X70000Y108000D02*
X93250Y84750D01*
X185000Y147500D02*
Y158328D01*
X186172Y159500D02*
X212875D01*
X185000Y158328D02*
X186172Y159500D01*
X180000Y158250D02*
X185000Y163250D01*
X212875Y159500D02*
X237000Y135375D01*
X180000Y147500D02*
Y158250D01*
X185000Y163250D02*
X213750D01*
X240270Y136730D01*
X329500Y50500D02*
X334500Y45500D01*
X107629Y147500D02*
X110000D01*
X105629Y149500D02*
Y151871D01*
Y149500D02*
X107629Y147500D01*
X137250Y116250D02*
X145000Y124000D01*
X233000Y52000D02*
Y134751D01*
X237000Y51375D02*
Y135375D01*
X228730Y139022D02*
X233000Y134751D01*
X219021Y139022D02*
X228730D01*
X240270Y50021D02*
Y136730D01*
X120828Y149828D02*
X121000Y150000D01*
X119828Y165000D02*
X121000Y163828D01*
Y150000D02*
Y163828D01*
X111500Y165000D02*
X119828D01*
X110000Y166500D02*
X111500Y165000D01*
X109000Y37022D02*
X137022D01*
X148500Y48500D01*
Y65950D01*
X216000Y35000D02*
X233000Y52000D01*
X191000Y35000D02*
X216000D01*
X184000Y42000D02*
Y51000D01*
Y42000D02*
X191000Y35000D01*
X184000Y51000D02*
X189000Y56000D01*
X217354Y31730D02*
X237000Y51375D01*
X189270Y31730D02*
X217354D01*
X133750Y94250D02*
X136250D01*
X132750Y103750D02*
X148000Y119000D01*
X156500D01*
X145000Y124000D02*
X156500D01*
X189000Y56000D02*
Y65950D01*
X192000D01*
X189000D02*
Y77000D01*
X143000Y65950D02*
Y77000D01*
X212243Y131000D02*
X219000D01*
X218989Y139011D02*
X219000Y139022D01*
X203511Y139011D02*
X218989D01*
X203500Y139000D02*
X203511Y139011D01*
X203500Y134000D02*
X204000Y133500D01*
X208672D02*
X208672Y133500D01*
X209743D02*
X212243Y131000D01*
X204000Y133500D02*
X208672D01*
X208672Y133500D02*
X209743D01*
X203500Y139000D02*
Y145000D01*
X195000Y147500D02*
X201000D01*
X203500Y145000D01*
X140000Y65950D02*
X143000D01*
X93250Y84750D02*
X111750D01*
D21*
X335500Y244979D02*
D03*
Y253022D02*
D03*
X364500Y247229D02*
D03*
Y255271D02*
D03*
X350750Y247229D02*
D03*
Y255271D02*
D03*
X379000Y247229D02*
D03*
Y255271D02*
D03*
X392000Y247229D02*
D03*
Y255271D02*
D03*
X405000Y247229D02*
D03*
Y255271D02*
D03*
X379000Y264707D02*
D03*
Y272750D02*
D03*
X364500Y272750D02*
D03*
Y264707D02*
D03*
X405250Y272750D02*
D03*
Y264707D02*
D03*
X392000Y264707D02*
D03*
Y272750D02*
D03*
X351000Y272750D02*
D03*
Y264707D02*
D03*
X286250Y411978D02*
D03*
Y420022D02*
D03*
X57750Y320771D02*
D03*
Y312729D02*
D03*
X41250Y312729D02*
D03*
Y320771D02*
D03*
X24750Y320771D02*
D03*
Y312729D02*
D03*
X42000Y208979D02*
D03*
Y217022D02*
D03*
X219000Y130978D02*
D03*
Y139022D02*
D03*
X109000Y37022D02*
D03*
Y28979D02*
D03*
X70000Y116479D02*
D03*
Y124522D02*
D03*
X83750Y116229D02*
D03*
Y124271D02*
D03*
D23*
X318979Y368750D02*
D03*
X327021D02*
D03*
X121728Y131750D02*
D03*
X129771D02*
D03*
D24*
X81536Y312000D02*
D03*
X71964D02*
D03*
Y330750D02*
D03*
X81536D02*
D03*
X102071Y209500D02*
D03*
X92500D02*
D03*
D26*
X335750Y269786D02*
D03*
Y260214D02*
D03*
D68*
X538699Y371716D02*
X538817D01*
X536319Y379421D02*
X536319Y379421D01*
Y389875D01*
X536319Y374096D02*
Y379421D01*
X384854Y416841D02*
X387626Y414069D01*
X512125D01*
X358675Y416841D02*
X384854D01*
X512125Y414069D02*
X536319Y389875D01*
X536319Y374096D02*
X538699Y371716D01*
X533000Y380796D02*
X533000Y380796D01*
X533000Y367750D02*
X533000Y367750D01*
Y380796D02*
Y388500D01*
X533000Y367750D02*
Y380796D01*
X383479Y413522D02*
X386251Y410750D01*
X510750D01*
X360049Y413522D02*
X383479D01*
X510750Y410750D02*
X533000Y388500D01*
X352500Y408750D02*
X353741Y409991D01*
X354951D02*
X355840Y410880D01*
X352500Y401750D02*
Y408750D01*
X355840Y410880D02*
Y414007D01*
X362500Y401750D02*
Y408750D01*
X355840Y414007D02*
X358675Y416841D01*
X359160Y410880D02*
Y412632D01*
Y410880D02*
X360049Y409991D01*
X353741D02*
X354951D01*
X361259D02*
X362500Y408750D01*
X360049Y409991D02*
X361259D01*
X359160Y412632D02*
X360049Y413522D01*
D69*
X326935Y288000D02*
X328782Y289848D01*
X315723Y284723D02*
X327668D01*
X300000Y277000D02*
X311000Y288000D01*
X326935D01*
X327668Y284723D02*
X332782Y289838D01*
X301750Y270750D02*
X315723Y284723D01*
X249750Y316750D02*
Y343250D01*
X218500Y374500D02*
X249750Y343250D01*
X209250Y363000D02*
X240500Y331750D01*
Y315000D02*
Y331750D01*
X205500Y350000D02*
X229750Y325750D01*
Y315000D02*
Y325750D01*
X328750Y245250D02*
X335479D01*
X343979Y246728D02*
X350522D01*
X343500Y246250D02*
X343979Y246728D01*
X214750Y300250D02*
X238000Y277000D01*
X300000D01*
X214000Y285500D02*
X228750Y270750D01*
X301750D01*
X229750Y315000D02*
X253750Y291000D01*
X296500D01*
X308250Y302750D01*
X294516Y298500D02*
X302766Y306750D01*
X240500Y315000D02*
X257000Y298500D01*
X294516D01*
X249750Y316750D02*
X260572Y305928D01*
X292677D02*
X297500Y310750D01*
X260572Y305928D02*
X292677D01*
X308250Y302750D02*
X317500D01*
X302766Y306750D02*
X317500D01*
X297500Y310750D02*
X317500D01*
X379000Y240250D02*
Y247229D01*
X364500Y240500D02*
Y247457D01*
X392000Y240500D02*
Y247479D01*
X405000Y240000D02*
Y247207D01*
X328782Y289848D02*
Y295033D01*
X329000Y295250D01*
X332782Y289838D02*
Y295033D01*
X333000Y295250D01*
D71*
X292000Y352750D02*
Y372821D01*
X294929Y375750D01*
X333250D01*
X335750Y373250D02*
X336500D01*
X333250Y375750D02*
X335750Y373250D01*
X336500D02*
X336500Y373250D01*
X148250Y294250D02*
X152750D01*
X48750Y150250D02*
Y189000D01*
Y150250D02*
X59250Y139750D01*
Y76750D02*
Y139750D01*
X102071Y209500D02*
Y223571D01*
X115000Y236500D01*
X59250Y76750D02*
X89000Y47000D01*
X61771Y320771D02*
X71750Y330750D01*
X57750Y320771D02*
X61771D01*
X71750Y330750D02*
X71964D01*
X334000Y99000D02*
X383500D01*
X317000Y82000D02*
X334000Y99000D01*
X48200Y228450D02*
Y237630D01*
X48950Y238380D01*
X42000Y217022D02*
Y222250D01*
X48200Y228450D01*
X87050Y214736D02*
X92286Y209500D01*
X87050Y214736D02*
Y238380D01*
X89000Y47000D02*
X107000D01*
D72*
X251500Y283500D02*
X297000D01*
X207000Y328000D02*
X251500Y283500D01*
X335479Y245250D02*
X335750Y245522D01*
X335500Y259964D02*
X335750Y260214D01*
X335500Y253022D02*
Y259964D01*
X405000Y264457D02*
X405250Y264707D01*
X405000Y255271D02*
Y264457D01*
X392000Y255271D02*
Y264707D01*
X392000Y264707D01*
X379000Y255272D02*
Y264707D01*
X379000Y255271D02*
X379000Y255272D01*
Y264707D02*
X380561Y266268D01*
X382768D01*
X385000Y268500D02*
Y275500D01*
X382768Y266268D02*
X385000Y268500D01*
X364500Y255271D02*
Y264707D01*
X350750Y255271D02*
X351000Y255522D01*
Y264707D01*
X350522Y246728D02*
X351000Y247207D01*
X220000Y260250D02*
X310000D01*
X325892Y276142D02*
X331642D01*
X310000Y260250D02*
X325892Y276142D01*
X400000Y285750D02*
X407000D01*
X411000Y281750D01*
Y266250D02*
Y281750D01*
X390500Y295250D02*
X400000Y285750D01*
X367318Y287750D02*
X390000D01*
X398250Y279500D01*
X365129Y289940D02*
X367318Y287750D01*
X365000Y295250D02*
X365129Y295121D01*
Y289940D02*
Y295121D01*
X368000Y282000D02*
X387500D01*
X357220Y287280D02*
Y295030D01*
X365750Y278750D02*
X381750D01*
X357220Y287280D02*
X365750Y278750D01*
X361220Y288780D02*
Y295030D01*
Y288780D02*
X368000Y282000D01*
X381750Y278750D02*
X385000Y275500D01*
X396207Y264707D02*
X398250Y266750D01*
Y279500D01*
X392000Y264707D02*
X396207D01*
X369000Y295250D02*
X390500D01*
X405250Y264707D02*
X409457D01*
X411000Y266250D01*
X361000Y295250D02*
X361220Y295030D01*
X209500Y270750D02*
X220000Y260250D01*
X297000Y283500D02*
X307250Y293750D01*
X324780D01*
X325000Y293970D02*
Y295250D01*
X324780Y293750D02*
X325000Y293970D01*
X331642Y276142D02*
X341000Y285500D01*
Y295250D01*
X342000Y264500D02*
Y281248D01*
X345000Y284248D02*
Y295250D01*
X342000Y281248D02*
X345000Y284248D01*
X338332Y262796D02*
X340296D01*
X335750Y260214D02*
X338332Y262796D01*
X340296D02*
X342000Y264500D01*
X353000Y285750D02*
X359250Y279500D01*
X349000Y285127D02*
X356143Y277985D01*
X353000Y285750D02*
Y295250D01*
X356143Y266513D02*
Y277985D01*
X349000Y285127D02*
Y295250D01*
X357000Y295250D02*
X357220Y295030D01*
X359250Y267500D02*
Y279500D01*
X362939Y266268D02*
X364500Y264707D01*
X360482Y266268D02*
X362939D01*
X359250Y267500D02*
X360482Y266268D01*
X349000Y295250D02*
X349000Y295250D01*
X351000Y264707D02*
X354336D01*
X356143Y266513D01*
D76*
X209200Y15000D02*
D03*
X122800D02*
D03*
D77*
X122800Y56800D02*
D03*
X209200D02*
D03*
D78*
X445000Y230000D02*
D03*
X418500Y21000D02*
D03*
X635000Y425000D02*
D03*
X25000D02*
D03*
D79*
X488350Y60250D02*
D03*
X513750D02*
D03*
X595550D02*
D03*
X620950D02*
D03*
X599100Y164350D02*
D03*
X586400Y189750D02*
D03*
X573700Y164350D02*
D03*
X561000Y189750D02*
D03*
X548300Y164350D02*
D03*
X535600Y189750D02*
D03*
X522900Y164350D02*
D03*
X510200Y189750D02*
D03*
X497500Y164350D02*
D03*
D80*
X611800Y189750D02*
D03*
D81*
Y100850D02*
D03*
X497500D02*
D03*
D82*
X632400Y131350D02*
D03*
X476900D02*
D03*
D83*
X285000Y123120D02*
D03*
X335000D02*
D03*
D84*
X365000Y23120D02*
D03*
X255000D02*
D03*
D85*
X631079Y297560D02*
D03*
D86*
Y322960D02*
D03*
Y348360D02*
D03*
Y373760D02*
D03*
D87*
X555000Y387750D02*
D03*
X538817Y371716D02*
D03*
X533000Y367750D02*
D03*
X379750Y401500D02*
D03*
X525397Y368000D02*
D03*
X556500Y401000D02*
D03*
X525500Y376250D02*
D03*
Y384000D02*
D03*
X360500Y318000D02*
D03*
Y311250D02*
D03*
X360250Y304290D02*
D03*
X360595Y325091D02*
D03*
X360540Y331500D02*
D03*
X360750Y338750D02*
D03*
X558750Y363750D02*
D03*
X537250Y346500D02*
D03*
X334000Y338750D02*
D03*
X359750Y206250D02*
D03*
X525750Y328000D02*
D03*
X341750Y345210D02*
D03*
X334500Y344500D02*
D03*
X360960Y344750D02*
D03*
X334500Y308152D02*
D03*
X463750Y388000D02*
D03*
X472750Y396250D02*
D03*
X481500Y402250D02*
D03*
X446500Y379000D02*
D03*
X218500Y374500D02*
D03*
X209250Y363000D02*
D03*
X205500Y350000D02*
D03*
X207000Y328000D02*
D03*
X328750Y245250D02*
D03*
X326540Y339000D02*
D03*
X326750Y332750D02*
D03*
X327000Y320500D02*
D03*
X326540Y307500D02*
D03*
X326750Y313750D02*
D03*
X326858Y326843D02*
D03*
X326560Y345243D02*
D03*
X341717Y339210D02*
D03*
X342036Y314090D02*
D03*
Y320340D02*
D03*
X342178Y307497D02*
D03*
X341691Y332999D02*
D03*
X342036Y326590D02*
D03*
X334536Y314090D02*
D03*
Y320340D02*
D03*
X334191Y332999D02*
D03*
X334536Y326590D02*
D03*
X330105Y268002D02*
D03*
X257750Y385250D02*
D03*
X250407Y385261D02*
D03*
X277994Y249897D02*
D03*
X270494D02*
D03*
X262745D02*
D03*
X254995D02*
D03*
X247495D02*
D03*
X250750Y230500D02*
D03*
X233374Y240124D02*
D03*
X226335Y239987D02*
D03*
X241000Y235500D02*
D03*
X423591Y340942D02*
D03*
X423841Y371192D02*
D03*
X413091Y340442D02*
D03*
X423750Y357000D02*
D03*
Y363750D02*
D03*
X413000Y357250D02*
D03*
X404417Y279809D02*
D03*
X387500Y282000D02*
D03*
X371750Y273000D02*
D03*
X318482Y363000D02*
D03*
X484107Y28414D02*
D03*
X496250Y32250D02*
D03*
X547250Y42500D02*
D03*
X524022Y42213D02*
D03*
X240250Y211750D02*
D03*
X231250Y219500D02*
D03*
X231750Y211750D02*
D03*
X214750Y300250D02*
D03*
X214000Y285500D02*
D03*
X209500Y270750D02*
D03*
X278000Y364750D02*
D03*
X547438Y323000D02*
D03*
X555438Y372000D02*
D03*
X525750Y344000D02*
D03*
Y352000D02*
D03*
Y360000D02*
D03*
X393000Y341250D02*
D03*
X401750Y311152D02*
D03*
X451750Y387750D02*
D03*
X283000Y311500D02*
D03*
X292000Y352750D02*
D03*
X304964Y362042D02*
D03*
X296000Y328750D02*
D03*
X273250Y339500D02*
D03*
X273500Y349250D02*
D03*
X343000Y366500D02*
D03*
X336500Y373250D02*
D03*
X356250Y366750D02*
D03*
X315750Y276000D02*
D03*
X343500Y246250D02*
D03*
X379000Y240250D02*
D03*
X364500Y240500D02*
D03*
X392000D02*
D03*
X405000Y240000D02*
D03*
X257750Y323750D02*
D03*
X392316Y326130D02*
D03*
X347750Y278500D02*
D03*
X298122Y160753D02*
D03*
X297750Y151000D02*
D03*
X298000Y141750D02*
D03*
X307040Y131660D02*
D03*
X307290Y122410D02*
D03*
X307250Y112250D02*
D03*
X278000Y142000D02*
D03*
X278500Y151000D02*
D03*
X278250Y160250D02*
D03*
X292250Y59750D02*
D03*
X326127Y24097D02*
D03*
X399250Y20500D02*
D03*
X399000Y10750D02*
D03*
X206500Y242750D02*
D03*
X190500D02*
D03*
X198750Y242750D02*
D03*
X198719Y234957D02*
D03*
X190469Y234957D02*
D03*
X206469D02*
D03*
X215000Y235000D02*
D03*
X223031Y227043D02*
D03*
X215031Y227043D02*
D03*
X206500Y227000D02*
D03*
X190500D02*
D03*
X198750Y227000D02*
D03*
Y219250D02*
D03*
X190500Y219250D02*
D03*
X206750Y219250D02*
D03*
Y211500D02*
D03*
X190250Y211250D02*
D03*
X198500Y211250D02*
D03*
X215000Y219250D02*
D03*
X223000Y219250D02*
D03*
X215250Y211500D02*
D03*
X223500Y211500D02*
D03*
X192960Y124000D02*
D03*
Y114250D02*
D03*
X179250Y124000D02*
D03*
Y114000D02*
D03*
Y134000D02*
D03*
X165939Y396373D02*
D03*
X173750Y396500D02*
D03*
X165750Y404250D02*
D03*
X173750D02*
D03*
X157000D02*
D03*
X149000D02*
D03*
X157000Y396500D02*
D03*
X149189Y396373D02*
D03*
X140500Y404250D02*
D03*
X99000Y271000D02*
D03*
X107000Y271000D02*
D03*
X36500Y230500D02*
D03*
X91500Y271000D02*
D03*
X68095Y275564D02*
D03*
X24845Y275314D02*
D03*
X32845D02*
D03*
X41345D02*
D03*
X59595Y275564D02*
D03*
X50595Y275314D02*
D03*
X50750Y267750D02*
D03*
X59750Y268000D02*
D03*
X41500Y267750D02*
D03*
X33000D02*
D03*
X25000D02*
D03*
X68250Y268000D02*
D03*
X68000Y260750D02*
D03*
X59750D02*
D03*
X50750D02*
D03*
X91250Y257750D02*
D03*
X85000Y147250D02*
D03*
X91000Y153000D02*
D03*
X50750Y254250D02*
D03*
X237013Y152159D02*
D03*
X145000Y155500D02*
D03*
X266750Y418500D02*
D03*
X120250Y138902D02*
D03*
X177250Y16000D02*
D03*
X177000Y8750D02*
D03*
X132103Y122398D02*
D03*
X144750Y134250D02*
D03*
X137250Y134140D02*
D03*
X186250Y124000D02*
D03*
Y134000D02*
D03*
Y114000D02*
D03*
X173290Y77990D02*
D03*
X446231Y10484D02*
D03*
X446481Y20234D02*
D03*
Y30484D02*
D03*
X257717Y151449D02*
D03*
X257750Y142750D02*
D03*
X258000Y131000D02*
D03*
X257500Y117750D02*
D03*
X288500Y160500D02*
D03*
X91250Y264000D02*
D03*
X106500Y251250D02*
D03*
X106750Y264000D02*
D03*
Y257750D02*
D03*
X99250Y257500D02*
D03*
Y264000D02*
D03*
Y251000D02*
D03*
X59750Y254000D02*
D03*
X278250Y420000D02*
D03*
X132500Y404250D02*
D03*
X124250Y404500D02*
D03*
X116311Y404627D02*
D03*
X153904Y155596D02*
D03*
X145000Y147500D02*
D03*
X153750Y147250D02*
D03*
X124250Y123250D02*
D03*
X116750D02*
D03*
X411250Y171250D02*
D03*
X429250Y171000D02*
D03*
X421250Y170750D02*
D03*
X326750Y38000D02*
D03*
X319000Y37750D02*
D03*
X329500Y50500D02*
D03*
X399250Y30750D02*
D03*
X340500Y39500D02*
D03*
X524500Y130250D02*
D03*
X563250D02*
D03*
X140500Y396500D02*
D03*
X116500Y396750D02*
D03*
X124439Y396623D02*
D03*
X132689Y396373D02*
D03*
X306790Y160410D02*
D03*
X268250Y118750D02*
D03*
X267750Y131250D02*
D03*
Y151250D02*
D03*
X288250Y151000D02*
D03*
X307040Y151160D02*
D03*
X307000Y141750D02*
D03*
X288750D02*
D03*
X268000Y142000D02*
D03*
X343750Y49750D02*
D03*
X135500Y147500D02*
D03*
X193000Y134000D02*
D03*
X293250Y40750D02*
D03*
X310750Y37750D02*
D03*
X411250Y153750D02*
D03*
X429750Y162500D02*
D03*
X421250D02*
D03*
X429750Y153750D02*
D03*
X411500Y163000D02*
D03*
X421000Y154500D02*
D03*
X212000Y89000D02*
D03*
D88*
X48750Y189000D02*
D03*
X115000Y236500D02*
D03*
X114750Y285250D02*
D03*
X315316Y81813D02*
D03*
X383500Y99000D02*
D03*
X107000Y47000D02*
D03*
D89*
X183500Y64550D02*
D03*
X178500D02*
D03*
X168500D02*
D03*
X163500D02*
D03*
X158500D02*
D03*
X153500D02*
D03*
X148500D02*
D03*
X143000D02*
D03*
X140000D02*
D03*
X189000D02*
D03*
X192000D02*
D03*
X173500D02*
D03*
X132250D02*
D03*
X199750D02*
D03*
X135250D02*
D03*
X196750D02*
D03*
D90*
X347000Y324750D02*
D03*
D91*
X369000Y354250D02*
D03*
X365000D02*
D03*
X361000D02*
D03*
X357000D02*
D03*
X353000D02*
D03*
X349000D02*
D03*
X345000D02*
D03*
X341000D02*
D03*
X337000D02*
D03*
X333000D02*
D03*
X329000D02*
D03*
X325000D02*
D03*
Y295250D02*
D03*
X329000D02*
D03*
X333000D02*
D03*
X337000D02*
D03*
X341000D02*
D03*
X345000D02*
D03*
X349000D02*
D03*
X353000D02*
D03*
X357000D02*
D03*
X361000D02*
D03*
X365000D02*
D03*
X369000D02*
D03*
D92*
X317500Y346750D02*
D03*
Y342750D02*
D03*
Y338750D02*
D03*
Y334750D02*
D03*
Y330750D02*
D03*
Y326750D02*
D03*
Y322750D02*
D03*
Y318750D02*
D03*
Y314750D02*
D03*
Y310750D02*
D03*
Y306750D02*
D03*
Y302750D02*
D03*
X376500D02*
D03*
Y306750D02*
D03*
Y310750D02*
D03*
Y314750D02*
D03*
Y318750D02*
D03*
Y322750D02*
D03*
Y326750D02*
D03*
Y330750D02*
D03*
Y334750D02*
D03*
Y338750D02*
D03*
Y342750D02*
D03*
Y346750D02*
D03*
D93*
X142250Y294500D02*
D03*
Y224500D02*
D03*
D94*
X150750Y375250D02*
D03*
Y328250D02*
D03*
D95*
X100500Y311989D02*
D03*
Y334011D02*
D03*
D96*
X342500Y401750D02*
D03*
X352500D02*
D03*
X322500D02*
D03*
X332500D02*
D03*
X372500D02*
D03*
X362500D02*
D03*
D97*
X385000Y438250D02*
D03*
X310000D02*
D03*
D98*
X87050Y238380D02*
D03*
X74350D02*
D03*
X61650D02*
D03*
X48950D02*
D03*
Y292620D02*
D03*
X61650D02*
D03*
X74350D02*
D03*
X87050D02*
D03*
D99*
X68000Y265500D02*
D03*
D100*
X72500Y212750D02*
D03*
X58500D02*
D03*
D101*
X180000Y124000D02*
D03*
D102*
X156500Y139000D02*
D03*
Y134000D02*
D03*
Y129000D02*
D03*
Y124000D02*
D03*
Y119000D02*
D03*
Y114000D02*
D03*
Y109000D02*
D03*
X203500D02*
D03*
Y114000D02*
D03*
Y119000D02*
D03*
Y124000D02*
D03*
Y129000D02*
D03*
Y134000D02*
D03*
Y139000D02*
D03*
D103*
X165000Y100500D02*
D03*
X170000D02*
D03*
X175000D02*
D03*
X180000D02*
D03*
X185000D02*
D03*
X190000D02*
D03*
X195000D02*
D03*
Y147500D02*
D03*
X190000D02*
D03*
X185000D02*
D03*
X180000D02*
D03*
X175000D02*
D03*
X170000D02*
D03*
X165000D02*
D03*
D104*
X132000Y157000D02*
D03*
X110000Y166500D02*
D03*
Y147500D02*
D03*
X133750Y94250D02*
D03*
X111750Y103750D02*
D03*
Y84750D02*
D03*
D105*
X521165Y180398D02*
Y201250D01*
Y211892D02*
Y214500D01*
X519729Y210456D02*
X521165Y211892D01*
X519622Y210456D02*
X519729D01*
X518186Y209020D02*
X519622Y210456D01*
X518186Y204712D02*
Y209020D01*
Y204712D02*
X519622Y203276D01*
X519729D01*
X521165Y201840D01*
Y201250D02*
Y201840D01*
Y214500D02*
Y215466D01*
X524145Y181632D02*
Y215466D01*
X521165D02*
Y218689D01*
X524746Y222271D01*
X533555D01*
X535391Y224107D01*
Y229615D01*
X533555Y231451D02*
X535391Y229615D01*
X524746Y231451D02*
X533555D01*
X521165Y235033D02*
X524746Y231451D01*
X521165Y235033D02*
Y237730D01*
X524145Y215466D02*
X524145D01*
X524145D02*
Y217455D01*
X525981Y219291D01*
X534789D01*
X538371Y222873D01*
Y230849D01*
X534789Y234431D02*
X538371Y230849D01*
X525981Y234431D02*
X534789D01*
X524145Y236267D02*
X525981Y234431D01*
X524145Y236267D02*
Y237730D01*
X524145D01*
X521165D02*
Y251605D01*
X524145Y237730D02*
Y252840D01*
X506815Y265954D02*
X507850Y264920D01*
X506815Y265954D02*
X506815D01*
X505789Y266981D02*
X506815Y265954D01*
X503193Y266981D02*
X505789D01*
X502351Y266139D02*
X503193Y266981D01*
X497285Y266139D02*
X502351D01*
X491645Y271779D02*
X497285Y266139D01*
X491645Y271779D02*
Y276844D01*
X500770Y285969D01*
Y288565D01*
X496875Y292460D02*
X500770Y288565D01*
X494279Y292460D02*
X496875D01*
X485154Y283335D02*
X494279Y292460D01*
X480089Y283335D02*
X485154D01*
X474448Y288976D02*
X480089Y283335D01*
X474448Y288976D02*
Y294041D01*
X483573Y303166D01*
Y305762D01*
X479678Y309657D02*
X483573Y305762D01*
X477082Y309657D02*
X479678D01*
X472630Y305205D02*
X477082Y309657D01*
X467565Y305205D02*
X472630D01*
X466692Y306078D02*
X467565Y305205D01*
X466692Y306078D02*
Y306078D01*
X465658Y307112D02*
X466692Y306078D01*
X508923Y268062D02*
X509957Y267027D01*
X507024Y269961D02*
X508923Y268062D01*
X501958Y269961D02*
X507024D01*
X501116Y269119D02*
X501958Y269961D01*
X498520Y269119D02*
X501116D01*
X494625Y273013D02*
X498520Y269119D01*
X494625Y273013D02*
Y275610D01*
X503750Y284734D01*
Y289800D01*
X498109Y295440D02*
X503750Y289800D01*
X493044Y295440D02*
X498109D01*
X483919Y286315D02*
X493044Y295440D01*
X481323Y286315D02*
X483919D01*
X477428Y290210D02*
X481323Y286315D01*
X477428Y290210D02*
Y292807D01*
X486553Y301931D01*
Y306996D01*
X480913Y312637D02*
X486553Y306996D01*
X475848Y312637D02*
X480913D01*
X471396Y308185D02*
X475848Y312637D01*
X468799Y308185D02*
X471396D01*
X468799Y308185D02*
X468799Y308185D01*
X467765Y309219D02*
X468799Y308185D01*
X509957Y267027D02*
X515377Y261607D01*
Y261607D02*
Y261607D01*
Y261607D02*
X515377D01*
X524145Y252840D01*
X507850Y264920D02*
X515377Y257393D01*
X532480Y302770D02*
X600730Y234520D01*
X493020Y203085D02*
Y207250D01*
X491584Y201649D02*
X493020Y203085D01*
X491477Y201649D02*
X491584D01*
X490041Y200214D02*
X491477Y201649D01*
X490041Y195905D02*
Y200214D01*
Y195905D02*
X491477Y194470D01*
X491584D01*
X493020Y193034D01*
Y192443D02*
Y193034D01*
Y207250D02*
Y214991D01*
Y183143D02*
Y192443D01*
X496000Y245026D02*
Y249603D01*
Y245026D02*
X497636Y243390D01*
X502326D01*
X505708Y240008D01*
Y232632D02*
Y240008D01*
X502326Y229250D02*
X505708Y232632D01*
X491736Y229250D02*
X502326D01*
X490100Y227614D02*
X491736Y229250D01*
X490100Y222706D02*
Y227614D01*
Y222706D02*
X491736Y221070D01*
X492618D01*
X496000Y217688D01*
Y214991D02*
Y217688D01*
X493020Y249603D02*
X493020D01*
Y243792D02*
Y249603D01*
Y243792D02*
X496402Y240410D01*
X501092D01*
X502728Y238774D01*
Y233866D02*
Y238774D01*
X501092Y232230D02*
X502728Y233866D01*
X490501Y232230D02*
X501092D01*
X487120Y228848D02*
X490501Y232230D01*
X487120Y221472D02*
Y228848D01*
Y221472D02*
X490501Y218090D01*
X491384D01*
X493020Y216454D01*
Y214991D02*
Y216454D01*
X493020Y214991D02*
X493020D01*
X496000Y249603D02*
Y252500D01*
X475036Y269250D02*
X493020Y251266D01*
X496000Y184377D02*
Y214991D01*
X493020Y249603D02*
Y251266D01*
X476270Y272230D02*
X496000Y252500D01*
X401484Y297480D02*
X459270D01*
X458036Y294500D02*
X460000Y292536D01*
X400250Y294500D02*
X458036D01*
X459270Y297480D02*
X462980Y293770D01*
Y285980D02*
Y293770D01*
X460000Y287214D02*
Y292536D01*
X387490Y307260D02*
X400250Y294500D01*
X388724Y310240D02*
X401484Y297480D01*
X458766Y281766D02*
X462980Y285980D01*
X457531Y284746D02*
X460000Y287214D01*
X422996Y284746D02*
X457531D01*
X424230Y281766D02*
X458766D01*
X422230Y279766D02*
X424230Y281766D01*
X419250Y281000D02*
X422996Y284746D01*
X422230Y274234D02*
Y279766D01*
X419250Y273000D02*
X423000Y269250D01*
X475036D01*
X419250Y273000D02*
Y281000D01*
X422230Y274234D02*
X424234Y272230D01*
X476270D01*
X496000Y184377D02*
X499925Y180452D01*
X493020Y183143D02*
X497817Y178345D01*
X499925Y180452D02*
X500902D01*
X510200Y189750D01*
X497817Y164667D02*
Y178345D01*
X381923Y307260D02*
X387490D01*
X381823Y307160D02*
X381923Y307260D01*
X376910Y307160D02*
X381823D01*
X376500Y306750D02*
X376910Y307160D01*
X381923Y310240D02*
X388724D01*
X376910Y310340D02*
X381823D01*
X376500Y310750D02*
X376910Y310340D01*
X381823D02*
X381923Y310240D01*
X497500Y164350D02*
X497817Y164667D01*
X464500Y308270D02*
X465658Y307112D01*
X465734Y311250D02*
X467765Y309219D01*
X521010Y251760D02*
Y251760D01*
X515377Y257393D02*
X521010Y251760D01*
X416607Y316357D02*
Y316357D01*
X412376Y320588D02*
X416607Y316357D01*
X417661Y315304D02*
X421714Y311250D01*
X465734D01*
X416607Y316357D02*
X417661Y315304D01*
X417661D01*
X381823Y322340D02*
X381923Y322240D01*
X388601D01*
X376500Y322750D02*
X376910Y322340D01*
X381823D01*
X390252Y320588D02*
X412376D01*
X388601Y322240D02*
X390252Y320588D01*
X522900Y164350D02*
X523218Y164667D01*
X420480Y308270D02*
X464500D01*
X392686Y317609D02*
X411142D01*
X420480Y308270D01*
X381823Y319160D02*
X381923Y319260D01*
X387366D01*
X376500Y318750D02*
X376910Y319160D01*
X381823D01*
X389016Y317610D02*
X392685D01*
X392686Y317609D01*
X387366Y319260D02*
X389016Y317610D01*
X523218Y164667D02*
Y178345D01*
X521165Y180398D02*
X523218Y178345D01*
X521010Y251760D02*
X521010D01*
X526302Y180452D02*
X535600Y189750D01*
X521010Y251760D02*
X521165Y251605D01*
X524145Y181632D02*
X525325Y180452D01*
X526302D01*
X515377Y257393D02*
X515377D01*
X572500Y213674D02*
Y217622D01*
X571064Y212238D02*
X572500Y213674D01*
X570949Y212238D02*
X571064D01*
X569513Y210802D02*
X570949Y212238D01*
X569513Y206494D02*
Y210802D01*
Y206494D02*
X570949Y205058D01*
X571064D01*
X572500Y203622D01*
Y203032D02*
Y203622D01*
Y217622D02*
Y218500D01*
Y200207D02*
Y203032D01*
X572453Y200160D02*
X572500Y200207D01*
X526656Y268559D02*
X526656D01*
X526656D02*
X527528Y267686D01*
Y267686D02*
Y267686D01*
Y267686D02*
X527690Y267525D01*
X527690D01*
X531324Y263890D01*
X534204D01*
X536726Y266413D01*
X542075D01*
X548139Y260348D01*
Y255000D02*
Y260348D01*
X543406Y250267D02*
X548139Y255000D01*
X543406Y247387D02*
Y250267D01*
Y247387D02*
X547725Y243068D01*
X550604D01*
X556053Y248517D01*
X561401D01*
X567465Y242452D01*
Y237104D02*
Y242452D01*
X564227Y233866D02*
X567465Y237104D01*
X564227Y230987D02*
Y233866D01*
Y230987D02*
X573533Y221681D01*
Y221681D02*
X574567Y220647D01*
X524548Y266452D02*
X524548Y266452D01*
X525583Y265417D01*
Y265417D02*
Y265417D01*
Y265417D02*
X530090Y260910D01*
X535438D01*
X537961Y263433D01*
X540840D01*
X545159Y259114D01*
Y256234D02*
Y259114D01*
X540426Y251501D02*
X545159Y256234D01*
X540426Y246153D02*
Y251501D01*
Y246153D02*
X546490Y240088D01*
X551838D01*
X557287Y245537D01*
X560166D01*
X564485Y241218D01*
Y238339D02*
Y241218D01*
X561247Y235101D02*
X564485Y238339D01*
X561247Y229753D02*
Y235101D01*
Y229753D02*
X571426Y219574D01*
X571426D01*
X572460Y218540D01*
X572460Y218540D02*
X572460Y218540D01*
X489123Y323127D02*
X526656Y285595D01*
X487016Y321020D02*
X523675Y284360D01*
X436230Y321020D02*
X487016D01*
X523675Y267325D02*
Y284360D01*
X437464Y324000D02*
X488250D01*
X526656Y268559D02*
Y285595D01*
X489123Y323127D02*
Y323127D01*
X488250Y324000D02*
X489123Y323127D01*
X523675Y267325D02*
X524548Y266452D01*
X574567Y220647D02*
X575480Y219734D01*
X572460Y218540D02*
X572500Y218500D01*
X575480Y198972D02*
Y219734D01*
X433750Y323500D02*
Y323500D01*
X425230Y332020D02*
X433750Y323500D01*
X545048Y285988D02*
X548643Y282393D01*
X543300Y285988D02*
X545048D01*
X543053Y285741D02*
X543300Y285988D01*
X541305Y285741D02*
X543053D01*
X538683Y288363D02*
X541305Y285741D01*
X538683Y288363D02*
Y290111D01*
X538930Y290357D01*
Y292106D01*
X534143Y296893D02*
X538930Y292106D01*
X548643Y282393D02*
X597750Y233285D01*
X529500Y301535D02*
X534143Y296893D01*
X496893Y334143D02*
X529500Y301536D01*
X597750Y233285D02*
Y233285D01*
X597750Y180012D02*
Y233285D01*
X600730Y234520D02*
X600730Y234520D01*
X498127Y337123D02*
X532480Y302770D01*
X597750Y233285D02*
X597750Y233285D01*
X529500Y301535D02*
Y301536D01*
X600730Y181247D02*
Y234520D01*
X600730Y234520D02*
Y234520D01*
X532480Y302770D02*
Y302770D01*
X447857Y334143D02*
X496893D01*
X449091Y337123D02*
X498127D01*
X389226Y335000D02*
X426464D01*
X381823Y334340D02*
X381923Y334240D01*
X388466D01*
X376500Y334750D02*
X376910Y334340D01*
X381823D01*
X435857Y325607D02*
Y325607D01*
X426464Y335000D02*
X435857Y325607D01*
Y325607D02*
X437464Y324000D01*
X388466Y334240D02*
X389226Y335000D01*
X390461Y332020D02*
X425230D01*
X389701Y331260D02*
X390461Y332020D01*
X381923Y331260D02*
X389701D01*
X381823Y331160D02*
X381923Y331260D01*
X376910Y331160D02*
X381823D01*
X433750Y323500D02*
X436230Y321020D01*
X376500Y330750D02*
X376910Y331160D01*
X573700Y164350D02*
X574017Y164667D01*
Y178345D01*
X572453Y179909D02*
Y200160D01*
X575433Y181143D02*
X576125Y180452D01*
X575433Y181143D02*
Y198926D01*
X575480Y198972D01*
X576125Y180452D02*
X577102D01*
X586400Y189750D01*
X572453Y179909D02*
X574017Y178345D01*
X388793Y350750D02*
X435464D01*
X381823Y346340D02*
X381923Y346240D01*
X384283D01*
X376500Y346750D02*
X376910Y346340D01*
X381823D01*
X448607Y337607D02*
Y337607D01*
X435464Y350750D02*
X448607Y337607D01*
Y337607D02*
X449091Y337123D01*
X384283Y346240D02*
X388793Y350750D01*
X390027Y347770D02*
X434230D01*
X385517Y343260D02*
X390027Y347770D01*
X381923Y343260D02*
X385517D01*
X381823Y343160D02*
X381923Y343260D01*
X376910Y343160D02*
X381823D01*
X434230Y347770D02*
X446500Y335500D01*
X447857Y334143D01*
X376500Y342750D02*
X376910Y343160D01*
X602502Y180452D02*
X611800Y189750D01*
X597750Y180012D02*
X599417Y178345D01*
Y164667D02*
Y178345D01*
X599100Y164350D02*
X599417Y164667D01*
X601525Y180452D02*
X602502D01*
X600730Y181247D02*
X601525Y180452D01*
D106*
X278250Y334500D02*
X299250D01*
X303000Y330750D01*
X273250Y339500D02*
X278250Y334500D01*
X303000Y330750D02*
X317500D01*
X317500Y330750D01*
M02*
