G04*
G04 #@! TF.GenerationSoftware,Altium Limited,Altium Designer,23.8.1 (32)*
G04*
G04 Layer_Color=8388736*
%FSLAX44Y44*%
%MOMM*%
G71*
G04*
G04 #@! TF.SameCoordinates,4EFDB198-7814-4870-AD9F-EEE93015B5C1*
G04*
G04*
G04 #@! TF.FilePolarity,Negative*
G04*
G01*
G75*
%ADD19R,0.8000X1.2000*%
%ADD20R,1.2000X0.8000*%
%ADD21R,0.4725X0.4682*%
%ADD22R,0.5000X0.7000*%
%ADD23R,0.4682X0.4725*%
%ADD24R,0.7154X0.6725*%
%ADD26R,0.6725X0.7154*%
%ADD27R,1.2000X3.7000*%
%ADD34R,2.8042X1.5027*%
%ADD39R,0.6500X0.3500*%
G04:AMPARAMS|DCode=40|XSize=0.78mm|YSize=0.35mm|CornerRadius=0.1125mm|HoleSize=0mm|Usage=FLASHONLY|Rotation=90.000|XOffset=0mm|YOffset=0mm|HoleType=Round|Shape=RoundedRectangle|*
%AMROUNDEDRECTD40*
21,1,0.7800,0.1250,0,0,90.0*
21,1,0.5550,0.3500,0,0,90.0*
1,1,0.2250,0.0625,0.2775*
1,1,0.2250,0.0625,-0.2775*
1,1,0.2250,-0.0625,-0.2775*
1,1,0.2250,-0.0625,0.2775*
%
%ADD40ROUNDEDRECTD40*%
G04:AMPARAMS|DCode=41|XSize=0.78mm|YSize=0.35mm|CornerRadius=0.1125mm|HoleSize=0mm|Usage=FLASHONLY|Rotation=180.000|XOffset=0mm|YOffset=0mm|HoleType=Round|Shape=RoundedRectangle|*
%AMROUNDEDRECTD41*
21,1,0.7800,0.1250,0,0,180.0*
21,1,0.5550,0.3500,0,0,180.0*
1,1,0.2250,-0.2775,0.0625*
1,1,0.2250,0.2775,0.0625*
1,1,0.2250,0.2775,-0.0625*
1,1,0.2250,-0.2775,-0.0625*
%
%ADD41ROUNDEDRECTD41*%
%ADD42R,4.7032X4.7032*%
%ADD43R,0.4032X0.9032*%
%ADD44R,0.9032X0.4032*%
%ADD45R,2.3532X2.4032*%
%ADD46R,1.5000X2.2000*%
G04:AMPARAMS|DCode=47|XSize=0.8532mm|YSize=1.8532mm|CornerRadius=0.1504mm|HoleSize=0mm|Usage=FLASHONLY|Rotation=90.000|XOffset=0mm|YOffset=0mm|HoleType=Round|Shape=RoundedRectangle|*
%AMROUNDEDRECTD47*
21,1,0.8532,1.5525,0,0,90.0*
21,1,0.5525,1.8532,0,0,90.0*
1,1,0.3007,0.7763,0.2763*
1,1,0.3007,0.7763,-0.2763*
1,1,0.3007,-0.7763,-0.2763*
1,1,0.3007,-0.7763,0.2763*
%
%ADD47ROUNDEDRECTD47*%
%ADD48R,2.4032X1.6532*%
%ADD49R,0.7032X1.3032*%
%ADD50R,0.8032X1.4032*%
%ADD51R,1.6032X0.8032*%
%ADD52R,2.2032X2.0032*%
%ADD53R,2.8032X2.4532*%
%ADD54R,3.0032X2.6532*%
%ADD55O,1.2032X2.0032*%
%ADD56C,0.2000*%
%ADD57O,1.2032X2.3032*%
%ADD58C,3.2000*%
%ADD59C,1.6032*%
%ADD60R,1.6032X1.6032*%
%ADD61C,1.8282*%
%ADD62C,2.6032*%
%ADD63C,2.7532*%
%ADD64C,1.7032*%
%ADD65R,1.8532X1.8532*%
%ADD66C,1.8532*%
%ADD67C,0.6532*%
D19*
X369750Y325500D02*
D03*
X351750D02*
D03*
X369750Y341463D02*
D03*
X351750D02*
D03*
D20*
X429500Y304000D02*
D03*
Y286000D02*
D03*
X294000Y289500D02*
D03*
Y271500D02*
D03*
D21*
X539250Y28228D02*
D03*
Y36272D02*
D03*
X284500Y324207D02*
D03*
Y332250D02*
D03*
X267000Y324207D02*
D03*
Y332250D02*
D03*
X574250Y28228D02*
D03*
Y36272D02*
D03*
X557000D02*
D03*
Y28228D02*
D03*
X591000D02*
D03*
Y36272D02*
D03*
X522500Y28228D02*
D03*
Y36272D02*
D03*
X333250Y21228D02*
D03*
Y29272D02*
D03*
X204750Y147631D02*
D03*
Y139588D02*
D03*
X301750Y21228D02*
D03*
Y29272D02*
D03*
X317750Y21228D02*
D03*
Y29272D02*
D03*
X222000Y79978D02*
D03*
Y88021D02*
D03*
X166000Y79978D02*
D03*
Y88021D02*
D03*
X184000Y79978D02*
D03*
Y88021D02*
D03*
D22*
X505437Y36500D02*
D03*
Y27500D02*
D03*
X608437Y27750D02*
D03*
Y36750D02*
D03*
D23*
X243979Y345750D02*
D03*
X252022D02*
D03*
Y373000D02*
D03*
X243979D02*
D03*
Y359750D02*
D03*
X252022D02*
D03*
D24*
X314536Y354250D02*
D03*
X304964D02*
D03*
X267464Y294750D02*
D03*
X277035D02*
D03*
X314536Y339250D02*
D03*
X304964D02*
D03*
X314536Y323750D02*
D03*
X304964D02*
D03*
X314536Y369500D02*
D03*
X304964D02*
D03*
X413036Y365500D02*
D03*
X403464D02*
D03*
X413036Y347750D02*
D03*
X403464D02*
D03*
X413035Y329750D02*
D03*
X403464D02*
D03*
X267214Y277000D02*
D03*
X276786D02*
D03*
X266964Y260500D02*
D03*
X276536D02*
D03*
X275714Y36500D02*
D03*
X285286D02*
D03*
X275714Y51750D02*
D03*
X285286D02*
D03*
X285286Y17500D02*
D03*
X275714D02*
D03*
X138000Y13000D02*
D03*
X147571D02*
D03*
X138214Y31000D02*
D03*
X147786D02*
D03*
X59286Y63000D02*
D03*
X49714D02*
D03*
D26*
X352000Y290214D02*
D03*
Y299786D02*
D03*
X333750Y290214D02*
D03*
Y299786D02*
D03*
X315250Y290214D02*
D03*
Y299786D02*
D03*
X405000Y293214D02*
D03*
Y302786D02*
D03*
X370000Y299786D02*
D03*
Y290214D02*
D03*
X388000Y302536D02*
D03*
Y292964D02*
D03*
X247750Y322714D02*
D03*
Y332286D02*
D03*
X349750Y20714D02*
D03*
Y30286D02*
D03*
X536250Y132179D02*
D03*
Y141750D02*
D03*
X552000Y131964D02*
D03*
Y141536D02*
D03*
X353250Y99036D02*
D03*
Y89464D02*
D03*
X372250Y99036D02*
D03*
Y89464D02*
D03*
X179000Y64786D02*
D03*
Y55214D02*
D03*
X127000Y78214D02*
D03*
Y87786D02*
D03*
X147000Y78214D02*
D03*
Y87786D02*
D03*
X203000Y79214D02*
D03*
Y88786D02*
D03*
X50000Y94786D02*
D03*
Y85214D02*
D03*
D27*
X255500Y85000D02*
D03*
X283500D02*
D03*
D34*
X454250Y95002D02*
D03*
Y65998D02*
D03*
D39*
X85000Y71250D02*
D03*
Y62750D02*
D03*
D40*
X109500Y104350D02*
D03*
X114500D02*
D03*
X119500D02*
D03*
X124500D02*
D03*
X129500D02*
D03*
X134500D02*
D03*
X139500D02*
D03*
X144500D02*
D03*
X149500D02*
D03*
X154500D02*
D03*
X159500D02*
D03*
X164500D02*
D03*
Y171650D02*
D03*
X159500D02*
D03*
X154500D02*
D03*
X149500D02*
D03*
X144500D02*
D03*
X134500D02*
D03*
X129500D02*
D03*
X124500D02*
D03*
X119500D02*
D03*
X114500D02*
D03*
X109500D02*
D03*
X139500D02*
D03*
D41*
X170650Y110500D02*
D03*
Y115500D02*
D03*
Y120500D02*
D03*
Y125500D02*
D03*
Y130500D02*
D03*
Y135500D02*
D03*
Y140500D02*
D03*
Y145500D02*
D03*
Y150500D02*
D03*
Y155500D02*
D03*
Y160500D02*
D03*
Y165500D02*
D03*
X103350D02*
D03*
Y160500D02*
D03*
Y155500D02*
D03*
Y150500D02*
D03*
Y145500D02*
D03*
Y140500D02*
D03*
Y135500D02*
D03*
Y130500D02*
D03*
Y125500D02*
D03*
Y120500D02*
D03*
Y115500D02*
D03*
Y110500D02*
D03*
D42*
X137000Y138000D02*
D03*
D43*
X302000Y182600D02*
D03*
Y213400D02*
D03*
X306000Y182600D02*
D03*
Y213400D02*
D03*
X310000Y182600D02*
D03*
Y213400D02*
D03*
X314000Y182600D02*
D03*
Y213400D02*
D03*
X318000Y182600D02*
D03*
Y213400D02*
D03*
X322000Y182600D02*
D03*
Y213400D02*
D03*
X326000Y182600D02*
D03*
Y213400D02*
D03*
X330000Y182600D02*
D03*
Y213400D02*
D03*
X334000Y182600D02*
D03*
Y213400D02*
D03*
X338000Y182600D02*
D03*
Y213400D02*
D03*
X342000Y182600D02*
D03*
Y213400D02*
D03*
X346000Y182600D02*
D03*
Y213400D02*
D03*
X350000Y182600D02*
D03*
Y213400D02*
D03*
X354000Y182600D02*
D03*
Y213400D02*
D03*
X358000Y182600D02*
D03*
Y213400D02*
D03*
D44*
X547400Y328000D02*
D03*
X516600D02*
D03*
X547400Y332000D02*
D03*
X516600D02*
D03*
X547400Y336000D02*
D03*
X516600D02*
D03*
X547400Y340000D02*
D03*
X516600D02*
D03*
X547400Y344000D02*
D03*
X516600D02*
D03*
X547400Y348000D02*
D03*
X516600D02*
D03*
X547400Y352000D02*
D03*
X516600D02*
D03*
X547400Y356000D02*
D03*
X516600D02*
D03*
X547400Y360000D02*
D03*
X516600D02*
D03*
X547400Y364000D02*
D03*
X516600D02*
D03*
X547400Y368000D02*
D03*
X516600D02*
D03*
X547400Y372000D02*
D03*
X516600D02*
D03*
X547400Y376000D02*
D03*
X516600D02*
D03*
X547400Y380000D02*
D03*
X516600D02*
D03*
X547400Y384000D02*
D03*
X516600D02*
D03*
X112600D02*
D03*
X143400D02*
D03*
X112600Y380000D02*
D03*
X143400D02*
D03*
X112600Y376000D02*
D03*
X143400D02*
D03*
X112600Y372000D02*
D03*
X143400D02*
D03*
X112600Y368000D02*
D03*
X143400D02*
D03*
X112600Y364000D02*
D03*
X143400D02*
D03*
X112600Y360000D02*
D03*
X143400D02*
D03*
X112600Y356000D02*
D03*
X143400D02*
D03*
X112600Y352000D02*
D03*
X143400D02*
D03*
X112600Y348000D02*
D03*
X143400D02*
D03*
X112600Y344000D02*
D03*
X143400D02*
D03*
X112600Y340000D02*
D03*
X143400D02*
D03*
X112600Y336000D02*
D03*
X143400D02*
D03*
X112600Y332000D02*
D03*
X143400D02*
D03*
X112600Y328000D02*
D03*
X143400D02*
D03*
D45*
X418000Y63500D02*
D03*
Y107500D02*
D03*
D46*
X204250Y122500D02*
D03*
X244250D02*
D03*
D47*
X23250Y242050D02*
D03*
Y229350D02*
D03*
Y216650D02*
D03*
Y203950D02*
D03*
X79750Y242050D02*
D03*
Y229350D02*
D03*
Y216650D02*
D03*
Y203950D02*
D03*
D48*
X407750Y134000D02*
D03*
X366750D02*
D03*
D49*
X354000Y72000D02*
D03*
Y48500D02*
D03*
X378750Y72000D02*
D03*
Y48500D02*
D03*
D50*
X167500Y12500D02*
D03*
X177000D02*
D03*
X186500D02*
D03*
Y37500D02*
D03*
X167500D02*
D03*
D51*
X329500Y69500D02*
D03*
Y60000D02*
D03*
Y50500D02*
D03*
X304500D02*
D03*
Y60000D02*
D03*
Y69500D02*
D03*
D52*
X22500Y40500D02*
D03*
Y62500D02*
D03*
D53*
X59800Y40500D02*
D03*
D54*
Y147500D02*
D03*
D55*
X209200Y15000D02*
D03*
X122800D02*
D03*
D56*
X137100Y51500D02*
D03*
X194900D02*
D03*
D57*
X122800Y56800D02*
D03*
X209200D02*
D03*
D58*
X445000Y230000D02*
D03*
X418500Y21000D02*
D03*
X635000Y425000D02*
D03*
X25000D02*
D03*
D59*
X488350Y60250D02*
D03*
X513750D02*
D03*
X595550D02*
D03*
X620950D02*
D03*
X599100Y164350D02*
D03*
X586400Y189750D02*
D03*
X573700Y164350D02*
D03*
X561000Y189750D02*
D03*
X548300Y164350D02*
D03*
X535600Y189750D02*
D03*
X522900Y164350D02*
D03*
X510200Y189750D02*
D03*
X497500Y164350D02*
D03*
D60*
X611800Y189750D02*
D03*
D61*
Y100850D02*
D03*
X497500D02*
D03*
D62*
X632400Y131350D02*
D03*
X476900D02*
D03*
D63*
X285000Y123120D02*
D03*
X335000D02*
D03*
D64*
X365000Y23120D02*
D03*
X255000D02*
D03*
D65*
X631079Y297560D02*
D03*
D66*
Y322960D02*
D03*
Y348360D02*
D03*
Y373760D02*
D03*
D67*
X379750Y401500D02*
D03*
X360500Y318000D02*
D03*
Y311250D02*
D03*
X360250Y304290D02*
D03*
X360595Y325091D02*
D03*
X360540Y331500D02*
D03*
X360750Y338750D02*
D03*
X334000D02*
D03*
X359750Y206250D02*
D03*
X341750Y345210D02*
D03*
X334500Y344500D02*
D03*
X360960Y344750D02*
D03*
X334500Y308152D02*
D03*
X463750Y388000D02*
D03*
X472750Y396250D02*
D03*
X481500Y402250D02*
D03*
X446500Y379000D02*
D03*
X218500Y374500D02*
D03*
X209250Y363000D02*
D03*
X205500Y350000D02*
D03*
X207000Y328000D02*
D03*
X328750Y245250D02*
D03*
X326540Y339000D02*
D03*
X326750Y332750D02*
D03*
X327000Y320500D02*
D03*
X326540Y307500D02*
D03*
X326750Y313750D02*
D03*
X326858Y326843D02*
D03*
X326560Y345243D02*
D03*
X341717Y339210D02*
D03*
X342036Y314090D02*
D03*
Y320340D02*
D03*
X342178Y307497D02*
D03*
X341691Y332999D02*
D03*
X342036Y326590D02*
D03*
X334536Y314090D02*
D03*
Y320340D02*
D03*
X334191Y332999D02*
D03*
X334536Y326590D02*
D03*
X330105Y268002D02*
D03*
X250750Y230500D02*
D03*
X233374Y240124D02*
D03*
X226335Y239987D02*
D03*
X241000Y235500D02*
D03*
X423591Y340942D02*
D03*
X423841Y371192D02*
D03*
X413091Y340442D02*
D03*
X423750Y357000D02*
D03*
Y363750D02*
D03*
X413000Y357250D02*
D03*
X404417Y279809D02*
D03*
X387500Y282000D02*
D03*
X371750Y273000D02*
D03*
X318482Y363000D02*
D03*
X484107Y28414D02*
D03*
X496250Y32250D02*
D03*
X547250Y42500D02*
D03*
X524022Y42213D02*
D03*
X214750Y300250D02*
D03*
X214000Y285500D02*
D03*
X209500Y270750D02*
D03*
X278000Y364750D02*
D03*
X393000Y341250D02*
D03*
X401750Y311152D02*
D03*
X451750Y387750D02*
D03*
X283000Y311500D02*
D03*
X292000Y352750D02*
D03*
X304964Y362042D02*
D03*
X296000Y328750D02*
D03*
X273250Y339500D02*
D03*
X273500Y349250D02*
D03*
X343000Y366500D02*
D03*
X336500Y373250D02*
D03*
X356250Y366750D02*
D03*
X315750Y276000D02*
D03*
X343500Y246250D02*
D03*
X379000Y240250D02*
D03*
X364500Y240500D02*
D03*
X392000D02*
D03*
X405000Y240000D02*
D03*
X257750Y323750D02*
D03*
X392316Y326130D02*
D03*
X347750Y278500D02*
D03*
M02*
