G04*
G04 #@! TF.GenerationSoftware,Altium Limited,Altium Designer,23.8.1 (32)*
G04*
G04 Layer_Color=16711935*
%FSLAX44Y44*%
%MOMM*%
G71*
G04*
G04 #@! TF.SameCoordinates,4EFDB198-7814-4870-AD9F-EEE93015B5C1*
G04*
G04*
G04 #@! TF.FilePolarity,Positive*
G04*
G01*
G75*
%ADD10C,0.1000*%
%ADD14C,0.2000*%
%ADD123C,0.0500*%
D10*
X454900Y219750D02*
X654400D01*
X454900Y-18050D02*
Y219750D01*
Y-18050D02*
X654400D01*
Y219750D01*
X110750Y310250D02*
X190750D01*
X110750D02*
Y393250D01*
X190750D01*
Y310250D02*
Y393250D01*
X237500Y-17880D02*
X382500D01*
Y145880D01*
X237500D02*
X382500D01*
X237500Y-17880D02*
Y145880D01*
X65500Y207750D02*
Y217750D01*
X60500Y212750D02*
X70500D01*
D14*
X331750Y256362D02*
X339250D01*
Y241638D02*
Y256362D01*
X331750Y241638D02*
X339250D01*
X331750D02*
Y256362D01*
X360750Y258612D02*
X368250D01*
Y243888D02*
Y258612D01*
X360750Y243888D02*
X368250D01*
X360750D02*
Y258612D01*
X347000D02*
X354500D01*
Y243888D02*
Y258612D01*
X347000Y243888D02*
X354500D01*
X347000D02*
Y258612D01*
X375250D02*
X382750D01*
Y243888D02*
Y258612D01*
X375250Y243888D02*
X382750D01*
X375250D02*
Y258612D01*
X388250D02*
X395750D01*
Y243888D02*
Y258612D01*
X388250Y243888D02*
X395750D01*
X388250D02*
Y258612D01*
X401250D02*
X408750D01*
Y243888D02*
Y258612D01*
X401250Y243888D02*
X408750D01*
X401250D02*
Y258612D01*
X330362Y365000D02*
Y372500D01*
X315638Y365000D02*
X330362D01*
X315638D02*
Y372500D01*
X330362D01*
X375250Y276091D02*
X382750D01*
Y261366D02*
Y276091D01*
X375250Y261366D02*
X382750D01*
X375250D02*
Y276091D01*
X360750Y261366D02*
Y276091D01*
Y261366D02*
X368250D01*
Y276091D01*
X360750D02*
X368250D01*
X401500Y261366D02*
Y276091D01*
Y261366D02*
X409000D01*
Y276091D01*
X401500D02*
X409000D01*
X388250Y276091D02*
X395750D01*
Y261366D02*
Y276091D01*
X388250Y261366D02*
X395750D01*
X388250D02*
Y276091D01*
X347250Y261366D02*
Y276091D01*
Y261366D02*
X354750D01*
Y276091D01*
X347250D02*
X354750D01*
X330388Y254638D02*
X341112D01*
X330388D02*
Y275362D01*
X341112D01*
Y254638D02*
Y275362D01*
X90000Y343031D02*
X111000D01*
Y302969D02*
Y343031D01*
X90000Y302969D02*
X111000D01*
X90000D02*
Y343031D01*
X290000Y408638D02*
Y423362D01*
X282500D02*
X290000D01*
X282500Y408638D02*
Y423362D01*
Y408638D02*
X290000D01*
X66388Y306638D02*
Y317362D01*
X87112D01*
Y306638D02*
Y317362D01*
X66388Y306638D02*
X87112D01*
X66388Y325388D02*
X87112D01*
Y336112D01*
X66388D02*
X87112D01*
X66388Y325388D02*
Y336112D01*
X54000Y309388D02*
Y324112D01*
Y309388D02*
X61500D01*
Y324112D01*
X54000D02*
X61500D01*
X45000Y309388D02*
Y324112D01*
X37500D02*
X45000D01*
X37500Y309388D02*
Y324112D01*
Y309388D02*
X45000D01*
X86923Y214862D02*
X107648D01*
X86923Y204138D02*
Y214862D01*
Y204138D02*
X107648D01*
Y214862D01*
X21000Y309388D02*
Y324112D01*
Y309388D02*
X28500D01*
Y324112D01*
X21000D02*
X28500D01*
X45750Y205638D02*
Y220362D01*
X38250D02*
X45750D01*
X38250Y205638D02*
Y220362D01*
Y205638D02*
X45750D01*
X222750Y127638D02*
Y142362D01*
X215250D02*
X222750D01*
X215250Y127638D02*
Y142362D01*
Y127638D02*
X222750D01*
X105250Y25638D02*
X112750D01*
X105250D02*
Y40362D01*
X112750D01*
Y25638D02*
Y40362D01*
X73750Y113138D02*
Y127862D01*
X66250D02*
X73750D01*
X66250Y113138D02*
Y127862D01*
Y113138D02*
X73750D01*
X80000Y127612D02*
X87500D01*
Y112888D02*
Y127612D01*
X80000Y112888D02*
X87500D01*
X80000D02*
Y127612D01*
X133112Y128000D02*
Y135500D01*
X118388Y128000D02*
X133112D01*
X118388D02*
Y135500D01*
X133112D01*
D123*
X383250Y288500D02*
Y361000D01*
X310750Y288500D02*
X383250D01*
X310750D02*
Y361000D01*
X383250D01*
X108650Y211000D02*
Y308000D01*
Y211000D02*
X175850D01*
Y308000D01*
X108650D02*
X175850D01*
X95500Y228250D02*
Y302750D01*
X40500D02*
X95500D01*
X40500Y228250D02*
Y302750D01*
Y228250D02*
X95500D01*
X52000Y221250D02*
X79000D01*
X52000Y204250D02*
X79000D01*
Y221250D01*
X52000Y204250D02*
Y221250D01*
X149000Y155000D02*
X211000D01*
Y93000D02*
Y155000D01*
X149000Y93000D02*
X211000D01*
X149000D02*
Y155000D01*
X102000Y139500D02*
Y174500D01*
X140000D01*
Y139500D02*
Y174500D01*
X102000Y139500D02*
X140000D01*
X103750Y76750D02*
Y111750D01*
X141750D01*
Y76750D02*
Y111750D01*
X103750Y76750D02*
X141750D01*
M02*
