G04*
G04 #@! TF.GenerationSoftware,Altium Limited,Altium Designer,23.8.1 (32)*
G04*
G04 Layer_Color=32768*
%FSLAX44Y44*%
%MOMM*%
G71*
G04*
G04 #@! TF.SameCoordinates,4EFDB198-7814-4870-AD9F-EEE93015B5C1*
G04*
G04*
G04 #@! TF.FilePolarity,Positive*
G04*
G01*
G75*
%ADD10C,0.1000*%
%ADD14C,0.2000*%
%ADD123C,0.0500*%
D10*
X89950Y90950D02*
Y185050D01*
X184050D01*
Y90950D02*
Y185050D01*
X89950Y90950D02*
X184050D01*
X383000Y169100D02*
Y226900D01*
X277000D02*
X383000D01*
X277000Y169100D02*
Y226900D01*
Y169100D02*
X383000D01*
X503100Y409000D02*
X560900D01*
X503100Y303000D02*
Y409000D01*
Y303000D02*
X560900D01*
Y409000D01*
X156900Y303000D02*
Y409000D01*
X99100Y303000D02*
X156900D01*
X99100D02*
Y409000D01*
X156900D01*
X46500Y223000D02*
X56500D01*
X51500Y218000D02*
Y228000D01*
D14*
X346750Y317250D02*
Y333750D01*
Y317250D02*
X374750D01*
Y333750D01*
X346750D02*
X374750D01*
X421250Y281000D02*
X437750D01*
Y309000D01*
X421250D02*
X437750D01*
X421250Y281000D02*
Y309000D01*
X285750Y266500D02*
X302250D01*
Y294500D01*
X285750D02*
X302250D01*
X285750Y266500D02*
Y294500D01*
X346750Y333213D02*
Y349713D01*
Y333213D02*
X374750D01*
Y349713D01*
X346750D02*
X374750D01*
X535500Y39612D02*
X543000D01*
X535500Y24888D02*
Y39612D01*
Y24888D02*
X543000D01*
Y39612D01*
X501437Y23000D02*
X509437D01*
Y41000D01*
X501437D02*
X509437D01*
X501437Y23000D02*
Y41000D01*
X240638Y349500D02*
X255362D01*
Y342000D02*
Y349500D01*
X240638Y342000D02*
X255362D01*
X240638D02*
Y349500D01*
X299388Y348888D02*
Y359612D01*
Y348888D02*
X320112D01*
Y359612D01*
X299388D02*
X320112D01*
X280750Y335591D02*
X288250D01*
X280750Y320866D02*
Y335591D01*
Y320866D02*
X288250D01*
Y335591D01*
X282612Y289388D02*
Y300112D01*
X261887D02*
X282612D01*
X261887Y289388D02*
Y300112D01*
Y289388D02*
X282612D01*
X299388Y333888D02*
Y344612D01*
Y333888D02*
X320112D01*
Y344612D01*
X299388D02*
X320112D01*
X299388Y318388D02*
Y329112D01*
Y318388D02*
X320112D01*
Y329112D01*
X299388D02*
X320112D01*
X299388Y364138D02*
Y374862D01*
Y364138D02*
X320112D01*
Y374862D01*
X299388D02*
X320112D01*
X346638Y305362D02*
X357362D01*
X346638Y284638D02*
Y305362D01*
Y284638D02*
X357362D01*
Y305362D01*
X328388Y305362D02*
X339112D01*
X328388Y284638D02*
Y305362D01*
Y284638D02*
X339112D01*
Y305362D01*
X309887Y284638D02*
Y305362D01*
X320612D01*
Y284638D02*
Y305362D01*
X309887Y284638D02*
X320612D01*
X399638Y308362D02*
X410362D01*
X399638Y287638D02*
Y308362D01*
Y287638D02*
X410362D01*
Y308362D01*
X364637Y284638D02*
X375362D01*
Y305362D01*
X364637D02*
X375362D01*
X364637Y284638D02*
Y305362D01*
X393362Y287388D02*
Y308112D01*
X382638Y287388D02*
X393362D01*
X382638D02*
Y308112D01*
X393362D01*
X397888Y360138D02*
Y370862D01*
Y360138D02*
X418612D01*
Y370862D01*
X397888D02*
X418612D01*
X397888Y342388D02*
Y353112D01*
Y342388D02*
X418612D01*
Y353112D01*
X397888D02*
X418612D01*
X397887Y324388D02*
Y335112D01*
Y324388D02*
X418612D01*
Y335112D01*
X397887D02*
X418612D01*
X282362Y271638D02*
Y282362D01*
X261638D02*
X282362D01*
X261638Y271638D02*
Y282362D01*
Y271638D02*
X282362D01*
X282112Y255138D02*
Y265862D01*
X261388D02*
X282112D01*
X261388Y255138D02*
Y265862D01*
Y255138D02*
X282112D01*
X263250Y335591D02*
X270750D01*
X263250Y320866D02*
Y335591D01*
Y320866D02*
X270750D01*
Y335591D01*
X242388Y337862D02*
X253112D01*
X242388Y317138D02*
Y337862D01*
Y317138D02*
X253112D01*
Y337862D01*
X240638Y369250D02*
X255362D01*
X240638D02*
Y376750D01*
X255362D01*
Y369250D02*
Y376750D01*
X240638Y363500D02*
X255362D01*
Y356000D02*
Y363500D01*
X240638Y356000D02*
X255362D01*
X240638D02*
Y363500D01*
X570500Y24888D02*
Y39612D01*
X578000D01*
Y24888D02*
Y39612D01*
X570500Y24888D02*
X578000D01*
X553250D02*
X560750D01*
Y39612D01*
X553250D02*
X560750D01*
X553250Y24888D02*
Y39612D01*
X604437Y23250D02*
Y41250D01*
X612437D01*
Y23250D02*
Y41250D01*
X604437Y23250D02*
X612437D01*
X587250Y24888D02*
Y39612D01*
X594750D01*
Y24888D02*
Y39612D01*
X587250Y24888D02*
X594750D01*
X518750D02*
Y39612D01*
X526250D01*
Y24888D02*
Y39612D01*
X518750Y24888D02*
X526250D01*
X291500Y63000D02*
Y107000D01*
X247500D02*
X291500D01*
X247500Y63000D02*
Y107000D01*
Y63000D02*
X291500D01*
X329500Y17888D02*
Y32612D01*
X337000D01*
Y17888D02*
Y32612D01*
X329500Y17888D02*
X337000D01*
X201000Y136247D02*
X208500D01*
Y150972D01*
X201000D02*
X208500D01*
X201000Y136247D02*
Y150972D01*
X344388Y15138D02*
Y35862D01*
X355112D01*
Y15138D02*
Y35862D01*
X344388Y15138D02*
X355112D01*
X298000Y32612D02*
X305500D01*
X298000Y17888D02*
Y32612D01*
Y17888D02*
X305500D01*
Y32612D01*
X314000D02*
X321500D01*
X314000Y17888D02*
Y32612D01*
Y17888D02*
X321500D01*
Y32612D01*
X290862Y31138D02*
Y41862D01*
X270138D02*
X290862D01*
X270138Y31138D02*
Y41862D01*
Y31138D02*
X290862D01*
Y46388D02*
Y57112D01*
X270138D02*
X290862D01*
X270138Y46388D02*
Y57112D01*
Y46388D02*
X290862D01*
X270138Y12138D02*
Y22862D01*
Y12138D02*
X290862D01*
Y22862D01*
X270138D02*
X290862D01*
X530888Y147327D02*
X541612D01*
X530888Y126602D02*
Y147327D01*
Y126602D02*
X541612D01*
Y147327D01*
X546638Y147112D02*
X557362D01*
X546638Y126388D02*
Y147112D01*
Y126388D02*
X557362D01*
Y147112D01*
X218250Y91362D02*
X225750D01*
X218250Y76638D02*
Y91362D01*
Y76638D02*
X225750D01*
Y91362D01*
X347888Y83888D02*
X358612D01*
Y104612D01*
X347888D02*
X358612D01*
X347888Y83888D02*
Y104612D01*
X366888Y83888D02*
X377612D01*
Y104612D01*
X366888D02*
X377612D01*
X366888Y83888D02*
Y104612D01*
X184362Y49638D02*
Y70362D01*
X173638Y49638D02*
X184362D01*
X173638D02*
Y70362D01*
X184362D01*
X132423Y18362D02*
X153148D01*
Y7638D02*
Y18362D01*
X132423Y7638D02*
X153148D01*
X132423D02*
Y18362D01*
X132638Y36362D02*
X153362D01*
Y25638D02*
Y36362D01*
X132638Y25638D02*
X153362D01*
X132638D02*
Y36362D01*
X162250Y91362D02*
X169750D01*
X162250Y76638D02*
Y91362D01*
Y76638D02*
X169750D01*
Y91362D01*
X470771Y55984D02*
Y105016D01*
X437729Y55984D02*
X470771D01*
X437729D02*
Y105016D01*
X470771D01*
X121638Y72638D02*
Y93362D01*
X132362D01*
Y72638D02*
Y93362D01*
X121638Y72638D02*
X132362D01*
X141638D02*
Y93362D01*
X152362D01*
Y72638D02*
Y93362D01*
X141638Y72638D02*
X152362D01*
X180250Y76638D02*
Y91362D01*
X187750D01*
Y76638D02*
Y91362D01*
X180250Y76638D02*
X187750D01*
X197638Y73638D02*
Y94362D01*
X208362D01*
Y73638D02*
Y94362D01*
X197638Y73638D02*
X208362D01*
X55362Y79638D02*
Y100362D01*
X44638Y79638D02*
X55362D01*
X44638D02*
Y100362D01*
X55362D01*
X44138Y57638D02*
X64862D01*
X44138D02*
Y68362D01*
X64862D01*
Y57638D02*
Y68362D01*
X89500Y60000D02*
Y74000D01*
X80500Y60000D02*
X89500D01*
X80500D02*
Y74000D01*
X89500D01*
D123*
X395800Y121000D02*
X440200D01*
X395800Y50000D02*
Y121000D01*
Y50000D02*
X440200D01*
Y121000D01*
X10000Y193000D02*
Y253000D01*
X93000Y193000D02*
Y253000D01*
X10000D02*
X93000D01*
X10000Y193000D02*
X93000D01*
X616079Y282160D02*
X646079D01*
X616079D02*
Y389160D01*
X646079D01*
Y282160D02*
Y389160D01*
X353250Y117500D02*
X421250D01*
X353250D02*
Y150500D01*
X421250D01*
Y117500D02*
Y150500D01*
X365500Y40250D02*
Y80250D01*
X342500Y40250D02*
X365500D01*
X342500D02*
Y80250D01*
X365500D01*
X159250Y4000D02*
Y46000D01*
X194750D01*
Y4000D02*
Y46000D01*
X159250Y4000D02*
X194750D01*
X367250Y40250D02*
X390250D01*
Y80250D01*
X367250D02*
X390250D01*
X367250Y40250D02*
Y80250D01*
X295000Y42000D02*
Y78000D01*
Y42000D02*
X339000D01*
Y78000D01*
X295000D02*
X339000D01*
M02*
