G04*
G04 #@! TF.GenerationSoftware,Altium Limited,Altium Designer,23.8.1 (32)*
G04*
G04 Layer_Color=16711935*
%FSLAX44Y44*%
%MOMM*%
G71*
G04*
G04 #@! TF.SameCoordinates,4EFDB198-7814-4870-AD9F-EEE93015B5C1*
G04*
G04*
G04 #@! TF.FilePolarity,Negative*
G04*
G01*
G75*
%ADD21R,0.4725X0.4682*%
%ADD23R,0.4682X0.4725*%
%ADD24R,0.7154X0.6725*%
%ADD26R,0.6725X0.7154*%
%ADD55O,1.2032X2.0032*%
%ADD56C,0.2000*%
%ADD57O,1.2032X2.3032*%
%ADD58C,3.2000*%
%ADD59C,1.6032*%
%ADD60R,1.6032X1.6032*%
%ADD61C,1.8282*%
%ADD62C,2.6032*%
%ADD63C,2.7532*%
%ADD64C,1.7032*%
%ADD65R,1.8532X1.8532*%
%ADD66C,1.8532*%
%ADD67C,0.6532*%
%ADD95R,1.8062X1.6039*%
%ADD107R,0.3500X1.5500*%
%ADD108R,4.8532X4.8532*%
%ADD109R,0.4032X1.0532*%
%ADD110R,1.0532X0.4032*%
%ADD111R,3.3032X2.4032*%
%ADD112R,5.9032X1.8032*%
%ADD113R,0.6000X2.0000*%
%ADD114R,2.2000X1.7000*%
%ADD115R,0.8532X1.7282*%
%ADD116R,3.3032X2.6032*%
%ADD117R,1.3032X1.5532*%
%ADD118R,3.5532X3.5532*%
%ADD119R,1.2032X0.5032*%
%ADD120R,0.5032X1.2032*%
%ADD121R,1.3032X0.8032*%
D21*
X335500Y244979D02*
D03*
Y253022D02*
D03*
X364500Y247229D02*
D03*
Y255271D02*
D03*
X350750Y247229D02*
D03*
Y255271D02*
D03*
X379000Y247229D02*
D03*
Y255271D02*
D03*
X392000Y247229D02*
D03*
Y255271D02*
D03*
X405000Y247229D02*
D03*
Y255271D02*
D03*
X379000Y264707D02*
D03*
Y272750D02*
D03*
X364500Y272750D02*
D03*
Y264707D02*
D03*
X405250Y272750D02*
D03*
Y264707D02*
D03*
X392000Y264707D02*
D03*
Y272750D02*
D03*
X351000Y272750D02*
D03*
Y264707D02*
D03*
X286250Y411978D02*
D03*
Y420022D02*
D03*
X57750Y320771D02*
D03*
Y312729D02*
D03*
X41250Y312729D02*
D03*
Y320771D02*
D03*
X24750Y320771D02*
D03*
Y312729D02*
D03*
X42000Y208979D02*
D03*
Y217022D02*
D03*
X219000Y130978D02*
D03*
Y139022D02*
D03*
X109000Y37022D02*
D03*
Y28979D02*
D03*
X70000Y116479D02*
D03*
Y124522D02*
D03*
X83750Y116229D02*
D03*
Y124271D02*
D03*
D23*
X318979Y368750D02*
D03*
X327021D02*
D03*
X121728Y131750D02*
D03*
X129771D02*
D03*
D24*
X81536Y312000D02*
D03*
X71964D02*
D03*
Y330750D02*
D03*
X81536D02*
D03*
X102071Y209500D02*
D03*
X92500D02*
D03*
D26*
X335750Y269786D02*
D03*
Y260214D02*
D03*
D55*
X209200Y15000D02*
D03*
X122800D02*
D03*
D56*
X137100Y51500D02*
D03*
X194900D02*
D03*
D57*
X122800Y56800D02*
D03*
X209200D02*
D03*
D58*
X445000Y230000D02*
D03*
X418500Y21000D02*
D03*
X635000Y425000D02*
D03*
X25000D02*
D03*
D59*
X488350Y60250D02*
D03*
X513750D02*
D03*
X595550D02*
D03*
X620950D02*
D03*
X599100Y164350D02*
D03*
X586400Y189750D02*
D03*
X573700Y164350D02*
D03*
X561000Y189750D02*
D03*
X548300Y164350D02*
D03*
X535600Y189750D02*
D03*
X522900Y164350D02*
D03*
X510200Y189750D02*
D03*
X497500Y164350D02*
D03*
D60*
X611800Y189750D02*
D03*
D61*
Y100850D02*
D03*
X497500D02*
D03*
D62*
X632400Y131350D02*
D03*
X476900D02*
D03*
D63*
X285000Y123120D02*
D03*
X335000D02*
D03*
D64*
X365000Y23120D02*
D03*
X255000D02*
D03*
D65*
X631079Y297560D02*
D03*
D66*
Y322960D02*
D03*
Y348360D02*
D03*
Y373760D02*
D03*
D67*
X379750Y401500D02*
D03*
X360500Y318000D02*
D03*
Y311250D02*
D03*
X360250Y304290D02*
D03*
X360595Y325091D02*
D03*
X360540Y331500D02*
D03*
X360750Y338750D02*
D03*
X334000D02*
D03*
X359750Y206250D02*
D03*
X341750Y345210D02*
D03*
X334500Y344500D02*
D03*
X360960Y344750D02*
D03*
X334500Y308152D02*
D03*
X463750Y388000D02*
D03*
X472750Y396250D02*
D03*
X481500Y402250D02*
D03*
X446500Y379000D02*
D03*
X218500Y374500D02*
D03*
X209250Y363000D02*
D03*
X205500Y350000D02*
D03*
X207000Y328000D02*
D03*
X328750Y245250D02*
D03*
X326540Y339000D02*
D03*
X326750Y332750D02*
D03*
X327000Y320500D02*
D03*
X326540Y307500D02*
D03*
X326750Y313750D02*
D03*
X326858Y326843D02*
D03*
X326560Y345243D02*
D03*
X341717Y339210D02*
D03*
X342036Y314090D02*
D03*
Y320340D02*
D03*
X342178Y307497D02*
D03*
X341691Y332999D02*
D03*
X342036Y326590D02*
D03*
X334536Y314090D02*
D03*
Y320340D02*
D03*
X334191Y332999D02*
D03*
X334536Y326590D02*
D03*
X330105Y268002D02*
D03*
X250750Y230500D02*
D03*
X233374Y240124D02*
D03*
X226335Y239987D02*
D03*
X241000Y235500D02*
D03*
X423591Y340942D02*
D03*
X423841Y371192D02*
D03*
X413091Y340442D02*
D03*
X423750Y357000D02*
D03*
Y363750D02*
D03*
X413000Y357250D02*
D03*
X404417Y279809D02*
D03*
X387500Y282000D02*
D03*
X371750Y273000D02*
D03*
X318482Y363000D02*
D03*
X484107Y28414D02*
D03*
X496250Y32250D02*
D03*
X547250Y42500D02*
D03*
X524022Y42213D02*
D03*
X214750Y300250D02*
D03*
X214000Y285500D02*
D03*
X209500Y270750D02*
D03*
X278000Y364750D02*
D03*
X393000Y341250D02*
D03*
X401750Y311152D02*
D03*
X451750Y387750D02*
D03*
X283000Y311500D02*
D03*
X292000Y352750D02*
D03*
X304964Y362042D02*
D03*
X296000Y328750D02*
D03*
X273250Y339500D02*
D03*
X273500Y349250D02*
D03*
X343000Y366500D02*
D03*
X336500Y373250D02*
D03*
X356250Y366750D02*
D03*
X315750Y276000D02*
D03*
X343500Y246250D02*
D03*
X379000Y240250D02*
D03*
X364500Y240500D02*
D03*
X392000D02*
D03*
X405000Y240000D02*
D03*
X257750Y323750D02*
D03*
X392316Y326130D02*
D03*
X347750Y278500D02*
D03*
D95*
X100500Y311989D02*
D03*
Y334011D02*
D03*
D107*
X183500Y64550D02*
D03*
X178500D02*
D03*
X168500D02*
D03*
X163500D02*
D03*
X158500D02*
D03*
X153500D02*
D03*
X148500D02*
D03*
X143000D02*
D03*
X140000D02*
D03*
X189000D02*
D03*
X192000D02*
D03*
X173500D02*
D03*
X132250D02*
D03*
X199750D02*
D03*
X135250D02*
D03*
X196750D02*
D03*
D108*
X347000Y324750D02*
D03*
D109*
X369000Y354250D02*
D03*
X365000D02*
D03*
X361000D02*
D03*
X357000D02*
D03*
X353000D02*
D03*
X349000D02*
D03*
X345000D02*
D03*
X341000D02*
D03*
X337000D02*
D03*
X333000D02*
D03*
X329000D02*
D03*
X325000D02*
D03*
Y295250D02*
D03*
X329000D02*
D03*
X333000D02*
D03*
X337000D02*
D03*
X341000D02*
D03*
X345000D02*
D03*
X349000D02*
D03*
X353000D02*
D03*
X357000D02*
D03*
X361000D02*
D03*
X365000D02*
D03*
X369000D02*
D03*
D110*
X317500Y346750D02*
D03*
Y342750D02*
D03*
Y338750D02*
D03*
Y334750D02*
D03*
Y330750D02*
D03*
Y326750D02*
D03*
Y322750D02*
D03*
Y318750D02*
D03*
Y314750D02*
D03*
Y310750D02*
D03*
Y306750D02*
D03*
Y302750D02*
D03*
X376500D02*
D03*
Y306750D02*
D03*
Y310750D02*
D03*
Y314750D02*
D03*
Y318750D02*
D03*
Y322750D02*
D03*
Y326750D02*
D03*
Y330750D02*
D03*
Y334750D02*
D03*
Y338750D02*
D03*
Y342750D02*
D03*
Y346750D02*
D03*
D111*
X142250Y294500D02*
D03*
Y224500D02*
D03*
D112*
X150750Y375250D02*
D03*
Y328250D02*
D03*
D113*
X342500Y401750D02*
D03*
X352500D02*
D03*
X322500D02*
D03*
X332500D02*
D03*
X372500D02*
D03*
X362500D02*
D03*
D114*
X385000Y438250D02*
D03*
X310000D02*
D03*
D115*
X87050Y238380D02*
D03*
X74350D02*
D03*
X61650D02*
D03*
X48950D02*
D03*
Y292620D02*
D03*
X61650D02*
D03*
X74350D02*
D03*
X87050D02*
D03*
D116*
X68000Y265500D02*
D03*
D117*
X72500Y212750D02*
D03*
X58500D02*
D03*
D118*
X180000Y124000D02*
D03*
D119*
X156500Y139000D02*
D03*
Y134000D02*
D03*
Y129000D02*
D03*
Y124000D02*
D03*
Y119000D02*
D03*
Y114000D02*
D03*
Y109000D02*
D03*
X203500D02*
D03*
Y114000D02*
D03*
Y119000D02*
D03*
Y124000D02*
D03*
Y129000D02*
D03*
Y134000D02*
D03*
Y139000D02*
D03*
D120*
X165000Y100500D02*
D03*
X170000D02*
D03*
X175000D02*
D03*
X180000D02*
D03*
X185000D02*
D03*
X190000D02*
D03*
X195000D02*
D03*
Y147500D02*
D03*
X190000D02*
D03*
X185000D02*
D03*
X180000D02*
D03*
X175000D02*
D03*
X170000D02*
D03*
X165000D02*
D03*
D121*
X132000Y157000D02*
D03*
X110000Y166500D02*
D03*
Y147500D02*
D03*
X133750Y94250D02*
D03*
X111750Y103750D02*
D03*
Y84750D02*
D03*
M02*
