G04*
G04 #@! TF.GenerationSoftware,Altium Limited,Altium Designer,23.8.1 (32)*
G04*
G04 Layer_Color=16711935*
%FSLAX44Y44*%
%MOMM*%
G71*
G04*
G04 #@! TF.SameCoordinates,4EFDB198-7814-4870-AD9F-EEE93015B5C1*
G04*
G04*
G04 #@! TF.FilePolarity,Positive*
G04*
G01*
G75*
%ADD10C,0.1000*%
%ADD14C,0.2000*%
D10*
X45500Y239000D02*
G03*
X45500Y239000I-5000J0D01*
G01*
X102000Y103000D02*
Y173000D01*
X172000D01*
Y103000D02*
Y173000D01*
X102000Y103000D02*
X172000D01*
X475900Y209750D02*
X633400D01*
X475900Y-8050D02*
Y209750D01*
Y-8050D02*
X633400D01*
Y209750D01*
X373000Y354750D02*
X377000Y350750D01*
Y294750D02*
Y354750D01*
X317000Y294750D02*
X377000D01*
X317000D02*
Y354750D01*
X377000D01*
X112730Y219800D02*
Y299200D01*
Y219800D02*
X171770D01*
Y299200D01*
X112730D02*
X171770D01*
X112730Y288200D02*
X123730Y299200D01*
X399900Y112500D02*
X436100D01*
X399900Y58500D02*
Y112500D01*
Y58500D02*
X436100D01*
Y112500D01*
X31500Y198000D02*
Y248000D01*
X71500Y198000D02*
Y248000D01*
X31500D02*
X71500D01*
X31500Y198000D02*
X71500D01*
X618579Y284660D02*
X643579D01*
X618579D02*
Y386660D01*
X643579D01*
Y284660D02*
Y386660D01*
X362050Y121000D02*
X412450D01*
X362050D02*
Y147000D01*
X412450D01*
Y121000D02*
Y147000D01*
X405200Y121000D02*
X412450Y128250D01*
X92500Y246000D02*
Y285000D01*
X43500D02*
X92500D01*
X43500Y246000D02*
Y285000D01*
Y246000D02*
X92500D01*
X79800D02*
X92500Y258700D01*
X54500Y220000D02*
X76500D01*
X54500Y205500D02*
X76500D01*
Y220000D01*
X54500Y205500D02*
Y220000D01*
X155000Y144000D02*
X160000Y149000D01*
X155000D02*
X205000D01*
Y99000D02*
Y149000D01*
X155000Y99000D02*
X205000D01*
X155000D02*
Y149000D01*
X360500Y51750D02*
Y68750D01*
X347500Y51750D02*
X360500D01*
X347500D02*
Y68750D01*
X360500D01*
X355000D02*
X360500Y63250D01*
X162500Y17000D02*
Y33000D01*
X191500D01*
Y17000D02*
Y33000D01*
X162500Y17000D02*
X191500D01*
X162500Y26500D02*
X172000Y17000D01*
X372250Y57250D02*
X377750Y51750D01*
X372250D02*
X385250D01*
Y68750D01*
X372250D02*
X385250D01*
X372250Y51750D02*
Y68750D01*
X309250Y65000D02*
X318750Y74500D01*
X309250Y45500D02*
Y74500D01*
Y45500D02*
X324750D01*
Y74500D01*
X309250D02*
X324750D01*
X114500Y152000D02*
X124000Y142500D01*
X114500D02*
Y171500D01*
X127500D01*
Y142500D02*
Y171500D01*
X114500Y142500D02*
X127500D01*
X116250Y89250D02*
X125750Y79750D01*
X116250D02*
Y108750D01*
X129250D01*
Y79750D02*
Y108750D01*
X116250Y79750D02*
X129250D01*
D14*
X373000Y183300D02*
Y212700D01*
X287000D02*
X373000D01*
X287000Y183300D02*
Y212700D01*
Y183300D02*
X373000D01*
X517300Y399000D02*
X546700D01*
X517300Y313000D02*
Y399000D01*
Y313000D02*
X546700D01*
Y399000D01*
X120750Y321750D02*
X180750D01*
X120750D02*
Y381750D01*
X180750D01*
Y321750D02*
Y381750D01*
X260500Y-7870D02*
X359500D01*
Y131620D01*
X260500D02*
X359500D01*
X260500Y-7870D02*
Y131620D01*
X142700Y313000D02*
Y399000D01*
X113300Y313000D02*
X142700D01*
X113300D02*
Y399000D01*
X142700D01*
X15000Y14000D02*
X67300D01*
X15000D02*
Y151500D01*
X67300D01*
Y14000D02*
Y151500D01*
M02*
