G04*
G04 #@! TF.GenerationSoftware,Altium Limited,Altium Designer,23.8.1 (32)*
G04*
G04 Layer_Color=32768*
%FSLAX44Y44*%
%MOMM*%
G71*
G04*
G04 #@! TF.SameCoordinates,4EFDB198-7814-4870-AD9F-EEE93015B5C1*
G04*
G04*
G04 #@! TF.FilePolarity,Positive*
G04*
G01*
G75*
%ADD14C,0.2000*%
D14*
X333000Y254000D02*
X338000D01*
Y244000D02*
Y254000D01*
X333000Y244000D02*
X338000D01*
X333000D02*
Y254000D01*
X362000Y256250D02*
X367000D01*
Y246250D02*
Y256250D01*
X362000Y246250D02*
X367000D01*
X362000D02*
Y256250D01*
X348250D02*
X353250D01*
Y246250D02*
Y256250D01*
X348250Y246250D02*
X353250D01*
X348250D02*
Y256250D01*
X376500D02*
X381500D01*
Y246250D02*
Y256250D01*
X376500Y246250D02*
X381500D01*
X376500D02*
Y256250D01*
X389500D02*
X394500D01*
Y246250D02*
Y256250D01*
X389500Y246250D02*
X394500D01*
X389500D02*
Y256250D01*
X402500D02*
X407500D01*
Y246250D02*
Y256250D01*
X402500Y246250D02*
X407500D01*
X402500D02*
Y256250D01*
X328000Y366250D02*
Y371250D01*
X318000Y366250D02*
X328000D01*
X318000D02*
Y371250D01*
X328000D01*
X376500Y273729D02*
X381500D01*
Y263729D02*
Y273729D01*
X376500Y263729D02*
X381500D01*
X376500D02*
Y273729D01*
X362000Y263729D02*
Y273729D01*
Y263729D02*
X367000D01*
Y273729D01*
X362000D02*
X367000D01*
X402750Y263729D02*
Y273729D01*
Y263729D02*
X407750D01*
Y273729D01*
X402750D02*
X407750D01*
X389500Y273729D02*
X394500D01*
Y263729D02*
Y273729D01*
X389500Y263729D02*
X394500D01*
X389500D02*
Y273729D01*
X348500Y263729D02*
Y273729D01*
Y263729D02*
X353500D01*
Y273729D01*
X348500D02*
X353500D01*
X333250Y260000D02*
X338250D01*
X333250D02*
Y270000D01*
X338250D01*
Y260000D02*
Y270000D01*
X92500Y339000D02*
X108500D01*
Y307000D02*
Y339000D01*
X92500Y307000D02*
X108500D01*
X92500D02*
Y339000D01*
X288750Y411000D02*
Y421000D01*
X283750D02*
X288750D01*
X283750Y411000D02*
Y421000D01*
Y411000D02*
X288750D01*
X71750Y309500D02*
Y314500D01*
X81750D01*
Y309500D02*
Y314500D01*
X71750Y309500D02*
X81750D01*
X71750Y328250D02*
X81750D01*
Y333250D01*
X71750D02*
X81750D01*
X71750Y328250D02*
Y333250D01*
X55250Y311750D02*
Y321750D01*
Y311750D02*
X60250D01*
Y321750D01*
X55250D02*
X60250D01*
X43750Y311750D02*
Y321750D01*
X38750D02*
X43750D01*
X38750Y311750D02*
Y321750D01*
Y311750D02*
X43750D01*
X92286Y212000D02*
X102286D01*
X92286Y207000D02*
Y212000D01*
Y207000D02*
X102286D01*
Y212000D01*
X22250Y311750D02*
Y321750D01*
Y311750D02*
X27250D01*
Y321750D01*
X22250D02*
X27250D01*
X44500Y208000D02*
Y218000D01*
X39500D02*
X44500D01*
X39500Y208000D02*
Y218000D01*
Y208000D02*
X44500D01*
X221500Y130000D02*
Y140000D01*
X216500D02*
X221500D01*
X216500Y130000D02*
Y140000D01*
Y130000D02*
X221500D01*
X106500Y28000D02*
X111500D01*
X106500D02*
Y38000D01*
X111500D01*
Y28000D02*
Y38000D01*
X72500Y115500D02*
Y125500D01*
X67500D02*
X72500D01*
X67500Y115500D02*
Y125500D01*
Y115500D02*
X72500D01*
X81250Y125250D02*
X86250D01*
Y115250D02*
Y125250D01*
X81250Y115250D02*
X86250D01*
X81250D02*
Y125250D01*
X130750Y129250D02*
Y134250D01*
X120750Y129250D02*
X130750D01*
X120750D02*
Y134250D01*
X130750D01*
M02*
