G04*
G04 #@! TF.GenerationSoftware,Altium Limited,Altium Designer,23.8.1 (32)*
G04*
G04 Layer_Color=65535*
%FSLAX44Y44*%
%MOMM*%
G71*
G04*
G04 #@! TF.SameCoordinates,4EFDB198-7814-4870-AD9F-EEE93015B5C1*
G04*
G04*
G04 #@! TF.FilePolarity,Positive*
G04*
G01*
G75*
%ADD10C,0.1000*%
%ADD11C,0.2500*%
%ADD12C,0.1500*%
%ADD13C,0.6000*%
%ADD14C,0.2000*%
G36*
X597014Y12500D02*
X596866D01*
X596700Y12481D01*
X596515Y12463D01*
X596292Y12444D01*
X596052Y12407D01*
X595829Y12333D01*
X595626Y12259D01*
X595607Y12241D01*
X595552Y12222D01*
X595459Y12167D01*
X595348Y12092D01*
X595237Y11981D01*
X595126Y11870D01*
X594996Y11741D01*
X594903Y11574D01*
X594885Y11556D01*
X594866Y11481D01*
X594792Y11352D01*
X594718Y11167D01*
X594663Y11056D01*
X594607Y10907D01*
X594552Y10741D01*
X594478Y10574D01*
X594404Y10371D01*
X594311Y10130D01*
X594218Y9889D01*
X594126Y9611D01*
X592719Y5426D01*
X589478D01*
X593070Y16036D01*
X596292D01*
X595718Y14629D01*
X595737Y14648D01*
X595774Y14703D01*
X595848Y14777D01*
X595922Y14870D01*
X596033Y14981D01*
X596181Y15111D01*
X596329Y15259D01*
X596496Y15407D01*
X596885Y15685D01*
X597311Y15944D01*
X597551Y16055D01*
X597792Y16148D01*
X598033Y16203D01*
X598292Y16240D01*
X597014Y12500D01*
D02*
G37*
G36*
X584182Y18629D02*
X584331Y18610D01*
X584664Y18573D01*
X585016Y18499D01*
X585405Y18407D01*
X585756Y18259D01*
X586071Y18055D01*
X586108Y18036D01*
X586201Y17944D01*
X586312Y17833D01*
X586460Y17666D01*
X586608Y17444D01*
X586719Y17203D01*
X586812Y16925D01*
X586849Y16611D01*
Y16592D01*
Y16573D01*
Y16518D01*
Y16444D01*
X586830Y16351D01*
Y16240D01*
X586812Y16111D01*
X586775Y15963D01*
X586756Y15777D01*
X586719Y15592D01*
X586664Y15370D01*
X586608Y15129D01*
X586534Y14870D01*
X586460Y14574D01*
X586367Y14277D01*
X586256Y13944D01*
X585830Y12722D01*
X582460D01*
X583238Y14981D01*
Y15000D01*
X583257Y15018D01*
X583294Y15148D01*
X583349Y15296D01*
X583405Y15500D01*
X583460Y15703D01*
X583497Y15907D01*
X583534Y16074D01*
Y16203D01*
Y16222D01*
Y16240D01*
X583479Y16333D01*
X583442Y16388D01*
X583368Y16425D01*
X583275Y16444D01*
X583164Y16462D01*
X583090D01*
X583016Y16444D01*
X582923Y16425D01*
X582812Y16388D01*
X582720Y16333D01*
X582608Y16259D01*
X582516Y16148D01*
Y16129D01*
X582479Y16092D01*
X582442Y15999D01*
X582368Y15870D01*
X582294Y15703D01*
X582201Y15481D01*
X582090Y15203D01*
X581979Y14870D01*
X579924Y8852D01*
Y8834D01*
X579905Y8815D01*
X579868Y8704D01*
X579831Y8537D01*
X579776Y8352D01*
X579720Y8130D01*
X579664Y7926D01*
X579627Y7760D01*
Y7612D01*
Y7593D01*
X579646Y7574D01*
X579683Y7482D01*
X579738Y7426D01*
X579813Y7371D01*
X579905Y7352D01*
X580035Y7334D01*
X580090D01*
X580164Y7352D01*
X580238Y7371D01*
X580331Y7408D01*
X580442Y7445D01*
X580535Y7519D01*
X580609Y7612D01*
X580627Y7630D01*
X580646Y7667D01*
X580701Y7760D01*
X580775Y7889D01*
X580849Y8074D01*
X580961Y8315D01*
X581072Y8611D01*
X581201Y8963D01*
X581757Y10611D01*
X585127D01*
X584942Y10093D01*
Y10074D01*
X584905Y10000D01*
X584886Y9908D01*
X584831Y9759D01*
X584775Y9611D01*
X584701Y9408D01*
X584627Y9204D01*
X584534Y8982D01*
X584349Y8519D01*
X584145Y8056D01*
X583923Y7612D01*
X583812Y7408D01*
X583701Y7241D01*
X583683Y7204D01*
X583590Y7093D01*
X583460Y6945D01*
X583275Y6741D01*
X583016Y6519D01*
X582720Y6278D01*
X582349Y6019D01*
X581942Y5778D01*
X581923D01*
X581886Y5760D01*
X581831Y5723D01*
X581738Y5686D01*
X581627Y5630D01*
X581497Y5575D01*
X581349Y5519D01*
X581164Y5464D01*
X580775Y5353D01*
X580350Y5241D01*
X579850Y5167D01*
X579331Y5149D01*
X579090D01*
X578961Y5167D01*
X578831Y5186D01*
X578498Y5223D01*
X578128Y5278D01*
X577757Y5371D01*
X577387Y5501D01*
X577072Y5667D01*
X577035Y5686D01*
X576942Y5760D01*
X576831Y5889D01*
X576683Y6056D01*
X576535Y6260D01*
X576424Y6519D01*
X576331Y6815D01*
X576294Y7149D01*
Y7167D01*
Y7186D01*
Y7260D01*
X576313Y7334D01*
Y7426D01*
X576331Y7556D01*
X576350Y7704D01*
X576387Y7871D01*
X576424Y8056D01*
X576461Y8278D01*
X576517Y8500D01*
X576591Y8759D01*
X576665Y9037D01*
X576739Y9352D01*
X576850Y9667D01*
X576961Y10019D01*
X578239Y13796D01*
Y13815D01*
X578257Y13852D01*
X578294Y13926D01*
X578313Y14018D01*
X578368Y14148D01*
X578405Y14277D01*
X578516Y14592D01*
X578646Y14926D01*
X578794Y15277D01*
X578924Y15611D01*
X579053Y15888D01*
X579072Y15925D01*
X579109Y16018D01*
X579202Y16148D01*
X579313Y16314D01*
X579442Y16537D01*
X579627Y16759D01*
X579831Y16999D01*
X580072Y17240D01*
X580109Y17277D01*
X580201Y17351D01*
X580350Y17462D01*
X580553Y17610D01*
X580794Y17777D01*
X581072Y17944D01*
X581386Y18110D01*
X581738Y18259D01*
X581757D01*
X581775Y18277D01*
X581831Y18296D01*
X581905Y18314D01*
X582109Y18388D01*
X582368Y18462D01*
X582683Y18518D01*
X583034Y18592D01*
X583405Y18629D01*
X583812Y18647D01*
X584053D01*
X584182Y18629D01*
D02*
G37*
G36*
X563573Y16222D02*
X563814Y16203D01*
X564092Y16166D01*
X564370Y16129D01*
X564647Y16055D01*
X564907Y15963D01*
X564944Y15944D01*
X565018Y15907D01*
X565129Y15851D01*
X565258Y15777D01*
X565407Y15666D01*
X565555Y15537D01*
X565684Y15407D01*
X565795Y15240D01*
X565814Y15222D01*
X565832Y15166D01*
X565869Y15092D01*
X565925Y14981D01*
X565999Y14722D01*
Y14574D01*
Y14426D01*
Y14407D01*
X565981Y14352D01*
Y14259D01*
X565944Y14148D01*
X565906Y13981D01*
X565851Y13778D01*
X565777Y13537D01*
X565684Y13259D01*
X565481Y12648D01*
X562611D01*
X562814Y13222D01*
X562833Y13259D01*
X562851Y13333D01*
X562888Y13463D01*
X562925Y13611D01*
X562981Y13759D01*
X563018Y13926D01*
X563036Y14055D01*
Y14148D01*
Y14166D01*
Y14185D01*
X562981Y14259D01*
X562944Y14296D01*
X562888Y14315D01*
X562796Y14352D01*
X562648D01*
X562518Y14333D01*
X562370Y14277D01*
X562203Y14166D01*
X562166Y14129D01*
X562092Y14037D01*
X562000Y13870D01*
X561888Y13629D01*
Y13611D01*
X561870Y13555D01*
X561833Y13463D01*
X561796Y13352D01*
X561740Y13111D01*
X561722Y13000D01*
X561703Y12907D01*
Y12889D01*
Y12870D01*
X561740Y12759D01*
X561814Y12611D01*
X561870Y12500D01*
X561944Y12407D01*
X561963Y12389D01*
X562000Y12352D01*
X562074Y12296D01*
X562185Y12204D01*
X562333Y12092D01*
X562537Y11963D01*
X562796Y11796D01*
X563092Y11611D01*
X563111D01*
X563148Y11574D01*
X563203Y11537D01*
X563277Y11500D01*
X563481Y11370D01*
X563703Y11185D01*
X563944Y11000D01*
X564184Y10778D01*
X564370Y10556D01*
X564444Y10426D01*
X564499Y10315D01*
X564518Y10296D01*
X564536Y10204D01*
X564555Y10074D01*
Y9870D01*
Y9630D01*
X564518Y9315D01*
X564444Y8963D01*
X564333Y8556D01*
Y8537D01*
X564314Y8500D01*
X564296Y8426D01*
X564259Y8352D01*
X564221Y8241D01*
X564166Y8111D01*
X564036Y7834D01*
X563888Y7500D01*
X563722Y7186D01*
X563536Y6871D01*
X563333Y6593D01*
X563314Y6556D01*
X563240Y6482D01*
X563111Y6371D01*
X562944Y6223D01*
X562740Y6056D01*
X562481Y5889D01*
X562185Y5741D01*
X561870Y5593D01*
X561851D01*
X561833Y5575D01*
X561777Y5556D01*
X561703Y5538D01*
X561518Y5482D01*
X561277Y5426D01*
X560981Y5353D01*
X560629Y5297D01*
X560259Y5260D01*
X559852Y5241D01*
X559648D01*
X559537Y5260D01*
X559426D01*
X559148Y5297D01*
X558815Y5334D01*
X558500Y5390D01*
X558167Y5482D01*
X557870Y5612D01*
X557833Y5630D01*
X557759Y5686D01*
X557630Y5778D01*
X557481Y5889D01*
X557333Y6038D01*
X557204Y6223D01*
X557093Y6426D01*
X557019Y6649D01*
Y6686D01*
X557000Y6778D01*
Y6926D01*
X557019Y7149D01*
X557056Y7426D01*
X557130Y7778D01*
X557222Y8185D01*
X557370Y8648D01*
X557537Y9167D01*
X560407D01*
X560185Y8482D01*
X560166Y8445D01*
X560148Y8352D01*
X560092Y8204D01*
X560037Y8019D01*
X559981Y7834D01*
X559944Y7649D01*
X559907Y7500D01*
Y7371D01*
Y7352D01*
Y7334D01*
X559963Y7260D01*
X560000Y7204D01*
X560055Y7167D01*
X560148Y7149D01*
X560259Y7130D01*
X560314D01*
X560370Y7149D01*
X560444D01*
X560611Y7204D01*
X560777Y7297D01*
X560796D01*
X560815Y7334D01*
X560852Y7371D01*
X560907Y7445D01*
X560963Y7556D01*
X561037Y7667D01*
X561092Y7834D01*
X561166Y8019D01*
X561185Y8056D01*
X561203Y8148D01*
X561240Y8278D01*
X561277Y8426D01*
X561314Y8593D01*
X561333Y8741D01*
Y8871D01*
X561314Y8963D01*
Y8982D01*
X561277Y9019D01*
X561203Y9074D01*
X561092Y9185D01*
X561000Y9241D01*
X560907Y9334D01*
X560777Y9426D01*
X560629Y9519D01*
X560463Y9648D01*
X560277Y9778D01*
X560055Y9926D01*
X559815Y10093D01*
X559796Y10111D01*
X559759Y10130D01*
X559703Y10167D01*
X559629Y10222D01*
X559444Y10389D01*
X559222Y10574D01*
X559000Y10815D01*
X558815Y11056D01*
X558648Y11315D01*
X558611Y11426D01*
X558574Y11556D01*
Y11593D01*
Y11667D01*
X558555Y11815D01*
X558574Y12000D01*
X558592Y12222D01*
X558629Y12481D01*
X558685Y12778D01*
X558778Y13092D01*
Y13111D01*
X558796Y13148D01*
X558815Y13222D01*
X558852Y13296D01*
X558944Y13537D01*
X559074Y13815D01*
X559222Y14111D01*
X559389Y14426D01*
X559555Y14722D01*
X559759Y14963D01*
X559777Y14981D01*
X559852Y15055D01*
X559981Y15166D01*
X560148Y15314D01*
X560352Y15462D01*
X560592Y15611D01*
X560888Y15777D01*
X561203Y15907D01*
X561222D01*
X561240Y15925D01*
X561296Y15944D01*
X561370Y15963D01*
X561555Y16018D01*
X561796Y16074D01*
X562092Y16129D01*
X562444Y16185D01*
X562814Y16222D01*
X563203Y16240D01*
X563370D01*
X563573Y16222D01*
D02*
G37*
G36*
X535836Y18610D02*
X536021D01*
X536224Y18573D01*
X536687Y18518D01*
X537169Y18407D01*
X537632Y18240D01*
X537854Y18147D01*
X538021Y18018D01*
X538187Y17888D01*
X538298Y17722D01*
Y17703D01*
X538317Y17685D01*
X538335Y17629D01*
X538372Y17555D01*
X538409Y17462D01*
X538428Y17351D01*
X538465Y17222D01*
X538484Y17074D01*
X538502Y16888D01*
X538521Y16703D01*
X538502Y16277D01*
X538465Y16036D01*
X538428Y15777D01*
X538354Y15500D01*
X538261Y15203D01*
Y15185D01*
X538243Y15148D01*
X538224Y15111D01*
X538206Y15037D01*
X538113Y14833D01*
X538021Y14611D01*
X537891Y14352D01*
X537761Y14092D01*
X537595Y13852D01*
X537428Y13648D01*
X537410Y13629D01*
X537335Y13574D01*
X537243Y13481D01*
X537095Y13352D01*
X536891Y13222D01*
X536669Y13074D01*
X536410Y12907D01*
X536095Y12759D01*
X536132Y12741D01*
X536206Y12722D01*
X536317Y12648D01*
X536447Y12574D01*
X536576Y12463D01*
X536706Y12315D01*
X536836Y12148D01*
X536909Y11944D01*
Y11926D01*
X536928Y11889D01*
Y11833D01*
Y11759D01*
Y11667D01*
Y11537D01*
X536909Y11407D01*
X536891Y11241D01*
X536854Y11056D01*
X536817Y10833D01*
X536761Y10593D01*
X536687Y10315D01*
X536595Y10019D01*
X536502Y9667D01*
X536373Y9297D01*
Y9278D01*
X536354Y9222D01*
X536317Y9148D01*
X536280Y9037D01*
X536224Y8908D01*
X536169Y8759D01*
X536021Y8426D01*
X535854Y8037D01*
X535650Y7649D01*
X535428Y7260D01*
X535187Y6908D01*
X535150Y6871D01*
X535076Y6760D01*
X534928Y6612D01*
X534743Y6426D01*
X534502Y6223D01*
X534225Y6000D01*
X533910Y5797D01*
X533540Y5612D01*
X533521D01*
X533503Y5593D01*
X533447Y5575D01*
X533354Y5538D01*
X533262Y5501D01*
X533151Y5464D01*
X532873Y5390D01*
X532521Y5315D01*
X532132Y5241D01*
X531669Y5186D01*
X531188Y5167D01*
X530929D01*
X530818Y5186D01*
X530669D01*
X530336Y5223D01*
X529966Y5297D01*
X529595Y5371D01*
X529244Y5501D01*
X529095Y5575D01*
X528947Y5667D01*
X528910Y5686D01*
X528836Y5760D01*
X528725Y5871D01*
X528596Y6019D01*
X528466Y6204D01*
X528355Y6426D01*
X528262Y6667D01*
X528225Y6926D01*
Y6945D01*
Y6963D01*
Y7000D01*
Y7074D01*
X528244Y7167D01*
X528262Y7260D01*
Y7389D01*
X528299Y7537D01*
X528318Y7704D01*
X528373Y7889D01*
X528410Y8111D01*
X528484Y8352D01*
X528540Y8611D01*
X528633Y8889D01*
X528725Y9204D01*
X528836Y9537D01*
X529188Y10574D01*
X532410D01*
X531688Y8463D01*
X531669Y8426D01*
X531651Y8334D01*
X531595Y8185D01*
X531558Y8019D01*
X531503Y7834D01*
X531466Y7649D01*
X531429Y7500D01*
Y7389D01*
Y7352D01*
X531484Y7278D01*
X531521Y7241D01*
X531595Y7204D01*
X531688Y7186D01*
X531799Y7167D01*
X531855D01*
X531929Y7186D01*
X532003Y7204D01*
X532095Y7241D01*
X532206Y7278D01*
X532299Y7352D01*
X532373Y7445D01*
X532392Y7463D01*
X532410Y7519D01*
X532466Y7612D01*
X532540Y7741D01*
X532632Y7945D01*
X532725Y8204D01*
X532799Y8352D01*
X532854Y8537D01*
X532929Y8723D01*
X533003Y8945D01*
X533317Y9852D01*
X533336Y9889D01*
X533354Y9982D01*
X533391Y10111D01*
X533428Y10259D01*
X533503Y10611D01*
Y10778D01*
Y10926D01*
Y10944D01*
X533484Y10982D01*
Y11037D01*
X533447Y11111D01*
X533410Y11185D01*
X533354Y11278D01*
X533262Y11333D01*
X533169Y11389D01*
X533151D01*
X533114Y11407D01*
X533040Y11426D01*
X532910Y11444D01*
X532743Y11463D01*
X532540Y11500D01*
X532280D01*
X531947Y11518D01*
X532595Y13407D01*
X532966D01*
X533206Y13426D01*
X533447D01*
X533688Y13444D01*
X533891Y13463D01*
X533984D01*
X534039Y13481D01*
X534058D01*
X534095Y13500D01*
X534151Y13518D01*
X534225Y13574D01*
X534391Y13685D01*
X534484Y13778D01*
X534576Y13870D01*
X534595Y13889D01*
X534613Y13926D01*
X534650Y14000D01*
X534725Y14092D01*
X534780Y14222D01*
X534854Y14389D01*
X534947Y14574D01*
X535021Y14796D01*
X535262Y15518D01*
X535280Y15555D01*
X535299Y15629D01*
X535336Y15740D01*
X535373Y15888D01*
X535410Y16166D01*
X535428Y16314D01*
X535410Y16407D01*
Y16425D01*
X535391Y16444D01*
X535354Y16518D01*
X535243Y16592D01*
X535150Y16629D01*
X535002D01*
X534947Y16611D01*
X534873Y16592D01*
X534688Y16537D01*
X534595Y16462D01*
X534521Y16388D01*
Y16370D01*
X534484Y16351D01*
X534447Y16277D01*
X534391Y16185D01*
X534317Y16055D01*
X534243Y15888D01*
X534151Y15685D01*
X534058Y15425D01*
X533706Y14370D01*
X530484D01*
X530855Y15462D01*
Y15481D01*
X530892Y15537D01*
X530929Y15629D01*
X530966Y15759D01*
X531040Y15907D01*
X531114Y16092D01*
X531299Y16462D01*
X531540Y16888D01*
X531836Y17296D01*
X531984Y17499D01*
X532169Y17666D01*
X532355Y17833D01*
X532540Y17962D01*
X532558D01*
X532595Y17999D01*
X532651Y18018D01*
X532743Y18073D01*
X532854Y18110D01*
X532984Y18166D01*
X533132Y18240D01*
X533317Y18296D01*
X533503Y18351D01*
X533725Y18425D01*
X533965Y18481D01*
X534225Y18518D01*
X534502Y18573D01*
X534817Y18592D01*
X535132Y18629D01*
X535687D01*
X535836Y18610D01*
D02*
G37*
G36*
X598681Y5426D02*
X595348D01*
X599736Y18388D01*
X603069D01*
X598681Y5426D01*
D02*
G37*
G36*
X591422Y15796D02*
X592293D01*
X591719Y14111D01*
X590848D01*
X588904Y8408D01*
Y8389D01*
X588886Y8371D01*
X588867Y8315D01*
X588849Y8241D01*
X588793Y8074D01*
X588737Y7871D01*
X588682Y7667D01*
X588626Y7463D01*
X588608Y7315D01*
Y7278D01*
Y7241D01*
X588626Y7223D01*
X588682Y7204D01*
X588737Y7186D01*
X588849Y7167D01*
X589015Y7149D01*
X589219Y7130D01*
X589478D01*
X588904Y5426D01*
X587219D01*
X586997Y5445D01*
X586738D01*
X586479Y5464D01*
X586238Y5482D01*
X586053Y5501D01*
X586034D01*
X585979Y5519D01*
X585905Y5556D01*
X585793Y5593D01*
X585682Y5649D01*
X585571Y5723D01*
X585460Y5815D01*
X585368Y5926D01*
X585349Y5945D01*
X585331Y5982D01*
X585293Y6056D01*
X585256Y6149D01*
X585219Y6260D01*
X585182Y6389D01*
Y6538D01*
Y6686D01*
Y6704D01*
X585201Y6778D01*
X585238Y6908D01*
X585275Y7111D01*
X585312Y7223D01*
X585349Y7371D01*
X585405Y7537D01*
X585460Y7723D01*
X585516Y7926D01*
X585590Y8167D01*
X585682Y8426D01*
X585775Y8704D01*
X587608Y14111D01*
X586904D01*
X587478Y15796D01*
X588182D01*
X588737Y17462D01*
X591978D01*
X591422Y15796D01*
D02*
G37*
G36*
X555741Y16222D02*
X555889Y16203D01*
X556241Y16166D01*
X556611Y16092D01*
X556982Y15999D01*
X557333Y15851D01*
X557481Y15759D01*
X557611Y15648D01*
X557648Y15629D01*
X557704Y15537D01*
X557815Y15425D01*
X557926Y15259D01*
X558018Y15055D01*
X558111Y14796D01*
X558148Y14537D01*
X558130Y14222D01*
Y14203D01*
Y14185D01*
X558111Y14129D01*
X558092Y14055D01*
X558074Y13944D01*
X558055Y13815D01*
X558000Y13666D01*
X557963Y13481D01*
X557907Y13259D01*
X557833Y13000D01*
X557759Y12722D01*
X557648Y12407D01*
X557537Y12037D01*
X557407Y11648D01*
X557278Y11222D01*
X557111Y10741D01*
X555315Y5426D01*
X552167D01*
X552482Y6371D01*
X552463Y6352D01*
X552389Y6278D01*
X552297Y6167D01*
X552167Y6056D01*
X552019Y5908D01*
X551834Y5778D01*
X551630Y5630D01*
X551427Y5519D01*
X551408Y5501D01*
X551334Y5482D01*
X551223Y5426D01*
X551075Y5390D01*
X550890Y5334D01*
X550686Y5278D01*
X550445Y5260D01*
X550205Y5241D01*
X550075D01*
X549908Y5260D01*
X549723Y5297D01*
X549501Y5353D01*
X549260Y5445D01*
X549038Y5556D01*
X548816Y5704D01*
X548797Y5723D01*
X548742Y5797D01*
X548668Y5945D01*
X548649Y6038D01*
X548612Y6149D01*
X548593Y6278D01*
X548575Y6426D01*
Y6593D01*
X548593Y6797D01*
X548612Y7000D01*
X548668Y7241D01*
X548723Y7500D01*
X548816Y7797D01*
X549112Y8667D01*
Y8686D01*
X549131Y8723D01*
X549149Y8778D01*
X549186Y8852D01*
X549260Y9056D01*
X549390Y9315D01*
X549519Y9574D01*
X549668Y9852D01*
X549853Y10093D01*
X550038Y10278D01*
X550056Y10296D01*
X550149Y10352D01*
X550297Y10445D01*
X550390Y10500D01*
X550501Y10556D01*
X550649Y10630D01*
X550797Y10704D01*
X550982Y10796D01*
X551186Y10889D01*
X551408Y10982D01*
X551667Y11074D01*
X551945Y11167D01*
X552241Y11278D01*
X552260D01*
X552315Y11315D01*
X552408Y11333D01*
X552538Y11389D01*
X552667Y11426D01*
X552834Y11481D01*
X553167Y11611D01*
X553519Y11759D01*
X553852Y11889D01*
X553982Y11963D01*
X554112Y12018D01*
X554185Y12074D01*
X554241Y12111D01*
Y12129D01*
X554278Y12148D01*
X554315Y12222D01*
X554371Y12315D01*
X554426Y12426D01*
X554500Y12574D01*
X554574Y12778D01*
X554648Y13000D01*
Y13018D01*
X554667Y13037D01*
X554686Y13129D01*
X554741Y13278D01*
X554778Y13444D01*
X554834Y13629D01*
X554871Y13815D01*
X554889Y13963D01*
Y14092D01*
Y14111D01*
X554871Y14129D01*
X554834Y14222D01*
X554741Y14315D01*
X554667Y14333D01*
X554574Y14352D01*
X554519D01*
X554463Y14333D01*
X554389D01*
X554223Y14259D01*
X554148Y14203D01*
X554093Y14129D01*
Y14111D01*
X554074Y14092D01*
X554037Y14018D01*
X553982Y13926D01*
X553908Y13778D01*
X553834Y13592D01*
X553741Y13333D01*
X553630Y13037D01*
X553260Y11926D01*
X550223D01*
X550464Y12629D01*
Y12648D01*
X550482Y12685D01*
X550501Y12741D01*
X550538Y12833D01*
X550630Y13055D01*
X550741Y13333D01*
X550871Y13648D01*
X551038Y13963D01*
X551204Y14259D01*
X551390Y14537D01*
X551408Y14574D01*
X551482Y14648D01*
X551612Y14777D01*
X551778Y14944D01*
X552001Y15111D01*
X552260Y15314D01*
X552575Y15518D01*
X552926Y15722D01*
X552945D01*
X552982Y15740D01*
X553037Y15777D01*
X553112Y15796D01*
X553204Y15851D01*
X553334Y15888D01*
X553611Y15981D01*
X553963Y16074D01*
X554389Y16166D01*
X554834Y16222D01*
X555334Y16240D01*
X555593D01*
X555741Y16222D01*
D02*
G37*
G36*
X547501Y18370D02*
X547853Y18351D01*
X548242Y18333D01*
X548612Y18277D01*
X548982Y18221D01*
X549149Y18166D01*
X549297Y18129D01*
X549334Y18110D01*
X549408Y18073D01*
X549538Y18018D01*
X549705Y17907D01*
X549871Y17777D01*
X550019Y17610D01*
X550167Y17388D01*
X550279Y17129D01*
X550297Y17092D01*
Y17055D01*
X550316Y16981D01*
Y16907D01*
X550334Y16796D01*
Y16685D01*
Y16537D01*
Y16388D01*
X550316Y16203D01*
X550297Y15999D01*
X550260Y15777D01*
X550205Y15555D01*
X550149Y15296D01*
X550056Y15000D01*
X549964Y14703D01*
Y14685D01*
X549945Y14648D01*
X549927Y14592D01*
X549890Y14518D01*
X549816Y14315D01*
X549705Y14074D01*
X549575Y13815D01*
X549427Y13555D01*
X549242Y13315D01*
X549056Y13111D01*
X549038Y13092D01*
X548964Y13037D01*
X548834Y12963D01*
X548668Y12852D01*
X548445Y12741D01*
X548168Y12629D01*
X547816Y12518D01*
X547427Y12426D01*
X547445D01*
X547482Y12407D01*
X547520D01*
X547594Y12370D01*
X547779Y12315D01*
X547982Y12222D01*
X548205Y12092D01*
X548427Y11944D01*
X548593Y11759D01*
X548649Y11648D01*
X548705Y11537D01*
X548723Y11500D01*
X548742Y11426D01*
X548760Y11278D01*
Y11074D01*
Y10815D01*
X548705Y10500D01*
X548631Y10111D01*
X548501Y9667D01*
X548075Y8463D01*
Y8445D01*
X548056Y8408D01*
X548038Y8334D01*
X548001Y8241D01*
X547964Y8148D01*
X547908Y8019D01*
X547797Y7723D01*
X547649Y7408D01*
X547482Y7093D01*
X547297Y6778D01*
X547112Y6519D01*
X547094Y6500D01*
X547020Y6426D01*
X546908Y6315D01*
X546779Y6167D01*
X546594Y6038D01*
X546371Y5889D01*
X546131Y5760D01*
X545872Y5649D01*
X545835D01*
X545798Y5630D01*
X545723Y5612D01*
X545631Y5593D01*
X545538Y5575D01*
X545409Y5556D01*
X545242Y5538D01*
X545075Y5519D01*
X544872Y5501D01*
X544650Y5482D01*
X544390Y5464D01*
X544113Y5445D01*
X543798D01*
X543464Y5426D01*
X539206D01*
X543594Y18388D01*
X547353D01*
X547501Y18370D01*
D02*
G37*
G36*
X530392Y15796D02*
X528392D01*
X524874Y5426D01*
X521504D01*
X525022Y15796D01*
X523022D01*
X523892Y18388D01*
X531262D01*
X530392Y15796D01*
D02*
G37*
G36*
X571628Y16222D02*
X571758D01*
X572054Y16185D01*
X572387Y16111D01*
X572739Y16018D01*
X573054Y15888D01*
X573350Y15722D01*
X573387Y15703D01*
X573461Y15629D01*
X573591Y15518D01*
X573721Y15351D01*
X573850Y15166D01*
X573980Y14926D01*
X574072Y14648D01*
X574128Y14352D01*
Y14333D01*
Y14315D01*
Y14259D01*
Y14203D01*
Y14111D01*
Y14000D01*
X574091Y13741D01*
X574054Y13389D01*
X573961Y12981D01*
X573832Y12500D01*
X573665Y11963D01*
X573202Y10556D01*
X569036D01*
X568258Y8260D01*
X568240Y8223D01*
X568221Y8148D01*
X568184Y8019D01*
X568129Y7871D01*
X568092Y7723D01*
X568055Y7556D01*
X568036Y7426D01*
Y7334D01*
X568055Y7297D01*
X568092Y7241D01*
X568184Y7167D01*
X568258Y7149D01*
X568351Y7130D01*
X568406D01*
X568480Y7149D01*
X568554Y7167D01*
X568758Y7241D01*
X568851Y7297D01*
X568925Y7389D01*
X568943Y7408D01*
X568962Y7445D01*
X569017Y7519D01*
X569073Y7630D01*
X569147Y7778D01*
X569221Y7963D01*
X569314Y8185D01*
X569406Y8463D01*
X569888Y9870D01*
X572961D01*
X572702Y9074D01*
Y9056D01*
X572684Y9037D01*
X572665Y8982D01*
X572647Y8908D01*
X572573Y8741D01*
X572498Y8519D01*
X572406Y8278D01*
X572295Y8019D01*
X572165Y7778D01*
X572054Y7556D01*
X572035Y7537D01*
X571998Y7463D01*
X571924Y7352D01*
X571832Y7223D01*
X571684Y7056D01*
X571517Y6852D01*
X571332Y6649D01*
X571091Y6426D01*
X571054Y6408D01*
X570980Y6334D01*
X570850Y6223D01*
X570665Y6093D01*
X570443Y5945D01*
X570202Y5797D01*
X569925Y5667D01*
X569628Y5538D01*
X569591Y5519D01*
X569480Y5501D01*
X569314Y5445D01*
X569091Y5390D01*
X568832Y5334D01*
X568517Y5297D01*
X568166Y5260D01*
X567777Y5241D01*
X567610D01*
X567425Y5260D01*
X567184Y5278D01*
X566906Y5315D01*
X566629Y5353D01*
X566351Y5426D01*
X566073Y5519D01*
X566036Y5538D01*
X565962Y5575D01*
X565851Y5649D01*
X565703Y5741D01*
X565536Y5852D01*
X565388Y5982D01*
X565240Y6149D01*
X565129Y6334D01*
X565110Y6352D01*
X565092Y6426D01*
X565055Y6538D01*
X564999Y6667D01*
X564962Y6834D01*
X564925Y7038D01*
X564907Y7241D01*
Y7463D01*
Y7500D01*
X564925Y7574D01*
X564944Y7723D01*
X564981Y7926D01*
X565036Y8185D01*
X565110Y8500D01*
X565221Y8852D01*
X565351Y9278D01*
X566407Y12370D01*
Y12389D01*
X566425Y12426D01*
X566462Y12500D01*
X566499Y12593D01*
X566536Y12722D01*
X566592Y12852D01*
X566721Y13167D01*
X566888Y13518D01*
X567092Y13870D01*
X567295Y14240D01*
X567536Y14555D01*
Y14574D01*
X567573Y14592D01*
X567647Y14685D01*
X567795Y14833D01*
X567980Y15018D01*
X568221Y15222D01*
X568499Y15425D01*
X568832Y15629D01*
X569184Y15796D01*
X569202D01*
X569221Y15814D01*
X569277Y15833D01*
X569351Y15870D01*
X569554Y15944D01*
X569832Y16018D01*
X570147Y16092D01*
X570499Y16166D01*
X570887Y16222D01*
X571295Y16240D01*
X571517D01*
X571628Y16222D01*
D02*
G37*
G36*
X519652Y18629D02*
X519930Y18592D01*
X520226Y18555D01*
X520541Y18481D01*
X520856Y18388D01*
X521152Y18259D01*
X521189Y18240D01*
X521282Y18184D01*
X521411Y18110D01*
X521559Y17999D01*
X521726Y17851D01*
X521893Y17685D01*
X522022Y17481D01*
X522133Y17277D01*
X522152Y17259D01*
X522170Y17166D01*
X522207Y17055D01*
X522244Y16907D01*
X522281Y16722D01*
X522300Y16500D01*
Y16277D01*
X522281Y16036D01*
Y15999D01*
X522263Y15925D01*
X522244Y15777D01*
X522189Y15574D01*
X522133Y15296D01*
X522041Y14981D01*
X521930Y14611D01*
X521782Y14166D01*
X520356Y9945D01*
Y9926D01*
X520337Y9870D01*
X520300Y9778D01*
X520263Y9667D01*
X520208Y9519D01*
X520152Y9371D01*
X520004Y9000D01*
X519856Y8611D01*
X519689Y8241D01*
X519523Y7889D01*
X519448Y7741D01*
X519374Y7612D01*
X519356Y7593D01*
X519300Y7519D01*
X519226Y7408D01*
X519115Y7260D01*
X518985Y7111D01*
X518819Y6945D01*
X518615Y6778D01*
X518411Y6630D01*
X518393Y6612D01*
X518300Y6575D01*
X518171Y6500D01*
X518004Y6426D01*
X517800Y6334D01*
X517560Y6241D01*
X517282Y6149D01*
X516967Y6075D01*
Y6056D01*
X516949Y6000D01*
X516930Y5926D01*
X516912Y5852D01*
Y5667D01*
Y5593D01*
X516949Y5538D01*
X516986Y5519D01*
X517023Y5501D01*
X517078Y5482D01*
X517171Y5464D01*
X517300Y5445D01*
X517449Y5426D01*
X518819D01*
X518282Y3853D01*
X515412D01*
X515227Y3871D01*
X515004Y3890D01*
X514801Y3908D01*
X514616Y3945D01*
X514467Y4001D01*
X514449D01*
X514412Y4038D01*
X514301Y4112D01*
X514190Y4241D01*
X514134Y4334D01*
X514116Y4427D01*
Y4445D01*
Y4482D01*
Y4556D01*
X514134Y4649D01*
X514153Y4797D01*
X514190Y4964D01*
X514245Y5186D01*
X514338Y5426D01*
X514227D01*
X514153Y5445D01*
X513949Y5464D01*
X513690Y5501D01*
X513394Y5575D01*
X513097Y5686D01*
X512819Y5834D01*
X512560Y6019D01*
X512542Y6038D01*
X512468Y6130D01*
X512356Y6241D01*
X512245Y6408D01*
X512134Y6630D01*
X512042Y6871D01*
X511986Y7149D01*
X511968Y7463D01*
Y7482D01*
Y7500D01*
Y7556D01*
X511986Y7630D01*
Y7723D01*
X512005Y7834D01*
X512042Y7963D01*
X512060Y8111D01*
X512097Y8297D01*
X512134Y8482D01*
X512190Y8704D01*
X512245Y8926D01*
X512319Y9185D01*
X512394Y9463D01*
X512486Y9759D01*
X512597Y10074D01*
X513968Y14092D01*
Y14111D01*
X513986Y14148D01*
X514005Y14222D01*
X514041Y14315D01*
X514079Y14426D01*
X514134Y14537D01*
X514245Y14833D01*
X514375Y15166D01*
X514505Y15500D01*
X514653Y15814D01*
X514801Y16092D01*
X514819Y16129D01*
X514875Y16203D01*
X514967Y16351D01*
X515079Y16518D01*
X515227Y16722D01*
X515412Y16944D01*
X515634Y17185D01*
X515875Y17407D01*
X515912Y17425D01*
X516004Y17499D01*
X516152Y17610D01*
X516338Y17759D01*
X516560Y17907D01*
X516838Y18055D01*
X517134Y18203D01*
X517449Y18333D01*
X517467D01*
X517486Y18351D01*
X517597Y18388D01*
X517782Y18425D01*
X518004Y18499D01*
X518282Y18555D01*
X518597Y18592D01*
X518911Y18629D01*
X519263Y18647D01*
X519448D01*
X519652Y18629D01*
D02*
G37*
G36*
X618418Y5519D02*
X614214D01*
X616177Y16129D01*
X619066D01*
X617331Y8395D01*
X617325Y8389D01*
Y8371D01*
X617331Y8395D01*
X617344Y8408D01*
X617362Y8482D01*
X617418Y8556D01*
X617455Y8667D01*
X617529Y8815D01*
X617603Y9000D01*
X617696Y9222D01*
X617807Y9482D01*
X617936Y9778D01*
X618084Y10111D01*
X618251Y10500D01*
X618436Y10926D01*
X618640Y11408D01*
X618862Y11945D01*
X619121Y12537D01*
X619140Y12556D01*
X619158Y12630D01*
X619195Y12722D01*
X619251Y12852D01*
X619325Y13018D01*
X619399Y13222D01*
X619492Y13444D01*
X619603Y13685D01*
X619714Y13944D01*
X619843Y14222D01*
X620084Y14833D01*
X620362Y15481D01*
X620640Y16129D01*
X623528D01*
X618418Y5519D01*
D02*
G37*
G36*
X628824D02*
X626380D01*
X627268Y8167D01*
X629713D01*
X628824Y5519D01*
D02*
G37*
G36*
X625398D02*
X622158D01*
X624510Y12463D01*
Y12481D01*
X624528Y12537D01*
X624565Y12611D01*
X624584Y12704D01*
X624639Y12815D01*
X624676Y12963D01*
X624769Y13259D01*
X624861Y13555D01*
X624954Y13852D01*
X624991Y13981D01*
X625009Y14092D01*
X625047Y14185D01*
Y14259D01*
Y14277D01*
Y14315D01*
X625028Y14444D01*
X625009Y14518D01*
X624954Y14592D01*
X624898Y14666D01*
X624806Y14722D01*
X624787D01*
X624750Y14741D01*
X624658Y14777D01*
X624547Y14814D01*
X624361Y14833D01*
X624121Y14870D01*
X623806Y14889D01*
X623102D01*
X623621Y16388D01*
X623658D01*
X623732Y16407D01*
X623862Y16444D01*
X624047Y16500D01*
X624250Y16555D01*
X624510Y16629D01*
X624787Y16740D01*
X625102Y16851D01*
X625417Y16981D01*
X625769Y17129D01*
X626120Y17296D01*
X626472Y17499D01*
X626843Y17703D01*
X627195Y17944D01*
X627546Y18203D01*
X627880Y18481D01*
X629787D01*
X625398Y5519D01*
D02*
G37*
G36*
X638267Y18703D02*
X638508Y18666D01*
X638786Y18629D01*
X639082Y18555D01*
X639378Y18462D01*
X639656Y18333D01*
X639693Y18314D01*
X639767Y18259D01*
X639897Y18184D01*
X640045Y18073D01*
X640212Y17944D01*
X640360Y17796D01*
X640508Y17610D01*
X640619Y17425D01*
X640638Y17407D01*
X640656Y17333D01*
X640693Y17222D01*
X640730Y17074D01*
X640767Y16888D01*
X640786Y16685D01*
Y16463D01*
X640767Y16222D01*
Y16185D01*
X640749Y16092D01*
X640712Y15926D01*
X640675Y15703D01*
X640601Y15407D01*
X640489Y15037D01*
X640434Y14814D01*
X640360Y14592D01*
X640286Y14352D01*
X640193Y14074D01*
X638730Y9760D01*
Y9741D01*
X638712Y9704D01*
X638675Y9611D01*
X638638Y9519D01*
X638601Y9408D01*
X638545Y9259D01*
X638434Y8945D01*
X638286Y8593D01*
X638138Y8241D01*
X637990Y7908D01*
X637841Y7612D01*
X637823Y7574D01*
X637767Y7501D01*
X637675Y7371D01*
X637564Y7204D01*
X637397Y7019D01*
X637212Y6797D01*
X636990Y6575D01*
X636749Y6352D01*
X636712Y6334D01*
X636619Y6260D01*
X636490Y6149D01*
X636305Y6038D01*
X636082Y5889D01*
X635823Y5760D01*
X635546Y5630D01*
X635249Y5519D01*
X635212Y5501D01*
X635120Y5482D01*
X634953Y5445D01*
X634749Y5408D01*
X634490Y5353D01*
X634212Y5315D01*
X633898Y5297D01*
X633564Y5278D01*
X633379D01*
X633157Y5297D01*
X632898Y5315D01*
X632620Y5334D01*
X632305Y5390D01*
X632009Y5445D01*
X631731Y5538D01*
X631694Y5556D01*
X631620Y5593D01*
X631509Y5649D01*
X631361Y5741D01*
X631213Y5853D01*
X631046Y6001D01*
X630916Y6167D01*
X630787Y6371D01*
X630768Y6389D01*
X630750Y6464D01*
X630713Y6593D01*
X630657Y6741D01*
X630620Y6927D01*
X630583Y7130D01*
X630546Y7334D01*
Y7574D01*
Y7612D01*
X630564Y7686D01*
X630583Y7852D01*
X630620Y8056D01*
X630694Y8334D01*
X630768Y8686D01*
X630898Y9074D01*
X631046Y9556D01*
X632583Y14074D01*
Y14092D01*
X632620Y14148D01*
X632638Y14240D01*
X632694Y14370D01*
X632749Y14518D01*
X632805Y14685D01*
X632972Y15092D01*
X633138Y15518D01*
X633342Y15963D01*
X633564Y16388D01*
X633675Y16574D01*
X633786Y16759D01*
Y16777D01*
X633823Y16796D01*
X633898Y16907D01*
X634046Y17074D01*
X634231Y17277D01*
X634472Y17499D01*
X634768Y17740D01*
X635101Y17962D01*
X635490Y18184D01*
X635508D01*
X635546Y18203D01*
X635601Y18240D01*
X635694Y18277D01*
X635786Y18314D01*
X635916Y18351D01*
X636212Y18462D01*
X636564Y18555D01*
X636971Y18648D01*
X637416Y18703D01*
X637897Y18721D01*
X638082D01*
X638267Y18703D01*
D02*
G37*
G36*
X185353Y419520D02*
X82147D01*
Y438980D01*
X185353D01*
Y419520D01*
D02*
G37*
%LPC*%
G36*
X553778Y10463D02*
X553760D01*
X553741Y10445D01*
X553630Y10371D01*
X553463Y10259D01*
X553260Y10130D01*
X553056Y9982D01*
X552852Y9815D01*
X552686Y9648D01*
X552556Y9500D01*
X552538Y9482D01*
X552519Y9426D01*
X552463Y9352D01*
X552408Y9222D01*
X552334Y9074D01*
X552260Y8889D01*
X552167Y8667D01*
X552075Y8408D01*
X552056Y8371D01*
X552038Y8278D01*
X551982Y8130D01*
X551945Y7963D01*
X551889Y7797D01*
X551852Y7612D01*
X551815Y7463D01*
Y7352D01*
Y7315D01*
X551871Y7241D01*
X551908Y7204D01*
X551964Y7167D01*
X552056Y7149D01*
X552167Y7130D01*
X552223D01*
X552334Y7149D01*
X552482Y7204D01*
X552612Y7315D01*
Y7334D01*
X552649Y7352D01*
X552686Y7408D01*
X552723Y7500D01*
X552797Y7630D01*
X552871Y7815D01*
X552945Y8019D01*
X553037Y8297D01*
X553778Y10463D01*
D02*
G37*
G36*
X546409Y16166D02*
X546223D01*
X545242Y13296D01*
X545649D01*
X545742Y13315D01*
X545853Y13333D01*
X546094Y13407D01*
X546205Y13463D01*
X546297Y13537D01*
X546316Y13555D01*
X546334Y13592D01*
X546390Y13666D01*
X546464Y13796D01*
X546538Y13981D01*
X546649Y14222D01*
X546705Y14370D01*
X546779Y14537D01*
X546834Y14722D01*
X546908Y14926D01*
X546927Y14944D01*
X546945Y15018D01*
X546964Y15129D01*
X547001Y15259D01*
X547057Y15537D01*
X547075Y15666D01*
Y15777D01*
Y15796D01*
Y15814D01*
X547038Y15907D01*
X546983Y15999D01*
X546890Y16074D01*
X546853Y16092D01*
X546816D01*
X546760Y16111D01*
X546668Y16129D01*
X546538Y16148D01*
X546409Y16166D01*
D02*
G37*
G36*
X544557Y11278D02*
X543316Y7649D01*
X543427D01*
X543557Y7667D01*
X543705Y7686D01*
X544038Y7741D01*
X544187Y7797D01*
X544298Y7852D01*
X544316Y7871D01*
X544353Y7889D01*
X544409Y7963D01*
X544464Y8056D01*
X544557Y8185D01*
X544650Y8352D01*
X544742Y8574D01*
X544835Y8852D01*
X545261Y10056D01*
Y10074D01*
X545279Y10093D01*
X545298Y10185D01*
X545335Y10333D01*
X545390Y10500D01*
X545427Y10667D01*
X545446Y10833D01*
Y10963D01*
X545409Y11056D01*
X545372Y11093D01*
X545335Y11111D01*
X545261Y11148D01*
X545149Y11185D01*
X545001Y11222D01*
X544798Y11259D01*
X544557Y11278D01*
D02*
G37*
G36*
X570813Y14352D02*
X570758D01*
X570702Y14333D01*
X570628D01*
X570462Y14259D01*
X570388Y14222D01*
X570332Y14148D01*
Y14129D01*
X570313Y14111D01*
X570276Y14037D01*
X570221Y13926D01*
X570147Y13796D01*
X570073Y13592D01*
X569980Y13352D01*
X569869Y13037D01*
X569610Y12278D01*
X570536D01*
X570795Y13037D01*
Y13055D01*
X570813Y13074D01*
X570850Y13167D01*
X570887Y13315D01*
X570943Y13481D01*
X570999Y13666D01*
X571036Y13833D01*
X571073Y14000D01*
Y14111D01*
Y14129D01*
Y14148D01*
X571036Y14240D01*
X570962Y14315D01*
X570906Y14333D01*
X570813Y14352D01*
D02*
G37*
G36*
X518671Y16462D02*
X518634D01*
X518523Y16444D01*
X518374Y16370D01*
X518282Y16314D01*
X518208Y16240D01*
Y16222D01*
X518171Y16185D01*
X518134Y16129D01*
X518060Y16018D01*
X517986Y15851D01*
X517893Y15648D01*
X517782Y15370D01*
X517708Y15222D01*
X517652Y15037D01*
X515597Y9000D01*
Y8982D01*
X515578Y8945D01*
X515560Y8889D01*
X515541Y8815D01*
X515486Y8630D01*
X515412Y8408D01*
X515338Y8167D01*
X515282Y7945D01*
X515245Y7741D01*
X515227Y7667D01*
Y7612D01*
Y7593D01*
Y7574D01*
X515264Y7482D01*
X515301Y7426D01*
X515375Y7389D01*
X515449Y7371D01*
X515560Y7352D01*
X515616D01*
X515671Y7371D01*
X515745Y7389D01*
X515838Y7426D01*
X515930Y7482D01*
X516023Y7556D01*
X516097Y7649D01*
X516115Y7667D01*
X516134Y7723D01*
X516189Y7797D01*
X516245Y7945D01*
X516338Y8130D01*
X516430Y8389D01*
X516560Y8704D01*
X516615Y8889D01*
X516689Y9093D01*
X518708Y15037D01*
Y15055D01*
X518726Y15074D01*
X518763Y15185D01*
X518800Y15333D01*
X518856Y15518D01*
X518911Y15722D01*
X518967Y15907D01*
X519004Y16074D01*
Y16203D01*
Y16222D01*
Y16240D01*
X518948Y16333D01*
X518911Y16388D01*
X518856Y16425D01*
X518782Y16444D01*
X518671Y16462D01*
D02*
G37*
G36*
X637286Y16722D02*
X637230D01*
X637156Y16703D01*
X637082Y16685D01*
X636990Y16648D01*
X636897Y16611D01*
X636805Y16537D01*
X636730Y16444D01*
Y16425D01*
X636693Y16388D01*
X636656Y16296D01*
X636582Y16185D01*
X636508Y16018D01*
X636416Y15796D01*
X636305Y15518D01*
X636194Y15166D01*
X634046Y8852D01*
Y8834D01*
X634027Y8797D01*
X634009Y8741D01*
X633990Y8667D01*
X633916Y8482D01*
X633861Y8260D01*
X633786Y8037D01*
X633731Y7815D01*
X633694Y7630D01*
X633675Y7556D01*
Y7501D01*
X633694Y7463D01*
X633731Y7389D01*
X633786Y7352D01*
X633861Y7315D01*
X633953Y7297D01*
X634064Y7278D01*
X634120D01*
X634194Y7297D01*
X634268Y7315D01*
X634453Y7389D01*
X634546Y7445D01*
X634620Y7538D01*
X634638Y7556D01*
X634657Y7593D01*
X634694Y7667D01*
X634768Y7797D01*
X634842Y7963D01*
X634916Y8167D01*
X635027Y8445D01*
X635138Y8760D01*
X637323Y15166D01*
Y15185D01*
X637342Y15203D01*
X637360Y15259D01*
X637379Y15333D01*
X637434Y15500D01*
X637490Y15703D01*
X637564Y15926D01*
X637619Y16129D01*
X637656Y16314D01*
Y16444D01*
Y16463D01*
Y16481D01*
X637619Y16592D01*
X637564Y16629D01*
X637508Y16685D01*
X637416Y16703D01*
X637286Y16722D01*
D02*
G37*
G36*
X143353Y435980D02*
X143175D01*
X142850Y435965D01*
X142554Y435951D01*
X142272Y435906D01*
X142006Y435847D01*
X141754Y435788D01*
X141532Y435714D01*
X141339Y435625D01*
X141161Y435551D01*
X140999Y435477D01*
X140850Y435388D01*
X140732Y435314D01*
X140643Y435255D01*
X140569Y435196D01*
X140510Y435166D01*
X140480Y435136D01*
X140465Y435121D01*
X140303Y434959D01*
X140155Y434781D01*
X140036Y434603D01*
X139932Y434426D01*
X139844Y434233D01*
X139755Y434055D01*
X139651Y433715D01*
X139607Y433567D01*
X139577Y433419D01*
X139562Y433285D01*
X139547Y433182D01*
X139533Y433093D01*
Y433019D01*
Y432974D01*
Y432960D01*
X139547Y432693D01*
X139577Y432441D01*
X139636Y432219D01*
X139696Y432026D01*
X139740Y431879D01*
X139799Y431760D01*
X139829Y431686D01*
X139844Y431656D01*
X139977Y431464D01*
X140110Y431286D01*
X140258Y431123D01*
X140392Y431005D01*
X140510Y430901D01*
X140614Y430812D01*
X140673Y430768D01*
X140702Y430753D01*
X140806Y430694D01*
X140939Y430620D01*
X141206Y430472D01*
X141502Y430338D01*
X141784Y430190D01*
X142035Y430072D01*
X142154Y430027D01*
X142257Y429983D01*
X142331Y429939D01*
X142391Y429924D01*
X142435Y429894D01*
X142450D01*
X142657Y429805D01*
X142865Y429716D01*
X143027Y429628D01*
X143190Y429554D01*
X143323Y429494D01*
X143442Y429435D01*
X143546Y429376D01*
X143635Y429317D01*
X143768Y429243D01*
X143857Y429183D01*
X143901Y429154D01*
X143916Y429139D01*
X144049Y429021D01*
X144138Y428887D01*
X144212Y428754D01*
X144256Y428635D01*
X144286Y428532D01*
X144301Y428443D01*
Y428384D01*
Y428369D01*
X144286Y428176D01*
X144227Y428013D01*
X144153Y427865D01*
X144064Y427732D01*
X143975Y427629D01*
X143901Y427540D01*
X143842Y427495D01*
X143827Y427480D01*
X143635Y427362D01*
X143398Y427273D01*
X143146Y427199D01*
X142909Y427155D01*
X142687Y427125D01*
X142583D01*
X142494Y427110D01*
X142109D01*
X141902Y427140D01*
X141709Y427155D01*
X141546Y427199D01*
X141384Y427229D01*
X141250Y427273D01*
X141117Y427332D01*
X141013Y427377D01*
X140836Y427480D01*
X140717Y427555D01*
X140658Y427614D01*
X140628Y427643D01*
X140525Y427791D01*
X140451Y427984D01*
X140392Y428206D01*
X140362Y428428D01*
X140332Y428621D01*
X140317Y428798D01*
X140303Y428858D01*
Y428902D01*
Y428932D01*
Y428946D01*
X138289Y428828D01*
X138303Y428458D01*
X138333Y428117D01*
X138392Y427806D01*
X138466Y427540D01*
X138540Y427318D01*
X138570Y427229D01*
X138600Y427155D01*
X138629Y427081D01*
X138644Y427036D01*
X138659Y427021D01*
Y427007D01*
X138837Y426725D01*
X139044Y426488D01*
X139266Y426266D01*
X139488Y426103D01*
X139696Y425955D01*
X139858Y425866D01*
X139932Y425822D01*
X139977Y425792D01*
X140007Y425778D01*
X140021D01*
X140392Y425629D01*
X140791Y425526D01*
X141176Y425452D01*
X141532Y425407D01*
X141695Y425378D01*
X141843D01*
X141976Y425363D01*
X142094Y425348D01*
X142317D01*
X142672Y425363D01*
X142998Y425392D01*
X143309Y425437D01*
X143590Y425496D01*
X143857Y425570D01*
X144108Y425659D01*
X144331Y425733D01*
X144523Y425837D01*
X144715Y425926D01*
X144864Y426000D01*
X144997Y426088D01*
X145115Y426162D01*
X145189Y426222D01*
X145263Y426266D01*
X145293Y426296D01*
X145308Y426311D01*
X145500Y426503D01*
X145663Y426681D01*
X145811Y426888D01*
X145930Y427081D01*
X146033Y427273D01*
X146122Y427466D01*
X146196Y427658D01*
X146256Y427836D01*
X146300Y427999D01*
X146330Y428147D01*
X146359Y428295D01*
X146374Y428413D01*
X146389Y428502D01*
Y428576D01*
Y428621D01*
Y428635D01*
X146374Y428843D01*
X146359Y429021D01*
X146270Y429376D01*
X146167Y429687D01*
X146033Y429939D01*
X145900Y430146D01*
X145782Y430309D01*
X145737Y430353D01*
X145693Y430398D01*
X145678Y430412D01*
X145663Y430427D01*
X145560Y430516D01*
X145426Y430620D01*
X145278Y430723D01*
X145100Y430827D01*
X144730Y431034D01*
X144345Y431227D01*
X143990Y431405D01*
X143827Y431479D01*
X143679Y431553D01*
X143560Y431597D01*
X143472Y431642D01*
X143412Y431656D01*
X143398Y431671D01*
X143190Y431760D01*
X142998Y431849D01*
X142820Y431938D01*
X142672Y432012D01*
X142524Y432086D01*
X142405Y432160D01*
X142302Y432219D01*
X142198Y432278D01*
X142050Y432367D01*
X141961Y432426D01*
X141902Y432471D01*
X141887Y432486D01*
X141769Y432604D01*
X141695Y432723D01*
X141635Y432841D01*
X141591Y432960D01*
X141561Y433063D01*
X141546Y433137D01*
Y433196D01*
Y433211D01*
X141561Y433374D01*
X141606Y433537D01*
X141665Y433670D01*
X141739Y433789D01*
X141798Y433878D01*
X141858Y433937D01*
X141902Y433981D01*
X141917Y433996D01*
X142080Y434100D01*
X142272Y434174D01*
X142479Y434233D01*
X142672Y434263D01*
X142865Y434292D01*
X143013Y434307D01*
X143161D01*
X143472Y434292D01*
X143753Y434248D01*
X143990Y434174D01*
X144168Y434114D01*
X144316Y434040D01*
X144419Y433966D01*
X144493Y433922D01*
X144508Y433907D01*
X144671Y433744D01*
X144789Y433567D01*
X144878Y433374D01*
X144952Y433196D01*
X144997Y433033D01*
X145041Y432900D01*
X145056Y432811D01*
Y432797D01*
Y432782D01*
X147070Y432871D01*
X147040Y433122D01*
X146996Y433374D01*
X146937Y433596D01*
X146863Y433818D01*
X146774Y434011D01*
X146685Y434203D01*
X146581Y434366D01*
X146478Y434529D01*
X146389Y434662D01*
X146300Y434781D01*
X146211Y434884D01*
X146137Y434973D01*
X146063Y435033D01*
X146019Y435077D01*
X145989Y435107D01*
X145974Y435121D01*
X145782Y435270D01*
X145574Y435403D01*
X145352Y435521D01*
X145115Y435625D01*
X144893Y435699D01*
X144656Y435773D01*
X144197Y435877D01*
X143990Y435906D01*
X143797Y435936D01*
X143620Y435951D01*
X143472Y435965D01*
X143353Y435980D01*
D02*
G37*
G36*
X122503Y433137D02*
X122414D01*
X122163Y433122D01*
X121926Y433093D01*
X121704Y433048D01*
X121511Y433004D01*
X121348Y432960D01*
X121215Y432915D01*
X121141Y432885D01*
X121111Y432871D01*
X120874Y432752D01*
X120637Y432619D01*
X120415Y432471D01*
X120208Y432337D01*
X120030Y432204D01*
X119882Y432101D01*
X119793Y432026D01*
X119778Y431997D01*
X119764D01*
X119956Y432974D01*
X118061D01*
X116817Y427027D01*
X116506Y425541D01*
X118490D01*
X119127Y428576D01*
X119186Y428813D01*
X119231Y429035D01*
X119290Y429243D01*
X119334Y429420D01*
X119379Y429583D01*
X119423Y429731D01*
X119467Y429850D01*
X119497Y429968D01*
X119527Y430057D01*
X119556Y430146D01*
X119601Y430264D01*
X119630Y430338D01*
X119645Y430353D01*
X119778Y430575D01*
X119912Y430768D01*
X120060Y430931D01*
X120193Y431064D01*
X120312Y431183D01*
X120415Y431256D01*
X120475Y431316D01*
X120504Y431331D01*
X120711Y431449D01*
X120889Y431538D01*
X121052Y431612D01*
X121200Y431656D01*
X121333Y431686D01*
X121422Y431701D01*
X121496D01*
X121644Y431686D01*
X121778Y431671D01*
X121881Y431627D01*
X121970Y431597D01*
X122044Y431553D01*
X122089Y431508D01*
X122118Y431493D01*
X122133Y431479D01*
X122207Y431390D01*
X122266Y431286D01*
X122311Y431183D01*
X122340Y431094D01*
X122355Y431005D01*
X122370Y430931D01*
Y430886D01*
Y430872D01*
Y430827D01*
X122355Y430768D01*
X122325Y430620D01*
X122296Y430427D01*
X122266Y430235D01*
X122222Y430057D01*
X122192Y429894D01*
X122177Y429835D01*
Y429790D01*
X122163Y429761D01*
Y429746D01*
X121259Y425541D01*
X123244D01*
X124147Y429731D01*
X124191Y429924D01*
X124236Y430102D01*
X124265Y430264D01*
X124295Y430412D01*
X124339Y430679D01*
X124369Y430872D01*
X124399Y431034D01*
X124413Y431138D01*
Y431212D01*
X124384Y431523D01*
X124325Y431790D01*
X124251Y432026D01*
X124147Y432234D01*
X124043Y432397D01*
X123969Y432515D01*
X123910Y432574D01*
X123880Y432604D01*
X123658Y432782D01*
X123421Y432915D01*
X123184Y433004D01*
X122947Y433078D01*
X122740Y433107D01*
X122562Y433122D01*
X122503Y433137D01*
D02*
G37*
G36*
X167964Y435788D02*
X164929D01*
X161715Y428739D01*
X161390Y435788D01*
X158384D01*
X156251Y425541D01*
X158161D01*
X159775Y434100D01*
X160160Y425541D01*
X162160D01*
X165965Y434040D01*
X164188Y425541D01*
X166098D01*
X167964Y435788D01*
D02*
G37*
G36*
X116817Y432974D02*
X114699D01*
X112922Y429657D01*
X112685Y429198D01*
X112463Y428754D01*
X112285Y428354D01*
X112123Y427999D01*
X112063Y427836D01*
X112004Y427702D01*
X111960Y427569D01*
X111915Y427466D01*
X111886Y427392D01*
X111856Y427318D01*
X111841Y427288D01*
Y427392D01*
X111826Y427525D01*
X111797Y427821D01*
X111752Y428147D01*
X111723Y428473D01*
X111678Y428783D01*
X111664Y428917D01*
X111649Y429021D01*
X111634Y429124D01*
Y429198D01*
X111619Y429243D01*
Y429257D01*
X111131Y432974D01*
X109131D01*
X110420Y425541D01*
X110301Y425289D01*
X110183Y425081D01*
X110049Y424889D01*
X109931Y424726D01*
X109798Y424593D01*
X109664Y424474D01*
X109546Y424385D01*
X109427Y424311D01*
X109324Y424252D01*
X109220Y424208D01*
X109043Y424163D01*
X108983Y424149D01*
X108939Y424134D01*
X108894D01*
X108643Y424149D01*
X108524Y424178D01*
X108421Y424193D01*
X108332Y424223D01*
X108258Y424237D01*
X108213Y424252D01*
X108198D01*
X108036Y422757D01*
X108317Y422683D01*
X108583Y422623D01*
X108835Y422579D01*
X109043Y422549D01*
X109220Y422534D01*
X109339Y422520D01*
X109457D01*
X109694Y422534D01*
X109901Y422564D01*
X110079Y422594D01*
X110242Y422638D01*
X110375Y422683D01*
X110479Y422727D01*
X110538Y422742D01*
X110553Y422757D01*
X110716Y422860D01*
X110864Y422964D01*
X110997Y423068D01*
X111116Y423171D01*
X111205Y423260D01*
X111264Y423334D01*
X111308Y423393D01*
X111323Y423408D01*
X111456Y423586D01*
X111604Y423793D01*
X111752Y424030D01*
X111901Y424267D01*
X112034Y424474D01*
X112137Y424652D01*
X112167Y424726D01*
X112197Y424771D01*
X112226Y424800D01*
Y424815D01*
X116817Y432974D01*
D02*
G37*
G36*
X108746Y435788D02*
X101357D01*
X101002Y434070D01*
X105785D01*
X99876Y427155D01*
X99536Y425541D01*
X107488D01*
X107843Y427258D01*
X105000D01*
X104630Y427243D01*
X103341D01*
X103164Y427229D01*
X102794D01*
X102631Y427214D01*
X102483D01*
X108435Y434174D01*
X108746Y435788D01*
D02*
G37*
G36*
X152194Y433137D02*
X152031D01*
X151690Y433122D01*
X151350Y433078D01*
X151039Y433019D01*
X150757Y432945D01*
X150476Y432856D01*
X150224Y432737D01*
X150002Y432634D01*
X149795Y432515D01*
X149602Y432397D01*
X149439Y432293D01*
X149291Y432189D01*
X149173Y432086D01*
X149084Y432012D01*
X149025Y431953D01*
X148980Y431908D01*
X148965Y431893D01*
X148758Y431656D01*
X148580Y431405D01*
X148432Y431138D01*
X148299Y430857D01*
X148181Y430590D01*
X148092Y430309D01*
X148018Y430042D01*
X147958Y429790D01*
X147914Y429554D01*
X147870Y429317D01*
X147840Y429124D01*
X147825Y428946D01*
Y428798D01*
X147810Y428695D01*
Y428606D01*
X147825Y428280D01*
X147870Y427969D01*
X147929Y427688D01*
X148003Y427451D01*
X148077Y427243D01*
X148136Y427081D01*
X148166Y427021D01*
X148181Y426977D01*
X148195Y426962D01*
Y426947D01*
X148358Y426681D01*
X148551Y426444D01*
X148758Y426236D01*
X148951Y426074D01*
X149128Y425940D01*
X149276Y425837D01*
X149336Y425807D01*
X149380Y425778D01*
X149395Y425763D01*
X149410D01*
X149721Y425629D01*
X150046Y425526D01*
X150357Y425452D01*
X150654Y425407D01*
X150905Y425378D01*
X151009Y425363D01*
X151098Y425348D01*
X151276D01*
X151631Y425363D01*
X151972Y425407D01*
X152282Y425466D01*
X152579Y425555D01*
X152860Y425644D01*
X153112Y425763D01*
X153334Y425881D01*
X153556Y426000D01*
X153734Y426118D01*
X153897Y426236D01*
X154045Y426355D01*
X154163Y426444D01*
X154252Y426533D01*
X154311Y426592D01*
X154356Y426636D01*
X154370Y426651D01*
X154578Y426903D01*
X154755Y427169D01*
X154903Y427436D01*
X155037Y427702D01*
X155155Y427954D01*
X155244Y428221D01*
X155318Y428473D01*
X155377Y428709D01*
X155422Y428932D01*
X155466Y429139D01*
X155496Y429317D01*
X155511Y429479D01*
X155526Y429598D01*
Y429776D01*
X155511Y430057D01*
X155481Y430324D01*
X155437Y430575D01*
X155377Y430812D01*
X155303Y431020D01*
X155229Y431227D01*
X155140Y431405D01*
X155066Y431582D01*
X154978Y431730D01*
X154889Y431849D01*
X154815Y431967D01*
X154741Y432056D01*
X154681Y432130D01*
X154637Y432175D01*
X154607Y432204D01*
X154593Y432219D01*
X154415Y432382D01*
X154222Y432515D01*
X154015Y432649D01*
X153808Y432752D01*
X153586Y432841D01*
X153378Y432915D01*
X152964Y433019D01*
X152771Y433063D01*
X152593Y433093D01*
X152445Y433107D01*
X152297Y433122D01*
X152194Y433137D01*
D02*
G37*
G36*
X129256D02*
X129182D01*
X128812Y433107D01*
X128471Y433033D01*
X128145Y432945D01*
X127879Y432826D01*
X127642Y432708D01*
X127553Y432663D01*
X127464Y432619D01*
X127405Y432574D01*
X127360Y432545D01*
X127331Y432530D01*
X127316Y432515D01*
X127020Y432263D01*
X126753Y431982D01*
X126531Y431701D01*
X126339Y431419D01*
X126176Y431168D01*
X126116Y431049D01*
X126072Y430960D01*
X126027Y430872D01*
X126013Y430812D01*
X125983Y430783D01*
Y430768D01*
X125820Y430338D01*
X125717Y429924D01*
X125628Y429539D01*
X125569Y429183D01*
X125554Y429021D01*
X125539Y428872D01*
X125524Y428754D01*
Y428650D01*
X125509Y428561D01*
Y428443D01*
X125524Y428162D01*
X125539Y427910D01*
X125569Y427658D01*
X125628Y427436D01*
X125672Y427229D01*
X125731Y427036D01*
X125805Y426873D01*
X125865Y426710D01*
X125939Y426577D01*
X125998Y426459D01*
X126057Y426355D01*
X126116Y426281D01*
X126161Y426222D01*
X126190Y426177D01*
X126205Y426148D01*
X126220Y426133D01*
X126353Y426000D01*
X126501Y425881D01*
X126664Y425763D01*
X126812Y425674D01*
X127138Y425541D01*
X127434Y425452D01*
X127701Y425392D01*
X127819Y425378D01*
X127923Y425363D01*
X127997Y425348D01*
X128116D01*
X128338Y425363D01*
X128530Y425378D01*
X128708Y425407D01*
X128871Y425452D01*
X129004Y425481D01*
X129093Y425511D01*
X129167Y425526D01*
X129182Y425541D01*
X129359Y425615D01*
X129537Y425718D01*
X129700Y425807D01*
X129863Y425911D01*
X129981Y426000D01*
X130085Y426074D01*
X130144Y426133D01*
X130174Y426148D01*
X129463Y422712D01*
X131462D01*
X133595Y432974D01*
X131758D01*
X131507Y431790D01*
X131358Y432026D01*
X131196Y432234D01*
X131018Y432412D01*
X130840Y432574D01*
X130648Y432693D01*
X130455Y432811D01*
X130263Y432900D01*
X130070Y432974D01*
X129893Y433019D01*
X129730Y433063D01*
X129581Y433093D01*
X129448Y433122D01*
X129330D01*
X129256Y433137D01*
D02*
G37*
%LPD*%
G36*
X152268Y431612D02*
X152475Y431553D01*
X152653Y431493D01*
X152816Y431405D01*
X152934Y431331D01*
X153023Y431256D01*
X153082Y431197D01*
X153097Y431183D01*
X153245Y431005D01*
X153349Y430827D01*
X153423Y430635D01*
X153467Y430457D01*
X153512Y430294D01*
X153526Y430161D01*
Y430072D01*
Y430057D01*
Y430042D01*
X153512Y429776D01*
X153497Y429524D01*
X153408Y429050D01*
X153349Y428843D01*
X153275Y428635D01*
X153201Y428458D01*
X153126Y428280D01*
X153053Y428132D01*
X152978Y427999D01*
X152919Y427880D01*
X152845Y427777D01*
X152801Y427702D01*
X152756Y427643D01*
X152741Y427614D01*
X152727Y427599D01*
X152623Y427480D01*
X152505Y427377D01*
X152268Y427199D01*
X152045Y427081D01*
X151823Y426992D01*
X151631Y426947D01*
X151468Y426918D01*
X151409Y426903D01*
X151335D01*
X151098Y426918D01*
X150891Y426977D01*
X150713Y427051D01*
X150550Y427140D01*
X150431Y427214D01*
X150328Y427288D01*
X150269Y427347D01*
X150254Y427362D01*
X150106Y427555D01*
X150002Y427762D01*
X149928Y427969D01*
X149883Y428176D01*
X149854Y428354D01*
X149824Y428502D01*
Y428561D01*
Y428606D01*
Y428621D01*
Y428635D01*
X149839Y428872D01*
X149869Y429124D01*
X149913Y429361D01*
X149958Y429583D01*
X150002Y429761D01*
X150046Y429909D01*
X150061Y429968D01*
X150076Y430013D01*
X150091Y430027D01*
Y430042D01*
X150209Y430309D01*
X150328Y430546D01*
X150461Y430753D01*
X150594Y430916D01*
X150698Y431049D01*
X150787Y431138D01*
X150861Y431197D01*
X150876Y431212D01*
X151068Y431345D01*
X151276Y431449D01*
X151468Y431523D01*
X151646Y431582D01*
X151794Y431612D01*
X151927Y431627D01*
X152031D01*
X152268Y431612D01*
D02*
G37*
G36*
X129670Y431642D02*
X129863Y431582D01*
X130026Y431508D01*
X130174Y431419D01*
X130292Y431331D01*
X130381Y431256D01*
X130440Y431197D01*
X130455Y431183D01*
X130603Y430990D01*
X130707Y430783D01*
X130781Y430560D01*
X130825Y430353D01*
X130870Y430161D01*
X130885Y430013D01*
Y429953D01*
Y429924D01*
Y429894D01*
Y429879D01*
X130870Y429598D01*
X130840Y429332D01*
X130796Y429065D01*
X130737Y428828D01*
X130677Y428635D01*
X130633Y428473D01*
X130618Y428413D01*
X130603Y428369D01*
X130589Y428354D01*
Y428339D01*
X130470Y428058D01*
X130337Y427821D01*
X130203Y427629D01*
X130085Y427466D01*
X129981Y427347D01*
X129893Y427258D01*
X129818Y427214D01*
X129804Y427199D01*
X129626Y427081D01*
X129448Y427007D01*
X129285Y426947D01*
X129137Y426903D01*
X129004Y426873D01*
X128915Y426858D01*
X128826D01*
X128619Y426873D01*
X128427Y426932D01*
X128264Y426992D01*
X128116Y427081D01*
X128012Y427155D01*
X127923Y427229D01*
X127864Y427273D01*
X127849Y427288D01*
X127716Y427466D01*
X127612Y427658D01*
X127553Y427865D01*
X127493Y428058D01*
X127464Y428221D01*
X127449Y428369D01*
Y428458D01*
Y428473D01*
Y428487D01*
X127464Y428783D01*
X127493Y429065D01*
X127538Y429332D01*
X127597Y429583D01*
X127656Y429790D01*
X127701Y429939D01*
X127716Y430013D01*
X127731Y430057D01*
X127745Y430072D01*
Y430087D01*
X127864Y430383D01*
X127997Y430620D01*
X128130Y430827D01*
X128249Y431005D01*
X128367Y431123D01*
X128456Y431212D01*
X128515Y431271D01*
X128530Y431286D01*
X128708Y431405D01*
X128871Y431493D01*
X129034Y431567D01*
X129182Y431612D01*
X129300Y431642D01*
X129389Y431656D01*
X129463D01*
X129670Y431642D01*
D02*
G37*
D10*
X109500Y96000D02*
G03*
X109500Y95000I0J-500D01*
G01*
D02*
G03*
X109500Y96000I0J500D01*
G01*
X365000Y183300D02*
X373000D01*
Y212700D01*
X365000D02*
X373000D01*
X287000D02*
X295000D01*
X287000Y183300D02*
Y212700D01*
Y183300D02*
X295000D01*
X546700Y391000D02*
Y399000D01*
X517300D02*
X546700D01*
X517300Y391000D02*
Y399000D01*
Y313000D02*
Y321000D01*
Y313000D02*
X546700D01*
Y321000D01*
X142700Y313000D02*
Y321000D01*
X113300Y313000D02*
X142700D01*
X113300D02*
Y321000D01*
Y391000D02*
Y399000D01*
X142700D01*
Y391000D02*
Y399000D01*
D11*
X506437Y18500D02*
G03*
X506437Y18500I-1250J0D01*
G01*
X609437Y18750D02*
G03*
X609437Y18750I-1250J0D01*
G01*
X24500Y250800D02*
G03*
X24500Y250800I-1250J0D01*
G01*
D12*
X573300Y150000D02*
G03*
X579650Y151701I0J12700D01*
G01*
X82000Y420000D02*
G03*
X74000Y412000I0J-8000D01*
G01*
X586000Y407300D02*
G03*
X573300Y420000I-12700J0D01*
G01*
X74000Y162700D02*
G03*
X86700Y150000I12700J0D01*
G01*
X202250Y135500D02*
X246250D01*
X202250Y109500D02*
X246250D01*
X568250Y150000D02*
X573300D01*
X290000Y420000D02*
X573000D01*
X82000D02*
X290000D01*
X586000Y170000D02*
Y407300D01*
X180000Y150000D02*
X568250D01*
X74000Y162700D02*
Y412000D01*
D13*
X48500Y238000D02*
G03*
X48500Y238000I-3000J0D01*
G01*
D14*
X102000Y103000D02*
X105000D01*
X102000D02*
Y106000D01*
X172000Y103000D02*
Y106000D01*
X169000Y103000D02*
X172000D01*
Y170000D02*
Y173000D01*
X169000D02*
X172000D01*
X102000D02*
X105000D01*
X102000Y170000D02*
Y173000D01*
X359500Y318250D02*
X362000D01*
X359500Y332750D02*
X362000D01*
X436750Y293750D02*
Y296250D01*
X422250Y293750D02*
Y296250D01*
X301250Y279250D02*
Y281750D01*
X286750Y279250D02*
Y281750D01*
X359500Y334213D02*
X362000D01*
X359500Y348713D02*
X362000D01*
X546000Y25888D02*
Y38612D01*
X532500Y25888D02*
Y38612D01*
X511750Y26393D02*
Y37393D01*
X498937Y26500D02*
Y37500D01*
X241638Y339000D02*
X254362D01*
X241638Y352500D02*
X254362D01*
X301388Y361612D02*
X318112D01*
X301388Y346888D02*
X318112D01*
X291250Y321866D02*
Y334591D01*
X277750Y321866D02*
Y334591D01*
X263888Y287388D02*
X280612D01*
X263888Y302112D02*
X280612D01*
X301388Y346612D02*
X318112D01*
X301388Y331888D02*
X318112D01*
X301388Y331112D02*
X318112D01*
X301388Y316388D02*
X318112D01*
X301388Y376862D02*
X318112D01*
X301388Y362138D02*
X318112D01*
X359362Y286638D02*
Y303362D01*
X344638Y286638D02*
Y303362D01*
X341112Y286638D02*
Y303362D01*
X326388Y286638D02*
Y303362D01*
X322612Y286638D02*
Y303362D01*
X307887Y286638D02*
Y303362D01*
X412362Y289638D02*
Y306362D01*
X397638Y289638D02*
Y306362D01*
X362637Y286638D02*
Y303362D01*
X377362Y286638D02*
Y303362D01*
X380638Y289388D02*
Y306112D01*
X395362Y289388D02*
Y306112D01*
X399888Y372862D02*
X416612D01*
X399888Y358138D02*
X416612D01*
X399888Y355112D02*
X416612D01*
X399888Y340388D02*
X416612D01*
X399887Y337112D02*
X416612D01*
X399887Y322388D02*
X416612D01*
X263638Y269638D02*
X280362D01*
X263638Y284362D02*
X280362D01*
X263388Y253138D02*
X280112D01*
X263388Y267862D02*
X280112D01*
X273750Y321866D02*
Y334591D01*
X260250Y321866D02*
Y334591D01*
X255112Y319138D02*
Y335862D01*
X240388Y319138D02*
Y335862D01*
X241638Y379750D02*
X254362D01*
X241638Y366250D02*
X254362D01*
X241638Y353000D02*
X254362D01*
X241638Y366500D02*
X254362D01*
X581000Y25888D02*
Y38612D01*
X567500Y25888D02*
Y38612D01*
X550250Y25888D02*
Y38612D01*
X563750Y25888D02*
Y38612D01*
X601937Y26750D02*
Y37750D01*
X614750Y26643D02*
Y37643D01*
X597750Y25888D02*
Y38612D01*
X584250Y25888D02*
Y38612D01*
X529250Y25888D02*
Y38612D01*
X515750Y25888D02*
Y38612D01*
X265250Y106000D02*
X273750D01*
X265250Y64000D02*
X273750D01*
X340000Y18888D02*
Y31612D01*
X326500Y18888D02*
Y31612D01*
X399900Y58500D02*
Y112500D01*
X436100Y58500D02*
Y112500D01*
X198000Y137247D02*
Y149972D01*
X211500Y137247D02*
Y149972D01*
X35500Y198000D02*
Y248000D01*
X67500Y198000D02*
Y248000D01*
X35500D02*
X67500D01*
X35500Y198000D02*
X67500D01*
X631079Y284660D02*
X643579D01*
Y386660D01*
X618579D02*
X643579D01*
X618579Y297560D02*
Y386660D01*
X357112Y17138D02*
Y33862D01*
X342388Y17138D02*
Y33862D01*
X308500Y18888D02*
Y31612D01*
X295000Y18888D02*
Y31612D01*
X324500Y18888D02*
Y31612D01*
X311000Y18888D02*
Y31612D01*
X362050Y121000D02*
X415000D01*
X362050Y147000D02*
X412450D01*
X272138Y29138D02*
X288862D01*
X272138Y43862D02*
X288862D01*
X272138Y44388D02*
X288862D01*
X272138Y59112D02*
X288862D01*
X272138Y24862D02*
X288862D01*
X272138Y10138D02*
X288862D01*
X543612Y128602D02*
Y145327D01*
X528888Y128602D02*
Y145327D01*
X559362Y128388D02*
Y145112D01*
X544638Y128388D02*
Y145112D01*
X228750Y77638D02*
Y90362D01*
X215250Y77638D02*
Y90362D01*
X345888Y85888D02*
Y102612D01*
X360612Y85888D02*
Y102612D01*
X364888Y85888D02*
Y102612D01*
X379612Y85888D02*
Y102612D01*
X360500Y51750D02*
Y77500D01*
X347500Y51750D02*
Y68750D01*
X171638Y51638D02*
Y68362D01*
X186362Y51638D02*
Y68362D01*
X134423Y5638D02*
X151148D01*
X134423Y20362D02*
X151148D01*
X134638Y23638D02*
X151362D01*
X134638Y38362D02*
X151362D01*
X162500Y22000D02*
Y28000D01*
X191500D01*
Y22000D02*
Y28000D01*
X162500Y22000D02*
X191500D01*
X162000Y6500D02*
Y18500D01*
X172750Y77638D02*
Y90362D01*
X159250Y77638D02*
Y90362D01*
X440229Y76512D02*
Y84488D01*
X468271Y76512D02*
Y84488D01*
X385250Y51750D02*
Y68750D01*
X372250Y43000D02*
Y68750D01*
X297500Y76000D02*
X311500D01*
X315000Y45500D02*
Y74500D01*
Y45500D02*
X319000D01*
Y74500D01*
X315000D02*
X319000D01*
X134362Y74638D02*
Y91362D01*
X119638Y74638D02*
Y91362D01*
X154362Y74638D02*
Y91362D01*
X139638Y74638D02*
Y91362D01*
X190750Y77638D02*
Y90362D01*
X177250Y77638D02*
Y90362D01*
X210362Y75638D02*
Y92362D01*
X195638Y75638D02*
Y92362D01*
X15000Y77500D02*
Y151500D01*
Y14000D02*
X67300D01*
Y55260D02*
Y131660D01*
X15000Y151500D02*
X41150D01*
X42638Y81638D02*
Y98362D01*
X57362Y81638D02*
Y98362D01*
X46138Y70362D02*
X62862D01*
X46138Y55638D02*
X62862D01*
X92000Y61500D02*
Y72500D01*
X78000Y61500D02*
Y72500D01*
M02*
