G04*
G04 #@! TF.GenerationSoftware,Altium Limited,Altium Designer,23.8.1 (32)*
G04*
G04 Layer_Color=32896*
%FSLAX44Y44*%
%MOMM*%
G71*
G04*
G04 #@! TF.SameCoordinates,4EFDB198-7814-4870-AD9F-EEE93015B5C1*
G04*
G04*
G04 #@! TF.FilePolarity,Positive*
G04*
G01*
G75*
%ADD10C,0.1000*%
%ADD12C,0.1500*%
D10*
X330500Y249000D02*
X340500D01*
X335500Y244000D02*
Y254000D01*
X359500Y251250D02*
X369500D01*
X364500Y246250D02*
Y256250D01*
X345750Y251250D02*
X355750D01*
X350750Y246250D02*
Y256250D01*
X374000Y251250D02*
X384000D01*
X379000Y246250D02*
Y256250D01*
X387000Y251250D02*
X397000D01*
X392000Y246250D02*
Y256250D01*
X400000Y251250D02*
X410000D01*
X405000Y246250D02*
Y256250D01*
X323000Y363750D02*
Y373750D01*
X318000Y368750D02*
X328000D01*
X374000Y268729D02*
X384000D01*
X379000Y263729D02*
Y273729D01*
X364500Y263729D02*
Y273729D01*
X359500Y268729D02*
X369500D01*
X405250Y263729D02*
Y273729D01*
X400250Y268729D02*
X410250D01*
X387000Y268729D02*
X397000D01*
X392000Y263729D02*
Y273729D01*
X351000Y263729D02*
Y273729D01*
X346000Y268729D02*
X356000D01*
X330750Y265000D02*
X340750D01*
X335750Y260000D02*
Y270000D01*
X95500Y323000D02*
X105500D01*
X100500Y318000D02*
Y328000D01*
X286250Y411000D02*
Y421000D01*
X281250Y416000D02*
X291250D01*
X76750Y307000D02*
Y317000D01*
X71750Y312000D02*
X81750D01*
X71750Y330750D02*
X81750D01*
X76750Y325750D02*
Y335750D01*
X57750Y311750D02*
Y321750D01*
X52750Y316750D02*
X62750D01*
X41250Y311750D02*
Y321750D01*
X36250Y316750D02*
X46250D01*
X92286Y209500D02*
X102286D01*
X97286Y204500D02*
Y214500D01*
X24750Y311750D02*
Y321750D01*
X19750Y316750D02*
X29750D01*
X42000Y208000D02*
Y218000D01*
X37000Y213000D02*
X47000D01*
X219000Y130000D02*
Y140000D01*
X214000Y135000D02*
X224000D01*
X104000Y33000D02*
X114000D01*
X109000Y28000D02*
Y38000D01*
X70000Y115500D02*
Y125500D01*
X65000Y120500D02*
X75000D01*
X78750Y120250D02*
X88750D01*
X83750Y115250D02*
Y125250D01*
X125750Y126750D02*
Y136750D01*
X120750Y131750D02*
X130750D01*
D12*
X161000Y15000D02*
X171000D01*
X166000Y10000D02*
Y20000D01*
X345000Y438250D02*
X350000D01*
X347500Y435750D02*
Y438250D01*
Y440750D01*
M02*
