G04*
G04 #@! TF.GenerationSoftware,Altium Limited,Altium Designer,23.8.1 (32)*
G04*
G04 Layer_Color=2752767*
%FSLAX44Y44*%
%MOMM*%
G71*
G04*
G04 #@! TF.SameCoordinates,4EFDB198-7814-4870-AD9F-EEE93015B5C1*
G04*
G04*
G04 #@! TF.FilePolarity,Positive*
G04*
G01*
G75*
%ADD124C,0.1270*%
%ADD125C,0.1693*%
%ADD126C,0.1016*%
D124*
X204120Y9920D02*
X206660Y15000D01*
X204120Y20080D01*
X209200Y17540D01*
X214280Y20080D01*
X211740Y15000D01*
X214280Y9920D01*
X209200Y12460D01*
X204120Y9920D01*
X206152Y11952D02*
X207676Y15000D01*
X206152Y18048D01*
X209200Y16524D01*
X212248Y18048D01*
X210724Y15000D01*
X212248Y11952D01*
X209200Y13476D01*
X206152Y11952D01*
X137100Y46420D02*
X132020Y56580D01*
X142180D01*
X137100Y46420D01*
X194900D02*
X189820Y56580D01*
X199980D01*
X194900Y46420D01*
X117720Y9920D02*
X120260Y15000D01*
X117720Y20080D01*
X122800Y17540D01*
X127880Y20080D01*
X125340Y15000D01*
X127880Y9920D01*
X122800Y12460D01*
X117720Y9920D01*
X119752Y11952D02*
X121276Y15000D01*
X119752Y18048D01*
X122800Y16524D01*
X125848Y18048D01*
X124324Y15000D01*
X125848Y11952D01*
X122800Y13476D01*
X119752Y11952D01*
X209200Y51720D02*
X211740Y54260D01*
X214280D01*
X211740Y56800D01*
X214280Y59340D01*
X211740D01*
X209200Y61880D01*
X206660Y59340D01*
X204120D01*
X206660Y56800D01*
X204120Y54260D01*
X206660D01*
X209200Y51720D01*
X439920Y224920D02*
Y235080D01*
X450080D01*
Y224920D01*
X439920D01*
X441952Y226952D02*
Y233048D01*
X448048D01*
Y226952D01*
X441952D01*
X483270Y55170D02*
X485810Y60250D01*
X483270Y65330D01*
X488350Y62790D01*
X493430Y65330D01*
X490890Y60250D01*
X493430Y55170D01*
X488350Y57710D01*
X483270Y55170D01*
X508670D02*
X511210Y60250D01*
X508670Y65330D01*
X513750Y62790D01*
X518830Y65330D01*
X516290Y60250D01*
X518830Y55170D01*
X513750Y57710D01*
X508670Y55170D01*
X590470D02*
X593010Y60250D01*
X590470Y65330D01*
X595550Y62790D01*
X600630Y65330D01*
X598090Y60250D01*
X600630Y55170D01*
X595550Y57710D01*
X590470Y55170D01*
X615870D02*
X618410Y60250D01*
X615870Y65330D01*
X620950Y62790D01*
X626030Y65330D01*
X623490Y60250D01*
X626030Y55170D01*
X620950Y57710D01*
X615870Y55170D01*
X606720Y184670D02*
X609260Y189750D01*
X606720Y194830D01*
X611800Y192290D01*
X616880Y194830D01*
X614340Y189750D01*
X616880Y184670D01*
X611800Y187210D01*
X606720Y184670D01*
X594020Y159270D02*
X596560Y164350D01*
X594020Y169430D01*
X599100Y166890D01*
X604180Y169430D01*
X601640Y164350D01*
X604180Y159270D01*
X599100Y161810D01*
X594020Y159270D01*
X581320Y184670D02*
X583860Y189750D01*
X581320Y194830D01*
X586400Y192290D01*
X591480Y194830D01*
X588940Y189750D01*
X591480Y184670D01*
X586400Y187210D01*
X581320Y184670D01*
X568620Y159270D02*
X571160Y164350D01*
X568620Y169430D01*
X573700Y166890D01*
X578780Y169430D01*
X576240Y164350D01*
X578780Y159270D01*
X573700Y161810D01*
X568620Y159270D01*
X555920Y184670D02*
X558460Y189750D01*
X555920Y194830D01*
X561000Y192290D01*
X566080Y194830D01*
X563540Y189750D01*
X566080Y184670D01*
X561000Y187210D01*
X555920Y184670D01*
X543220Y159270D02*
X545760Y164350D01*
X543220Y169430D01*
X548300Y166890D01*
X553380Y169430D01*
X550840Y164350D01*
X553380Y159270D01*
X548300Y161810D01*
X543220Y159270D01*
X530520Y184670D02*
X533060Y189750D01*
X530520Y194830D01*
X535600Y192290D01*
X540680Y194830D01*
X538140Y189750D01*
X540680Y184670D01*
X535600Y187210D01*
X530520Y184670D01*
X517820Y159270D02*
X520360Y164350D01*
X517820Y169430D01*
X522900Y166890D01*
X527980Y169430D01*
X525440Y164350D01*
X527980Y159270D01*
X522900Y161810D01*
X517820Y159270D01*
X505120Y184670D02*
X507660Y189750D01*
X505120Y194830D01*
X510200Y192290D01*
X515280Y194830D01*
X512740Y189750D01*
X515280Y184670D01*
X510200Y187210D01*
X505120Y184670D01*
X492420Y159270D02*
X494960Y164350D01*
X492420Y169430D01*
X497500Y166890D01*
X502580Y169430D01*
X500040Y164350D01*
X502580Y159270D01*
X497500Y161810D01*
X492420Y159270D01*
X606720Y95770D02*
X609260D01*
X611800Y98310D01*
X614340Y95770D01*
X616880D01*
Y98310D01*
X614340Y100850D01*
X616880Y103390D01*
Y105930D01*
X614340D01*
X611800Y103390D01*
X609260Y105930D01*
X606720D01*
Y103390D01*
X609260Y100850D01*
X606720Y98310D01*
Y95770D01*
X492420D02*
X494960D01*
X497500Y98310D01*
X500040Y95770D01*
X502580D01*
Y98310D01*
X500040Y100850D01*
X502580Y103390D01*
Y105930D01*
X500040D01*
X497500Y103390D01*
X494960Y105930D01*
X492420D01*
Y103390D01*
X494960Y100850D01*
X492420Y98310D01*
Y95770D01*
X627320Y131350D02*
X632400Y136430D01*
X637480Y131350D01*
X632400Y126270D01*
X627320Y131350D01*
X471820D02*
X476900Y136430D01*
X481980Y131350D01*
X476900Y126270D01*
X471820Y131350D01*
X285000Y118040D02*
X279920Y128200D01*
X290080D01*
X285000Y118040D01*
Y120072D02*
X281952Y126168D01*
X288048D01*
X285000Y120072D01*
X335000Y118040D02*
X329920Y128200D01*
X340080D01*
X335000Y118040D01*
Y120072D02*
X331952Y126168D01*
X338048D01*
X335000Y120072D01*
X365000Y18040D02*
X367540Y20580D01*
X370080D01*
X367540Y23120D01*
X370080Y25660D01*
X367540D01*
X365000Y28200D01*
X362460Y25660D01*
X359920D01*
X362460Y23120D01*
X359920Y20580D01*
X362460D01*
X365000Y18040D01*
Y20072D02*
X366524Y21596D01*
X368048D01*
X366524Y23120D01*
X368048Y24644D01*
X366524D01*
X365000Y26168D01*
X363476Y24644D01*
X361952D01*
X363476Y23120D01*
X361952Y21596D01*
X363476D01*
X365000Y20072D01*
X255000Y18040D02*
X257540Y20580D01*
X260080D01*
X257540Y23120D01*
X260080Y25660D01*
X257540D01*
X255000Y28200D01*
X252460Y25660D01*
X249920D01*
X252460Y23120D01*
X249920Y20580D01*
X252460D01*
X255000Y18040D01*
Y20072D02*
X256524Y21596D01*
X258048D01*
X256524Y23120D01*
X258048Y24644D01*
X256524D01*
X255000Y26168D01*
X253476Y24644D01*
X251952D01*
X253476Y23120D01*
X251952Y21596D01*
X253476D01*
X255000Y20072D01*
X415960Y18460D02*
Y15920D01*
X421040D01*
Y18460D01*
X423580D01*
Y23540D01*
X421040D01*
Y26080D01*
X415960D01*
Y23540D01*
X413420D01*
Y18460D01*
X415960D01*
X639543Y308140D02*
X637427Y310256D01*
X633195D01*
X631079Y308140D01*
Y299676D01*
X633195Y297560D01*
X637427D01*
X639543Y299676D01*
Y333540D02*
X637427Y335656D01*
X633195D01*
X631079Y333540D01*
Y325076D01*
X633195Y322960D01*
X637427D01*
X639543Y325076D01*
Y358940D02*
X637427Y361056D01*
X633195D01*
X631079Y358940D01*
Y350476D01*
X633195Y348360D01*
X637427D01*
X639543Y350476D01*
Y384340D02*
X637427Y386456D01*
X633195D01*
X631079Y384340D01*
Y375876D01*
X633195Y373760D01*
X637427D01*
X639543Y375876D01*
X632460Y422460D02*
Y419920D01*
X637540D01*
Y422460D01*
X640080D01*
Y427540D01*
X637540D01*
Y430080D01*
X632460D01*
Y427540D01*
X629920D01*
Y422460D01*
X632460D01*
X22460D02*
Y419920D01*
X27540D01*
Y422460D01*
X30080D01*
Y427540D01*
X27540D01*
Y430080D01*
X22460D01*
Y427540D01*
X19920D01*
Y422460D01*
X22460D01*
X555000Y400446D02*
Y387750D01*
X561348D01*
X563464Y389866D01*
Y398330D01*
X561348Y400446D01*
X555000D01*
X538817Y384412D02*
Y371716D01*
X545165D01*
X547281Y373832D01*
Y382296D01*
X545165Y384412D01*
X538817D01*
X533000Y380446D02*
Y367750D01*
X539348D01*
X541464Y369866D01*
Y378330D01*
X539348Y380446D01*
X533000D01*
X525397Y380696D02*
Y368000D01*
X531745D01*
X533861Y370116D01*
Y378580D01*
X531745Y380696D01*
X525397D01*
X556500Y413696D02*
Y401000D01*
X562848D01*
X564964Y403116D01*
Y411580D01*
X562848Y413696D01*
X556500D01*
X525500Y388946D02*
Y376250D01*
X531848D01*
X533964Y378366D01*
Y386830D01*
X531848Y388946D01*
X525500D01*
Y396696D02*
Y384000D01*
X531848D01*
X533964Y386116D01*
Y394580D01*
X531848Y396696D01*
X525500D01*
X558750Y376446D02*
Y363750D01*
X565098D01*
X567214Y365866D01*
Y374330D01*
X565098Y376446D01*
X558750D01*
X537250Y359196D02*
Y346500D01*
X543598D01*
X545714Y348616D01*
Y357080D01*
X543598Y359196D01*
X537250D01*
X525750Y340696D02*
Y328000D01*
X532098D01*
X534214Y330116D01*
Y338580D01*
X532098Y340696D01*
X525750D01*
X257750Y397946D02*
Y385250D01*
X264098D01*
X266214Y387366D01*
Y395830D01*
X264098Y397946D01*
X257750D01*
X250407Y397957D02*
Y385261D01*
X256755D01*
X258871Y387378D01*
Y395841D01*
X256755Y397957D01*
X250407D01*
X277994Y262593D02*
Y249897D01*
X284342D01*
X286458Y252013D01*
Y260477D01*
X284342Y262593D01*
X277994D01*
X270494D02*
Y249897D01*
X276842D01*
X278958Y252013D01*
Y260477D01*
X276842Y262593D01*
X270494D01*
X262745D02*
Y249897D01*
X269093D01*
X271208Y252013D01*
Y260477D01*
X269093Y262593D01*
X262745D01*
X254995D02*
Y249897D01*
X261343D01*
X263458Y252013D01*
Y260477D01*
X261343Y262593D01*
X254995D01*
X247495D02*
Y249897D01*
X253843D01*
X255958Y252013D01*
Y260477D01*
X253843Y262593D01*
X247495D01*
X240250Y224446D02*
Y211750D01*
X246598D01*
X248714Y213866D01*
Y222330D01*
X246598Y224446D01*
X240250D01*
X231250Y232196D02*
Y219500D01*
X237598D01*
X239714Y221616D01*
Y230080D01*
X237598Y232196D01*
X231250D01*
X231750Y224446D02*
Y211750D01*
X238098D01*
X240214Y213866D01*
Y222330D01*
X238098Y224446D01*
X231750D01*
X547438Y335696D02*
Y323000D01*
X553786D01*
X555902Y325116D01*
Y333580D01*
X553786Y335696D01*
X547438D01*
X555438Y384696D02*
Y372000D01*
X561786D01*
X563902Y374116D01*
Y382580D01*
X561786Y384696D01*
X555438D01*
X525750Y356696D02*
Y344000D01*
X532098D01*
X534214Y346116D01*
Y354580D01*
X532098Y356696D01*
X525750D01*
Y364696D02*
Y352000D01*
X532098D01*
X534214Y354116D01*
Y362580D01*
X532098Y364696D01*
X525750D01*
Y372696D02*
Y360000D01*
X532098D01*
X534214Y362116D01*
Y370580D01*
X532098Y372696D01*
X525750D01*
X298122Y173449D02*
Y160753D01*
X304470D01*
X306586Y162869D01*
Y171333D01*
X304470Y173449D01*
X298122D01*
X297750Y163696D02*
Y151000D01*
X304098D01*
X306214Y153116D01*
Y161580D01*
X304098Y163696D01*
X297750D01*
X298000Y154446D02*
Y141750D01*
X304348D01*
X306464Y143866D01*
Y152330D01*
X304348Y154446D01*
X298000D01*
X307040Y144356D02*
Y131660D01*
X313388D01*
X315504Y133776D01*
Y142240D01*
X313388Y144356D01*
X307040D01*
X307290Y135106D02*
Y122410D01*
X313638D01*
X315754Y124526D01*
Y132990D01*
X313638Y135106D01*
X307290D01*
X307250Y124946D02*
Y112250D01*
X313598D01*
X315714Y114366D01*
Y122830D01*
X313598Y124946D01*
X307250D01*
X278000Y154696D02*
Y142000D01*
X284348D01*
X286464Y144116D01*
Y152580D01*
X284348Y154696D01*
X278000D01*
X278500Y163696D02*
Y151000D01*
X284848D01*
X286964Y153116D01*
Y161580D01*
X284848Y163696D01*
X278500D01*
X278250Y172946D02*
Y160250D01*
X284598D01*
X286714Y162366D01*
Y170830D01*
X284598Y172946D01*
X278250D01*
X292250Y72446D02*
Y59750D01*
X298598D01*
X300714Y61866D01*
Y70330D01*
X298598Y72446D01*
X292250D01*
X326127Y36793D02*
Y24097D01*
X332475D01*
X334591Y26213D01*
Y34677D01*
X332475Y36793D01*
X326127D01*
X399250Y33196D02*
Y20500D01*
X405598D01*
X407714Y22616D01*
Y31080D01*
X405598Y33196D01*
X399250D01*
X399000Y23446D02*
Y10750D01*
X405348D01*
X407464Y12866D01*
Y21330D01*
X405348Y23446D01*
X399000D01*
X206500Y255446D02*
Y242750D01*
X212848D01*
X214964Y244866D01*
Y253330D01*
X212848Y255446D01*
X206500D01*
X190500D02*
Y242750D01*
X196848D01*
X198964Y244866D01*
Y253330D01*
X196848Y255446D01*
X190500D01*
X198750Y255446D02*
Y242750D01*
X205098D01*
X207214Y244866D01*
Y253330D01*
X205098Y255446D01*
X198750D01*
X198719Y247653D02*
Y234957D01*
X205067D01*
X207183Y237073D01*
Y245537D01*
X205067Y247653D01*
X198719D01*
X190469Y247653D02*
Y234957D01*
X196817D01*
X198933Y237073D01*
Y245537D01*
X196817Y247653D01*
X190469D01*
X206469D02*
Y234957D01*
X212817D01*
X214933Y237073D01*
Y245537D01*
X212817Y247653D01*
X206469D01*
X215000Y247696D02*
Y235000D01*
X221348D01*
X223464Y237116D01*
Y245580D01*
X221348Y247696D01*
X215000D01*
X223031Y239738D02*
Y227043D01*
X229379D01*
X231495Y229158D01*
Y237623D01*
X229379Y239738D01*
X223031D01*
X215031Y239739D02*
Y227043D01*
X221379D01*
X223495Y229158D01*
Y237623D01*
X221379Y239739D01*
X215031D01*
X206500Y239696D02*
Y227000D01*
X212848D01*
X214964Y229116D01*
Y237580D01*
X212848Y239696D01*
X206500D01*
X190500D02*
Y227000D01*
X196848D01*
X198964Y229116D01*
Y237580D01*
X196848Y239696D01*
X190500D01*
X198750Y239696D02*
Y227000D01*
X205098D01*
X207214Y229116D01*
Y237580D01*
X205098Y239696D01*
X198750D01*
Y231946D02*
Y219250D01*
X205098D01*
X207214Y221366D01*
Y229830D01*
X205098Y231946D01*
X198750D01*
X190500Y231946D02*
Y219250D01*
X196848D01*
X198964Y221366D01*
Y229830D01*
X196848Y231946D01*
X190500D01*
X206750Y231946D02*
Y219250D01*
X213098D01*
X215214Y221366D01*
Y229830D01*
X213098Y231946D01*
X206750D01*
Y224196D02*
Y211500D01*
X213098D01*
X215214Y213616D01*
Y222080D01*
X213098Y224196D01*
X206750D01*
X190250Y223946D02*
Y211250D01*
X196598D01*
X198714Y213366D01*
Y221830D01*
X196598Y223946D01*
X190250D01*
X198500Y223946D02*
Y211250D01*
X204848D01*
X206964Y213366D01*
Y221830D01*
X204848Y223946D01*
X198500D01*
X215000Y231946D02*
Y219250D01*
X221348D01*
X223464Y221366D01*
Y229830D01*
X221348Y231946D01*
X215000D01*
X223000Y231946D02*
Y219250D01*
X229348D01*
X231464Y221366D01*
Y229830D01*
X229348Y231946D01*
X223000D01*
X215250Y224196D02*
Y211500D01*
X221598D01*
X223714Y213616D01*
Y222080D01*
X221598Y224196D01*
X215250D01*
X223500Y224196D02*
Y211500D01*
X229848D01*
X231964Y213616D01*
Y222080D01*
X229848Y224196D01*
X223500D01*
X192960Y136696D02*
Y124000D01*
X199308D01*
X201424Y126116D01*
Y134580D01*
X199308Y136696D01*
X192960D01*
Y126946D02*
Y114250D01*
X199308D01*
X201424Y116366D01*
Y124830D01*
X199308Y126946D01*
X192960D01*
X179250Y136696D02*
Y124000D01*
X185598D01*
X187714Y126116D01*
Y134580D01*
X185598Y136696D01*
X179250D01*
Y126696D02*
Y114000D01*
X185598D01*
X187714Y116116D01*
Y124580D01*
X185598Y126696D01*
X179250D01*
Y146696D02*
Y134000D01*
X185598D01*
X187714Y136116D01*
Y144580D01*
X185598Y146696D01*
X179250D01*
X165939Y409068D02*
Y396373D01*
X172286D01*
X174403Y398489D01*
Y406953D01*
X172286Y409068D01*
X165939D01*
X173750Y409196D02*
Y396500D01*
X180098D01*
X182214Y398616D01*
Y407080D01*
X180098Y409196D01*
X173750D01*
X165750Y416946D02*
Y404250D01*
X172098D01*
X174214Y406366D01*
Y414830D01*
X172098Y416946D01*
X165750D01*
X173750D02*
Y404250D01*
X180098D01*
X182214Y406366D01*
Y414830D01*
X180098Y416946D01*
X173750D01*
X157000D02*
Y404250D01*
X163348D01*
X165464Y406366D01*
Y414830D01*
X163348Y416946D01*
X157000D01*
X149000D02*
Y404250D01*
X155348D01*
X157464Y406366D01*
Y414830D01*
X155348Y416946D01*
X149000D01*
X157000Y409196D02*
Y396500D01*
X163348D01*
X165464Y398616D01*
Y407080D01*
X163348Y409196D01*
X157000D01*
X149189Y409068D02*
Y396373D01*
X155536D01*
X157653Y398489D01*
Y406953D01*
X155536Y409068D01*
X149189D01*
X140500Y416946D02*
Y404250D01*
X146848D01*
X148964Y406366D01*
Y414830D01*
X146848Y416946D01*
X140500D01*
X99000Y283696D02*
Y271000D01*
X105348D01*
X107464Y273116D01*
Y281580D01*
X105348Y283696D01*
X99000D01*
X107000Y283696D02*
Y271000D01*
X113348D01*
X115464Y273116D01*
Y281580D01*
X113348Y283696D01*
X107000D01*
X57214Y199580D02*
X55098Y201696D01*
X50866D01*
X48750Y199580D01*
Y191116D01*
X50866Y189000D01*
X55098D01*
X57214Y191116D01*
Y195348D01*
X52982D01*
X36500Y243196D02*
Y230500D01*
X42848D01*
X44964Y232616D01*
Y241080D01*
X42848Y243196D01*
X36500D01*
X91500Y283696D02*
Y271000D01*
X97848D01*
X99964Y273116D01*
Y281580D01*
X97848Y283696D01*
X91500D01*
X68095Y288260D02*
Y275564D01*
X74443D01*
X76558Y277680D01*
Y286144D01*
X74443Y288260D01*
X68095D01*
X24845Y288010D02*
Y275314D01*
X31193D01*
X33308Y277430D01*
Y285894D01*
X31193Y288010D01*
X24845D01*
X32845D02*
Y275314D01*
X39193D01*
X41308Y277430D01*
Y285894D01*
X39193Y288010D01*
X32845D01*
X41345D02*
Y275314D01*
X47692D01*
X49809Y277430D01*
Y285894D01*
X47692Y288010D01*
X41345D01*
X59595Y288260D02*
Y275564D01*
X65943D01*
X68059Y277680D01*
Y286144D01*
X65943Y288260D01*
X59595D01*
X50595Y288010D02*
Y275314D01*
X56943D01*
X59058Y277430D01*
Y285894D01*
X56943Y288010D01*
X50595D01*
X50750Y280446D02*
Y267750D01*
X57098D01*
X59214Y269866D01*
Y278330D01*
X57098Y280446D01*
X50750D01*
X59750Y280696D02*
Y268000D01*
X66098D01*
X68214Y270116D01*
Y278580D01*
X66098Y280696D01*
X59750D01*
X41500Y280446D02*
Y267750D01*
X47848D01*
X49964Y269866D01*
Y278330D01*
X47848Y280446D01*
X41500D01*
X33000D02*
Y267750D01*
X39348D01*
X41464Y269866D01*
Y278330D01*
X39348Y280446D01*
X33000D01*
X25000D02*
Y267750D01*
X31348D01*
X33464Y269866D01*
Y278330D01*
X31348Y280446D01*
X25000D01*
X68250Y280696D02*
Y268000D01*
X74598D01*
X76714Y270116D01*
Y278580D01*
X74598Y280696D01*
X68250D01*
X68000Y273446D02*
Y260750D01*
X74348D01*
X76464Y262866D01*
Y271330D01*
X74348Y273446D01*
X68000D01*
X59750D02*
Y260750D01*
X66098D01*
X68214Y262866D01*
Y271330D01*
X66098Y273446D01*
X59750D01*
X50750D02*
Y260750D01*
X57098D01*
X59214Y262866D01*
Y271330D01*
X57098Y273446D01*
X50750D01*
X91250Y270446D02*
Y257750D01*
X97598D01*
X99714Y259866D01*
Y268330D01*
X97598Y270446D01*
X91250D01*
X85000Y159946D02*
Y147250D01*
X91348D01*
X93464Y149366D01*
Y157830D01*
X91348Y159946D01*
X85000D01*
X91000Y165696D02*
Y153000D01*
X97348D01*
X99464Y155116D01*
Y163580D01*
X97348Y165696D01*
X91000D01*
X50750Y266946D02*
Y254250D01*
X57098D01*
X59214Y256366D01*
Y264830D01*
X57098Y266946D01*
X50750D01*
X237013Y164855D02*
Y152159D01*
X243361D01*
X245477Y154275D01*
Y162738D01*
X243361Y164855D01*
X237013D01*
X145000Y168196D02*
Y155500D01*
X151348D01*
X153464Y157616D01*
Y166080D01*
X151348Y168196D01*
X145000D01*
X266750Y431196D02*
Y418500D01*
X273098D01*
X275214Y420616D01*
Y429080D01*
X273098Y431196D01*
X266750D01*
X120250Y151598D02*
Y138902D01*
X126598D01*
X128714Y141018D01*
Y149482D01*
X126598Y151598D01*
X120250D01*
X177250Y28696D02*
Y16000D01*
X183598D01*
X185714Y18116D01*
Y26580D01*
X183598Y28696D01*
X177250D01*
X177000Y21446D02*
Y8750D01*
X183348D01*
X185464Y10866D01*
Y19330D01*
X183348Y21446D01*
X177000D01*
X132103Y135094D02*
Y122398D01*
X138451D01*
X140567Y124514D01*
Y132978D01*
X138451Y135094D01*
X132103D01*
X144750Y146946D02*
Y134250D01*
X151098D01*
X153214Y136366D01*
Y144830D01*
X151098Y146946D01*
X144750D01*
X137250Y146836D02*
Y134140D01*
X143598D01*
X145714Y136256D01*
Y144720D01*
X143598Y146836D01*
X137250D01*
X186250Y136696D02*
Y124000D01*
X192598D01*
X194714Y126116D01*
Y134580D01*
X192598Y136696D01*
X186250D01*
Y146696D02*
Y134000D01*
X192598D01*
X194714Y136116D01*
Y144580D01*
X192598Y146696D01*
X186250D01*
Y126696D02*
Y114000D01*
X192598D01*
X194714Y116116D01*
Y124580D01*
X192598Y126696D01*
X186250D01*
X173290Y90686D02*
Y77990D01*
X179638D01*
X181754Y80106D01*
Y88570D01*
X179638Y90686D01*
X173290D01*
X446231Y23180D02*
Y10484D01*
X452579D01*
X454695Y12600D01*
Y21064D01*
X452579Y23180D01*
X446231D01*
X446481Y32930D02*
Y20234D01*
X452829D01*
X454945Y22350D01*
Y30814D01*
X452829Y32930D01*
X446481D01*
Y43180D02*
Y30484D01*
X452829D01*
X454945Y32600D01*
Y41064D01*
X452829Y43180D01*
X446481D01*
X257717Y164145D02*
Y151449D01*
X264065D01*
X266181Y153565D01*
Y162029D01*
X264065Y164145D01*
X257717D01*
X257750Y155446D02*
Y142750D01*
X264098D01*
X266214Y144866D01*
Y153330D01*
X264098Y155446D01*
X257750D01*
X258000Y143696D02*
Y131000D01*
X264348D01*
X266464Y133116D01*
Y141580D01*
X264348Y143696D01*
X258000D01*
X257500Y130446D02*
Y117750D01*
X263848D01*
X265964Y119866D01*
Y128330D01*
X263848Y130446D01*
X257500D01*
X288500Y173196D02*
Y160500D01*
X294848D01*
X296964Y162616D01*
Y171080D01*
X294848Y173196D01*
X288500D01*
X91250Y276696D02*
Y264000D01*
X97598D01*
X99714Y266116D01*
Y274580D01*
X97598Y276696D01*
X91250D01*
X106500Y263946D02*
Y251250D01*
X112848D01*
X114964Y253366D01*
Y261830D01*
X112848Y263946D01*
X106500D01*
X106750Y276696D02*
Y264000D01*
X113098D01*
X115214Y266116D01*
Y274580D01*
X113098Y276696D01*
X106750D01*
Y270446D02*
Y257750D01*
X113098D01*
X115214Y259866D01*
Y268330D01*
X113098Y270446D01*
X106750D01*
X99250Y270196D02*
Y257500D01*
X105598D01*
X107714Y259616D01*
Y268080D01*
X105598Y270196D01*
X99250D01*
Y276696D02*
Y264000D01*
X105598D01*
X107714Y266116D01*
Y274580D01*
X105598Y276696D01*
X99250D01*
Y263696D02*
Y251000D01*
X105598D01*
X107714Y253116D01*
Y261580D01*
X105598Y263696D01*
X99250D01*
X59750Y266696D02*
Y254000D01*
X66098D01*
X68214Y256116D01*
Y264580D01*
X66098Y266696D01*
X59750D01*
X123464Y247080D02*
X121348Y249196D01*
X117116D01*
X115000Y247080D01*
Y238616D01*
X117116Y236500D01*
X121348D01*
X123464Y238616D01*
Y242848D01*
X119232D01*
X123214Y295830D02*
X121098Y297946D01*
X116866D01*
X114750Y295830D01*
Y287366D01*
X116866Y285250D01*
X121098D01*
X123214Y287366D01*
Y291598D01*
X118982D01*
X278250Y432696D02*
Y420000D01*
X284598D01*
X286714Y422116D01*
Y430580D01*
X284598Y432696D01*
X278250D01*
X132500Y416946D02*
Y404250D01*
X138848D01*
X140964Y406366D01*
Y414830D01*
X138848Y416946D01*
X132500D01*
X124250Y417196D02*
Y404500D01*
X130598D01*
X132714Y406616D01*
Y415080D01*
X130598Y417196D01*
X124250D01*
X116311Y417323D02*
Y404627D01*
X122659D01*
X124775Y406743D01*
Y415207D01*
X122659Y417323D01*
X116311D01*
X153904Y168292D02*
Y155596D01*
X160252D01*
X162368Y157712D01*
Y166176D01*
X160252Y168292D01*
X153904D01*
X145000Y160196D02*
Y147500D01*
X151348D01*
X153464Y149616D01*
Y158080D01*
X151348Y160196D01*
X145000D01*
X153750Y159946D02*
Y147250D01*
X160098D01*
X162214Y149366D01*
Y157830D01*
X160098Y159946D01*
X153750D01*
X124250Y135946D02*
Y123250D01*
X130598D01*
X132714Y125366D01*
Y133830D01*
X130598Y135946D01*
X124250D01*
X116750D02*
Y123250D01*
X123098D01*
X125214Y125366D01*
Y133830D01*
X123098Y135946D01*
X116750D01*
X411250Y183946D02*
Y171250D01*
X417598D01*
X419714Y173366D01*
Y181830D01*
X417598Y183946D01*
X411250D01*
X429250Y183696D02*
Y171000D01*
X435598D01*
X437714Y173116D01*
Y181580D01*
X435598Y183696D01*
X429250D01*
X421250Y183446D02*
Y170750D01*
X427598D01*
X429714Y172866D01*
Y181330D01*
X427598Y183446D01*
X421250D01*
X326750Y50696D02*
Y38000D01*
X333098D01*
X335214Y40116D01*
Y48580D01*
X333098Y50696D01*
X326750D01*
X319000Y50446D02*
Y37750D01*
X325348D01*
X327464Y39866D01*
Y48330D01*
X325348Y50446D01*
X319000D01*
X329500Y63196D02*
Y50500D01*
X335848D01*
X337964Y52616D01*
Y61080D01*
X335848Y63196D01*
X329500D01*
X399250Y43446D02*
Y30750D01*
X405598D01*
X407714Y32866D01*
Y41330D01*
X405598Y43446D01*
X399250D01*
X340500Y52196D02*
Y39500D01*
X346848D01*
X348964Y41616D01*
Y50080D01*
X346848Y52196D01*
X340500D01*
X524500Y142946D02*
Y130250D01*
X530848D01*
X532964Y132366D01*
Y140830D01*
X530848Y142946D01*
X524500D01*
X563250D02*
Y130250D01*
X569598D01*
X571714Y132366D01*
Y140830D01*
X569598Y142946D01*
X563250D01*
X140500Y409196D02*
Y396500D01*
X146848D01*
X148964Y398616D01*
Y407080D01*
X146848Y409196D01*
X140500D01*
X116500Y409446D02*
Y396750D01*
X122848D01*
X124964Y398866D01*
Y407330D01*
X122848Y409446D01*
X116500D01*
X124439Y409319D02*
Y396623D01*
X130787D01*
X132902Y398739D01*
Y407202D01*
X130787Y409319D01*
X124439D01*
X132689Y409068D02*
Y396373D01*
X139037D01*
X141152Y398489D01*
Y406953D01*
X139037Y409068D01*
X132689D01*
X306790Y173106D02*
Y160410D01*
X313138D01*
X315254Y162526D01*
Y170990D01*
X313138Y173106D01*
X306790D01*
X268250Y131446D02*
Y118750D01*
X274598D01*
X276714Y120866D01*
Y129330D01*
X274598Y131446D01*
X268250D01*
X267750Y143946D02*
Y131250D01*
X274098D01*
X276214Y133366D01*
Y141830D01*
X274098Y143946D01*
X267750D01*
Y163946D02*
Y151250D01*
X274098D01*
X276214Y153366D01*
Y161830D01*
X274098Y163946D01*
X267750D01*
X288250Y163696D02*
Y151000D01*
X294598D01*
X296714Y153116D01*
Y161580D01*
X294598Y163696D01*
X288250D01*
X307040Y163856D02*
Y151160D01*
X313388D01*
X315504Y153276D01*
Y161740D01*
X313388Y163856D01*
X307040D01*
X307000Y154446D02*
Y141750D01*
X313348D01*
X315464Y143866D01*
Y152330D01*
X313348Y154446D01*
X307000D01*
X288750D02*
Y141750D01*
X295098D01*
X297214Y143866D01*
Y152330D01*
X295098Y154446D01*
X288750D01*
X268000Y154696D02*
Y142000D01*
X274348D01*
X276464Y144116D01*
Y152580D01*
X274348Y154696D01*
X268000D01*
X343750Y62446D02*
Y49750D01*
X350098D01*
X352214Y51866D01*
Y60330D01*
X350098Y62446D01*
X343750D01*
X135500Y160196D02*
Y147500D01*
X141848D01*
X143964Y149616D01*
Y158080D01*
X141848Y160196D01*
X135500D01*
X193000Y146696D02*
Y134000D01*
X199348D01*
X201464Y136116D01*
Y144580D01*
X199348Y146696D01*
X193000D01*
X293250Y53446D02*
Y40750D01*
X299598D01*
X301714Y42866D01*
Y51330D01*
X299598Y53446D01*
X293250D01*
X310750Y50446D02*
Y37750D01*
X317098D01*
X319214Y39866D01*
Y48330D01*
X317098Y50446D01*
X310750D01*
X323780Y92393D02*
X321664Y94509D01*
X317432D01*
X315316Y92393D01*
Y83929D01*
X317432Y81813D01*
X321664D01*
X323780Y83929D01*
Y88161D01*
X319548D01*
X391964Y109580D02*
X389848Y111696D01*
X385616D01*
X383500Y109580D01*
Y101116D01*
X385616Y99000D01*
X389848D01*
X391964Y101116D01*
Y105348D01*
X387732D01*
X411250Y166446D02*
Y153750D01*
X417598D01*
X419714Y155866D01*
Y164330D01*
X417598Y166446D01*
X411250D01*
X429750Y175196D02*
Y162500D01*
X436098D01*
X438214Y164616D01*
Y173080D01*
X436098Y175196D01*
X429750D01*
X421250D02*
Y162500D01*
X427598D01*
X429714Y164616D01*
Y173080D01*
X427598Y175196D01*
X421250D01*
X429750Y166446D02*
Y153750D01*
X436098D01*
X438214Y155866D01*
Y164330D01*
X436098Y166446D01*
X429750D01*
X411500Y175696D02*
Y163000D01*
X417848D01*
X419964Y165116D01*
Y173580D01*
X417848Y175696D01*
X411500D01*
X421000Y167196D02*
Y154500D01*
X427348D01*
X429464Y156616D01*
Y165080D01*
X427348Y167196D01*
X421000D01*
X115464Y57580D02*
X113348Y59696D01*
X109116D01*
X107000Y57580D01*
Y49116D01*
X109116Y47000D01*
X113348D01*
X115464Y49116D01*
Y53348D01*
X111232D01*
X212000Y101696D02*
Y89000D01*
X218348D01*
X220464Y91116D01*
Y99580D01*
X218348Y101696D01*
X212000D01*
D125*
X127880Y56800D02*
G03*
X127880Y56800I-5080J0D01*
G01*
X384830Y401500D02*
G03*
X384830Y401500I-5080J0D01*
G01*
X365580Y318000D02*
G03*
X365580Y318000I-5080J0D01*
G01*
Y311250D02*
G03*
X365580Y311250I-5080J0D01*
G01*
X365330Y304290D02*
G03*
X365330Y304290I-5080J0D01*
G01*
X365675Y325091D02*
G03*
X365675Y325091I-5080J0D01*
G01*
X365620Y331500D02*
G03*
X365620Y331500I-5080J0D01*
G01*
X365830Y338750D02*
G03*
X365830Y338750I-5080J0D01*
G01*
X339080D02*
G03*
X339080Y338750I-5080J0D01*
G01*
X364830Y206250D02*
G03*
X364830Y206250I-5080J0D01*
G01*
X346830Y345210D02*
G03*
X346830Y345210I-5080J0D01*
G01*
X339580Y344500D02*
G03*
X339580Y344500I-5080J0D01*
G01*
X366040Y344750D02*
G03*
X366040Y344750I-5080J0D01*
G01*
X339580Y308152D02*
G03*
X339580Y308152I-5080J0D01*
G01*
X468830Y388000D02*
G03*
X468830Y388000I-5080J0D01*
G01*
X477830Y396250D02*
G03*
X477830Y396250I-5080J0D01*
G01*
X486580Y402250D02*
G03*
X486580Y402250I-5080J0D01*
G01*
X451580Y379000D02*
G03*
X451580Y379000I-5080J0D01*
G01*
X223580Y374500D02*
G03*
X223580Y374500I-5080J0D01*
G01*
X214330Y363000D02*
G03*
X214330Y363000I-5080J0D01*
G01*
X210580Y350000D02*
G03*
X210580Y350000I-5080J0D01*
G01*
X212080Y328000D02*
G03*
X212080Y328000I-5080J0D01*
G01*
X333830Y245250D02*
G03*
X333830Y245250I-5080J0D01*
G01*
X331620Y339000D02*
G03*
X331620Y339000I-5080J0D01*
G01*
X331830Y332750D02*
G03*
X331830Y332750I-5080J0D01*
G01*
X332080Y320500D02*
G03*
X332080Y320500I-5080J0D01*
G01*
X331620Y307500D02*
G03*
X331620Y307500I-5080J0D01*
G01*
X331830Y313750D02*
G03*
X331830Y313750I-5080J0D01*
G01*
X331938Y326843D02*
G03*
X331938Y326843I-5080J0D01*
G01*
X331640Y345243D02*
G03*
X331640Y345243I-5080J0D01*
G01*
X346797Y339210D02*
G03*
X346797Y339210I-5080J0D01*
G01*
X347116Y314090D02*
G03*
X347116Y314090I-5080J0D01*
G01*
Y320340D02*
G03*
X347116Y320340I-5080J0D01*
G01*
X347258Y307497D02*
G03*
X347258Y307497I-5080J0D01*
G01*
X346771Y332999D02*
G03*
X346771Y332999I-5080J0D01*
G01*
X347116Y326590D02*
G03*
X347116Y326590I-5080J0D01*
G01*
X339616Y314090D02*
G03*
X339616Y314090I-5080J0D01*
G01*
Y320340D02*
G03*
X339616Y320340I-5080J0D01*
G01*
X339271Y332999D02*
G03*
X339271Y332999I-5080J0D01*
G01*
X339616Y326590D02*
G03*
X339616Y326590I-5080J0D01*
G01*
X335185Y268002D02*
G03*
X335185Y268002I-5080J0D01*
G01*
X255830Y230500D02*
G03*
X255830Y230500I-5080J0D01*
G01*
X238454Y240124D02*
G03*
X238454Y240124I-5080J0D01*
G01*
X231415Y239987D02*
G03*
X231415Y239987I-5080J0D01*
G01*
X246080Y235500D02*
G03*
X246080Y235500I-5080J0D01*
G01*
X428671Y340942D02*
G03*
X428671Y340942I-5080J0D01*
G01*
X428921Y371192D02*
G03*
X428921Y371192I-5080J0D01*
G01*
X418171Y340442D02*
G03*
X418171Y340442I-5080J0D01*
G01*
X428830Y357000D02*
G03*
X428830Y357000I-5080J0D01*
G01*
Y363750D02*
G03*
X428830Y363750I-5080J0D01*
G01*
X418080Y357250D02*
G03*
X418080Y357250I-5080J0D01*
G01*
X409497Y279809D02*
G03*
X409497Y279809I-5080J0D01*
G01*
X392580Y282000D02*
G03*
X392580Y282000I-5080J0D01*
G01*
X376830Y273000D02*
G03*
X376830Y273000I-5080J0D01*
G01*
X323562Y363000D02*
G03*
X323562Y363000I-5080J0D01*
G01*
X489187Y28414D02*
G03*
X489187Y28414I-5080J0D01*
G01*
X501330Y32250D02*
G03*
X501330Y32250I-5080J0D01*
G01*
X552330Y42500D02*
G03*
X552330Y42500I-5080J0D01*
G01*
X529102Y42213D02*
G03*
X529102Y42213I-5080J0D01*
G01*
X219830Y300250D02*
G03*
X219830Y300250I-5080J0D01*
G01*
X219080Y285500D02*
G03*
X219080Y285500I-5080J0D01*
G01*
X214580Y270750D02*
G03*
X214580Y270750I-5080J0D01*
G01*
X283080Y364750D02*
G03*
X283080Y364750I-5080J0D01*
G01*
X398080Y341250D02*
G03*
X398080Y341250I-5080J0D01*
G01*
X406830Y311152D02*
G03*
X406830Y311152I-5080J0D01*
G01*
X456830Y387750D02*
G03*
X456830Y387750I-5080J0D01*
G01*
X288080Y311500D02*
G03*
X288080Y311500I-5080J0D01*
G01*
X297080Y352750D02*
G03*
X297080Y352750I-5080J0D01*
G01*
X310044Y362042D02*
G03*
X310044Y362042I-5080J0D01*
G01*
X301080Y328750D02*
G03*
X301080Y328750I-5080J0D01*
G01*
X278330Y339500D02*
G03*
X278330Y339500I-5080J0D01*
G01*
X278580Y349250D02*
G03*
X278580Y349250I-5080J0D01*
G01*
X348080Y366500D02*
G03*
X348080Y366500I-5080J0D01*
G01*
X341580Y373250D02*
G03*
X341580Y373250I-5080J0D01*
G01*
X361330Y366750D02*
G03*
X361330Y366750I-5080J0D01*
G01*
X320830Y276000D02*
G03*
X320830Y276000I-5080J0D01*
G01*
X348580Y246250D02*
G03*
X348580Y246250I-5080J0D01*
G01*
X384080Y240250D02*
G03*
X384080Y240250I-5080J0D01*
G01*
X369580Y240500D02*
G03*
X369580Y240500I-5080J0D01*
G01*
X397080D02*
G03*
X397080Y240500I-5080J0D01*
G01*
X410080Y240000D02*
G03*
X410080Y240000I-5080J0D01*
G01*
X262830Y323750D02*
G03*
X262830Y323750I-5080J0D01*
G01*
X397396Y326130D02*
G03*
X397396Y326130I-5080J0D01*
G01*
X352830Y278500D02*
G03*
X352830Y278500I-5080J0D01*
G01*
D126*
X382798Y401500D02*
G03*
X382798Y401500I-3048J0D01*
G01*
X363548Y318000D02*
G03*
X363548Y318000I-3048J0D01*
G01*
Y311250D02*
G03*
X363548Y311250I-3048J0D01*
G01*
X363298Y304290D02*
G03*
X363298Y304290I-3048J0D01*
G01*
X363643Y325091D02*
G03*
X363643Y325091I-3048J0D01*
G01*
X363588Y331500D02*
G03*
X363588Y331500I-3048J0D01*
G01*
X363798Y338750D02*
G03*
X363798Y338750I-3048J0D01*
G01*
X337048D02*
G03*
X337048Y338750I-3048J0D01*
G01*
X362798Y206250D02*
G03*
X362798Y206250I-3048J0D01*
G01*
X344798Y345210D02*
G03*
X344798Y345210I-3048J0D01*
G01*
X337548Y344500D02*
G03*
X337548Y344500I-3048J0D01*
G01*
X364008Y344750D02*
G03*
X364008Y344750I-3048J0D01*
G01*
X337548Y308152D02*
G03*
X337548Y308152I-3048J0D01*
G01*
X466798Y388000D02*
G03*
X466798Y388000I-3048J0D01*
G01*
X475798Y396250D02*
G03*
X475798Y396250I-3048J0D01*
G01*
X484548Y402250D02*
G03*
X484548Y402250I-3048J0D01*
G01*
X449548Y379000D02*
G03*
X449548Y379000I-3048J0D01*
G01*
X221548Y374500D02*
G03*
X221548Y374500I-3048J0D01*
G01*
X212298Y363000D02*
G03*
X212298Y363000I-3048J0D01*
G01*
X208548Y350000D02*
G03*
X208548Y350000I-3048J0D01*
G01*
X210048Y328000D02*
G03*
X210048Y328000I-3048J0D01*
G01*
X331798Y245250D02*
G03*
X331798Y245250I-3048J0D01*
G01*
X329588Y339000D02*
G03*
X329588Y339000I-3048J0D01*
G01*
X329798Y332750D02*
G03*
X329798Y332750I-3048J0D01*
G01*
X330048Y320500D02*
G03*
X330048Y320500I-3048J0D01*
G01*
X329588Y307500D02*
G03*
X329588Y307500I-3048J0D01*
G01*
X329798Y313750D02*
G03*
X329798Y313750I-3048J0D01*
G01*
X329906Y326843D02*
G03*
X329906Y326843I-3048J0D01*
G01*
X329608Y345243D02*
G03*
X329608Y345243I-3048J0D01*
G01*
X344765Y339210D02*
G03*
X344765Y339210I-3048J0D01*
G01*
X345084Y314090D02*
G03*
X345084Y314090I-3048J0D01*
G01*
Y320340D02*
G03*
X345084Y320340I-3048J0D01*
G01*
X345226Y307497D02*
G03*
X345226Y307497I-3048J0D01*
G01*
X344739Y332999D02*
G03*
X344739Y332999I-3048J0D01*
G01*
X345084Y326590D02*
G03*
X345084Y326590I-3048J0D01*
G01*
X337584Y314090D02*
G03*
X337584Y314090I-3048J0D01*
G01*
Y320340D02*
G03*
X337584Y320340I-3048J0D01*
G01*
X337239Y332999D02*
G03*
X337239Y332999I-3048J0D01*
G01*
X337584Y326590D02*
G03*
X337584Y326590I-3048J0D01*
G01*
X333153Y268002D02*
G03*
X333153Y268002I-3048J0D01*
G01*
X253798Y230500D02*
G03*
X253798Y230500I-3048J0D01*
G01*
X236422Y240124D02*
G03*
X236422Y240124I-3048J0D01*
G01*
X229383Y239987D02*
G03*
X229383Y239987I-3048J0D01*
G01*
X244048Y235500D02*
G03*
X244048Y235500I-3048J0D01*
G01*
X426639Y340942D02*
G03*
X426639Y340942I-3048J0D01*
G01*
X426889Y371192D02*
G03*
X426889Y371192I-3048J0D01*
G01*
X416139Y340442D02*
G03*
X416139Y340442I-3048J0D01*
G01*
X426798Y357000D02*
G03*
X426798Y357000I-3048J0D01*
G01*
Y363750D02*
G03*
X426798Y363750I-3048J0D01*
G01*
X416048Y357250D02*
G03*
X416048Y357250I-3048J0D01*
G01*
X407465Y279809D02*
G03*
X407465Y279809I-3048J0D01*
G01*
X390548Y282000D02*
G03*
X390548Y282000I-3048J0D01*
G01*
X374798Y273000D02*
G03*
X374798Y273000I-3048J0D01*
G01*
X321530Y363000D02*
G03*
X321530Y363000I-3048J0D01*
G01*
X487155Y28414D02*
G03*
X487155Y28414I-3048J0D01*
G01*
X499298Y32250D02*
G03*
X499298Y32250I-3048J0D01*
G01*
X550298Y42500D02*
G03*
X550298Y42500I-3048J0D01*
G01*
X527070Y42213D02*
G03*
X527070Y42213I-3048J0D01*
G01*
X217798Y300250D02*
G03*
X217798Y300250I-3048J0D01*
G01*
X217048Y285500D02*
G03*
X217048Y285500I-3048J0D01*
G01*
X212548Y270750D02*
G03*
X212548Y270750I-3048J0D01*
G01*
X281048Y364750D02*
G03*
X281048Y364750I-3048J0D01*
G01*
X396048Y341250D02*
G03*
X396048Y341250I-3048J0D01*
G01*
X404798Y311152D02*
G03*
X404798Y311152I-3048J0D01*
G01*
X454798Y387750D02*
G03*
X454798Y387750I-3048J0D01*
G01*
X286048Y311500D02*
G03*
X286048Y311500I-3048J0D01*
G01*
X295048Y352750D02*
G03*
X295048Y352750I-3048J0D01*
G01*
X308012Y362042D02*
G03*
X308012Y362042I-3048J0D01*
G01*
X299048Y328750D02*
G03*
X299048Y328750I-3048J0D01*
G01*
X276298Y339500D02*
G03*
X276298Y339500I-3048J0D01*
G01*
X276548Y349250D02*
G03*
X276548Y349250I-3048J0D01*
G01*
X346048Y366500D02*
G03*
X346048Y366500I-3048J0D01*
G01*
X339548Y373250D02*
G03*
X339548Y373250I-3048J0D01*
G01*
X359298Y366750D02*
G03*
X359298Y366750I-3048J0D01*
G01*
X318798Y276000D02*
G03*
X318798Y276000I-3048J0D01*
G01*
X346548Y246250D02*
G03*
X346548Y246250I-3048J0D01*
G01*
X382048Y240250D02*
G03*
X382048Y240250I-3048J0D01*
G01*
X367548Y240500D02*
G03*
X367548Y240500I-3048J0D01*
G01*
X395048D02*
G03*
X395048Y240500I-3048J0D01*
G01*
X408048Y240000D02*
G03*
X408048Y240000I-3048J0D01*
G01*
X260798Y323750D02*
G03*
X260798Y323750I-3048J0D01*
G01*
X395364Y326130D02*
G03*
X395364Y326130I-3048J0D01*
G01*
X350798Y278500D02*
G03*
X350798Y278500I-3048J0D01*
G01*
M02*
