G04*
G04 #@! TF.GenerationSoftware,Altium Limited,Altium Designer,23.8.1 (32)*
G04*
G04 Layer_Physical_Order=2*
G04 Layer_Color=36540*
%FSLAX44Y44*%
%MOMM*%
G71*
G04*
G04 #@! TF.SameCoordinates,4EFDB198-7814-4870-AD9F-EEE93015B5C1*
G04*
G04*
G04 #@! TF.FilePolarity,Positive*
G04*
G01*
G75*
%ADD76O,1.0000X1.8000*%
%ADD77O,1.0000X2.1000*%
%ADD78C,3.0000*%
%ADD79C,1.4000*%
%ADD80R,1.4000X1.4000*%
%ADD81C,1.6250*%
%ADD82C,2.4000*%
%ADD83C,2.5500*%
%ADD84C,1.5000*%
%ADD85R,1.6500X1.6500*%
%ADD86C,1.6500*%
%ADD87C,0.4500*%
%ADD88C,0.6500*%
G36*
X650112Y446571D02*
X651867Y445844D01*
X653446Y444789D01*
X654789Y443446D01*
X655844Y441867D01*
X656571Y440112D01*
X656941Y438250D01*
Y437300D01*
Y12700D01*
Y11750D01*
X656571Y9888D01*
X655844Y8133D01*
X654789Y6554D01*
X653446Y5211D01*
X651867Y4156D01*
X650112Y3429D01*
X648250Y3059D01*
X11750D01*
X9888Y3429D01*
X8133Y4156D01*
X6554Y5211D01*
X5211Y6554D01*
X4156Y8133D01*
X3429Y9888D01*
X3059Y11750D01*
Y12700D01*
Y437300D01*
Y438250D01*
X3429Y440112D01*
X4156Y441867D01*
X5211Y443446D01*
X6554Y444789D01*
X8133Y445844D01*
X9888Y446571D01*
X11750Y446941D01*
X648250D01*
X650112Y446571D01*
D02*
G37*
%LPC*%
G36*
X279203Y424790D02*
X277297D01*
X275537Y424061D01*
X274189Y422713D01*
X273460Y420953D01*
Y419047D01*
X274189Y417287D01*
X275537Y415939D01*
X277297Y415210D01*
X279203D01*
X280963Y415939D01*
X282311Y417287D01*
X283040Y419047D01*
Y420953D01*
X282311Y422713D01*
X280963Y424061D01*
X279203Y424790D01*
D02*
G37*
G36*
X267703Y423290D02*
X265797D01*
X264037Y422561D01*
X262689Y421213D01*
X261960Y419453D01*
Y417547D01*
X262689Y415787D01*
X264037Y414439D01*
X265797Y413710D01*
X267703D01*
X269463Y414439D01*
X270811Y415787D01*
X271540Y417547D01*
Y419453D01*
X270811Y421213D01*
X269463Y422561D01*
X267703Y423290D01*
D02*
G37*
G36*
X482453Y407040D02*
X480547D01*
X478787Y406311D01*
X477439Y404963D01*
X476710Y403203D01*
Y401297D01*
X477019Y400551D01*
X475942Y399832D01*
X475463Y400311D01*
X473703Y401040D01*
X471797D01*
X470037Y400311D01*
X468689Y398963D01*
X467960Y397203D01*
Y395297D01*
X468689Y393537D01*
X470037Y392189D01*
X471797Y391460D01*
X473703D01*
X475463Y392189D01*
X476811Y393537D01*
X477540Y395297D01*
Y397203D01*
X477231Y397949D01*
X478308Y398668D01*
X478787Y398189D01*
X480547Y397460D01*
X482453D01*
X484213Y398189D01*
X485561Y399537D01*
X486290Y401297D01*
Y403203D01*
X485561Y404963D01*
X484213Y406311D01*
X482453Y407040D01*
D02*
G37*
G36*
X557453Y405790D02*
X555547D01*
X553787Y405061D01*
X552439Y403713D01*
X551710Y401953D01*
Y400047D01*
X552439Y398287D01*
X553787Y396939D01*
X555547Y396210D01*
X557453D01*
X559213Y396939D01*
X560561Y398287D01*
X561290Y400047D01*
Y401953D01*
X560561Y403713D01*
X559213Y405061D01*
X557453Y405790D01*
D02*
G37*
G36*
X117264Y409417D02*
X115359D01*
X113598Y408688D01*
X112251Y407341D01*
X111521Y405580D01*
Y403675D01*
X112251Y401914D01*
X113570Y400594D01*
X112439Y399463D01*
X111710Y397703D01*
Y395797D01*
X112439Y394037D01*
X113787Y392689D01*
X115547Y391960D01*
X117453D01*
X119213Y392689D01*
X120406Y393881D01*
X121725Y392562D01*
X123486Y391833D01*
X125391D01*
X127152Y392562D01*
X127609Y393019D01*
X128628Y393659D01*
X129268Y393019D01*
X129975Y392312D01*
X131736Y391583D01*
X133641D01*
X135402Y392312D01*
X136658Y393568D01*
X137787Y392439D01*
X139547Y391710D01*
X141453D01*
X143213Y392439D01*
X143952Y393178D01*
X144924Y393576D01*
X145610Y393177D01*
X146475Y392312D01*
X148236Y391583D01*
X150141D01*
X151902Y392312D01*
X153158Y393568D01*
X154287Y392439D01*
X156047Y391710D01*
X157953D01*
X159713Y392439D01*
X160629Y393355D01*
X161558Y393581D01*
X162235Y393302D01*
X163225Y392312D01*
X164986Y391583D01*
X166891D01*
X168652Y392312D01*
X169908Y393568D01*
X171037Y392439D01*
X172797Y391710D01*
X174703D01*
X176463Y392439D01*
X177811Y393787D01*
X178540Y395547D01*
Y397453D01*
X177811Y399213D01*
X176649Y400375D01*
X177811Y401537D01*
X178540Y403297D01*
Y405203D01*
X177811Y406963D01*
X176463Y408311D01*
X174703Y409040D01*
X172797D01*
X171037Y408311D01*
X169750Y407024D01*
X168463Y408311D01*
X166703Y409040D01*
X164797D01*
X163037Y408311D01*
X162205Y407479D01*
X161375Y407105D01*
X160545Y407479D01*
X159713Y408311D01*
X157953Y409040D01*
X156047D01*
X154287Y408311D01*
X153000Y407024D01*
X151713Y408311D01*
X149953Y409040D01*
X148047D01*
X146287Y408311D01*
X145580Y407604D01*
X144750Y407082D01*
X143920Y407604D01*
X143213Y408311D01*
X141453Y409040D01*
X139547D01*
X137787Y408311D01*
X136500Y407024D01*
X135213Y408311D01*
X133453Y409040D01*
X131547D01*
X129787Y408311D01*
X129330Y407854D01*
X128311Y407213D01*
X127670Y407854D01*
X126963Y408561D01*
X125203Y409290D01*
X123297D01*
X121537Y408561D01*
X120344Y407368D01*
X119025Y408688D01*
X117264Y409417D01*
D02*
G37*
G36*
X464703Y392790D02*
X462797D01*
X461037Y392061D01*
X459689Y390713D01*
X458960Y388953D01*
Y387047D01*
X459689Y385287D01*
X461037Y383939D01*
X462797Y383210D01*
X464703D01*
X466463Y383939D01*
X467811Y385287D01*
X468540Y387047D01*
Y388953D01*
X467811Y390713D01*
X466463Y392061D01*
X464703Y392790D01*
D02*
G37*
G36*
X452703Y392540D02*
X450797D01*
X449037Y391811D01*
X447689Y390463D01*
X446960Y388703D01*
Y386797D01*
X447689Y385037D01*
X447763Y384963D01*
X447695Y384709D01*
X447140Y383790D01*
X445547D01*
X443787Y383061D01*
X442439Y381713D01*
X441710Y379953D01*
Y378047D01*
X442439Y376287D01*
X443787Y374939D01*
X445547Y374210D01*
X447453D01*
X449213Y374939D01*
X450561Y376287D01*
X451290Y378047D01*
Y379953D01*
X450561Y381713D01*
X450487Y381787D01*
X450555Y382041D01*
X451110Y382960D01*
X452703D01*
X454463Y383689D01*
X455811Y385037D01*
X456540Y386797D01*
Y388703D01*
X455811Y390463D01*
X454463Y391811D01*
X452703Y392540D01*
D02*
G37*
G36*
X219453Y379290D02*
X217547D01*
X215787Y378561D01*
X214439Y377213D01*
X213710Y375453D01*
Y373547D01*
X214439Y371787D01*
X215787Y370439D01*
X217547Y369710D01*
X219453D01*
X221213Y370439D01*
X222561Y371787D01*
X223290Y373547D01*
Y375453D01*
X222561Y377213D01*
X221213Y378561D01*
X219453Y379290D01*
D02*
G37*
G36*
X632500Y384550D02*
X629659D01*
X626915Y383815D01*
X624454Y382394D01*
X622445Y380385D01*
X621025Y377925D01*
X620289Y375181D01*
Y372340D01*
X621025Y369595D01*
X622445Y367135D01*
X624454Y365126D01*
X626915Y363705D01*
X629659Y362970D01*
X632500D01*
X635244Y363705D01*
X637705Y365126D01*
X639714Y367135D01*
X641134Y369595D01*
X641870Y372340D01*
Y375181D01*
X641134Y377925D01*
X639714Y380385D01*
X637705Y382394D01*
X635244Y383815D01*
X632500Y384550D01*
D02*
G37*
G36*
X539769Y376506D02*
X537864D01*
X536103Y375777D01*
X534756Y374429D01*
X534456Y373706D01*
X533953Y372540D01*
X532047D01*
X530287Y371811D01*
X528939Y370463D01*
X528210Y368703D01*
Y366797D01*
X528939Y365037D01*
X530287Y363689D01*
X532047Y362960D01*
X533953D01*
X535713Y363689D01*
X537061Y365037D01*
X537360Y365760D01*
X537864Y366926D01*
X539769D01*
X541530Y367655D01*
X542877Y369003D01*
X543607Y370763D01*
Y372669D01*
X542877Y374429D01*
X541530Y375777D01*
X539769Y376506D01*
D02*
G37*
G36*
X357203Y371540D02*
X355297D01*
X353537Y370811D01*
X352189Y369463D01*
X351460Y367703D01*
Y365797D01*
X352189Y364037D01*
X353537Y362689D01*
X355297Y361960D01*
X357203D01*
X358963Y362689D01*
X360311Y364037D01*
X361040Y365797D01*
Y367703D01*
X360311Y369463D01*
X358963Y370811D01*
X357203Y371540D01*
D02*
G37*
G36*
X337453Y378040D02*
X335547D01*
X333787Y377311D01*
X332439Y375963D01*
X331710Y374203D01*
Y372297D01*
X332439Y370537D01*
X333787Y369189D01*
X335547Y368460D01*
X337253D01*
X338236Y367514D01*
X338210Y367453D01*
Y365547D01*
X338939Y363787D01*
X340287Y362439D01*
X342047Y361710D01*
X343953D01*
X345713Y362439D01*
X347061Y363787D01*
X347790Y365547D01*
Y367453D01*
X347061Y369213D01*
X345713Y370561D01*
X343953Y371290D01*
X342247D01*
X341264Y372236D01*
X341290Y372297D01*
Y374203D01*
X340561Y375963D01*
X339213Y377311D01*
X337453Y378040D01*
D02*
G37*
G36*
X278953Y369540D02*
X277047D01*
X275287Y368811D01*
X273939Y367463D01*
X273210Y365703D01*
Y363797D01*
X273939Y362037D01*
X275287Y360689D01*
X277047Y359960D01*
X278953D01*
X280713Y360689D01*
X282061Y362037D01*
X282790Y363797D01*
Y365703D01*
X282061Y367463D01*
X280713Y368811D01*
X278953Y369540D01*
D02*
G37*
G36*
X210203Y367790D02*
X208297D01*
X206537Y367061D01*
X205189Y365713D01*
X204460Y363953D01*
Y362047D01*
X205189Y360287D01*
X206537Y358939D01*
X208297Y358210D01*
X210203D01*
X211963Y358939D01*
X213311Y360287D01*
X214040Y362047D01*
Y363953D01*
X213311Y365713D01*
X211963Y367061D01*
X210203Y367790D01*
D02*
G37*
G36*
X305917Y366832D02*
X304012D01*
X302251Y366103D01*
X300904Y364755D01*
X300174Y362995D01*
Y361089D01*
X300904Y359329D01*
X302251Y357981D01*
X304012Y357252D01*
X305917D01*
X307678Y357981D01*
X309025Y359329D01*
X309754Y361089D01*
Y362995D01*
X309025Y364755D01*
X307678Y366103D01*
X305917Y366832D01*
D02*
G37*
G36*
X292953Y357540D02*
X291047D01*
X289287Y356811D01*
X287939Y355463D01*
X287210Y353703D01*
Y351797D01*
X287939Y350037D01*
X289287Y348689D01*
X291047Y347960D01*
X292953D01*
X294713Y348689D01*
X296061Y350037D01*
X296790Y351797D01*
Y353703D01*
X296061Y355463D01*
X294713Y356811D01*
X292953Y357540D01*
D02*
G37*
G36*
X206453Y354790D02*
X204547D01*
X202787Y354061D01*
X201439Y352713D01*
X200710Y350953D01*
Y349047D01*
X201439Y347287D01*
X202787Y345939D01*
X204547Y345210D01*
X206453D01*
X208213Y345939D01*
X209561Y347287D01*
X210290Y349047D01*
Y350953D01*
X209561Y352713D01*
X208213Y354061D01*
X206453Y354790D01*
D02*
G37*
G36*
X393953Y346040D02*
X392047D01*
X390287Y345311D01*
X388939Y343963D01*
X388210Y342203D01*
Y340297D01*
X388939Y338537D01*
X390287Y337189D01*
X392047Y336460D01*
X393953D01*
X395713Y337189D01*
X397061Y338537D01*
X397790Y340297D01*
Y342203D01*
X397061Y343963D01*
X395713Y345311D01*
X393953Y346040D01*
D02*
G37*
G36*
X274453Y354040D02*
X272547D01*
X270787Y353311D01*
X269439Y351963D01*
X268710Y350203D01*
Y348297D01*
X269439Y346537D01*
X270787Y345189D01*
X270968Y345114D01*
Y343740D01*
X270537Y343561D01*
X269189Y342213D01*
X268460Y340453D01*
Y338547D01*
X269189Y336787D01*
X270537Y335439D01*
X272297Y334710D01*
X274203D01*
X275963Y335439D01*
X277311Y336787D01*
X278040Y338547D01*
Y340453D01*
X277311Y342213D01*
X275963Y343561D01*
X275782Y343636D01*
Y345010D01*
X276213Y345189D01*
X277561Y346537D01*
X278290Y348297D01*
Y350203D01*
X277561Y351963D01*
X276213Y353311D01*
X274453Y354040D01*
D02*
G37*
G36*
X296953Y333540D02*
X295047D01*
X293287Y332811D01*
X291939Y331463D01*
X291210Y329703D01*
Y327797D01*
X291939Y326037D01*
X293287Y324689D01*
X295047Y323960D01*
X296953D01*
X298713Y324689D01*
X300061Y326037D01*
X300790Y327797D01*
Y329703D01*
X300061Y331463D01*
X298713Y332811D01*
X296953Y333540D01*
D02*
G37*
G36*
X207953Y332790D02*
X206047D01*
X204287Y332061D01*
X202939Y330713D01*
X202210Y328953D01*
Y327047D01*
X202939Y325287D01*
X204287Y323939D01*
X206047Y323210D01*
X207953D01*
X209713Y323939D01*
X211061Y325287D01*
X211790Y327047D01*
Y328953D01*
X211061Y330713D01*
X209713Y332061D01*
X207953Y332790D01*
D02*
G37*
G36*
X393269Y330920D02*
X391363D01*
X389603Y330191D01*
X388256Y328844D01*
X387526Y327083D01*
Y325178D01*
X388256Y323417D01*
X389603Y322070D01*
X391363Y321340D01*
X393269D01*
X395030Y322070D01*
X396377Y323417D01*
X397106Y325178D01*
Y327083D01*
X396377Y328844D01*
X395030Y330191D01*
X393269Y330920D01*
D02*
G37*
G36*
X258703Y328540D02*
X256797D01*
X255037Y327811D01*
X253689Y326463D01*
X252960Y324703D01*
Y322797D01*
X253689Y321037D01*
X255037Y319689D01*
X256797Y318960D01*
X258703D01*
X260463Y319689D01*
X261811Y321037D01*
X262540Y322797D01*
Y324703D01*
X261811Y326463D01*
X260463Y327811D01*
X258703Y328540D01*
D02*
G37*
G36*
X632500Y333750D02*
X629659D01*
X626915Y333015D01*
X624454Y331594D01*
X622445Y329585D01*
X621025Y327125D01*
X620289Y324380D01*
Y321539D01*
X621025Y318795D01*
X622445Y316335D01*
X624454Y314326D01*
X626915Y312905D01*
X629659Y312170D01*
X632500D01*
X635244Y312905D01*
X637705Y314326D01*
X639714Y316335D01*
X641134Y318795D01*
X641870Y321539D01*
Y324380D01*
X641134Y327125D01*
X639714Y329585D01*
X637705Y331594D01*
X635244Y333015D01*
X632500Y333750D01*
D02*
G37*
G36*
X283953Y316290D02*
X282047D01*
X280287Y315561D01*
X278939Y314213D01*
X278210Y312453D01*
Y310547D01*
X278939Y308787D01*
X280287Y307439D01*
X282047Y306710D01*
X283953D01*
X285713Y307439D01*
X287061Y308787D01*
X287790Y310547D01*
Y312453D01*
X287061Y314213D01*
X285713Y315561D01*
X283953Y316290D01*
D02*
G37*
G36*
X402703Y315942D02*
X400797D01*
X399037Y315213D01*
X397689Y313866D01*
X396960Y312105D01*
Y310200D01*
X397689Y308439D01*
X399037Y307092D01*
X400797Y306362D01*
X402703D01*
X404463Y307092D01*
X405811Y308439D01*
X406540Y310200D01*
Y312105D01*
X405811Y313866D01*
X404463Y315213D01*
X402703Y315942D01*
D02*
G37*
G36*
X215703Y305040D02*
X213797D01*
X212037Y304311D01*
X210689Y302963D01*
X209960Y301203D01*
Y299297D01*
X210689Y297537D01*
X212037Y296189D01*
X213797Y295460D01*
X215703D01*
X217463Y296189D01*
X218811Y297537D01*
X219540Y299297D01*
Y301203D01*
X218811Y302963D01*
X217463Y304311D01*
X215703Y305040D01*
D02*
G37*
G36*
X641870Y308350D02*
X620289D01*
Y286770D01*
X641870D01*
Y308350D01*
D02*
G37*
G36*
X214953Y290290D02*
X213047D01*
X211287Y289561D01*
X209939Y288213D01*
X209210Y286453D01*
Y284547D01*
X209939Y282787D01*
X211287Y281439D01*
X213047Y280710D01*
X214953D01*
X216713Y281439D01*
X218061Y282787D01*
X218790Y284547D01*
Y286453D01*
X218061Y288213D01*
X216713Y289561D01*
X214953Y290290D01*
D02*
G37*
G36*
X115902Y291040D02*
X113598D01*
X111470Y290159D01*
X109841Y288530D01*
X108960Y286402D01*
Y284098D01*
X109841Y281970D01*
X111470Y280341D01*
X113598Y279460D01*
X115902D01*
X118030Y280341D01*
X119658Y281970D01*
X120540Y284098D01*
Y286402D01*
X119658Y288530D01*
X118030Y290159D01*
X115902Y291040D01*
D02*
G37*
G36*
X388453Y286790D02*
X386547D01*
X384787Y286061D01*
X383439Y284713D01*
X382710Y282953D01*
Y281047D01*
X383439Y279287D01*
X384787Y277939D01*
X386547Y277210D01*
X388453D01*
X390213Y277939D01*
X391561Y279287D01*
X392290Y281047D01*
Y282953D01*
X391561Y284713D01*
X390213Y286061D01*
X388453Y286790D01*
D02*
G37*
G36*
X348703Y283290D02*
X346797D01*
X345037Y282561D01*
X343689Y281213D01*
X342960Y279453D01*
Y277547D01*
X343689Y275787D01*
X345037Y274439D01*
X346797Y273710D01*
X348703D01*
X350463Y274439D01*
X351811Y275787D01*
X352540Y277547D01*
Y279453D01*
X351811Y281213D01*
X350463Y282561D01*
X348703Y283290D01*
D02*
G37*
G36*
X316703Y280790D02*
X314797D01*
X313037Y280061D01*
X311689Y278713D01*
X310960Y276953D01*
Y275047D01*
X311689Y273287D01*
X313037Y271939D01*
X314797Y271210D01*
X316703D01*
X318463Y271939D01*
X319811Y273287D01*
X320540Y275047D01*
Y276953D01*
X319811Y278713D01*
X318463Y280061D01*
X316703Y280790D01*
D02*
G37*
G36*
X372703Y277790D02*
X370797D01*
X369037Y277061D01*
X367689Y275713D01*
X366960Y273953D01*
Y272047D01*
X367689Y270287D01*
X369037Y268939D01*
X370797Y268210D01*
X372703D01*
X374463Y268939D01*
X375811Y270287D01*
X376540Y272047D01*
Y273953D01*
X375811Y275713D01*
X374463Y277061D01*
X372703Y277790D01*
D02*
G37*
G36*
X210453Y275540D02*
X208547D01*
X206787Y274811D01*
X205439Y273463D01*
X204710Y271703D01*
Y269797D01*
X205439Y268037D01*
X206787Y266689D01*
X208547Y265960D01*
X210453D01*
X212213Y266689D01*
X213561Y268037D01*
X214290Y269797D01*
Y271703D01*
X213561Y273463D01*
X212213Y274811D01*
X210453Y275540D01*
D02*
G37*
G36*
X234327Y244914D02*
X232421D01*
X230661Y244185D01*
X229786Y243310D01*
X229049Y244048D01*
X227288Y244777D01*
X225382D01*
X223622Y244048D01*
X222274Y242700D01*
X221545Y240940D01*
Y239034D01*
X222274Y237274D01*
X223622Y235926D01*
X225382Y235197D01*
X227288D01*
X229049Y235926D01*
X229923Y236801D01*
X230661Y236063D01*
X232421Y235334D01*
X234327D01*
X234940Y235588D01*
X236210Y234739D01*
Y234547D01*
X236939Y232787D01*
X238287Y231439D01*
X240047Y230710D01*
X241953D01*
X243713Y231439D01*
X245061Y232787D01*
X245790Y234547D01*
Y236453D01*
X245061Y238213D01*
X243713Y239561D01*
X241953Y240290D01*
X240047D01*
X239434Y240036D01*
X238164Y240885D01*
Y241077D01*
X237435Y242837D01*
X236087Y244185D01*
X234327Y244914D01*
D02*
G37*
G36*
X344453Y251040D02*
X342547D01*
X340787Y250311D01*
X339439Y248963D01*
X338710Y247203D01*
Y245297D01*
X339439Y243537D01*
X340787Y242189D01*
X342547Y241460D01*
X344453D01*
X346213Y242189D01*
X347561Y243537D01*
X348290Y245297D01*
Y247203D01*
X347561Y248963D01*
X346213Y250311D01*
X344453Y251040D01*
D02*
G37*
G36*
X329703Y250040D02*
X327797D01*
X326037Y249311D01*
X324689Y247963D01*
X323960Y246203D01*
Y244297D01*
X324689Y242537D01*
X326037Y241189D01*
X327797Y240460D01*
X329703D01*
X331463Y241189D01*
X332811Y242537D01*
X333540Y244297D01*
Y246203D01*
X332811Y247963D01*
X331463Y249311D01*
X329703Y250040D01*
D02*
G37*
G36*
X392953Y245290D02*
X391047D01*
X389287Y244561D01*
X387939Y243213D01*
X387210Y241453D01*
Y239547D01*
X387939Y237787D01*
X389287Y236439D01*
X391047Y235710D01*
X392953D01*
X394713Y236439D01*
X396061Y237787D01*
X396790Y239547D01*
Y241453D01*
X396061Y243213D01*
X394713Y244561D01*
X392953Y245290D01*
D02*
G37*
G36*
X365453D02*
X363547D01*
X361787Y244561D01*
X360439Y243213D01*
X359710Y241453D01*
Y239547D01*
X360439Y237787D01*
X361787Y236439D01*
X363547Y235710D01*
X365453D01*
X367213Y236439D01*
X368561Y237787D01*
X369290Y239547D01*
Y241453D01*
X368561Y243213D01*
X367213Y244561D01*
X365453Y245290D01*
D02*
G37*
G36*
X379953Y245040D02*
X378047D01*
X376287Y244311D01*
X374939Y242963D01*
X374210Y241203D01*
Y239297D01*
X374939Y237537D01*
X376287Y236189D01*
X378047Y235460D01*
X379953D01*
X381713Y236189D01*
X383061Y237537D01*
X383790Y239297D01*
Y241203D01*
X383061Y242963D01*
X381713Y244311D01*
X379953Y245040D01*
D02*
G37*
G36*
X405953Y244790D02*
X404047D01*
X402287Y244061D01*
X400939Y242713D01*
X400210Y240953D01*
Y239047D01*
X400939Y237287D01*
X402287Y235939D01*
X404047Y235210D01*
X405953D01*
X407713Y235939D01*
X409061Y237287D01*
X409790Y239047D01*
Y240953D01*
X409061Y242713D01*
X407713Y244061D01*
X405953Y244790D01*
D02*
G37*
G36*
X116152Y242290D02*
X113848D01*
X111720Y241409D01*
X110091Y239780D01*
X109210Y237652D01*
Y235348D01*
X110091Y233220D01*
X111720Y231591D01*
X113848Y230710D01*
X116152D01*
X118280Y231591D01*
X119909Y233220D01*
X120790Y235348D01*
Y237652D01*
X119909Y239780D01*
X118280Y241409D01*
X116152Y242290D01*
D02*
G37*
G36*
X251703Y235290D02*
X249797D01*
X248037Y234561D01*
X246689Y233213D01*
X245960Y231453D01*
Y229547D01*
X246689Y227787D01*
X248037Y226439D01*
X249797Y225710D01*
X251703D01*
X253463Y226439D01*
X254811Y227787D01*
X255540Y229547D01*
Y231453D01*
X254811Y233213D01*
X253463Y234561D01*
X251703Y235290D01*
D02*
G37*
G36*
X49902Y194790D02*
X47598D01*
X45470Y193909D01*
X43842Y192280D01*
X42960Y190152D01*
Y187848D01*
X43842Y185720D01*
X45470Y184091D01*
X47598Y183210D01*
X49902D01*
X52030Y184091D01*
X53658Y185720D01*
X54540Y187848D01*
Y190152D01*
X53658Y192280D01*
X52030Y193909D01*
X49902Y194790D01*
D02*
G37*
G36*
X621340Y199290D02*
X602260D01*
Y180210D01*
X621340D01*
Y199290D01*
D02*
G37*
G36*
X587656D02*
X585144D01*
X582718Y198640D01*
X580542Y197384D01*
X578766Y195608D01*
X577510Y193432D01*
X576860Y191006D01*
Y188494D01*
X577510Y186068D01*
X578766Y183892D01*
X580542Y182116D01*
X582718Y180860D01*
X585144Y180210D01*
X587656D01*
X590082Y180860D01*
X592258Y182116D01*
X594034Y183892D01*
X595290Y186068D01*
X595940Y188494D01*
Y191006D01*
X595290Y193432D01*
X594034Y195608D01*
X592258Y197384D01*
X590082Y198640D01*
X587656Y199290D01*
D02*
G37*
G36*
X562256D02*
X559744D01*
X557318Y198640D01*
X555142Y197384D01*
X553366Y195608D01*
X552110Y193432D01*
X551460Y191006D01*
Y188494D01*
X552110Y186068D01*
X553366Y183892D01*
X555142Y182116D01*
X557318Y180860D01*
X559744Y180210D01*
X562256D01*
X564682Y180860D01*
X566858Y182116D01*
X568634Y183892D01*
X569890Y186068D01*
X570540Y188494D01*
Y191006D01*
X569890Y193432D01*
X568634Y195608D01*
X566858Y197384D01*
X564682Y198640D01*
X562256Y199290D01*
D02*
G37*
G36*
X536856D02*
X534344D01*
X531918Y198640D01*
X529742Y197384D01*
X527966Y195608D01*
X526710Y193432D01*
X526060Y191006D01*
Y188494D01*
X526710Y186068D01*
X527966Y183892D01*
X529742Y182116D01*
X531918Y180860D01*
X534344Y180210D01*
X536856D01*
X539282Y180860D01*
X541458Y182116D01*
X543234Y183892D01*
X544490Y186068D01*
X545140Y188494D01*
Y191006D01*
X544490Y193432D01*
X543234Y195608D01*
X541458Y197384D01*
X539282Y198640D01*
X536856Y199290D01*
D02*
G37*
G36*
X511456D02*
X508944D01*
X506518Y198640D01*
X504342Y197384D01*
X502566Y195608D01*
X501310Y193432D01*
X500660Y191006D01*
Y188494D01*
X501310Y186068D01*
X502566Y183892D01*
X504342Y182116D01*
X506518Y180860D01*
X508944Y180210D01*
X511456D01*
X513882Y180860D01*
X516058Y182116D01*
X517834Y183892D01*
X519090Y186068D01*
X519740Y188494D01*
Y191006D01*
X519090Y193432D01*
X517834Y195608D01*
X516058Y197384D01*
X513882Y198640D01*
X511456Y199290D01*
D02*
G37*
G36*
X600356Y173890D02*
X597844D01*
X595418Y173240D01*
X593242Y171984D01*
X591466Y170208D01*
X590210Y168032D01*
X589560Y165606D01*
Y163094D01*
X590210Y160668D01*
X591466Y158492D01*
X593242Y156716D01*
X595418Y155460D01*
X597844Y154810D01*
X600356D01*
X602782Y155460D01*
X604958Y156716D01*
X606734Y158492D01*
X607990Y160668D01*
X608640Y163094D01*
Y165606D01*
X607990Y168032D01*
X606734Y170208D01*
X604958Y171984D01*
X602782Y173240D01*
X600356Y173890D01*
D02*
G37*
G36*
X574956D02*
X572444D01*
X570018Y173240D01*
X567842Y171984D01*
X566066Y170208D01*
X564810Y168032D01*
X564160Y165606D01*
Y163094D01*
X564810Y160668D01*
X566066Y158492D01*
X567842Y156716D01*
X570018Y155460D01*
X572444Y154810D01*
X574956D01*
X577382Y155460D01*
X579558Y156716D01*
X581334Y158492D01*
X582590Y160668D01*
X583240Y163094D01*
Y165606D01*
X582590Y168032D01*
X581334Y170208D01*
X579558Y171984D01*
X577382Y173240D01*
X574956Y173890D01*
D02*
G37*
G36*
X549556D02*
X547044D01*
X544618Y173240D01*
X542442Y171984D01*
X540666Y170208D01*
X539410Y168032D01*
X538760Y165606D01*
Y163094D01*
X539410Y160668D01*
X540666Y158492D01*
X542442Y156716D01*
X544618Y155460D01*
X547044Y154810D01*
X549556D01*
X551982Y155460D01*
X554158Y156716D01*
X555934Y158492D01*
X557190Y160668D01*
X557840Y163094D01*
Y165606D01*
X557190Y168032D01*
X555934Y170208D01*
X554158Y171984D01*
X551982Y173240D01*
X549556Y173890D01*
D02*
G37*
G36*
X524156D02*
X521644D01*
X519218Y173240D01*
X517042Y171984D01*
X515266Y170208D01*
X514010Y168032D01*
X513360Y165606D01*
Y163094D01*
X514010Y160668D01*
X515266Y158492D01*
X517042Y156716D01*
X519218Y155460D01*
X521644Y154810D01*
X524156D01*
X526582Y155460D01*
X528758Y156716D01*
X530534Y158492D01*
X531790Y160668D01*
X532440Y163094D01*
Y165606D01*
X531790Y168032D01*
X530534Y170208D01*
X528758Y171984D01*
X526582Y173240D01*
X524156Y173890D01*
D02*
G37*
G36*
X498756D02*
X496244D01*
X493818Y173240D01*
X491642Y171984D01*
X489866Y170208D01*
X488610Y168032D01*
X487960Y165606D01*
Y163094D01*
X488610Y160668D01*
X489866Y158492D01*
X491642Y156716D01*
X493818Y155460D01*
X496244Y154810D01*
X498756D01*
X501182Y155460D01*
X503358Y156716D01*
X505134Y158492D01*
X506390Y160668D01*
X507040Y163094D01*
Y165606D01*
X506390Y168032D01*
X505134Y170208D01*
X503358Y171984D01*
X501182Y173240D01*
X498756Y173890D01*
D02*
G37*
G36*
X412203Y176040D02*
X410297D01*
X408537Y175311D01*
X407189Y173963D01*
X406460Y172203D01*
Y170297D01*
X407189Y168537D01*
X408537Y167189D01*
X407896Y166170D01*
X407439Y165713D01*
X406710Y163953D01*
Y162047D01*
X407439Y160287D01*
X408539Y159186D01*
X408537Y158065D01*
X408436Y157710D01*
X407189Y156463D01*
X406460Y154703D01*
Y152797D01*
X407189Y151037D01*
X408537Y149689D01*
X410297Y148960D01*
X412203D01*
X413963Y149689D01*
X415311Y151037D01*
X415593Y151718D01*
X416939Y151787D01*
X418287Y150439D01*
X420047Y149710D01*
X421953D01*
X423713Y150439D01*
X424314Y151039D01*
X425689Y151037D01*
X427037Y149689D01*
X428797Y148960D01*
X430703D01*
X432463Y149689D01*
X433811Y151037D01*
X434540Y152797D01*
Y154703D01*
X433811Y156463D01*
X432979Y157295D01*
X432605Y158125D01*
X432979Y158955D01*
X433811Y159787D01*
X434540Y161547D01*
Y163453D01*
X433811Y165213D01*
X432463Y166561D01*
X432814Y167790D01*
X433311Y168287D01*
X434040Y170047D01*
Y171953D01*
X433311Y173713D01*
X431963Y175061D01*
X430203Y175790D01*
X428297D01*
X426537Y175061D01*
X425189Y173713D01*
X425082Y173692D01*
X423963Y174811D01*
X422203Y175540D01*
X420297D01*
X418537Y174811D01*
X417189Y173463D01*
X417041Y173105D01*
X415666D01*
X415311Y173963D01*
X413963Y175311D01*
X412203Y176040D01*
D02*
G37*
G36*
X237966Y156949D02*
X236060D01*
X234300Y156219D01*
X232952Y154872D01*
X232223Y153111D01*
Y151206D01*
X232952Y149445D01*
X234300Y148098D01*
X236060Y147369D01*
X237966D01*
X239726Y148098D01*
X241074Y149445D01*
X241803Y151206D01*
Y153111D01*
X241074Y154872D01*
X239726Y156219D01*
X237966Y156949D01*
D02*
G37*
G36*
X91953Y157790D02*
X90047D01*
X88287Y157061D01*
X86939Y155713D01*
X86210Y153953D01*
Y153213D01*
X85954Y152046D01*
X85037Y152040D01*
X84047D01*
X82287Y151311D01*
X80939Y149963D01*
X80210Y148203D01*
Y146297D01*
X80939Y144537D01*
X82287Y143189D01*
X84047Y142460D01*
X85953D01*
X87713Y143189D01*
X89061Y144537D01*
X89790Y146297D01*
Y147037D01*
X90046Y148204D01*
X90963Y148210D01*
X91953D01*
X93713Y148939D01*
X95061Y150287D01*
X95790Y152047D01*
Y153953D01*
X95061Y155713D01*
X93713Y157061D01*
X91953Y157790D01*
D02*
G37*
G36*
X634314Y145890D02*
X630486D01*
X626788Y144899D01*
X623472Y142985D01*
X620765Y140278D01*
X618851Y136962D01*
X617860Y133264D01*
Y129436D01*
X618851Y125738D01*
X620765Y122422D01*
X623472Y119715D01*
X626788Y117801D01*
X630486Y116810D01*
X634314D01*
X638012Y117801D01*
X641328Y119715D01*
X644035Y122422D01*
X645949Y125738D01*
X646940Y129436D01*
Y133264D01*
X645949Y136962D01*
X644035Y140278D01*
X641328Y142985D01*
X638012Y144899D01*
X634314Y145890D01*
D02*
G37*
G36*
X478814D02*
X474986D01*
X471288Y144899D01*
X467972Y142985D01*
X465265Y140278D01*
X463351Y136962D01*
X462360Y133264D01*
Y129436D01*
X463351Y125738D01*
X465265Y122422D01*
X467972Y119715D01*
X471288Y117801D01*
X474986Y116810D01*
X478814D01*
X482512Y117801D01*
X485828Y119715D01*
X488535Y122422D01*
X490449Y125738D01*
X491440Y129436D01*
Y133264D01*
X490449Y136962D01*
X488535Y140278D01*
X485828Y142985D01*
X482512Y144899D01*
X478814Y145890D01*
D02*
G37*
G36*
X336506Y138410D02*
X333494D01*
X330540Y137822D01*
X327757Y136670D01*
X325253Y134997D01*
X323124Y132867D01*
X321450Y130363D01*
X320298Y127580D01*
X319710Y124626D01*
Y121614D01*
X320298Y118660D01*
X321450Y115878D01*
X323124Y113373D01*
X325253Y111243D01*
X327757Y109570D01*
X330540Y108418D01*
X333494Y107830D01*
X336506D01*
X339460Y108418D01*
X342243Y109570D01*
X344747Y111243D01*
X346876Y113373D01*
X348550Y115878D01*
X349702Y118660D01*
X350290Y121614D01*
Y124626D01*
X349702Y127580D01*
X348550Y130363D01*
X346876Y132867D01*
X344747Y134997D01*
X342243Y136670D01*
X339460Y137822D01*
X336506Y138410D01*
D02*
G37*
G36*
X384652Y104790D02*
X382348D01*
X380220Y103909D01*
X378591Y102280D01*
X377710Y100152D01*
Y97848D01*
X378591Y95720D01*
X380220Y94092D01*
X382348Y93210D01*
X384652D01*
X386780Y94092D01*
X388409Y95720D01*
X389290Y97848D01*
Y100152D01*
X388409Y102280D01*
X386780Y103909D01*
X384652Y104790D01*
D02*
G37*
G36*
X212953Y93790D02*
X211047D01*
X209287Y93061D01*
X207939Y91713D01*
X207210Y89953D01*
Y88047D01*
X207939Y86287D01*
X209287Y84939D01*
X211047Y84210D01*
X212953D01*
X214713Y84939D01*
X216061Y86287D01*
X216790Y88047D01*
Y89953D01*
X216061Y91713D01*
X214713Y93061D01*
X212953Y93790D01*
D02*
G37*
G36*
X613651Y119640D02*
X609949D01*
X606319Y118918D01*
X602900Y117501D01*
X599822Y115445D01*
X597205Y112828D01*
X595149Y109750D01*
X593732Y106331D01*
X593010Y102701D01*
Y98999D01*
X593732Y95369D01*
X595149Y91950D01*
X597205Y88872D01*
X599822Y86255D01*
X602900Y84199D01*
X606319Y82782D01*
X609949Y82060D01*
X613651D01*
X617281Y82782D01*
X620700Y84199D01*
X623778Y86255D01*
X626395Y88872D01*
X628451Y91950D01*
X629868Y95369D01*
X630590Y98999D01*
Y102701D01*
X629868Y106331D01*
X628451Y109750D01*
X626395Y112828D01*
X623778Y115445D01*
X620700Y117501D01*
X617281Y118918D01*
X613651Y119640D01*
D02*
G37*
G36*
X499351D02*
X495649D01*
X492019Y118918D01*
X488600Y117501D01*
X485522Y115445D01*
X482905Y112828D01*
X480849Y109750D01*
X479432Y106331D01*
X478710Y102701D01*
Y98999D01*
X479432Y95369D01*
X480849Y91950D01*
X482905Y88872D01*
X485522Y86255D01*
X488600Y84199D01*
X492019Y82782D01*
X495649Y82060D01*
X499351D01*
X502981Y82782D01*
X506400Y84199D01*
X509478Y86255D01*
X512095Y88872D01*
X514151Y91950D01*
X515568Y95369D01*
X516290Y98999D01*
Y102701D01*
X515568Y106331D01*
X514151Y109750D01*
X512095Y112828D01*
X509478Y115445D01*
X506400Y117501D01*
X502981Y118918D01*
X499351Y119640D01*
D02*
G37*
G36*
X316468Y87603D02*
X314164D01*
X312036Y86721D01*
X310408Y85092D01*
X309526Y82964D01*
Y80661D01*
X310408Y78533D01*
X312036Y76904D01*
X314164Y76023D01*
X316468D01*
X318596Y76904D01*
X320224Y78533D01*
X321106Y80661D01*
Y82964D01*
X320224Y85092D01*
X318596Y86721D01*
X316468Y87603D01*
D02*
G37*
G36*
X174243Y82780D02*
X172337D01*
X170577Y82051D01*
X169229Y80703D01*
X168500Y78943D01*
Y77037D01*
X169229Y75277D01*
X170577Y73929D01*
X172337Y73200D01*
X174243D01*
X176003Y73929D01*
X177351Y75277D01*
X178080Y77037D01*
Y78943D01*
X177351Y80703D01*
X176003Y82051D01*
X174243Y82780D01*
D02*
G37*
G36*
X622206Y69790D02*
X619694D01*
X617268Y69140D01*
X615092Y67884D01*
X613316Y66108D01*
X612060Y63932D01*
X611410Y61506D01*
Y58994D01*
X612060Y56568D01*
X613316Y54392D01*
X615092Y52616D01*
X617268Y51360D01*
X619694Y50710D01*
X622206D01*
X624632Y51360D01*
X626808Y52616D01*
X628584Y54392D01*
X629840Y56568D01*
X630490Y58994D01*
Y61506D01*
X629840Y63932D01*
X628584Y66108D01*
X626808Y67884D01*
X624632Y69140D01*
X622206Y69790D01*
D02*
G37*
G36*
X596806D02*
X594294D01*
X591868Y69140D01*
X589692Y67884D01*
X587916Y66108D01*
X586660Y63932D01*
X586010Y61506D01*
Y58994D01*
X586660Y56568D01*
X587916Y54392D01*
X589692Y52616D01*
X591868Y51360D01*
X594294Y50710D01*
X596806D01*
X599232Y51360D01*
X601408Y52616D01*
X603184Y54392D01*
X604440Y56568D01*
X605090Y58994D01*
Y61506D01*
X604440Y63932D01*
X603184Y66108D01*
X601408Y67884D01*
X599232Y69140D01*
X596806Y69790D01*
D02*
G37*
G36*
X515006D02*
X512494D01*
X510068Y69140D01*
X507892Y67884D01*
X506116Y66108D01*
X504860Y63932D01*
X504210Y61506D01*
Y58994D01*
X504860Y56568D01*
X506116Y54392D01*
X507892Y52616D01*
X510068Y51360D01*
X512494Y50710D01*
X515006D01*
X517432Y51360D01*
X519608Y52616D01*
X521384Y54392D01*
X522640Y56568D01*
X523290Y58994D01*
Y61506D01*
X522640Y63932D01*
X521384Y66108D01*
X519608Y67884D01*
X517432Y69140D01*
X515006Y69790D01*
D02*
G37*
G36*
X489606D02*
X487094D01*
X484668Y69140D01*
X482492Y67884D01*
X480716Y66108D01*
X479460Y63932D01*
X478810Y61506D01*
Y58994D01*
X479460Y56568D01*
X480716Y54392D01*
X482492Y52616D01*
X484668Y51360D01*
X487094Y50710D01*
X489606D01*
X492032Y51360D01*
X494208Y52616D01*
X495984Y54392D01*
X497240Y56568D01*
X497890Y58994D01*
Y61506D01*
X497240Y63932D01*
X495984Y66108D01*
X494208Y67884D01*
X492032Y69140D01*
X489606Y69790D01*
D02*
G37*
G36*
X330453Y55290D02*
X328547D01*
X326787Y54561D01*
X325439Y53213D01*
X324710Y51453D01*
Y49547D01*
X325439Y47787D01*
X326787Y46439D01*
X328547Y45710D01*
X330453D01*
X332213Y46439D01*
X333561Y47787D01*
X334290Y49547D01*
Y51453D01*
X333561Y53213D01*
X332213Y54561D01*
X330453Y55290D01*
D02*
G37*
G36*
X196052Y57290D02*
X193748D01*
X191620Y56409D01*
X189991Y54780D01*
X189110Y52652D01*
Y50348D01*
X189991Y48220D01*
X191620Y46592D01*
X193748Y45710D01*
X196052D01*
X198180Y46592D01*
X199809Y48220D01*
X200690Y50348D01*
Y52652D01*
X199809Y54780D01*
X198180Y56409D01*
X196052Y57290D01*
D02*
G37*
G36*
X138252D02*
X135948D01*
X133820Y56409D01*
X132191Y54780D01*
X131310Y52652D01*
Y50348D01*
X132191Y48220D01*
X133820Y46592D01*
X135948Y45710D01*
X138252D01*
X140380Y46592D01*
X142008Y48220D01*
X142890Y50348D01*
Y52652D01*
X142008Y54780D01*
X140380Y56409D01*
X138252Y57290D01*
D02*
G37*
G36*
X108152Y52790D02*
X105848D01*
X103720Y51908D01*
X102092Y50280D01*
X101210Y48152D01*
Y45848D01*
X102092Y43720D01*
X103720Y42091D01*
X105848Y41210D01*
X108152D01*
X110280Y42091D01*
X111909Y43720D01*
X112790Y45848D01*
Y48152D01*
X111909Y50280D01*
X110280Y51908D01*
X108152Y52790D01*
D02*
G37*
G36*
X548203Y47290D02*
X546297D01*
X544537Y46561D01*
X543189Y45213D01*
X542460Y43453D01*
Y41547D01*
X543189Y39787D01*
X544537Y38439D01*
X546297Y37710D01*
X548203D01*
X549963Y38439D01*
X551311Y39787D01*
X552040Y41547D01*
Y43453D01*
X551311Y45213D01*
X549963Y46561D01*
X548203Y47290D01*
D02*
G37*
G36*
X524975Y47003D02*
X523069D01*
X521309Y46274D01*
X519961Y44926D01*
X519232Y43166D01*
Y41260D01*
X519961Y39500D01*
X521309Y38152D01*
X523069Y37423D01*
X524975D01*
X526735Y38152D01*
X528083Y39500D01*
X528812Y41260D01*
Y43166D01*
X528083Y44926D01*
X526735Y46274D01*
X524975Y47003D01*
D02*
G37*
G36*
X497203Y37040D02*
X495297D01*
X493537Y36311D01*
X492189Y34963D01*
X491460Y33203D01*
Y31297D01*
X492189Y29537D01*
X493537Y28189D01*
X495297Y27460D01*
X497203D01*
X498963Y28189D01*
X500311Y29537D01*
X501040Y31297D01*
Y33203D01*
X500311Y34963D01*
X498963Y36311D01*
X497203Y37040D01*
D02*
G37*
G36*
X485060Y33204D02*
X483154D01*
X481394Y32474D01*
X480046Y31127D01*
X479317Y29366D01*
Y27461D01*
X480046Y25700D01*
X481394Y24353D01*
X483154Y23624D01*
X485060D01*
X486820Y24353D01*
X488168Y25700D01*
X488897Y27461D01*
Y29366D01*
X488168Y31127D01*
X486820Y32474D01*
X485060Y33204D01*
D02*
G37*
G36*
X327080Y28887D02*
X325174D01*
X323413Y28157D01*
X322066Y26810D01*
X321337Y25050D01*
Y23144D01*
X322066Y21383D01*
X323413Y20036D01*
X325174Y19307D01*
X327080D01*
X328840Y20036D01*
X330187Y21383D01*
X330917Y23144D01*
Y25050D01*
X330187Y26810D01*
X328840Y28157D01*
X327080Y28887D01*
D02*
G37*
%LPD*%
D76*
X209200Y15000D02*
D03*
X122800D02*
D03*
D77*
X122800Y56800D02*
D03*
X209200D02*
D03*
D78*
X445000Y230000D02*
D03*
X418500Y21000D02*
D03*
X635000Y425000D02*
D03*
X25000D02*
D03*
D79*
X488350Y60250D02*
D03*
X513750D02*
D03*
X595550D02*
D03*
X620950D02*
D03*
X599100Y164350D02*
D03*
X586400Y189750D02*
D03*
X573700Y164350D02*
D03*
X561000Y189750D02*
D03*
X548300Y164350D02*
D03*
X535600Y189750D02*
D03*
X522900Y164350D02*
D03*
X510200Y189750D02*
D03*
X497500Y164350D02*
D03*
D80*
X611800Y189750D02*
D03*
D81*
Y100850D02*
D03*
X497500D02*
D03*
D82*
X632400Y131350D02*
D03*
X476900D02*
D03*
D83*
X285000Y123120D02*
D03*
X335000D02*
D03*
D84*
X365000Y23120D02*
D03*
X255000D02*
D03*
D85*
X631079Y297560D02*
D03*
D86*
Y322960D02*
D03*
Y348360D02*
D03*
Y373760D02*
D03*
D87*
X555000Y387750D02*
D03*
X538817Y371716D02*
D03*
X533000Y367750D02*
D03*
X379750Y401500D02*
D03*
X525397Y368000D02*
D03*
X556500Y401000D02*
D03*
X525500Y376250D02*
D03*
Y384000D02*
D03*
X360500Y318000D02*
D03*
Y311250D02*
D03*
X360250Y304290D02*
D03*
X360595Y325091D02*
D03*
X360540Y331500D02*
D03*
X360750Y338750D02*
D03*
X558750Y363750D02*
D03*
X537250Y346500D02*
D03*
X334000Y338750D02*
D03*
X359750Y206250D02*
D03*
X525750Y328000D02*
D03*
X341750Y345210D02*
D03*
X334500Y344500D02*
D03*
X360960Y344750D02*
D03*
X334500Y308152D02*
D03*
X463750Y388000D02*
D03*
X472750Y396250D02*
D03*
X481500Y402250D02*
D03*
X446500Y379000D02*
D03*
X218500Y374500D02*
D03*
X209250Y363000D02*
D03*
X205500Y350000D02*
D03*
X207000Y328000D02*
D03*
X328750Y245250D02*
D03*
X326540Y339000D02*
D03*
X326750Y332750D02*
D03*
X327000Y320500D02*
D03*
X326540Y307500D02*
D03*
X326750Y313750D02*
D03*
X326858Y326843D02*
D03*
X326560Y345243D02*
D03*
X341717Y339210D02*
D03*
X342036Y314090D02*
D03*
Y320340D02*
D03*
X342178Y307497D02*
D03*
X341691Y332999D02*
D03*
X342036Y326590D02*
D03*
X334536Y314090D02*
D03*
Y320340D02*
D03*
X334191Y332999D02*
D03*
X334536Y326590D02*
D03*
X330105Y268002D02*
D03*
X257750Y385250D02*
D03*
X250407Y385261D02*
D03*
X277994Y249897D02*
D03*
X270494D02*
D03*
X262745D02*
D03*
X254995D02*
D03*
X247495D02*
D03*
X250750Y230500D02*
D03*
X233374Y240124D02*
D03*
X226335Y239987D02*
D03*
X241000Y235500D02*
D03*
X423591Y340942D02*
D03*
X423841Y371192D02*
D03*
X413091Y340442D02*
D03*
X423750Y357000D02*
D03*
Y363750D02*
D03*
X413000Y357250D02*
D03*
X404417Y279809D02*
D03*
X387500Y282000D02*
D03*
X371750Y273000D02*
D03*
X318482Y363000D02*
D03*
X484107Y28414D02*
D03*
X496250Y32250D02*
D03*
X547250Y42500D02*
D03*
X524022Y42213D02*
D03*
X240250Y211750D02*
D03*
X231250Y219500D02*
D03*
X231750Y211750D02*
D03*
X214750Y300250D02*
D03*
X214000Y285500D02*
D03*
X209500Y270750D02*
D03*
X278000Y364750D02*
D03*
X547438Y323000D02*
D03*
X555438Y372000D02*
D03*
X525750Y344000D02*
D03*
Y352000D02*
D03*
Y360000D02*
D03*
X393000Y341250D02*
D03*
X401750Y311152D02*
D03*
X451750Y387750D02*
D03*
X283000Y311500D02*
D03*
X292000Y352750D02*
D03*
X304964Y362042D02*
D03*
X296000Y328750D02*
D03*
X273250Y339500D02*
D03*
X273500Y349250D02*
D03*
X343000Y366500D02*
D03*
X336500Y373250D02*
D03*
X356250Y366750D02*
D03*
X315750Y276000D02*
D03*
X343500Y246250D02*
D03*
X379000Y240250D02*
D03*
X364500Y240500D02*
D03*
X392000D02*
D03*
X405000Y240000D02*
D03*
X257750Y323750D02*
D03*
X392316Y326130D02*
D03*
X347750Y278500D02*
D03*
X298122Y160753D02*
D03*
X297750Y151000D02*
D03*
X298000Y141750D02*
D03*
X307040Y131660D02*
D03*
X307290Y122410D02*
D03*
X307250Y112250D02*
D03*
X278000Y142000D02*
D03*
X278500Y151000D02*
D03*
X278250Y160250D02*
D03*
X292250Y59750D02*
D03*
X326127Y24097D02*
D03*
X399250Y20500D02*
D03*
X399000Y10750D02*
D03*
X206500Y242750D02*
D03*
X190500D02*
D03*
X198750Y242750D02*
D03*
X198719Y234957D02*
D03*
X190469Y234957D02*
D03*
X206469D02*
D03*
X215000Y235000D02*
D03*
X223031Y227043D02*
D03*
X215031Y227043D02*
D03*
X206500Y227000D02*
D03*
X190500D02*
D03*
X198750Y227000D02*
D03*
Y219250D02*
D03*
X190500Y219250D02*
D03*
X206750Y219250D02*
D03*
Y211500D02*
D03*
X190250Y211250D02*
D03*
X198500Y211250D02*
D03*
X215000Y219250D02*
D03*
X223000Y219250D02*
D03*
X215250Y211500D02*
D03*
X223500Y211500D02*
D03*
X192960Y124000D02*
D03*
Y114250D02*
D03*
X179250Y124000D02*
D03*
Y114000D02*
D03*
Y134000D02*
D03*
X165939Y396373D02*
D03*
X173750Y396500D02*
D03*
X165750Y404250D02*
D03*
X173750D02*
D03*
X157000D02*
D03*
X149000D02*
D03*
X157000Y396500D02*
D03*
X149189Y396373D02*
D03*
X140500Y404250D02*
D03*
X99000Y271000D02*
D03*
X107000Y271000D02*
D03*
X36500Y230500D02*
D03*
X91500Y271000D02*
D03*
X68095Y275564D02*
D03*
X24845Y275314D02*
D03*
X32845D02*
D03*
X41345D02*
D03*
X59595Y275564D02*
D03*
X50595Y275314D02*
D03*
X50750Y267750D02*
D03*
X59750Y268000D02*
D03*
X41500Y267750D02*
D03*
X33000D02*
D03*
X25000D02*
D03*
X68250Y268000D02*
D03*
X68000Y260750D02*
D03*
X59750D02*
D03*
X50750D02*
D03*
X91250Y257750D02*
D03*
X85000Y147250D02*
D03*
X91000Y153000D02*
D03*
X50750Y254250D02*
D03*
X237013Y152159D02*
D03*
X145000Y155500D02*
D03*
X266750Y418500D02*
D03*
X120250Y138902D02*
D03*
X177250Y16000D02*
D03*
X177000Y8750D02*
D03*
X132103Y122398D02*
D03*
X144750Y134250D02*
D03*
X137250Y134140D02*
D03*
X186250Y124000D02*
D03*
Y134000D02*
D03*
Y114000D02*
D03*
X173290Y77990D02*
D03*
X446231Y10484D02*
D03*
X446481Y20234D02*
D03*
Y30484D02*
D03*
X257717Y151449D02*
D03*
X257750Y142750D02*
D03*
X258000Y131000D02*
D03*
X257500Y117750D02*
D03*
X288500Y160500D02*
D03*
X91250Y264000D02*
D03*
X106500Y251250D02*
D03*
X106750Y264000D02*
D03*
Y257750D02*
D03*
X99250Y257500D02*
D03*
Y264000D02*
D03*
Y251000D02*
D03*
X59750Y254000D02*
D03*
X278250Y420000D02*
D03*
X132500Y404250D02*
D03*
X124250Y404500D02*
D03*
X116311Y404627D02*
D03*
X153904Y155596D02*
D03*
X145000Y147500D02*
D03*
X153750Y147250D02*
D03*
X124250Y123250D02*
D03*
X116750D02*
D03*
X411250Y171250D02*
D03*
X429250Y171000D02*
D03*
X421250Y170750D02*
D03*
X326750Y38000D02*
D03*
X319000Y37750D02*
D03*
X329500Y50500D02*
D03*
X399250Y30750D02*
D03*
X340500Y39500D02*
D03*
X524500Y130250D02*
D03*
X563250D02*
D03*
X140500Y396500D02*
D03*
X116500Y396750D02*
D03*
X124439Y396623D02*
D03*
X132689Y396373D02*
D03*
X306790Y160410D02*
D03*
X268250Y118750D02*
D03*
X267750Y131250D02*
D03*
Y151250D02*
D03*
X288250Y151000D02*
D03*
X307040Y151160D02*
D03*
X307000Y141750D02*
D03*
X288750D02*
D03*
X268000Y142000D02*
D03*
X343750Y49750D02*
D03*
X135500Y147500D02*
D03*
X193000Y134000D02*
D03*
X293250Y40750D02*
D03*
X310750Y37750D02*
D03*
X411250Y153750D02*
D03*
X429750Y162500D02*
D03*
X421250D02*
D03*
X429750Y153750D02*
D03*
X411500Y163000D02*
D03*
X421000Y154500D02*
D03*
X212000Y89000D02*
D03*
D88*
X48750Y189000D02*
D03*
X115000Y236500D02*
D03*
X114750Y285250D02*
D03*
X315316Y81813D02*
D03*
X383500Y99000D02*
D03*
X107000Y47000D02*
D03*
M02*
